G75*
%MOIN*%
%OFA0B0*%
%FSLAX25Y25*%
%IPPOS*%
%LPD*%
%AMOC8*
5,1,8,0,0,1.08239X$1,22.5*
%
%ADD10C,0.00100*%
%ADD11C,0.00500*%
%ADD12C,0.00300*%
%ADD13C,0.00200*%
%ADD14C,0.00039*%
D10*
X0009000Y0020119D02*
X0009000Y0118119D01*
X0258000Y0118119D01*
X0258000Y0020119D01*
X0009000Y0020119D01*
D11*
X0020250Y0029369D02*
X0020250Y0030269D01*
X0020250Y0029819D02*
X0022952Y0029819D01*
X0022952Y0029369D01*
X0025250Y0030269D02*
X0026151Y0029369D01*
X0027052Y0029369D01*
X0027952Y0030269D01*
X0026601Y0031333D02*
X0025700Y0031333D01*
X0025250Y0031783D01*
X0025250Y0033135D01*
X0025250Y0034280D02*
X0026151Y0035180D01*
X0027052Y0035180D01*
X0027952Y0034280D01*
X0027052Y0033135D02*
X0027052Y0031783D01*
X0026601Y0031333D01*
X0030250Y0032766D02*
X0030700Y0032315D01*
X0031151Y0032766D01*
X0031151Y0034117D01*
X0031601Y0034117D02*
X0030250Y0034117D01*
X0030250Y0032766D01*
X0032052Y0032766D02*
X0032052Y0033666D01*
X0031601Y0034117D01*
X0031151Y0035262D02*
X0032052Y0036162D01*
X0032052Y0036613D01*
X0032052Y0035262D02*
X0030250Y0035262D01*
X0030250Y0037717D02*
X0032952Y0037717D01*
X0032052Y0039068D02*
X0031151Y0037717D01*
X0030250Y0039068D01*
X0030700Y0040173D02*
X0031601Y0040173D01*
X0032052Y0040623D01*
X0032052Y0041524D01*
X0031601Y0041974D01*
X0031151Y0041974D01*
X0031151Y0040173D01*
X0030700Y0040173D02*
X0030250Y0040623D01*
X0030250Y0041524D01*
X0030250Y0043119D02*
X0032052Y0043119D01*
X0031151Y0043119D02*
X0032052Y0044020D01*
X0032052Y0044470D01*
X0027952Y0043488D02*
X0027952Y0042587D01*
X0027502Y0042137D01*
X0025700Y0042137D01*
X0027502Y0043938D01*
X0025700Y0043938D01*
X0025250Y0043488D01*
X0025250Y0042587D01*
X0025700Y0042137D01*
X0025250Y0040992D02*
X0025250Y0039190D01*
X0027052Y0040992D01*
X0027502Y0040992D01*
X0027952Y0040542D01*
X0027952Y0039641D01*
X0027502Y0039190D01*
X0022952Y0040173D02*
X0020250Y0040173D01*
X0020250Y0039028D02*
X0020250Y0037676D01*
X0020700Y0037226D01*
X0021601Y0037226D01*
X0022052Y0037676D01*
X0022052Y0039028D01*
X0019800Y0039028D01*
X0019349Y0038577D01*
X0019349Y0038127D01*
X0020250Y0036081D02*
X0021601Y0036081D01*
X0022052Y0035631D01*
X0022052Y0034280D01*
X0020250Y0034280D01*
X0020700Y0033135D02*
X0021601Y0033135D01*
X0022052Y0032684D01*
X0022052Y0031783D01*
X0021601Y0031333D01*
X0020700Y0031333D01*
X0020250Y0031783D01*
X0020250Y0032684D01*
X0020700Y0033135D01*
X0030250Y0029369D02*
X0032952Y0029369D01*
X0032952Y0030720D01*
X0032502Y0031170D01*
X0031601Y0031170D01*
X0031151Y0030720D01*
X0031151Y0029369D01*
X0021601Y0040173D02*
X0022052Y0040623D01*
X0022052Y0041524D01*
X0021601Y0041974D01*
X0020250Y0041974D01*
X0020700Y0043119D02*
X0020250Y0043569D01*
X0020250Y0044470D01*
X0020700Y0044921D01*
X0021601Y0044921D01*
X0022052Y0044470D01*
X0022052Y0043569D01*
X0021601Y0043119D01*
X0020700Y0043119D01*
X0025250Y0045083D02*
X0025250Y0046885D01*
X0025250Y0045984D02*
X0027952Y0045984D01*
X0027052Y0045083D01*
X0027502Y0043938D02*
X0027952Y0043488D01*
X0022052Y0046066D02*
X0020250Y0046066D01*
X0021151Y0046066D02*
X0022052Y0046966D01*
X0022052Y0047417D01*
X0022052Y0048521D02*
X0022052Y0049872D01*
X0021601Y0050323D01*
X0020250Y0050323D01*
X0020700Y0051468D02*
X0021601Y0051468D01*
X0022052Y0051918D01*
X0022052Y0052819D01*
X0021601Y0053269D01*
X0021151Y0053269D01*
X0021151Y0051468D01*
X0020700Y0051468D02*
X0020250Y0051918D01*
X0020250Y0052819D01*
X0025250Y0053923D02*
X0025250Y0055725D01*
X0025700Y0056870D02*
X0025250Y0057320D01*
X0025250Y0058221D01*
X0025700Y0058671D01*
X0026601Y0058671D01*
X0027052Y0058221D01*
X0027052Y0057320D01*
X0026601Y0056870D01*
X0025700Y0056870D01*
X0030250Y0057361D02*
X0032052Y0057361D01*
X0032052Y0057811D01*
X0031601Y0058261D01*
X0032052Y0058712D01*
X0031601Y0059162D01*
X0030250Y0059162D01*
X0030250Y0058261D02*
X0031601Y0058261D01*
X0030700Y0060307D02*
X0031151Y0060757D01*
X0031151Y0062109D01*
X0031601Y0062109D02*
X0030250Y0062109D01*
X0030250Y0060757D01*
X0030700Y0060307D01*
X0032052Y0060757D02*
X0032052Y0061658D01*
X0031601Y0062109D01*
X0032052Y0063254D02*
X0030250Y0063254D01*
X0032052Y0063254D02*
X0032052Y0064605D01*
X0031601Y0065055D01*
X0030250Y0065055D01*
X0030250Y0066200D02*
X0032052Y0066200D01*
X0032052Y0067551D01*
X0031601Y0068002D01*
X0030250Y0068002D01*
X0027052Y0067060D02*
X0026601Y0067511D01*
X0025250Y0067511D01*
X0025700Y0068656D02*
X0025250Y0069106D01*
X0025250Y0070007D01*
X0025700Y0070457D01*
X0026601Y0070457D01*
X0027052Y0070007D01*
X0027052Y0069106D01*
X0026601Y0068656D01*
X0025700Y0068656D01*
X0027052Y0067060D02*
X0027052Y0066159D01*
X0026601Y0065709D01*
X0027052Y0064564D02*
X0024800Y0064564D01*
X0024349Y0064114D01*
X0024349Y0063663D01*
X0025250Y0063213D02*
X0025250Y0064564D01*
X0025250Y0065709D02*
X0027952Y0065709D01*
X0027052Y0064564D02*
X0027052Y0063213D01*
X0026601Y0062763D01*
X0025700Y0062763D01*
X0025250Y0063213D01*
X0025250Y0061618D02*
X0026601Y0061618D01*
X0027052Y0061167D01*
X0027052Y0059816D01*
X0025250Y0059816D01*
X0023403Y0060757D02*
X0022952Y0060757D01*
X0022052Y0060757D02*
X0020250Y0060757D01*
X0020250Y0060307D02*
X0020250Y0061208D01*
X0020250Y0062271D02*
X0022052Y0062271D01*
X0022052Y0063623D01*
X0021601Y0064073D01*
X0020250Y0064073D01*
X0020700Y0065218D02*
X0021601Y0065218D01*
X0022052Y0065668D01*
X0022052Y0066569D01*
X0021601Y0067020D01*
X0021151Y0067020D01*
X0021151Y0065218D01*
X0020700Y0065218D02*
X0020250Y0065668D01*
X0020250Y0066569D01*
X0020700Y0068164D02*
X0021601Y0068164D01*
X0022052Y0068615D01*
X0022052Y0069516D01*
X0021601Y0069966D01*
X0021151Y0069966D01*
X0021151Y0068164D01*
X0020700Y0068164D02*
X0020250Y0068615D01*
X0020250Y0069516D01*
X0020250Y0071111D02*
X0022052Y0071111D01*
X0022052Y0072012D02*
X0022052Y0072462D01*
X0022052Y0072012D02*
X0021151Y0071111D01*
X0025250Y0071602D02*
X0027052Y0071602D01*
X0026151Y0071602D02*
X0027052Y0072503D01*
X0027052Y0072953D01*
X0027052Y0074058D02*
X0025250Y0074058D01*
X0027052Y0074058D02*
X0027052Y0075409D01*
X0026601Y0075859D01*
X0025250Y0075859D01*
X0022052Y0075490D02*
X0021601Y0075040D01*
X0020700Y0075040D01*
X0020250Y0075490D01*
X0020250Y0076841D01*
X0020700Y0077986D02*
X0020250Y0078437D01*
X0020250Y0079337D01*
X0020700Y0079788D01*
X0021601Y0079788D01*
X0022052Y0079337D01*
X0022052Y0078437D01*
X0021601Y0077986D01*
X0020700Y0077986D01*
X0022052Y0076841D02*
X0022052Y0075490D01*
X0020700Y0074017D02*
X0020250Y0074017D01*
X0020250Y0073566D01*
X0020700Y0073566D01*
X0020700Y0074017D01*
X0025250Y0079951D02*
X0025250Y0081752D01*
X0025250Y0082897D02*
X0027052Y0082897D01*
X0027052Y0084248D01*
X0026601Y0084699D01*
X0025250Y0084699D01*
X0025700Y0085844D02*
X0025250Y0086294D01*
X0025250Y0087645D01*
X0024800Y0087645D02*
X0027052Y0087645D01*
X0027052Y0086294D01*
X0026601Y0085844D01*
X0025700Y0085844D01*
X0024349Y0086744D02*
X0024349Y0087195D01*
X0024800Y0087645D01*
X0025250Y0088790D02*
X0025250Y0089691D01*
X0025250Y0089241D02*
X0027052Y0089241D01*
X0027052Y0088790D01*
X0027952Y0089241D02*
X0028403Y0089241D01*
X0027052Y0090754D02*
X0027052Y0092106D01*
X0026601Y0092556D01*
X0025250Y0092556D01*
X0025700Y0093701D02*
X0026601Y0093701D01*
X0027052Y0094151D01*
X0027052Y0095052D01*
X0026601Y0095503D01*
X0026151Y0095503D01*
X0026151Y0093701D01*
X0025700Y0093701D02*
X0025250Y0094151D01*
X0025250Y0095052D01*
X0025700Y0096648D02*
X0025250Y0097098D01*
X0025250Y0097999D01*
X0026151Y0098449D02*
X0026151Y0096648D01*
X0026601Y0096648D02*
X0027052Y0097098D01*
X0027052Y0097999D01*
X0026601Y0098449D01*
X0026151Y0098449D01*
X0026151Y0099594D02*
X0027052Y0100495D01*
X0027052Y0100945D01*
X0027052Y0099594D02*
X0025250Y0099594D01*
X0025700Y0096648D02*
X0026601Y0096648D01*
X0027052Y0090754D02*
X0025250Y0090754D01*
X0021601Y0082734D02*
X0020250Y0082734D01*
X0020250Y0081833D02*
X0021601Y0081833D01*
X0022052Y0082284D01*
X0021601Y0082734D01*
X0021601Y0081833D02*
X0022052Y0081383D01*
X0022052Y0080933D01*
X0020250Y0080933D01*
X0025250Y0079951D02*
X0027952Y0079951D01*
X0027952Y0081752D01*
X0026601Y0080851D02*
X0026601Y0079951D01*
X0052126Y0074993D02*
X0052126Y0073024D01*
X0052126Y0074993D02*
X0054094Y0074993D01*
X0065906Y0074993D02*
X0067874Y0074993D01*
X0067874Y0073024D01*
X0088752Y0078961D02*
X0103063Y0078961D01*
X0103063Y0075024D01*
X0110937Y0075024D01*
X0110937Y0078961D01*
X0103063Y0078961D01*
X0110937Y0078961D02*
X0125248Y0078961D01*
X0125248Y0059276D01*
X0088752Y0059276D01*
X0088752Y0078961D01*
X0108327Y0084382D02*
X0108327Y0085957D01*
X0108327Y0084382D02*
X0136673Y0084382D01*
X0136673Y0085957D01*
X0139705Y0085008D02*
X0139705Y0071229D01*
X0165295Y0071229D01*
X0165295Y0085008D01*
X0139705Y0085008D01*
X0129673Y0077554D02*
X0129435Y0077791D01*
X0129151Y0077970D01*
X0128834Y0078081D01*
X0128500Y0078119D01*
X0128166Y0078081D01*
X0127849Y0077970D01*
X0127565Y0077791D01*
X0127327Y0077554D01*
X0127149Y0077270D01*
X0127038Y0076952D01*
X0127000Y0076619D01*
X0127038Y0076285D01*
X0127149Y0075968D01*
X0127327Y0075683D01*
X0127565Y0075446D01*
X0127849Y0075267D01*
X0128166Y0075156D01*
X0128500Y0075119D01*
X0128834Y0075156D01*
X0129151Y0075267D01*
X0129435Y0075446D01*
X0129673Y0075683D01*
X0129851Y0075968D01*
X0129962Y0076285D01*
X0130000Y0076619D01*
X0129962Y0076952D01*
X0129851Y0077270D01*
X0129673Y0077554D01*
X0129740Y0077447D02*
X0127260Y0077447D01*
X0127037Y0076949D02*
X0129963Y0076949D01*
X0129981Y0076450D02*
X0127019Y0076450D01*
X0127159Y0075952D02*
X0129841Y0075952D01*
X0129443Y0075453D02*
X0127557Y0075453D01*
X0127811Y0077946D02*
X0129189Y0077946D01*
X0136673Y0093831D02*
X0136673Y0095406D01*
X0136673Y0103280D02*
X0136673Y0104855D01*
X0108327Y0104855D01*
X0108327Y0103280D01*
X0108327Y0095406D02*
X0108327Y0093831D01*
X0172669Y0061780D02*
X0181331Y0061780D01*
X0181331Y0044457D01*
X0172669Y0044457D01*
X0172669Y0061780D01*
X0186756Y0062229D02*
X0186756Y0060260D01*
X0186756Y0054355D02*
X0186756Y0052386D01*
X0186756Y0045497D02*
X0186756Y0037623D01*
X0194630Y0037623D01*
X0201520Y0037623D02*
X0203488Y0037623D01*
X0209394Y0037623D02*
X0211362Y0037623D01*
X0217268Y0037623D02*
X0219236Y0037623D01*
X0225142Y0037623D02*
X0227110Y0037623D01*
X0233016Y0037623D02*
X0234984Y0037623D01*
X0240890Y0037623D02*
X0242858Y0037623D01*
X0248764Y0037623D02*
X0250732Y0037623D01*
X0257622Y0037623D02*
X0281244Y0037623D01*
X0281244Y0100615D01*
X0257622Y0100615D01*
X0250732Y0100615D02*
X0248764Y0100615D01*
X0242858Y0100615D02*
X0240890Y0100615D01*
X0234984Y0100615D02*
X0233016Y0100615D01*
X0227110Y0100615D02*
X0225142Y0100615D01*
X0219236Y0100615D02*
X0217268Y0100615D01*
X0211362Y0100615D02*
X0209394Y0100615D01*
X0203488Y0100615D02*
X0201520Y0100615D01*
X0194630Y0100615D02*
X0186756Y0100615D01*
X0186756Y0092741D01*
X0186756Y0085851D02*
X0186756Y0083882D01*
X0186756Y0077977D02*
X0186756Y0076008D01*
X0186756Y0070103D02*
X0186756Y0068134D01*
X0155831Y0059780D02*
X0155831Y0042457D01*
X0147169Y0042457D01*
X0147169Y0059780D01*
X0155831Y0059780D01*
X0146831Y0059780D02*
X0146831Y0042457D01*
X0138169Y0042457D01*
X0138169Y0059780D01*
X0146831Y0059780D01*
X0067874Y0060000D02*
X0065906Y0060000D01*
X0065906Y0060498D02*
X0067874Y0060498D01*
X0067874Y0060997D02*
X0065906Y0060997D01*
X0065906Y0061213D02*
X0067874Y0061213D01*
X0067874Y0059245D01*
X0065906Y0059245D01*
X0065906Y0061213D01*
X0065906Y0059245D01*
X0067874Y0059245D01*
X0067874Y0061213D01*
X0065906Y0061213D01*
X0065906Y0059501D02*
X0067874Y0059501D01*
X0054094Y0059245D02*
X0052126Y0059245D01*
X0052126Y0061213D01*
X0032952Y0055847D02*
X0030250Y0055847D01*
X0030250Y0056297D02*
X0030250Y0055396D01*
X0030250Y0054333D02*
X0030250Y0053432D01*
X0030250Y0053882D02*
X0032952Y0053882D01*
X0032952Y0053432D01*
X0032952Y0051918D02*
X0033403Y0051918D01*
X0032052Y0051918D02*
X0030250Y0051918D01*
X0030250Y0051468D02*
X0030250Y0052368D01*
X0032052Y0051918D02*
X0032052Y0051468D01*
X0032502Y0050323D02*
X0030700Y0050323D01*
X0030250Y0049872D01*
X0030250Y0048521D01*
X0032952Y0048521D01*
X0032952Y0049872D01*
X0032502Y0050323D01*
X0027952Y0049831D02*
X0027502Y0048931D01*
X0026601Y0048030D01*
X0026601Y0049381D01*
X0026151Y0049831D01*
X0025700Y0049831D01*
X0025250Y0049381D01*
X0025250Y0048480D01*
X0025700Y0048030D01*
X0026601Y0048030D01*
X0022052Y0048521D02*
X0020250Y0048521D01*
X0025250Y0053923D02*
X0027952Y0053923D01*
X0032952Y0055396D02*
X0032952Y0055847D01*
X0022052Y0055765D02*
X0022052Y0054414D01*
X0020250Y0054414D01*
X0020250Y0056216D02*
X0021601Y0056216D01*
X0022052Y0055765D01*
X0021601Y0057361D02*
X0020700Y0057361D01*
X0020250Y0057811D01*
X0020250Y0059162D01*
X0019800Y0059162D02*
X0022052Y0059162D01*
X0022052Y0057811D01*
X0021601Y0057361D01*
X0019349Y0058261D02*
X0019349Y0058712D01*
X0019800Y0059162D01*
X0022052Y0060307D02*
X0022052Y0060757D01*
D12*
X0031999Y0071319D02*
X0033934Y0071319D01*
X0031999Y0073254D01*
X0031999Y0073737D01*
X0032483Y0074221D01*
X0033451Y0074221D01*
X0033934Y0073737D01*
X0034946Y0073737D02*
X0035430Y0074221D01*
X0036397Y0074221D01*
X0036881Y0073737D01*
X0036881Y0071802D01*
X0036397Y0071319D01*
X0035430Y0071319D01*
X0034946Y0071802D01*
X0063969Y0077519D02*
X0065903Y0077519D01*
X0063969Y0079454D01*
X0063969Y0079937D01*
X0064452Y0080421D01*
X0065420Y0080421D01*
X0065903Y0079937D01*
X0066915Y0080421D02*
X0066915Y0078002D01*
X0067399Y0077519D01*
X0068366Y0077519D01*
X0068850Y0078002D01*
X0068850Y0080421D01*
X0079768Y0080465D02*
X0080251Y0079981D01*
X0081219Y0079981D01*
X0081703Y0080465D01*
X0082714Y0079981D02*
X0083682Y0080949D01*
X0083198Y0080949D02*
X0084649Y0080949D01*
X0084649Y0079981D02*
X0084649Y0082884D01*
X0083198Y0082884D01*
X0082714Y0082400D01*
X0082714Y0081433D01*
X0083198Y0080949D01*
X0081703Y0082400D02*
X0081219Y0082884D01*
X0080251Y0082884D01*
X0079768Y0082400D01*
X0079768Y0081916D01*
X0080251Y0081433D01*
X0079768Y0080949D01*
X0079768Y0080465D01*
X0080251Y0081433D02*
X0080735Y0081433D01*
X0062327Y0088802D02*
X0061844Y0088319D01*
X0060876Y0088319D01*
X0060392Y0088802D01*
X0059381Y0088319D02*
X0057446Y0088319D01*
X0058413Y0088319D02*
X0058413Y0091221D01*
X0059381Y0090254D01*
X0060392Y0090737D02*
X0060876Y0091221D01*
X0061844Y0091221D01*
X0062327Y0090737D01*
X0062327Y0088802D01*
X0056434Y0088802D02*
X0055951Y0088319D01*
X0054983Y0088319D01*
X0054499Y0088802D01*
X0054499Y0089286D01*
X0054983Y0089770D01*
X0055467Y0089770D01*
X0054983Y0089770D02*
X0054499Y0090254D01*
X0054499Y0090737D01*
X0054983Y0091221D01*
X0055951Y0091221D01*
X0056434Y0090737D01*
X0042212Y0089986D02*
X0040761Y0089986D01*
X0040277Y0090470D01*
X0040277Y0091437D01*
X0040761Y0091921D01*
X0042212Y0091921D01*
X0042212Y0089019D01*
X0041245Y0089986D02*
X0040277Y0089019D01*
X0039266Y0089019D02*
X0037331Y0089019D01*
X0038298Y0089019D02*
X0038298Y0091921D01*
X0039266Y0090954D01*
X0036319Y0090470D02*
X0036319Y0091921D01*
X0034384Y0091921D01*
X0034868Y0090954D02*
X0034384Y0090470D01*
X0034384Y0089502D01*
X0034868Y0089019D01*
X0035835Y0089019D01*
X0036319Y0089502D01*
X0036319Y0090470D02*
X0035352Y0090954D01*
X0034868Y0090954D01*
X0076483Y0073221D02*
X0077934Y0071770D01*
X0075999Y0071770D01*
X0076483Y0070319D02*
X0076483Y0073221D01*
X0078946Y0072737D02*
X0078946Y0071770D01*
X0079430Y0071286D01*
X0080881Y0071286D01*
X0080881Y0070319D02*
X0080881Y0073221D01*
X0079430Y0073221D01*
X0078946Y0072737D01*
X0079913Y0071286D02*
X0078946Y0070319D01*
X0092295Y0057888D02*
X0093746Y0056436D01*
X0091811Y0056436D01*
X0092295Y0054985D02*
X0092295Y0057888D01*
X0094758Y0057888D02*
X0094758Y0055469D01*
X0095241Y0054985D01*
X0096209Y0054985D01*
X0096693Y0055469D01*
X0096693Y0057888D01*
X0081881Y0056221D02*
X0081881Y0053319D01*
X0081881Y0054286D02*
X0080430Y0054286D01*
X0079946Y0054770D01*
X0079946Y0055737D01*
X0080430Y0056221D01*
X0081881Y0056221D01*
X0080913Y0054286D02*
X0079946Y0053319D01*
X0078934Y0053802D02*
X0078451Y0053319D01*
X0077483Y0053319D01*
X0076999Y0053802D01*
X0076999Y0054770D01*
X0077483Y0055254D01*
X0077967Y0055254D01*
X0078934Y0054770D01*
X0078934Y0056221D01*
X0076999Y0056221D01*
X0133200Y0042636D02*
X0133200Y0041668D01*
X0133684Y0041184D01*
X0135619Y0043119D01*
X0133684Y0043119D01*
X0133200Y0042636D01*
X0133684Y0041184D02*
X0135619Y0041184D01*
X0136102Y0041668D01*
X0136102Y0042636D01*
X0135619Y0043119D01*
X0133200Y0040173D02*
X0133200Y0038238D01*
X0133200Y0039205D02*
X0136102Y0039205D01*
X0135135Y0038238D01*
X0135619Y0037226D02*
X0136102Y0036743D01*
X0136102Y0035775D01*
X0135619Y0035291D01*
X0133684Y0035291D01*
X0133200Y0035775D01*
X0133200Y0036743D01*
X0133684Y0037226D01*
X0141332Y0037488D02*
X0141332Y0036521D01*
X0141816Y0036037D01*
X0143751Y0036037D01*
X0144234Y0036521D01*
X0144234Y0037488D01*
X0143751Y0037972D01*
X0143751Y0038984D02*
X0143267Y0038984D01*
X0142783Y0039467D01*
X0142783Y0040435D01*
X0142299Y0040919D01*
X0141816Y0040919D01*
X0141332Y0040435D01*
X0141332Y0039467D01*
X0141816Y0038984D01*
X0142299Y0038984D01*
X0142783Y0039467D01*
X0142783Y0040435D02*
X0143267Y0040919D01*
X0143751Y0040919D01*
X0144234Y0040435D01*
X0144234Y0039467D01*
X0143751Y0038984D01*
X0141816Y0037972D02*
X0141332Y0037488D01*
X0150332Y0037488D02*
X0150332Y0036521D01*
X0150816Y0036037D01*
X0152751Y0036037D01*
X0153234Y0036521D01*
X0153234Y0037488D01*
X0152751Y0037972D01*
X0152751Y0038984D02*
X0152267Y0038984D01*
X0151783Y0039467D01*
X0151783Y0040919D01*
X0150816Y0040919D02*
X0152751Y0040919D01*
X0153234Y0040435D01*
X0153234Y0039467D01*
X0152751Y0038984D01*
X0150816Y0038984D02*
X0150332Y0039467D01*
X0150332Y0040435D01*
X0150816Y0040919D01*
X0150816Y0037972D02*
X0150332Y0037488D01*
X0158200Y0036743D02*
X0158200Y0035775D01*
X0158684Y0035291D01*
X0160619Y0035291D01*
X0161102Y0035775D01*
X0161102Y0036743D01*
X0160619Y0037226D01*
X0160135Y0038238D02*
X0161102Y0039205D01*
X0158200Y0039205D01*
X0158200Y0038238D02*
X0158200Y0040173D01*
X0158200Y0041184D02*
X0158200Y0043119D01*
X0158200Y0042152D02*
X0161102Y0042152D01*
X0160135Y0041184D01*
X0165062Y0041487D02*
X0165062Y0039552D01*
X0165545Y0039069D01*
X0166513Y0039069D01*
X0166997Y0039552D01*
X0165062Y0041487D01*
X0165545Y0041971D01*
X0166513Y0041971D01*
X0166997Y0041487D01*
X0166997Y0039552D01*
X0168008Y0039069D02*
X0169943Y0039069D01*
X0168008Y0041004D01*
X0168008Y0041487D01*
X0168492Y0041971D01*
X0169459Y0041971D01*
X0169943Y0041487D01*
X0170955Y0041487D02*
X0170955Y0040520D01*
X0171438Y0040036D01*
X0172890Y0040036D01*
X0172890Y0039069D02*
X0172890Y0041971D01*
X0171438Y0041971D01*
X0170955Y0041487D01*
X0171922Y0040036D02*
X0170955Y0039069D01*
X0171438Y0035971D02*
X0170955Y0035487D01*
X0170955Y0034520D01*
X0171438Y0034036D01*
X0172890Y0034036D01*
X0172890Y0033069D02*
X0172890Y0035971D01*
X0171438Y0035971D01*
X0169943Y0035487D02*
X0169459Y0035971D01*
X0168492Y0035971D01*
X0168008Y0035487D01*
X0168008Y0035004D01*
X0169943Y0033069D01*
X0168008Y0033069D01*
X0166997Y0033069D02*
X0165062Y0035004D01*
X0165062Y0035487D01*
X0165545Y0035971D01*
X0166513Y0035971D01*
X0166997Y0035487D01*
X0170955Y0033069D02*
X0171922Y0034036D01*
X0166997Y0033069D02*
X0165062Y0033069D01*
X0158684Y0037226D02*
X0158200Y0036743D01*
X0173167Y0063387D02*
X0174135Y0063387D01*
X0174618Y0063871D01*
X0172683Y0065806D01*
X0172683Y0063871D01*
X0173167Y0063387D01*
X0174618Y0063871D02*
X0174618Y0065806D01*
X0174135Y0066289D01*
X0173167Y0066289D01*
X0172683Y0065806D01*
X0175630Y0065806D02*
X0176114Y0066289D01*
X0177081Y0066289D01*
X0177565Y0065806D01*
X0178576Y0065806D02*
X0179060Y0066289D01*
X0180028Y0066289D01*
X0180511Y0065806D01*
X0180511Y0063871D01*
X0180028Y0063387D01*
X0179060Y0063387D01*
X0178576Y0063871D01*
X0177565Y0063387D02*
X0175630Y0065322D01*
X0175630Y0065806D01*
X0175630Y0063387D02*
X0177565Y0063387D01*
X0155662Y0096985D02*
X0154694Y0096985D01*
X0154210Y0097469D01*
X0154210Y0099888D01*
X0153199Y0098436D02*
X0151748Y0098436D01*
X0151264Y0097953D01*
X0151264Y0097469D01*
X0151748Y0096985D01*
X0152715Y0096985D01*
X0153199Y0097469D01*
X0153199Y0098436D01*
X0152231Y0099404D01*
X0151264Y0099888D01*
X0156145Y0099888D02*
X0156145Y0097469D01*
X0155662Y0096985D01*
X0175322Y0104269D02*
X0177257Y0104269D01*
X0176289Y0104269D02*
X0176289Y0107171D01*
X0177257Y0106204D01*
X0178269Y0106204D02*
X0178269Y0106687D01*
X0178752Y0107171D01*
X0179720Y0107171D01*
X0180203Y0106687D01*
X0181215Y0106687D02*
X0181215Y0105720D01*
X0181699Y0105236D01*
X0183150Y0105236D01*
X0183150Y0104269D02*
X0183150Y0107171D01*
X0181699Y0107171D01*
X0181215Y0106687D01*
X0182183Y0105236D02*
X0181215Y0104269D01*
X0180203Y0104269D02*
X0178269Y0106204D01*
X0178269Y0104269D02*
X0180203Y0104269D01*
X0162390Y0106552D02*
X0161906Y0106069D01*
X0160938Y0106069D01*
X0160455Y0106552D01*
X0159443Y0106069D02*
X0157508Y0108004D01*
X0157508Y0108487D01*
X0157992Y0108971D01*
X0158959Y0108971D01*
X0159443Y0108487D01*
X0160455Y0108487D02*
X0160938Y0108971D01*
X0161906Y0108971D01*
X0162390Y0108487D01*
X0162390Y0106552D01*
X0159443Y0106069D02*
X0157508Y0106069D01*
X0156497Y0106069D02*
X0154562Y0106069D01*
X0155529Y0106069D02*
X0155529Y0108971D01*
X0156497Y0108004D01*
X0136523Y0106580D02*
X0134588Y0109482D01*
X0133577Y0108515D02*
X0132609Y0109482D01*
X0132609Y0106580D01*
X0131642Y0106580D02*
X0133577Y0106580D01*
X0134588Y0106580D02*
X0136523Y0109482D01*
X0100827Y0099737D02*
X0100827Y0097802D01*
X0100344Y0097319D01*
X0099376Y0097319D01*
X0098892Y0097802D01*
X0097881Y0097319D02*
X0095946Y0097319D01*
X0096913Y0097319D02*
X0096913Y0100221D01*
X0097881Y0099254D01*
X0098892Y0099737D02*
X0099376Y0100221D01*
X0100344Y0100221D01*
X0100827Y0099737D01*
X0094934Y0099737D02*
X0094451Y0100221D01*
X0093483Y0100221D01*
X0092999Y0099737D01*
X0092999Y0099254D01*
X0094934Y0097319D01*
X0092999Y0097319D01*
X0091890Y0097356D02*
X0091890Y0100259D01*
X0090439Y0100259D01*
X0089955Y0099775D01*
X0089955Y0098807D01*
X0090439Y0098324D01*
X0091890Y0098324D01*
X0090923Y0098324D02*
X0089955Y0097356D01*
X0088944Y0097356D02*
X0087009Y0097356D01*
X0087976Y0097356D02*
X0087976Y0100259D01*
X0088944Y0099291D01*
X0085997Y0099291D02*
X0085997Y0099775D01*
X0085514Y0100259D01*
X0084546Y0100259D01*
X0084062Y0099775D01*
X0084062Y0099291D01*
X0084546Y0098807D01*
X0085514Y0098807D01*
X0085997Y0099291D01*
X0085514Y0098807D02*
X0085997Y0098324D01*
X0085997Y0097840D01*
X0085514Y0097356D01*
X0084546Y0097356D01*
X0084062Y0097840D01*
X0084062Y0098324D01*
X0084546Y0098807D01*
X0215465Y0105965D02*
X0215948Y0105481D01*
X0216916Y0105481D01*
X0217400Y0105965D01*
X0217400Y0106449D01*
X0216916Y0106933D01*
X0215948Y0106933D01*
X0215465Y0106449D01*
X0215465Y0105965D01*
X0215948Y0106933D02*
X0215465Y0107416D01*
X0215465Y0107900D01*
X0215948Y0108384D01*
X0216916Y0108384D01*
X0217400Y0107900D01*
X0217400Y0107416D01*
X0216916Y0106933D01*
X0218411Y0105965D02*
X0218895Y0105481D01*
X0219862Y0105481D01*
X0220346Y0105965D01*
X0220346Y0108384D01*
X0218411Y0108384D02*
X0218411Y0105965D01*
D13*
X0183300Y0103119D02*
X0183300Y0097119D01*
X0170700Y0097119D01*
X0170700Y0103119D01*
X0183300Y0103119D01*
X0170000Y0096819D02*
X0170000Y0109419D01*
X0164000Y0109419D01*
X0164000Y0096819D01*
X0170000Y0096819D01*
X0099000Y0096419D02*
X0099000Y0083819D01*
X0093000Y0083819D01*
X0093000Y0096419D01*
X0099000Y0096419D01*
X0092000Y0096419D02*
X0086000Y0096419D01*
X0086000Y0083819D01*
X0092000Y0083819D01*
X0092000Y0096419D01*
X0085000Y0096419D02*
X0079000Y0096419D01*
X0079000Y0083819D01*
X0085000Y0083819D01*
X0085000Y0096419D01*
X0064300Y0087619D02*
X0051700Y0087619D01*
X0051700Y0081619D01*
X0064300Y0081619D01*
X0064300Y0087619D01*
X0042800Y0093119D02*
X0042800Y0099119D01*
X0030200Y0099119D01*
X0030200Y0093119D01*
X0042800Y0093119D01*
X0042300Y0081119D02*
X0029700Y0081119D01*
X0029700Y0075119D01*
X0042300Y0075119D01*
X0042300Y0081119D01*
X0075700Y0069119D02*
X0075700Y0063119D01*
X0075700Y0057119D01*
X0088300Y0057119D01*
X0088300Y0063119D01*
X0075700Y0063119D01*
X0088300Y0063119D01*
X0088300Y0069119D01*
X0075700Y0069119D01*
X0132000Y0057419D02*
X0132000Y0044819D01*
X0138000Y0044819D01*
X0138000Y0057419D01*
X0132000Y0057419D01*
X0156000Y0057419D02*
X0162000Y0057419D01*
X0162000Y0044819D01*
X0156000Y0044819D01*
X0156000Y0057419D01*
X0174200Y0044119D02*
X0174200Y0038119D01*
X0174200Y0032119D01*
X0186800Y0032119D01*
X0186800Y0038119D01*
X0174200Y0038119D01*
X0186800Y0038119D01*
X0186800Y0044119D01*
X0174200Y0044119D01*
D14*
X0015866Y0055142D02*
X0013110Y0055142D01*
X0013110Y0055143D02*
X0013048Y0055145D01*
X0012987Y0055151D01*
X0012926Y0055160D01*
X0012865Y0055174D01*
X0012806Y0055191D01*
X0012748Y0055212D01*
X0012691Y0055237D01*
X0012636Y0055265D01*
X0012583Y0055296D01*
X0012532Y0055331D01*
X0012483Y0055369D01*
X0012436Y0055410D01*
X0012393Y0055453D01*
X0012352Y0055500D01*
X0012314Y0055549D01*
X0012279Y0055600D01*
X0012248Y0055653D01*
X0012220Y0055708D01*
X0012195Y0055765D01*
X0012174Y0055823D01*
X0012157Y0055882D01*
X0012143Y0055943D01*
X0012134Y0056004D01*
X0012128Y0056065D01*
X0012126Y0056127D01*
X0012128Y0056189D01*
X0012134Y0056250D01*
X0012143Y0056311D01*
X0012157Y0056372D01*
X0012174Y0056431D01*
X0012195Y0056489D01*
X0012220Y0056546D01*
X0012248Y0056601D01*
X0012279Y0056654D01*
X0012314Y0056705D01*
X0012352Y0056754D01*
X0012393Y0056801D01*
X0012436Y0056844D01*
X0012483Y0056885D01*
X0012532Y0056923D01*
X0012583Y0056958D01*
X0012636Y0056989D01*
X0012691Y0057017D01*
X0012748Y0057042D01*
X0012806Y0057063D01*
X0012865Y0057080D01*
X0012926Y0057094D01*
X0012987Y0057103D01*
X0013048Y0057109D01*
X0013110Y0057111D01*
X0015866Y0057111D01*
X0015928Y0057109D01*
X0015989Y0057103D01*
X0016050Y0057094D01*
X0016111Y0057080D01*
X0016170Y0057063D01*
X0016228Y0057042D01*
X0016285Y0057017D01*
X0016340Y0056989D01*
X0016393Y0056958D01*
X0016444Y0056923D01*
X0016493Y0056885D01*
X0016540Y0056844D01*
X0016583Y0056801D01*
X0016624Y0056754D01*
X0016662Y0056705D01*
X0016697Y0056654D01*
X0016728Y0056601D01*
X0016756Y0056546D01*
X0016781Y0056489D01*
X0016802Y0056431D01*
X0016819Y0056372D01*
X0016833Y0056311D01*
X0016842Y0056250D01*
X0016848Y0056189D01*
X0016850Y0056127D01*
X0016848Y0056065D01*
X0016842Y0056004D01*
X0016833Y0055943D01*
X0016819Y0055882D01*
X0016802Y0055823D01*
X0016781Y0055765D01*
X0016756Y0055708D01*
X0016728Y0055653D01*
X0016697Y0055600D01*
X0016662Y0055549D01*
X0016624Y0055500D01*
X0016583Y0055453D01*
X0016540Y0055410D01*
X0016493Y0055369D01*
X0016444Y0055331D01*
X0016393Y0055296D01*
X0016340Y0055265D01*
X0016285Y0055237D01*
X0016228Y0055212D01*
X0016170Y0055191D01*
X0016111Y0055174D01*
X0016050Y0055160D01*
X0015989Y0055151D01*
X0015928Y0055145D01*
X0015866Y0055143D01*
X0015866Y0081127D02*
X0013110Y0081127D01*
X0013048Y0081129D01*
X0012987Y0081135D01*
X0012926Y0081144D01*
X0012865Y0081158D01*
X0012806Y0081175D01*
X0012748Y0081196D01*
X0012691Y0081221D01*
X0012636Y0081249D01*
X0012583Y0081280D01*
X0012532Y0081315D01*
X0012483Y0081353D01*
X0012436Y0081394D01*
X0012393Y0081437D01*
X0012352Y0081484D01*
X0012314Y0081533D01*
X0012279Y0081584D01*
X0012248Y0081637D01*
X0012220Y0081692D01*
X0012195Y0081749D01*
X0012174Y0081807D01*
X0012157Y0081866D01*
X0012143Y0081927D01*
X0012134Y0081988D01*
X0012128Y0082049D01*
X0012126Y0082111D01*
X0012128Y0082173D01*
X0012134Y0082234D01*
X0012143Y0082295D01*
X0012157Y0082356D01*
X0012174Y0082415D01*
X0012195Y0082473D01*
X0012220Y0082530D01*
X0012248Y0082585D01*
X0012279Y0082638D01*
X0012314Y0082689D01*
X0012352Y0082738D01*
X0012393Y0082785D01*
X0012436Y0082828D01*
X0012483Y0082869D01*
X0012532Y0082907D01*
X0012583Y0082942D01*
X0012636Y0082973D01*
X0012691Y0083001D01*
X0012748Y0083026D01*
X0012806Y0083047D01*
X0012865Y0083064D01*
X0012926Y0083078D01*
X0012987Y0083087D01*
X0013048Y0083093D01*
X0013110Y0083095D01*
X0015866Y0083095D01*
X0015928Y0083093D01*
X0015989Y0083087D01*
X0016050Y0083078D01*
X0016111Y0083064D01*
X0016170Y0083047D01*
X0016228Y0083026D01*
X0016285Y0083001D01*
X0016340Y0082973D01*
X0016393Y0082942D01*
X0016444Y0082907D01*
X0016493Y0082869D01*
X0016540Y0082828D01*
X0016583Y0082785D01*
X0016624Y0082738D01*
X0016662Y0082689D01*
X0016697Y0082638D01*
X0016728Y0082585D01*
X0016756Y0082530D01*
X0016781Y0082473D01*
X0016802Y0082415D01*
X0016819Y0082356D01*
X0016833Y0082295D01*
X0016842Y0082234D01*
X0016848Y0082173D01*
X0016850Y0082111D01*
X0016848Y0082049D01*
X0016842Y0081988D01*
X0016833Y0081927D01*
X0016819Y0081866D01*
X0016802Y0081807D01*
X0016781Y0081749D01*
X0016756Y0081692D01*
X0016728Y0081637D01*
X0016697Y0081584D01*
X0016662Y0081533D01*
X0016624Y0081484D01*
X0016583Y0081437D01*
X0016540Y0081394D01*
X0016493Y0081353D01*
X0016444Y0081315D01*
X0016393Y0081280D01*
X0016340Y0081249D01*
X0016285Y0081221D01*
X0016228Y0081196D01*
X0016170Y0081175D01*
X0016111Y0081158D01*
X0016050Y0081144D01*
X0015989Y0081135D01*
X0015928Y0081129D01*
X0015866Y0081127D01*
M02*
