%
M48
M72
T01C0.0197
T02C0.0394
%
T01
X2900Y10812
X2350Y10462
X1200Y10012
X2800Y9612
X3000Y8712
X4600Y7312
X4900Y7712
X4800Y8612
X5900Y8912
X7300Y8812
X8900Y8112
X7900Y7412
X7100Y7512
X7200Y6662
X7100Y6012
X7900Y5512
X8900Y5512
X8150Y4762
X6400Y4562
X6200Y5212
X5600Y5212
X5000Y5212
X4600Y5412
X4600Y6112
X4600Y6812
X2700Y4912
X6200Y3812
X7000Y3812
X12100Y3862
X12500Y3812
X12900Y3862
X14250Y4912
X17150Y4712
X17150Y5812
X15700Y6612
X15700Y7012
X16900Y7412
X15900Y7712
X15900Y8212
X16700Y8812
X16700Y9512
X16100Y9662
X18400Y9412
X19900Y9012
X20300Y9012
X21800Y7012
X21800Y6412
X23000Y5912
X21800Y5812
X19700Y5312
X21800Y4812
X24800Y4612
X25300Y8412
X12900Y6812
X11300Y6812
X12000Y9212
X12300Y9512
X12100Y10612
X12500Y10612
X9000Y10312
X7100Y9862
X6400Y10112
X5600Y10412
X4750Y10462
X6500Y10712
T02
X1300Y11412
X2300Y11412
X3300Y11412
X4300Y11412
X5300Y11412
X6300Y11412
X7300Y11412
X8300Y11412
X9300Y11412
X10300Y11412
X11300Y11412
X12300Y11412
X13300Y11412
X14300Y11412
X15300Y11412
X16300Y11412
X17300Y11412
X18300Y11412
X19300Y11412
X20300Y11412
X22300Y11412
X23300Y11412
X24300Y11412
X25300Y11412
X25300Y2412
X24300Y2412
X23300Y2412
X22300Y2412
X20300Y2412
X19300Y2412
X18300Y2412
X17300Y2412
X16300Y2412
X15300Y2412
X14300Y2412
X13300Y2412
X12300Y2412
X11300Y2412
X10300Y2412
X9300Y2412
X8300Y2412
X7300Y2412
X6300Y2412
X5300Y2412
X4300Y2412
X3300Y2412
X2300Y2412
X1300Y2412
M30
