G75*
%MOIN*%
%OFA0B0*%
%FSLAX25Y25*%
%IPPOS*%
%LPD*%
%AMOC8*
5,1,8,0,0,1.08239X$1,22.5*
%
%ADD10C,0.00100*%
%ADD11C,0.00300*%
%ADD12C,0.01000*%
%ADD13C,0.00200*%
%ADD14C,0.00600*%
%ADD15R,0.00100X0.00050*%
%ADD16R,0.00550X0.00050*%
%ADD17R,0.00600X0.00050*%
%ADD18R,0.00700X0.00050*%
%ADD19R,0.00800X0.00050*%
%ADD20R,0.00850X0.00050*%
%ADD21R,0.00900X0.00050*%
%ADD22R,0.00950X0.00050*%
%ADD23R,0.01000X0.00050*%
%ADD24R,0.01050X0.00050*%
%ADD25R,0.01100X0.00050*%
%ADD26R,0.00650X0.00050*%
%ADD27R,0.00500X0.00050*%
%ADD28R,0.00050X0.00050*%
%ADD29R,0.00150X0.00050*%
%ADD30R,0.00250X0.00050*%
%ADD31R,0.00200X0.00050*%
%ADD32R,0.00350X0.00050*%
%ADD33R,0.00300X0.00050*%
%ADD34R,0.00450X0.00050*%
%ADD35R,0.01150X0.00050*%
%ADD36R,0.01250X0.00050*%
%ADD37R,0.01450X0.00050*%
%ADD38R,0.01750X0.00050*%
%ADD39R,0.01850X0.00050*%
%ADD40R,0.01900X0.00050*%
%ADD41R,0.01950X0.00050*%
%ADD42R,0.02000X0.00050*%
%ADD43R,0.02100X0.00050*%
%ADD44R,0.02050X0.00050*%
%ADD45R,0.02150X0.00050*%
%ADD46R,0.02200X0.00050*%
%ADD47R,0.02250X0.00050*%
%ADD48R,0.02300X0.00050*%
%ADD49R,0.02350X0.00050*%
%ADD50R,0.02400X0.00050*%
%ADD51R,0.02450X0.00050*%
%ADD52R,0.02500X0.00050*%
%ADD53R,0.02550X0.00050*%
%ADD54R,0.02600X0.00050*%
%ADD55R,0.02650X0.00050*%
%ADD56R,0.02700X0.00050*%
%ADD57R,0.02750X0.00050*%
%ADD58R,0.02800X0.00050*%
%ADD59R,0.02900X0.00050*%
%ADD60R,0.02850X0.00050*%
%ADD61R,0.05850X0.00050*%
%ADD62R,0.06000X0.00050*%
%ADD63R,0.05950X0.00050*%
%ADD64R,0.06100X0.00050*%
%ADD65R,0.06200X0.00050*%
%ADD66R,0.05800X0.00050*%
%ADD67R,0.06300X0.00050*%
%ADD68R,0.05750X0.00050*%
%ADD69R,0.05900X0.00050*%
%ADD70R,0.06500X0.00050*%
%ADD71C,0.00500*%
%ADD72C,0.00039*%
%ADD73R,0.00200X0.00034*%
%ADD74R,0.00330X0.00033*%
%ADD75R,0.00470X0.00033*%
%ADD76R,0.00530X0.00034*%
%ADD77R,0.00670X0.00033*%
%ADD78R,0.00730X0.00033*%
%ADD79R,0.00760X0.00034*%
%ADD80R,0.00840X0.00033*%
%ADD81R,0.00900X0.00033*%
%ADD82R,0.00960X0.00034*%
%ADD83R,0.01040X0.00033*%
%ADD84R,0.01100X0.00033*%
%ADD85R,0.01160X0.00034*%
%ADD86R,0.01200X0.00033*%
%ADD87R,0.01270X0.00033*%
%ADD88R,0.01330X0.00034*%
%ADD89R,0.01400X0.00033*%
%ADD90R,0.01440X0.00033*%
%ADD91R,0.01500X0.00034*%
%ADD92R,0.01530X0.00033*%
%ADD93R,0.01600X0.00033*%
%ADD94R,0.01670X0.00034*%
%ADD95R,0.01700X0.00033*%
%ADD96R,0.01730X0.00033*%
%ADD97R,0.00970X0.00034*%
%ADD98R,0.00830X0.00033*%
%ADD99R,0.00830X0.00034*%
%ADD100R,0.00630X0.00034*%
%ADD101R,0.00630X0.00033*%
%ADD102R,0.00640X0.00033*%
%ADD103R,0.00800X0.00034*%
%ADD104R,0.00600X0.00034*%
%ADD105R,0.00800X0.00033*%
%ADD106R,0.00600X0.00033*%
%ADD107R,0.00570X0.00033*%
%ADD108R,0.00770X0.00034*%
%ADD109R,0.00770X0.00033*%
%ADD110R,0.00570X0.00034*%
%ADD111R,0.00560X0.00033*%
%ADD112R,0.00560X0.00034*%
%ADD113R,0.00760X0.00033*%
%ADD114R,0.00540X0.00033*%
%ADD115R,0.00530X0.00033*%
%ADD116R,0.00540X0.00034*%
%ADD117R,0.00030X0.00033*%
%ADD118R,0.00170X0.00034*%
%ADD119R,0.00260X0.00033*%
%ADD120R,0.00340X0.00033*%
%ADD121R,0.00430X0.00034*%
%ADD122R,0.00660X0.00034*%
%ADD123R,0.00740X0.00033*%
%ADD124R,0.00870X0.00034*%
%ADD125R,0.00930X0.00033*%
%ADD126R,0.01000X0.00033*%
%ADD127R,0.01070X0.00034*%
%ADD128R,0.01130X0.00033*%
%ADD129R,0.01270X0.00034*%
%ADD130R,0.01300X0.00033*%
%ADD131R,0.01360X0.00033*%
%ADD132R,0.01440X0.00034*%
%ADD133R,0.01500X0.00033*%
%ADD134R,0.00300X0.00033*%
%ADD135R,0.00440X0.00033*%
%ADD136R,0.00500X0.00034*%
%ADD137R,0.00730X0.00034*%
%ADD138R,0.00860X0.00033*%
%ADD139R,0.00840X0.00034*%
%ADD140R,0.00860X0.00034*%
%ADD141R,0.00430X0.00033*%
%ADD142R,0.00400X0.00034*%
%ADD143R,0.00740X0.00034*%
%ADD144R,0.01130X0.00034*%
%ADD145R,0.01370X0.00034*%
%ADD146R,0.01470X0.00033*%
%ADD147R,0.00400X0.00033*%
%ADD148R,0.02300X0.00033*%
%ADD149R,0.02300X0.00034*%
%ADD150R,0.02340X0.00033*%
%ADD151R,0.02370X0.00033*%
%ADD152R,0.00440X0.00034*%
%ADD153R,0.02400X0.00034*%
%ADD154R,0.02430X0.00033*%
%ADD155R,0.00700X0.00034*%
%ADD156R,0.02470X0.00034*%
%ADD157R,0.00700X0.00033*%
%ADD158R,0.02470X0.00033*%
%ADD159R,0.02500X0.00033*%
%ADD160R,0.02500X0.00034*%
%ADD161R,0.02530X0.00033*%
%ADD162R,0.02540X0.00033*%
%ADD163R,0.02540X0.00034*%
%ADD164R,0.02570X0.00033*%
%ADD165R,0.00230X0.00033*%
%ADD166R,0.00470X0.00034*%
%ADD167R,0.00900X0.00034*%
%ADD168R,0.01060X0.00033*%
%ADD169R,0.00870X0.00033*%
%ADD170R,0.00640X0.00034*%
%ADD171R,0.01900X0.00033*%
%ADD172R,0.00460X0.00033*%
%ADD173R,0.02100X0.00033*%
%ADD174R,0.02330X0.00034*%
%ADD175R,0.00660X0.00033*%
%ADD176R,0.02740X0.00033*%
%ADD177R,0.00670X0.00034*%
%ADD178R,0.02930X0.00034*%
%ADD179R,0.03160X0.00033*%
%ADD180R,0.04100X0.00033*%
%ADD181R,0.00100X0.00034*%
%ADD182R,0.04170X0.00034*%
%ADD183R,0.00170X0.00033*%
%ADD184R,0.04240X0.00033*%
%ADD185R,0.04260X0.00033*%
%ADD186R,0.00300X0.00034*%
%ADD187R,0.04330X0.00034*%
%ADD188R,0.00370X0.00033*%
%ADD189R,0.04400X0.00033*%
%ADD190R,0.04430X0.00033*%
%ADD191R,0.00930X0.00034*%
%ADD192R,0.04470X0.00034*%
%ADD193R,0.04530X0.00033*%
%ADD194R,0.02600X0.00033*%
%ADD195R,0.01570X0.00033*%
%ADD196R,0.02240X0.00034*%
%ADD197R,0.01400X0.00034*%
%ADD198R,0.02000X0.00033*%
%ADD199R,0.01770X0.00033*%
%ADD200R,0.01260X0.00033*%
%ADD201R,0.01900X0.00034*%
%ADD202R,0.01540X0.00034*%
%ADD203R,0.01200X0.00034*%
%ADD204R,0.00970X0.00033*%
%ADD205R,0.02030X0.00033*%
%ADD206R,0.01030X0.00033*%
%ADD207R,0.02170X0.00033*%
%ADD208R,0.01170X0.00033*%
%ADD209R,0.01100X0.00034*%
%ADD210R,0.01140X0.00033*%
%ADD211R,0.02600X0.00034*%
%ADD212R,0.01060X0.00034*%
%ADD213R,0.01330X0.00033*%
%ADD214R,0.02670X0.00033*%
%ADD215R,0.00040X0.00033*%
%ADD216R,0.01070X0.00033*%
%ADD217R,0.00130X0.00033*%
%ADD218R,0.02800X0.00034*%
%ADD219R,0.00230X0.00034*%
%ADD220R,0.01040X0.00034*%
%ADD221R,0.02870X0.00033*%
%ADD222R,0.02900X0.00033*%
%ADD223R,0.02900X0.00034*%
%ADD224R,0.00340X0.00034*%
%ADD225R,0.01030X0.00034*%
%ADD226R,0.02830X0.00034*%
%ADD227R,0.01000X0.00034*%
%ADD228R,0.02830X0.00033*%
%ADD229R,0.02770X0.00033*%
%ADD230R,0.02730X0.00034*%
%ADD231R,0.02560X0.00033*%
%ADD232R,0.00960X0.00033*%
%ADD233R,0.00360X0.00034*%
%ADD234R,0.00460X0.00034*%
%ADD235R,0.00360X0.00033*%
%ADD236R,0.02440X0.00033*%
%ADD237R,0.02330X0.00033*%
%ADD238R,0.02270X0.00034*%
%ADD239R,0.00370X0.00034*%
%ADD240R,0.02200X0.00033*%
%ADD241R,0.00940X0.00033*%
%ADD242R,0.00330X0.00034*%
%ADD243R,0.02030X0.00034*%
%ADD244R,0.00030X0.00034*%
%ADD245R,0.02660X0.00033*%
%ADD246R,0.02340X0.00034*%
%ADD247R,0.01800X0.00033*%
%ADD248R,0.01660X0.00033*%
%ADD249R,0.01560X0.00034*%
%ADD250R,0.00940X0.00034*%
%ADD251R,0.01460X0.00033*%
%ADD252R,0.01340X0.00033*%
%ADD253R,0.01300X0.00034*%
%ADD254R,0.01260X0.00034*%
%ADD255R,0.02140X0.00033*%
%ADD256R,0.01930X0.00034*%
%ADD257R,0.01640X0.00034*%
%ADD258R,0.01870X0.00033*%
%ADD259R,0.02130X0.00033*%
%ADD260R,0.01700X0.00034*%
%ADD261R,0.03070X0.00034*%
%ADD262R,0.01630X0.00033*%
%ADD263R,0.03060X0.00033*%
%ADD264R,0.03130X0.00033*%
%ADD265R,0.03130X0.00034*%
%ADD266R,0.03170X0.00033*%
%ADD267R,0.01370X0.00033*%
%ADD268R,0.03200X0.00034*%
%ADD269R,0.00200X0.00033*%
%ADD270R,0.03200X0.00033*%
%ADD271R,0.01170X0.00034*%
%ADD272R,0.01160X0.00033*%
%ADD273R,0.00500X0.00033*%
%ADD274R,0.00240X0.00033*%
%ADD275R,0.00070X0.00034*%
%ADD276R,0.01530X0.00034*%
%ADD277R,0.00140X0.00034*%
%ADD278R,0.00070X0.00033*%
%ADD279R,0.00160X0.00034*%
%ADD280R,0.00270X0.00033*%
%ADD281R,0.01240X0.00034*%
%ADD282R,0.00100X0.00033*%
%ADD283R,0.01540X0.00033*%
%ADD284R,0.01230X0.00034*%
%ADD285R,0.01230X0.00033*%
%ADD286R,0.00240X0.00034*%
%ADD287R,0.01600X0.00034*%
%ADD288R,0.00260X0.00034*%
%ADD289R,0.01800X0.00034*%
%ADD290R,0.01930X0.00033*%
%ADD291R,0.02040X0.00033*%
%ADD292R,0.02230X0.00034*%
%ADD293R,0.04200X0.00033*%
%ADD294R,0.01240X0.00033*%
%ADD295R,0.04230X0.00034*%
%ADD296R,0.04230X0.00033*%
%ADD297R,0.04160X0.00034*%
%ADD298R,0.04140X0.00033*%
%ADD299R,0.04000X0.00034*%
%ADD300R,0.03870X0.00033*%
%ADD301R,0.03740X0.00033*%
%ADD302R,0.03600X0.00034*%
%ADD303R,0.03500X0.00033*%
%ADD304R,0.03440X0.00033*%
%ADD305R,0.03370X0.00034*%
%ADD306R,0.03300X0.00033*%
%ADD307R,0.02070X0.00033*%
%ADD308R,0.01630X0.00034*%
%ADD309R,0.01960X0.00034*%
%ADD310R,0.01430X0.00033*%
%ADD311R,0.01730X0.00034*%
%ADD312R,0.01860X0.00033*%
%ADD313R,0.05200X0.00034*%
%ADD314R,0.05160X0.00033*%
%ADD315R,0.05130X0.00033*%
%ADD316R,0.05060X0.00034*%
%ADD317R,0.05030X0.00033*%
%ADD318R,0.04960X0.00033*%
%ADD319R,0.04930X0.00034*%
%ADD320R,0.04860X0.00033*%
%ADD321R,0.04800X0.00033*%
%ADD322R,0.03770X0.00034*%
%ADD323R,0.03600X0.00033*%
%ADD324R,0.03230X0.00034*%
%ADD325R,0.03030X0.00033*%
%ADD326R,0.02800X0.00033*%
%ADD327R,0.02560X0.00034*%
%ADD328R,0.02270X0.00033*%
%ADD329R,0.01970X0.00033*%
%ADD330R,0.01830X0.00034*%
%ADD331R,0.00140X0.00033*%
%ADD332R,0.01670X0.00033*%
%ADD333R,0.01830X0.00033*%
%ADD334R,0.01940X0.00034*%
%ADD335R,0.02640X0.00033*%
%ADD336R,0.02740X0.00034*%
%ADD337R,0.02760X0.00033*%
%ADD338R,0.02870X0.00034*%
%ADD339R,0.02940X0.00033*%
%ADD340R,0.03000X0.00033*%
%ADD341R,0.03060X0.00034*%
%ADD342R,0.03100X0.00033*%
%ADD343R,0.03140X0.00033*%
%ADD344R,0.03260X0.00033*%
%ADD345R,0.03400X0.00033*%
%ADD346R,0.03430X0.00033*%
%ADD347R,0.03500X0.00034*%
%ADD348R,0.01760X0.00034*%
%ADD349R,0.03530X0.00033*%
%ADD350R,0.03570X0.00033*%
%ADD351R,0.03660X0.00033*%
%ADD352R,0.02400X0.00033*%
%ADD353R,0.04470X0.00033*%
%ADD354R,0.04260X0.00034*%
%ADD355R,0.02670X0.00034*%
%ADD356R,0.04130X0.00033*%
%ADD357R,0.03970X0.00033*%
%ADD358R,0.03800X0.00034*%
%ADD359R,0.03000X0.00034*%
%ADD360R,0.03640X0.00033*%
%ADD361R,0.03300X0.00034*%
%ADD362R,0.01860X0.00034*%
%ADD363R,0.01640X0.00033*%
%ADD364R,0.02460X0.00033*%
%ADD365R,0.01740X0.00034*%
%ADD366R,0.01770X0.00034*%
%ADD367R,0.02060X0.00033*%
%ADD368R,0.02160X0.00034*%
%ADD369R,0.01960X0.00033*%
%ADD370R,0.02430X0.00034*%
%ADD371R,0.02640X0.00034*%
%ADD372R,0.02630X0.00033*%
%ADD373R,0.02660X0.00034*%
%ADD374R,0.02700X0.00033*%
%ADD375R,0.02730X0.00033*%
%ADD376R,0.02700X0.00034*%
%ADD377R,0.02770X0.00034*%
%ADD378R,0.01740X0.00033*%
%ADD379R,0.02630X0.00034*%
%ADD380R,0.03670X0.00034*%
%ADD381R,0.03730X0.00033*%
%ADD382R,0.03800X0.00033*%
%ADD383R,0.03900X0.00034*%
%ADD384R,0.04030X0.00033*%
%ADD385R,0.04100X0.00034*%
%ADD386R,0.02360X0.00033*%
%ADD387R,0.02360X0.00034*%
%ADD388R,0.02260X0.00033*%
%ADD389R,0.02100X0.00034*%
%ADD390R,0.02230X0.00033*%
%ADD391R,0.02200X0.00034*%
%ADD392R,0.01840X0.00034*%
%ADD393R,0.01430X0.00034*%
%ADD394R,0.02130X0.00034*%
%ADD395R,0.02040X0.00034*%
%ADD396R,0.01360X0.00034*%
%ADD397R,0.02160X0.00033*%
%ADD398R,0.02370X0.00034*%
%ADD399R,0.02570X0.00034*%
%ADD400R,0.02760X0.00034*%
%ADD401R,0.03070X0.00033*%
%ADD402R,0.03040X0.00034*%
%ADD403R,0.02960X0.00033*%
%ADD404R,0.02530X0.00034*%
%ADD405R,0.01340X0.00034*%
%ADD406R,0.01460X0.00034*%
%ADD407R,0.01570X0.00034*%
%ADD408R,0.04300X0.00033*%
%ADD409R,0.04070X0.00033*%
%ADD410R,0.03930X0.00033*%
%ADD411R,0.03700X0.00033*%
%ADD412R,0.03430X0.00034*%
%ADD413R,0.02860X0.00033*%
D10*
X0009000Y0020119D02*
X0009000Y0118119D01*
X0258000Y0118119D01*
X0258000Y0020119D01*
X0009000Y0020119D01*
D11*
X0012117Y0029769D02*
X0013085Y0030736D01*
X0013085Y0032671D01*
X0014097Y0032671D02*
X0015064Y0032671D01*
X0014580Y0032671D02*
X0014580Y0029769D01*
X0014097Y0029769D02*
X0015064Y0029769D01*
X0016061Y0029769D02*
X0016061Y0032671D01*
X0017996Y0029769D01*
X0017996Y0032671D01*
X0020150Y0032671D02*
X0020150Y0030252D01*
X0020634Y0029769D01*
X0021601Y0029769D01*
X0022085Y0030252D01*
X0022085Y0032671D01*
X0023097Y0032187D02*
X0023097Y0031704D01*
X0023580Y0031220D01*
X0024548Y0031220D01*
X0025031Y0030736D01*
X0025031Y0030252D01*
X0024548Y0029769D01*
X0023580Y0029769D01*
X0023097Y0030252D01*
X0023097Y0032187D02*
X0023580Y0032671D01*
X0024548Y0032671D01*
X0025031Y0032187D01*
X0026043Y0032671D02*
X0027494Y0032671D01*
X0027978Y0032187D01*
X0027978Y0031704D01*
X0027494Y0031220D01*
X0026043Y0031220D01*
X0026043Y0029769D02*
X0026043Y0032671D01*
X0029150Y0032187D02*
X0029634Y0032671D01*
X0030601Y0032671D01*
X0031085Y0032187D01*
X0031085Y0031704D01*
X0030601Y0031220D01*
X0031085Y0030736D01*
X0031085Y0030252D01*
X0030601Y0029769D01*
X0029634Y0029769D01*
X0029150Y0030252D01*
X0027978Y0030252D02*
X0027494Y0029769D01*
X0026043Y0029769D01*
X0027978Y0030252D02*
X0027978Y0030736D01*
X0027494Y0031220D01*
X0030117Y0031220D02*
X0030601Y0031220D01*
X0032097Y0030252D02*
X0032097Y0029769D01*
X0032580Y0029769D01*
X0032580Y0030252D01*
X0032097Y0030252D01*
X0033570Y0030252D02*
X0034054Y0029769D01*
X0035021Y0029769D01*
X0035505Y0030252D01*
X0035505Y0030736D01*
X0035021Y0031220D01*
X0034537Y0031220D01*
X0035021Y0031220D02*
X0035505Y0031704D01*
X0035505Y0032187D01*
X0035021Y0032671D01*
X0034054Y0032671D01*
X0033570Y0032187D01*
X0036516Y0032671D02*
X0036516Y0030736D01*
X0037484Y0029769D01*
X0038451Y0030736D01*
X0038451Y0032671D01*
X0040150Y0032187D02*
X0040150Y0030252D01*
X0040634Y0029769D01*
X0041601Y0029769D01*
X0042085Y0030252D01*
X0042085Y0031220D01*
X0041117Y0031220D01*
X0040150Y0032187D02*
X0040634Y0032671D01*
X0041601Y0032671D01*
X0042085Y0032187D01*
X0043097Y0032671D02*
X0045031Y0029769D01*
X0045031Y0032671D01*
X0046043Y0032671D02*
X0047494Y0032671D01*
X0047978Y0032187D01*
X0047978Y0030252D01*
X0047494Y0029769D01*
X0046043Y0029769D01*
X0046043Y0032671D01*
X0043097Y0032671D02*
X0043097Y0029769D01*
X0051150Y0029769D02*
X0051150Y0032671D01*
X0052601Y0032671D01*
X0053085Y0032187D01*
X0053085Y0031220D01*
X0052601Y0030736D01*
X0051150Y0030736D01*
X0054097Y0030252D02*
X0054580Y0029769D01*
X0055548Y0029769D01*
X0056031Y0030252D01*
X0056031Y0032187D01*
X0054097Y0030252D01*
X0054097Y0032187D01*
X0054580Y0032671D01*
X0055548Y0032671D01*
X0056031Y0032187D01*
X0061150Y0032671D02*
X0061150Y0029769D01*
X0061150Y0030736D02*
X0062601Y0030736D01*
X0063085Y0031220D01*
X0063085Y0032187D01*
X0062601Y0032671D01*
X0061150Y0032671D01*
X0064097Y0031704D02*
X0065064Y0032671D01*
X0065064Y0029769D01*
X0064097Y0029769D02*
X0066031Y0029769D01*
X0071150Y0029769D02*
X0071150Y0032671D01*
X0072601Y0032671D01*
X0073085Y0032187D01*
X0073085Y0031220D01*
X0072601Y0030736D01*
X0071150Y0030736D01*
X0074097Y0029769D02*
X0076031Y0031704D01*
X0076031Y0032187D01*
X0075548Y0032671D01*
X0074580Y0032671D01*
X0074097Y0032187D01*
X0074097Y0029769D02*
X0076031Y0029769D01*
X0081150Y0029769D02*
X0081150Y0032671D01*
X0082601Y0032671D01*
X0083085Y0032187D01*
X0083085Y0031220D01*
X0082601Y0030736D01*
X0081150Y0030736D01*
X0084097Y0030252D02*
X0084580Y0029769D01*
X0085548Y0029769D01*
X0086031Y0030252D01*
X0086031Y0030736D01*
X0085548Y0031220D01*
X0085064Y0031220D01*
X0085548Y0031220D02*
X0086031Y0031704D01*
X0086031Y0032187D01*
X0085548Y0032671D01*
X0084580Y0032671D01*
X0084097Y0032187D01*
X0091150Y0032671D02*
X0091150Y0029769D01*
X0091150Y0030736D02*
X0092601Y0030736D01*
X0093085Y0031220D01*
X0093085Y0032187D01*
X0092601Y0032671D01*
X0091150Y0032671D01*
X0094097Y0031220D02*
X0095548Y0032671D01*
X0095548Y0029769D01*
X0096031Y0031220D02*
X0094097Y0031220D01*
X0101150Y0030736D02*
X0102601Y0030736D01*
X0103085Y0031220D01*
X0103085Y0032187D01*
X0102601Y0032671D01*
X0101150Y0032671D01*
X0101150Y0029769D01*
X0104097Y0030252D02*
X0104580Y0029769D01*
X0105548Y0029769D01*
X0106031Y0030252D01*
X0106031Y0031220D01*
X0105548Y0031704D01*
X0105064Y0031704D01*
X0104097Y0031220D01*
X0104097Y0032671D01*
X0106031Y0032671D01*
X0111150Y0032671D02*
X0112601Y0032671D01*
X0113085Y0032187D01*
X0113085Y0031220D01*
X0112601Y0030736D01*
X0111150Y0030736D01*
X0111150Y0029769D02*
X0111150Y0032671D01*
X0114097Y0031220D02*
X0115064Y0032187D01*
X0116031Y0032671D01*
X0115548Y0031220D02*
X0114097Y0031220D01*
X0114097Y0030252D01*
X0114580Y0029769D01*
X0115548Y0029769D01*
X0116031Y0030252D01*
X0116031Y0030736D01*
X0115548Y0031220D01*
X0121650Y0030736D02*
X0123101Y0030736D01*
X0123585Y0031220D01*
X0123585Y0032187D01*
X0123101Y0032671D01*
X0121650Y0032671D01*
X0121650Y0029769D01*
X0124597Y0029769D02*
X0124597Y0030252D01*
X0126531Y0032187D01*
X0126531Y0032671D01*
X0124597Y0032671D01*
X0131150Y0032671D02*
X0132601Y0032671D01*
X0133085Y0032187D01*
X0133085Y0031220D01*
X0132601Y0030736D01*
X0131150Y0030736D01*
X0131150Y0029769D02*
X0131150Y0032671D01*
X0134097Y0032187D02*
X0134097Y0031704D01*
X0134580Y0031220D01*
X0135548Y0031220D01*
X0136031Y0030736D01*
X0136031Y0030252D01*
X0135548Y0029769D01*
X0134580Y0029769D01*
X0134097Y0030252D01*
X0134097Y0030736D01*
X0134580Y0031220D01*
X0135548Y0031220D02*
X0136031Y0031704D01*
X0136031Y0032187D01*
X0135548Y0032671D01*
X0134580Y0032671D01*
X0134097Y0032187D01*
X0140650Y0032671D02*
X0140650Y0029769D01*
X0140650Y0030736D02*
X0142101Y0030736D01*
X0142585Y0031220D01*
X0142585Y0032187D01*
X0142101Y0032671D01*
X0140650Y0032671D01*
X0143597Y0032187D02*
X0143597Y0031704D01*
X0144080Y0031220D01*
X0145531Y0031220D01*
X0145531Y0032187D02*
X0145531Y0030252D01*
X0145048Y0029769D01*
X0144080Y0029769D01*
X0143597Y0030252D01*
X0143597Y0032187D02*
X0144080Y0032671D01*
X0145048Y0032671D01*
X0145531Y0032187D01*
X0149650Y0032671D02*
X0151101Y0032671D01*
X0151585Y0032187D01*
X0151585Y0031220D01*
X0151101Y0030736D01*
X0149650Y0030736D01*
X0149650Y0029769D02*
X0149650Y0032671D01*
X0152597Y0031704D02*
X0153564Y0032671D01*
X0153564Y0029769D01*
X0152597Y0029769D02*
X0154531Y0029769D01*
X0155543Y0030252D02*
X0157478Y0032187D01*
X0157478Y0030252D01*
X0156994Y0029769D01*
X0156027Y0029769D01*
X0155543Y0030252D01*
X0155543Y0032187D01*
X0156027Y0032671D01*
X0156994Y0032671D01*
X0157478Y0032187D01*
X0160150Y0032671D02*
X0161601Y0032671D01*
X0162085Y0032187D01*
X0162085Y0031220D01*
X0161601Y0030736D01*
X0160150Y0030736D01*
X0160150Y0029769D02*
X0160150Y0032671D01*
X0163097Y0031704D02*
X0164064Y0032671D01*
X0164064Y0029769D01*
X0163097Y0029769D02*
X0165031Y0029769D01*
X0166043Y0029769D02*
X0167978Y0029769D01*
X0167011Y0029769D02*
X0167011Y0032671D01*
X0166043Y0031704D01*
X0169650Y0032671D02*
X0169650Y0029769D01*
X0169650Y0030736D02*
X0171101Y0030736D01*
X0171585Y0031220D01*
X0171585Y0032187D01*
X0171101Y0032671D01*
X0169650Y0032671D01*
X0172597Y0031704D02*
X0173564Y0032671D01*
X0173564Y0029769D01*
X0172597Y0029769D02*
X0174531Y0029769D01*
X0175543Y0029769D02*
X0177478Y0031704D01*
X0177478Y0032187D01*
X0176994Y0032671D01*
X0176027Y0032671D01*
X0175543Y0032187D01*
X0179150Y0032671D02*
X0180601Y0032671D01*
X0181085Y0032187D01*
X0181085Y0031220D01*
X0180601Y0030736D01*
X0179150Y0030736D01*
X0179150Y0029769D02*
X0179150Y0032671D01*
X0182097Y0031704D02*
X0183064Y0032671D01*
X0183064Y0029769D01*
X0182097Y0029769D02*
X0184031Y0029769D01*
X0185043Y0030252D02*
X0185527Y0029769D01*
X0186494Y0029769D01*
X0186978Y0030252D01*
X0186978Y0030736D01*
X0186494Y0031220D01*
X0186011Y0031220D01*
X0186494Y0031220D02*
X0186978Y0031704D01*
X0186978Y0032187D01*
X0186494Y0032671D01*
X0185527Y0032671D01*
X0185043Y0032187D01*
X0189150Y0032671D02*
X0190601Y0032671D01*
X0191085Y0032187D01*
X0191085Y0031220D01*
X0190601Y0030736D01*
X0189150Y0030736D01*
X0189150Y0029769D02*
X0189150Y0032671D01*
X0189633Y0034406D02*
X0189633Y0035858D01*
X0189149Y0036341D01*
X0188181Y0036341D01*
X0187698Y0035858D01*
X0187698Y0034406D01*
X0190600Y0034406D01*
X0189633Y0035374D02*
X0190600Y0036341D01*
X0190600Y0037353D02*
X0190600Y0039288D01*
X0190600Y0038320D02*
X0187698Y0038320D01*
X0188665Y0037353D01*
X0188665Y0040300D02*
X0187698Y0041267D01*
X0190600Y0041267D01*
X0190600Y0040300D02*
X0190600Y0042234D01*
X0189616Y0045906D02*
X0187681Y0045906D01*
X0187198Y0046390D01*
X0187198Y0047358D01*
X0187681Y0047841D01*
X0188165Y0048853D02*
X0187198Y0049820D01*
X0190100Y0049820D01*
X0190100Y0048853D02*
X0190100Y0050788D01*
X0189616Y0051800D02*
X0188649Y0051800D01*
X0188649Y0053251D01*
X0189133Y0053734D01*
X0189616Y0053734D01*
X0190100Y0053251D01*
X0190100Y0052283D01*
X0189616Y0051800D01*
X0188649Y0051800D02*
X0187681Y0052767D01*
X0187198Y0053734D01*
X0187398Y0058238D02*
X0187398Y0059689D01*
X0187881Y0060173D01*
X0188849Y0060173D01*
X0189333Y0059689D01*
X0189333Y0058238D01*
X0190300Y0058238D02*
X0187398Y0058238D01*
X0189333Y0059205D02*
X0190300Y0060173D01*
X0189816Y0061184D02*
X0189333Y0061184D01*
X0188849Y0061668D01*
X0188849Y0062636D01*
X0189333Y0063119D01*
X0189816Y0063119D01*
X0190300Y0062636D01*
X0190300Y0061668D01*
X0189816Y0061184D01*
X0188849Y0061668D02*
X0188365Y0061184D01*
X0187881Y0061184D01*
X0187398Y0061668D01*
X0187398Y0062636D01*
X0187881Y0063119D01*
X0188365Y0063119D01*
X0188849Y0062636D01*
X0173600Y0058304D02*
X0173600Y0057337D01*
X0173116Y0056853D01*
X0172149Y0057337D02*
X0172149Y0058788D01*
X0173116Y0058788D02*
X0171181Y0058788D01*
X0170698Y0058304D01*
X0170698Y0057337D01*
X0171181Y0056853D01*
X0171665Y0056853D01*
X0172149Y0057337D01*
X0172149Y0055841D02*
X0172633Y0055358D01*
X0172633Y0053906D01*
X0173600Y0053906D02*
X0170698Y0053906D01*
X0170698Y0055358D01*
X0171181Y0055841D01*
X0172149Y0055841D01*
X0172633Y0054874D02*
X0173600Y0055841D01*
X0173600Y0058304D02*
X0173116Y0058788D01*
X0166821Y0063832D02*
X0164886Y0063832D01*
X0166821Y0065767D01*
X0166821Y0066250D01*
X0166337Y0066734D01*
X0165369Y0066734D01*
X0164886Y0066250D01*
X0163874Y0066250D02*
X0163390Y0066734D01*
X0162423Y0066734D01*
X0161939Y0066250D01*
X0160927Y0066250D02*
X0160444Y0066734D01*
X0159476Y0066734D01*
X0158993Y0066250D01*
X0158993Y0064315D01*
X0159476Y0063832D01*
X0160444Y0063832D01*
X0160927Y0064315D01*
X0161939Y0063832D02*
X0163874Y0065767D01*
X0163874Y0066250D01*
X0168119Y0066819D02*
X0168119Y0069721D01*
X0169570Y0069721D01*
X0170054Y0069237D01*
X0170054Y0068270D01*
X0169570Y0067786D01*
X0168119Y0067786D01*
X0169087Y0067786D02*
X0170054Y0066819D01*
X0171066Y0066819D02*
X0171066Y0067302D01*
X0173001Y0069237D01*
X0173001Y0069721D01*
X0171066Y0069721D01*
X0171549Y0072819D02*
X0172517Y0072819D01*
X0173001Y0073302D01*
X0173001Y0073786D01*
X0172517Y0074270D01*
X0171066Y0074270D01*
X0171066Y0073302D01*
X0171549Y0072819D01*
X0170054Y0072819D02*
X0169087Y0073786D01*
X0169570Y0073786D02*
X0168119Y0073786D01*
X0168119Y0072819D02*
X0168119Y0075721D01*
X0169570Y0075721D01*
X0170054Y0075237D01*
X0170054Y0074270D01*
X0169570Y0073786D01*
X0171066Y0074270D02*
X0172033Y0075237D01*
X0173001Y0075721D01*
X0168382Y0080048D02*
X0168382Y0080532D01*
X0170317Y0082467D01*
X0170317Y0082951D01*
X0168382Y0082951D01*
X0166403Y0082951D02*
X0166403Y0080048D01*
X0167370Y0080048D02*
X0165435Y0080048D01*
X0164424Y0080532D02*
X0163940Y0080048D01*
X0162972Y0080048D01*
X0162489Y0080532D01*
X0162489Y0082467D01*
X0162972Y0082951D01*
X0163940Y0082951D01*
X0164424Y0082467D01*
X0165435Y0081983D02*
X0166403Y0082951D01*
X0153686Y0077921D02*
X0152234Y0076470D01*
X0154169Y0076470D01*
X0153686Y0075019D02*
X0153686Y0077921D01*
X0151223Y0077437D02*
X0150739Y0077921D01*
X0149772Y0077921D01*
X0149288Y0077437D01*
X0149288Y0075502D01*
X0149772Y0075019D01*
X0150739Y0075019D01*
X0151223Y0075502D01*
X0161939Y0063832D02*
X0163874Y0063832D01*
X0170181Y0048234D02*
X0172116Y0046300D01*
X0172600Y0046783D01*
X0172600Y0047751D01*
X0172116Y0048234D01*
X0170181Y0048234D01*
X0169698Y0047751D01*
X0169698Y0046783D01*
X0170181Y0046300D01*
X0172116Y0046300D01*
X0172600Y0045288D02*
X0172600Y0043353D01*
X0172600Y0044320D02*
X0169698Y0044320D01*
X0170665Y0043353D01*
X0170181Y0042341D02*
X0171149Y0042341D01*
X0171633Y0041858D01*
X0171633Y0040406D01*
X0172600Y0040406D02*
X0169698Y0040406D01*
X0169698Y0041858D01*
X0170181Y0042341D01*
X0171633Y0041374D02*
X0172600Y0042341D01*
X0189616Y0045906D02*
X0190100Y0046390D01*
X0190100Y0047358D01*
X0189616Y0047841D01*
X0209182Y0034668D02*
X0209666Y0035151D01*
X0210634Y0035151D01*
X0211117Y0034668D01*
X0210634Y0033700D02*
X0211117Y0033216D01*
X0211117Y0032733D01*
X0210634Y0032249D01*
X0209666Y0032249D01*
X0209182Y0032733D01*
X0209666Y0033700D02*
X0210634Y0033700D01*
X0209666Y0033700D02*
X0209182Y0034184D01*
X0209182Y0034668D01*
X0206978Y0032671D02*
X0205043Y0032671D01*
X0205043Y0031220D01*
X0206011Y0031704D01*
X0206494Y0031704D01*
X0206978Y0031220D01*
X0206978Y0030252D01*
X0206494Y0029769D01*
X0205527Y0029769D01*
X0205043Y0030252D01*
X0204031Y0029769D02*
X0202097Y0029769D01*
X0203064Y0029769D02*
X0203064Y0032671D01*
X0202097Y0031704D01*
X0201085Y0032187D02*
X0201085Y0031220D01*
X0200601Y0030736D01*
X0199150Y0030736D01*
X0199150Y0029769D02*
X0199150Y0032671D01*
X0200601Y0032671D01*
X0201085Y0032187D01*
X0196978Y0031220D02*
X0195043Y0031220D01*
X0196494Y0032671D01*
X0196494Y0029769D01*
X0194031Y0029769D02*
X0192097Y0029769D01*
X0193064Y0029769D02*
X0193064Y0032671D01*
X0192097Y0031704D01*
X0177478Y0029769D02*
X0175543Y0029769D01*
X0212129Y0032249D02*
X0213580Y0032249D01*
X0214064Y0032733D01*
X0214064Y0034668D01*
X0213580Y0035151D01*
X0212129Y0035151D01*
X0212129Y0032249D01*
X0215076Y0032249D02*
X0217010Y0032249D01*
X0216043Y0032249D02*
X0216043Y0035151D01*
X0215076Y0034184D01*
X0219150Y0032187D02*
X0219634Y0032671D01*
X0220601Y0032671D01*
X0221085Y0032187D01*
X0221085Y0031220D02*
X0220117Y0031220D01*
X0221085Y0031220D02*
X0221085Y0030252D01*
X0220601Y0029769D01*
X0219634Y0029769D01*
X0219150Y0030252D01*
X0219150Y0032187D01*
X0222097Y0032671D02*
X0224031Y0029769D01*
X0224031Y0032671D01*
X0225043Y0032671D02*
X0226494Y0032671D01*
X0226978Y0032187D01*
X0226978Y0030252D01*
X0226494Y0029769D01*
X0225043Y0029769D01*
X0225043Y0032671D01*
X0222097Y0032671D02*
X0222097Y0029769D01*
X0229150Y0030252D02*
X0229634Y0029769D01*
X0230601Y0029769D01*
X0231085Y0030252D01*
X0231085Y0030736D01*
X0230601Y0031220D01*
X0230117Y0031220D01*
X0230601Y0031220D02*
X0231085Y0031704D01*
X0231085Y0032187D01*
X0230601Y0032671D01*
X0229634Y0032671D01*
X0229150Y0032187D01*
X0232097Y0030252D02*
X0232580Y0030252D01*
X0232580Y0029769D01*
X0232097Y0029769D01*
X0232097Y0030252D01*
X0233570Y0030252D02*
X0234054Y0029769D01*
X0235021Y0029769D01*
X0235505Y0030252D01*
X0235505Y0030736D01*
X0235021Y0031220D01*
X0234537Y0031220D01*
X0235021Y0031220D02*
X0235505Y0031704D01*
X0235505Y0032187D01*
X0235021Y0032671D01*
X0234054Y0032671D01*
X0233570Y0032187D01*
X0236516Y0032671D02*
X0236516Y0030736D01*
X0237484Y0029769D01*
X0238451Y0030736D01*
X0238451Y0032671D01*
X0240650Y0031704D02*
X0241617Y0032671D01*
X0242585Y0031704D01*
X0242585Y0029769D01*
X0243597Y0030252D02*
X0245531Y0032187D01*
X0245531Y0030252D01*
X0245048Y0029769D01*
X0244080Y0029769D01*
X0243597Y0030252D01*
X0243597Y0032187D01*
X0244080Y0032671D01*
X0245048Y0032671D01*
X0245531Y0032187D01*
X0242585Y0031220D02*
X0240650Y0031220D01*
X0240650Y0031704D02*
X0240650Y0029769D01*
X0250650Y0029769D02*
X0250650Y0031704D01*
X0251617Y0032671D01*
X0252585Y0031704D01*
X0252585Y0029769D01*
X0253597Y0029769D02*
X0255531Y0029769D01*
X0254564Y0029769D02*
X0254564Y0032671D01*
X0253597Y0031704D01*
X0252585Y0031220D02*
X0250650Y0031220D01*
X0238194Y0087269D02*
X0237227Y0087269D01*
X0236743Y0087752D01*
X0237227Y0088720D02*
X0238678Y0088720D01*
X0238678Y0089687D02*
X0238678Y0087752D01*
X0238194Y0087269D01*
X0237227Y0088720D02*
X0236743Y0089204D01*
X0236743Y0089687D01*
X0237227Y0090171D01*
X0238194Y0090171D01*
X0238678Y0089687D01*
X0234764Y0090171D02*
X0234764Y0087269D01*
X0233797Y0087269D02*
X0235731Y0087269D01*
X0232785Y0087269D02*
X0231817Y0088236D01*
X0232301Y0088236D02*
X0230850Y0088236D01*
X0230850Y0087269D02*
X0230850Y0090171D01*
X0232301Y0090171D01*
X0232785Y0089687D01*
X0232785Y0088720D01*
X0232301Y0088236D01*
X0233797Y0089204D02*
X0234764Y0090171D01*
X0234797Y0101706D02*
X0234797Y0104608D01*
X0236249Y0104608D01*
X0236732Y0104124D01*
X0236732Y0103157D01*
X0236249Y0102673D01*
X0234797Y0102673D01*
X0235765Y0102673D02*
X0236732Y0101706D01*
X0237744Y0102189D02*
X0238228Y0101706D01*
X0239195Y0101706D01*
X0239679Y0102189D01*
X0239679Y0104124D01*
X0239195Y0104608D01*
X0238228Y0104608D01*
X0237744Y0104124D01*
X0237744Y0102189D01*
X0240690Y0102189D02*
X0241174Y0101706D01*
X0242142Y0101706D01*
X0242625Y0102189D01*
X0242625Y0103157D01*
X0241658Y0103157D01*
X0242625Y0104124D02*
X0242142Y0104608D01*
X0241174Y0104608D01*
X0240690Y0104124D01*
X0240690Y0102189D01*
X0241257Y0105069D02*
X0241257Y0107004D01*
X0242224Y0107971D01*
X0243192Y0107004D01*
X0243192Y0105069D01*
X0244203Y0105069D02*
X0246138Y0107004D01*
X0246138Y0107487D01*
X0245655Y0107971D01*
X0244687Y0107971D01*
X0244203Y0107487D01*
X0243192Y0106520D02*
X0241257Y0106520D01*
X0238138Y0106036D02*
X0238138Y0107971D01*
X0236203Y0107971D02*
X0236203Y0106036D01*
X0237171Y0105069D01*
X0238138Y0106036D01*
X0235192Y0106036D02*
X0235192Y0105552D01*
X0234708Y0105069D01*
X0233741Y0105069D01*
X0233257Y0105552D01*
X0233302Y0104608D02*
X0233786Y0104124D01*
X0233786Y0103157D01*
X0233302Y0102673D01*
X0231851Y0102673D01*
X0231851Y0101706D02*
X0231851Y0104608D01*
X0233302Y0104608D01*
X0232267Y0105069D02*
X0231784Y0105069D01*
X0231784Y0105552D01*
X0232267Y0105552D01*
X0232267Y0105069D01*
X0230772Y0105552D02*
X0230772Y0106036D01*
X0230288Y0106520D01*
X0229805Y0106520D01*
X0230288Y0106520D02*
X0230772Y0107004D01*
X0230772Y0107487D01*
X0230288Y0107971D01*
X0229321Y0107971D01*
X0228837Y0107487D01*
X0226138Y0107487D02*
X0225655Y0107971D01*
X0224203Y0107971D01*
X0224203Y0105069D01*
X0225655Y0105069D01*
X0226138Y0105552D01*
X0226138Y0107487D01*
X0223192Y0107971D02*
X0223192Y0105069D01*
X0221257Y0107971D01*
X0221257Y0105069D01*
X0220245Y0105552D02*
X0220245Y0106520D01*
X0219278Y0106520D01*
X0220245Y0107487D02*
X0219762Y0107971D01*
X0218794Y0107971D01*
X0218310Y0107487D01*
X0218310Y0105552D01*
X0218794Y0105069D01*
X0219762Y0105069D01*
X0220245Y0105552D01*
X0215220Y0105807D02*
X0214737Y0106290D01*
X0214253Y0106290D01*
X0213285Y0105807D01*
X0213285Y0107258D01*
X0215220Y0107258D01*
X0212274Y0107258D02*
X0212274Y0104839D01*
X0211790Y0104355D01*
X0210823Y0104355D01*
X0210339Y0104839D01*
X0210339Y0107258D01*
X0207138Y0107971D02*
X0206171Y0107487D01*
X0205203Y0106520D01*
X0206655Y0106520D01*
X0207138Y0106036D01*
X0207138Y0105552D01*
X0206655Y0105069D01*
X0205687Y0105069D01*
X0205203Y0105552D01*
X0205203Y0106520D01*
X0204192Y0105069D02*
X0202257Y0105069D01*
X0203224Y0105069D02*
X0203224Y0107971D01*
X0202257Y0107004D01*
X0201245Y0107487D02*
X0201245Y0106520D01*
X0200762Y0106036D01*
X0199310Y0106036D01*
X0199310Y0105069D02*
X0199310Y0107971D01*
X0200762Y0107971D01*
X0201245Y0107487D01*
X0197138Y0107487D02*
X0195203Y0105552D01*
X0195203Y0105069D01*
X0194192Y0105069D02*
X0192257Y0105069D01*
X0193224Y0105069D02*
X0193224Y0107971D01*
X0192257Y0107004D01*
X0191245Y0107487D02*
X0191245Y0106520D01*
X0190762Y0106036D01*
X0189310Y0106036D01*
X0189310Y0105069D02*
X0189310Y0107971D01*
X0190762Y0107971D01*
X0191245Y0107487D01*
X0187138Y0107487D02*
X0187138Y0107004D01*
X0186655Y0106520D01*
X0185687Y0106520D01*
X0185203Y0107004D01*
X0185203Y0107487D01*
X0185687Y0107971D01*
X0186655Y0107971D01*
X0187138Y0107487D01*
X0186655Y0106520D02*
X0187138Y0106036D01*
X0187138Y0105552D01*
X0186655Y0105069D01*
X0185687Y0105069D01*
X0185203Y0105552D01*
X0185203Y0106036D01*
X0185687Y0106520D01*
X0184192Y0105069D02*
X0182257Y0105069D01*
X0183224Y0105069D02*
X0183224Y0107971D01*
X0182257Y0107004D01*
X0181245Y0107487D02*
X0181245Y0106520D01*
X0180762Y0106036D01*
X0179310Y0106036D01*
X0179310Y0105069D02*
X0179310Y0107971D01*
X0180762Y0107971D01*
X0181245Y0107487D01*
X0177138Y0107487D02*
X0177138Y0105552D01*
X0176655Y0105069D01*
X0175687Y0105069D01*
X0175203Y0105552D01*
X0175687Y0106520D02*
X0177138Y0106520D01*
X0177138Y0107487D02*
X0176655Y0107971D01*
X0175687Y0107971D01*
X0175203Y0107487D01*
X0175203Y0107004D01*
X0175687Y0106520D01*
X0174192Y0105069D02*
X0172257Y0105069D01*
X0173224Y0105069D02*
X0173224Y0107971D01*
X0172257Y0107004D01*
X0171245Y0107487D02*
X0171245Y0106520D01*
X0170762Y0106036D01*
X0169310Y0106036D01*
X0169310Y0105069D02*
X0169310Y0107971D01*
X0170762Y0107971D01*
X0171245Y0107487D01*
X0167138Y0107487D02*
X0165203Y0105552D01*
X0165687Y0105069D01*
X0166655Y0105069D01*
X0167138Y0105552D01*
X0167138Y0107487D01*
X0166655Y0107971D01*
X0165687Y0107971D01*
X0165203Y0107487D01*
X0165203Y0105552D01*
X0164192Y0105069D02*
X0162257Y0105069D01*
X0164192Y0107004D01*
X0164192Y0107487D01*
X0163708Y0107971D01*
X0162741Y0107971D01*
X0162257Y0107487D01*
X0161245Y0107487D02*
X0161245Y0106520D01*
X0160762Y0106036D01*
X0159310Y0106036D01*
X0159310Y0105069D02*
X0159310Y0107971D01*
X0160762Y0107971D01*
X0161245Y0107487D01*
X0157138Y0105069D02*
X0155203Y0105069D01*
X0156171Y0105069D02*
X0156171Y0107971D01*
X0155203Y0107004D01*
X0154192Y0107004D02*
X0154192Y0107487D01*
X0153708Y0107971D01*
X0152741Y0107971D01*
X0152257Y0107487D01*
X0151245Y0107487D02*
X0151245Y0106520D01*
X0150762Y0106036D01*
X0149310Y0106036D01*
X0149310Y0105069D02*
X0149310Y0107971D01*
X0150762Y0107971D01*
X0151245Y0107487D01*
X0152257Y0105069D02*
X0154192Y0107004D01*
X0154192Y0105069D02*
X0152257Y0105069D01*
X0147138Y0105069D02*
X0145203Y0105069D01*
X0147138Y0107004D01*
X0147138Y0107487D01*
X0146655Y0107971D01*
X0145687Y0107971D01*
X0145203Y0107487D01*
X0144192Y0107487D02*
X0143708Y0107971D01*
X0142741Y0107971D01*
X0142257Y0107487D01*
X0141245Y0107487D02*
X0141245Y0106520D01*
X0140762Y0106036D01*
X0139310Y0106036D01*
X0139310Y0105069D02*
X0139310Y0107971D01*
X0140762Y0107971D01*
X0141245Y0107487D01*
X0137138Y0107487D02*
X0137138Y0107004D01*
X0136655Y0106520D01*
X0137138Y0106036D01*
X0137138Y0105552D01*
X0136655Y0105069D01*
X0135687Y0105069D01*
X0135203Y0105552D01*
X0134192Y0105069D02*
X0132257Y0105069D01*
X0134192Y0107004D01*
X0134192Y0107487D01*
X0133708Y0107971D01*
X0132741Y0107971D01*
X0132257Y0107487D01*
X0131245Y0107487D02*
X0131245Y0106520D01*
X0130762Y0106036D01*
X0129310Y0106036D01*
X0129310Y0105069D02*
X0129310Y0107971D01*
X0130762Y0107971D01*
X0131245Y0107487D01*
X0135203Y0107487D02*
X0135687Y0107971D01*
X0136655Y0107971D01*
X0137138Y0107487D01*
X0136655Y0106520D02*
X0136171Y0106520D01*
X0142257Y0105069D02*
X0144192Y0107004D01*
X0144192Y0107487D01*
X0144192Y0105069D02*
X0142257Y0105069D01*
X0135169Y0102437D02*
X0135169Y0101954D01*
X0134686Y0101470D01*
X0135169Y0100986D01*
X0135169Y0100502D01*
X0134686Y0100019D01*
X0133718Y0100019D01*
X0133234Y0100502D01*
X0132223Y0100502D02*
X0131739Y0100019D01*
X0130772Y0100019D01*
X0130288Y0100502D01*
X0130288Y0102437D01*
X0130772Y0102921D01*
X0131739Y0102921D01*
X0132223Y0102437D01*
X0133234Y0102437D02*
X0133718Y0102921D01*
X0134686Y0102921D01*
X0135169Y0102437D01*
X0134686Y0101470D02*
X0134202Y0101470D01*
X0126655Y0105069D02*
X0126655Y0107971D01*
X0125203Y0106520D01*
X0127138Y0106520D01*
X0124192Y0107004D02*
X0122257Y0105069D01*
X0124192Y0105069D01*
X0124192Y0107004D02*
X0124192Y0107487D01*
X0123708Y0107971D01*
X0122741Y0107971D01*
X0122257Y0107487D01*
X0121245Y0107487D02*
X0121245Y0106520D01*
X0120762Y0106036D01*
X0119310Y0106036D01*
X0119310Y0105069D02*
X0119310Y0107971D01*
X0120762Y0107971D01*
X0121245Y0107487D01*
X0117138Y0107971D02*
X0115203Y0107971D01*
X0115203Y0106520D01*
X0116171Y0107004D01*
X0116655Y0107004D01*
X0117138Y0106520D01*
X0117138Y0105552D01*
X0116655Y0105069D01*
X0115687Y0105069D01*
X0115203Y0105552D01*
X0114192Y0105069D02*
X0112257Y0105069D01*
X0114192Y0107004D01*
X0114192Y0107487D01*
X0113708Y0107971D01*
X0112741Y0107971D01*
X0112257Y0107487D01*
X0111245Y0107487D02*
X0111245Y0106520D01*
X0110762Y0106036D01*
X0109310Y0106036D01*
X0109310Y0105069D02*
X0109310Y0107971D01*
X0110762Y0107971D01*
X0111245Y0107487D01*
X0107138Y0107971D02*
X0106171Y0107487D01*
X0105203Y0106520D01*
X0106655Y0106520D01*
X0107138Y0106036D01*
X0107138Y0105552D01*
X0106655Y0105069D01*
X0105687Y0105069D01*
X0105203Y0105552D01*
X0105203Y0106520D01*
X0104192Y0107004D02*
X0102257Y0105069D01*
X0104192Y0105069D01*
X0104192Y0107004D02*
X0104192Y0107487D01*
X0103708Y0107971D01*
X0102741Y0107971D01*
X0102257Y0107487D01*
X0101245Y0107487D02*
X0101245Y0106520D01*
X0100762Y0106036D01*
X0099310Y0106036D01*
X0099310Y0105069D02*
X0099310Y0107971D01*
X0100762Y0107971D01*
X0101245Y0107487D01*
X0097138Y0107487D02*
X0095203Y0105552D01*
X0095203Y0105069D01*
X0094192Y0105069D02*
X0092257Y0105069D01*
X0094192Y0107004D01*
X0094192Y0107487D01*
X0093708Y0107971D01*
X0092741Y0107971D01*
X0092257Y0107487D01*
X0091245Y0107487D02*
X0091245Y0106520D01*
X0090762Y0106036D01*
X0089310Y0106036D01*
X0089310Y0105069D02*
X0089310Y0107971D01*
X0090762Y0107971D01*
X0091245Y0107487D01*
X0095203Y0107971D02*
X0097138Y0107971D01*
X0097138Y0107487D01*
X0087138Y0107487D02*
X0087138Y0107004D01*
X0086655Y0106520D01*
X0085687Y0106520D01*
X0085203Y0107004D01*
X0085203Y0107487D01*
X0085687Y0107971D01*
X0086655Y0107971D01*
X0087138Y0107487D01*
X0086655Y0106520D02*
X0087138Y0106036D01*
X0087138Y0105552D01*
X0086655Y0105069D01*
X0085687Y0105069D01*
X0085203Y0105552D01*
X0085203Y0106036D01*
X0085687Y0106520D01*
X0084192Y0107004D02*
X0082257Y0105069D01*
X0084192Y0105069D01*
X0084192Y0107004D02*
X0084192Y0107487D01*
X0083708Y0107971D01*
X0082741Y0107971D01*
X0082257Y0107487D01*
X0081245Y0107487D02*
X0081245Y0106520D01*
X0080762Y0106036D01*
X0079310Y0106036D01*
X0079310Y0105069D02*
X0079310Y0107971D01*
X0080762Y0107971D01*
X0081245Y0107487D01*
X0077138Y0107487D02*
X0076655Y0107971D01*
X0075687Y0107971D01*
X0075203Y0107487D01*
X0075203Y0107004D01*
X0075687Y0106520D01*
X0077138Y0106520D01*
X0077138Y0107487D02*
X0077138Y0105552D01*
X0076655Y0105069D01*
X0075687Y0105069D01*
X0075203Y0105552D01*
X0074192Y0105069D02*
X0072257Y0105069D01*
X0074192Y0107004D01*
X0074192Y0107487D01*
X0073708Y0107971D01*
X0072741Y0107971D01*
X0072257Y0107487D01*
X0071245Y0107487D02*
X0071245Y0106520D01*
X0070762Y0106036D01*
X0069310Y0106036D01*
X0069310Y0105069D02*
X0069310Y0107971D01*
X0070762Y0107971D01*
X0071245Y0107487D01*
X0067138Y0107487D02*
X0065203Y0105552D01*
X0065687Y0105069D01*
X0066655Y0105069D01*
X0067138Y0105552D01*
X0067138Y0107487D01*
X0066655Y0107971D01*
X0065687Y0107971D01*
X0065203Y0107487D01*
X0065203Y0105552D01*
X0064192Y0105552D02*
X0064192Y0106036D01*
X0063708Y0106520D01*
X0063224Y0106520D01*
X0063708Y0106520D02*
X0064192Y0107004D01*
X0064192Y0107487D01*
X0063708Y0107971D01*
X0062741Y0107971D01*
X0062257Y0107487D01*
X0061245Y0107487D02*
X0061245Y0106520D01*
X0060762Y0106036D01*
X0059310Y0106036D01*
X0059310Y0105069D02*
X0059310Y0107971D01*
X0060762Y0107971D01*
X0061245Y0107487D01*
X0062257Y0105552D02*
X0062741Y0105069D01*
X0063708Y0105069D01*
X0064192Y0105552D01*
X0057138Y0105069D02*
X0055203Y0105069D01*
X0056171Y0105069D02*
X0056171Y0107971D01*
X0055203Y0107004D01*
X0054192Y0107004D02*
X0053708Y0106520D01*
X0054192Y0106036D01*
X0054192Y0105552D01*
X0053708Y0105069D01*
X0052741Y0105069D01*
X0052257Y0105552D01*
X0053224Y0106520D02*
X0053708Y0106520D01*
X0054192Y0107004D02*
X0054192Y0107487D01*
X0053708Y0107971D01*
X0052741Y0107971D01*
X0052257Y0107487D01*
X0051245Y0107487D02*
X0051245Y0106520D01*
X0050762Y0106036D01*
X0049310Y0106036D01*
X0049310Y0105069D02*
X0049310Y0107971D01*
X0050762Y0107971D01*
X0051245Y0107487D01*
X0047138Y0107487D02*
X0047138Y0105552D01*
X0046655Y0105069D01*
X0045203Y0105069D01*
X0045203Y0107971D01*
X0046655Y0107971D01*
X0047138Y0107487D01*
X0044192Y0107971D02*
X0044192Y0105069D01*
X0042257Y0107971D01*
X0042257Y0105069D01*
X0041245Y0105552D02*
X0041245Y0106520D01*
X0040278Y0106520D01*
X0041245Y0107487D02*
X0040762Y0107971D01*
X0039794Y0107971D01*
X0039310Y0107487D01*
X0039310Y0105552D01*
X0039794Y0105069D01*
X0040762Y0105069D01*
X0041245Y0105552D01*
X0037138Y0106036D02*
X0037138Y0107971D01*
X0035203Y0107971D02*
X0035203Y0106036D01*
X0036171Y0105069D01*
X0037138Y0106036D01*
X0034192Y0106036D02*
X0034192Y0105552D01*
X0033708Y0105069D01*
X0032741Y0105069D01*
X0032257Y0105552D01*
X0031267Y0105552D02*
X0031267Y0105069D01*
X0030784Y0105069D01*
X0030784Y0105552D01*
X0031267Y0105552D01*
X0029772Y0105552D02*
X0029772Y0106036D01*
X0029288Y0106520D01*
X0028805Y0106520D01*
X0029288Y0106520D02*
X0029772Y0107004D01*
X0029772Y0107487D01*
X0029288Y0107971D01*
X0028321Y0107971D01*
X0027837Y0107487D01*
X0026138Y0107487D02*
X0026138Y0107004D01*
X0025655Y0106520D01*
X0024203Y0106520D01*
X0023192Y0106036D02*
X0023192Y0105552D01*
X0022708Y0105069D01*
X0021741Y0105069D01*
X0021257Y0105552D01*
X0020245Y0105552D02*
X0020245Y0107971D01*
X0021257Y0107487D02*
X0021257Y0107004D01*
X0021741Y0106520D01*
X0022708Y0106520D01*
X0023192Y0106036D01*
X0024203Y0105069D02*
X0025655Y0105069D01*
X0026138Y0105552D01*
X0026138Y0106036D01*
X0025655Y0106520D01*
X0026138Y0107487D02*
X0025655Y0107971D01*
X0024203Y0107971D01*
X0024203Y0105069D01*
X0027837Y0105552D02*
X0028321Y0105069D01*
X0029288Y0105069D01*
X0029772Y0105552D01*
X0033224Y0106520D02*
X0033708Y0106520D01*
X0034192Y0106036D01*
X0033708Y0106520D02*
X0034192Y0107004D01*
X0034192Y0107487D01*
X0033708Y0107971D01*
X0032741Y0107971D01*
X0032257Y0107487D01*
X0023192Y0107487D02*
X0022708Y0107971D01*
X0021741Y0107971D01*
X0021257Y0107487D01*
X0018310Y0107971D02*
X0018310Y0105552D01*
X0018794Y0105069D01*
X0019762Y0105069D01*
X0020245Y0105552D01*
X0016638Y0105069D02*
X0016638Y0107971D01*
X0014703Y0107971D02*
X0016638Y0105069D01*
X0014703Y0105069D02*
X0014703Y0107971D01*
X0013707Y0107971D02*
X0012739Y0107971D01*
X0013223Y0107971D02*
X0013223Y0105069D01*
X0012739Y0105069D02*
X0013707Y0105069D01*
X0011728Y0106036D02*
X0011728Y0107971D01*
X0011728Y0106036D02*
X0010760Y0105069D01*
X0009793Y0106036D01*
X0009793Y0107971D01*
X0009931Y0103350D02*
X0009448Y0102866D01*
X0009448Y0101899D01*
X0009931Y0101415D01*
X0009931Y0103350D02*
X0010415Y0103350D01*
X0012350Y0101415D01*
X0012350Y0103350D01*
X0012350Y0100404D02*
X0012350Y0098469D01*
X0009448Y0098469D01*
X0012220Y0095788D02*
X0012220Y0093853D01*
X0012220Y0094820D02*
X0009318Y0094820D01*
X0010285Y0093853D01*
X0009318Y0092841D02*
X0009318Y0091874D01*
X0009318Y0092358D02*
X0011736Y0092358D01*
X0012220Y0091874D01*
X0012220Y0091390D01*
X0011736Y0090906D01*
X0017350Y0088671D02*
X0018801Y0088671D01*
X0019285Y0088187D01*
X0019285Y0087220D01*
X0018801Y0086736D01*
X0017350Y0086736D01*
X0017350Y0085769D02*
X0017350Y0088671D01*
X0018317Y0086736D02*
X0019285Y0085769D01*
X0020297Y0085769D02*
X0022231Y0085769D01*
X0021264Y0085769D02*
X0021264Y0088671D01*
X0020297Y0087704D01*
X0023243Y0087220D02*
X0023243Y0086252D01*
X0023727Y0085769D01*
X0024694Y0085769D01*
X0025178Y0086252D01*
X0025178Y0086736D01*
X0024694Y0087220D01*
X0023243Y0087220D01*
X0024211Y0088187D01*
X0025178Y0088671D01*
X0047788Y0085937D02*
X0047788Y0084002D01*
X0048272Y0083519D01*
X0049239Y0083519D01*
X0049723Y0084002D01*
X0050734Y0083519D02*
X0052669Y0083519D01*
X0051702Y0083519D02*
X0051702Y0086421D01*
X0050734Y0085454D01*
X0049723Y0085937D02*
X0049239Y0086421D01*
X0048272Y0086421D01*
X0047788Y0085937D01*
X0047851Y0079384D02*
X0047851Y0076481D01*
X0049786Y0076481D01*
X0050797Y0076481D02*
X0052732Y0076481D01*
X0051765Y0076481D02*
X0051765Y0079384D01*
X0050797Y0078416D01*
X0051764Y0073671D02*
X0051764Y0070769D01*
X0050797Y0070769D02*
X0052731Y0070769D01*
X0053743Y0071252D02*
X0054227Y0070769D01*
X0055194Y0070769D01*
X0055678Y0071252D01*
X0055678Y0073187D01*
X0055194Y0073671D01*
X0054227Y0073671D01*
X0053743Y0073187D01*
X0053743Y0072704D01*
X0054227Y0072220D01*
X0055678Y0072220D01*
X0051764Y0073671D02*
X0050797Y0072704D01*
X0049785Y0073187D02*
X0049301Y0073671D01*
X0048334Y0073671D01*
X0047850Y0073187D01*
X0047850Y0071252D01*
X0048334Y0070769D01*
X0049301Y0070769D01*
X0049785Y0071252D01*
X0049739Y0067421D02*
X0050223Y0066937D01*
X0050223Y0065970D01*
X0049739Y0065486D01*
X0048288Y0065486D01*
X0049255Y0065486D02*
X0050223Y0064519D01*
X0051234Y0064519D02*
X0053169Y0064519D01*
X0052202Y0064519D02*
X0052202Y0067421D01*
X0051234Y0066454D01*
X0049739Y0067421D02*
X0048288Y0067421D01*
X0048288Y0064519D01*
X0048288Y0061421D02*
X0049739Y0061421D01*
X0050223Y0060937D01*
X0050223Y0059970D01*
X0049739Y0059486D01*
X0048288Y0059486D01*
X0049255Y0059486D02*
X0050223Y0058519D01*
X0051234Y0058519D02*
X0053169Y0058519D01*
X0052202Y0058519D02*
X0052202Y0061421D01*
X0051234Y0060454D01*
X0054181Y0060937D02*
X0054665Y0061421D01*
X0055632Y0061421D01*
X0056116Y0060937D01*
X0056116Y0060454D01*
X0054181Y0058519D01*
X0056116Y0058519D01*
X0055694Y0056171D02*
X0056178Y0055687D01*
X0056178Y0055204D01*
X0055694Y0054720D01*
X0054727Y0054720D01*
X0054243Y0055204D01*
X0054243Y0055687D01*
X0054727Y0056171D01*
X0055694Y0056171D01*
X0055694Y0054720D02*
X0056178Y0054236D01*
X0056178Y0053752D01*
X0055694Y0053269D01*
X0054727Y0053269D01*
X0054243Y0053752D01*
X0054243Y0054236D01*
X0054727Y0054720D01*
X0053231Y0053269D02*
X0051297Y0053269D01*
X0052264Y0053269D02*
X0052264Y0056171D01*
X0051297Y0055204D01*
X0050285Y0055687D02*
X0049801Y0056171D01*
X0048834Y0056171D01*
X0048350Y0055687D01*
X0048350Y0053752D01*
X0048834Y0053269D01*
X0049801Y0053269D01*
X0050285Y0053752D01*
X0048288Y0058519D02*
X0048288Y0061421D01*
X0054181Y0065002D02*
X0054665Y0064519D01*
X0055632Y0064519D01*
X0056116Y0065002D01*
X0056116Y0065486D01*
X0055632Y0065970D01*
X0055148Y0065970D01*
X0055632Y0065970D02*
X0056116Y0066454D01*
X0056116Y0066937D01*
X0055632Y0067421D01*
X0054665Y0067421D01*
X0054181Y0066937D01*
X0064288Y0060937D02*
X0064772Y0061421D01*
X0065739Y0061421D01*
X0066223Y0060937D01*
X0067234Y0061421D02*
X0069169Y0061421D01*
X0069169Y0060937D01*
X0067234Y0059002D01*
X0067234Y0058519D01*
X0066223Y0059002D02*
X0065739Y0058519D01*
X0064772Y0058519D01*
X0064288Y0059002D01*
X0064288Y0060937D01*
X0072626Y0051045D02*
X0074078Y0051045D01*
X0074561Y0050561D01*
X0074561Y0049594D01*
X0074078Y0049110D01*
X0072626Y0049110D01*
X0072626Y0048143D02*
X0072626Y0051045D01*
X0075573Y0051045D02*
X0075573Y0048143D01*
X0077508Y0048143D01*
X0078519Y0048626D02*
X0079003Y0048143D01*
X0079971Y0048143D01*
X0080454Y0048626D01*
X0080454Y0049110D01*
X0079971Y0049594D01*
X0079003Y0049594D01*
X0078519Y0050078D01*
X0078519Y0050561D01*
X0079003Y0051045D01*
X0079971Y0051045D01*
X0080454Y0050561D01*
X0081466Y0051045D02*
X0081466Y0048143D01*
X0083401Y0048143D01*
X0085380Y0048143D02*
X0085380Y0051045D01*
X0086347Y0051045D02*
X0084412Y0051045D01*
X0083401Y0051045D02*
X0081466Y0051045D01*
X0081466Y0049594D02*
X0082433Y0049594D01*
X0077508Y0051045D02*
X0075573Y0051045D01*
X0075573Y0049594D02*
X0076540Y0049594D01*
X0074561Y0048143D02*
X0073594Y0049110D01*
X0065169Y0047437D02*
X0064686Y0047921D01*
X0063718Y0047921D01*
X0063234Y0047437D01*
X0062223Y0047437D02*
X0062223Y0046470D01*
X0061739Y0045986D01*
X0060288Y0045986D01*
X0061255Y0045986D02*
X0062223Y0045019D01*
X0063234Y0045019D02*
X0065169Y0046954D01*
X0065169Y0047437D01*
X0062223Y0047437D02*
X0061739Y0047921D01*
X0060288Y0047921D01*
X0060288Y0045019D01*
X0063234Y0045019D02*
X0065169Y0045019D01*
X0064202Y0040421D02*
X0064202Y0037519D01*
X0065169Y0037519D02*
X0063234Y0037519D01*
X0062223Y0037519D02*
X0061255Y0038486D01*
X0061739Y0038486D02*
X0060288Y0038486D01*
X0060288Y0037519D02*
X0060288Y0040421D01*
X0061739Y0040421D01*
X0062223Y0039937D01*
X0062223Y0038970D01*
X0061739Y0038486D01*
X0063234Y0039454D02*
X0064202Y0040421D01*
X0066788Y0037921D02*
X0068239Y0037921D01*
X0068723Y0037437D01*
X0068723Y0036470D01*
X0068239Y0035986D01*
X0066788Y0035986D01*
X0067755Y0035986D02*
X0068723Y0035019D01*
X0069734Y0035019D02*
X0071669Y0035019D01*
X0070702Y0035019D02*
X0070702Y0037921D01*
X0069734Y0036954D01*
X0072681Y0036470D02*
X0074616Y0036470D01*
X0074132Y0035019D02*
X0074132Y0037921D01*
X0072681Y0036470D01*
X0066788Y0035019D02*
X0066788Y0037921D01*
X0101874Y0044012D02*
X0102358Y0043529D01*
X0103326Y0043529D01*
X0103809Y0044012D01*
X0103809Y0046431D01*
X0104821Y0045463D02*
X0105788Y0046431D01*
X0105788Y0043529D01*
X0104821Y0043529D02*
X0106756Y0043529D01*
X0101874Y0044012D02*
X0101874Y0046431D01*
X0112288Y0043937D02*
X0112288Y0042002D01*
X0112772Y0041519D01*
X0113739Y0041519D01*
X0114223Y0042002D01*
X0115234Y0042002D02*
X0115718Y0041519D01*
X0116686Y0041519D01*
X0117169Y0042002D01*
X0117169Y0042486D01*
X0116686Y0042970D01*
X0115234Y0042970D01*
X0115234Y0042002D01*
X0115234Y0042970D02*
X0116202Y0043937D01*
X0117169Y0044421D01*
X0114223Y0043937D02*
X0113739Y0044421D01*
X0112772Y0044421D01*
X0112288Y0043937D01*
X0096686Y0074519D02*
X0095718Y0074519D01*
X0095234Y0075002D01*
X0095234Y0075970D02*
X0096202Y0076454D01*
X0096686Y0076454D01*
X0097169Y0075970D01*
X0097169Y0075002D01*
X0096686Y0074519D01*
X0094223Y0075002D02*
X0093739Y0074519D01*
X0092772Y0074519D01*
X0092288Y0075002D01*
X0092288Y0076937D01*
X0092772Y0077421D01*
X0093739Y0077421D01*
X0094223Y0076937D01*
X0095234Y0077421D02*
X0095234Y0075970D01*
X0095234Y0077421D02*
X0097169Y0077421D01*
X0095498Y0089301D02*
X0095498Y0092204D01*
X0096950Y0092204D01*
X0097433Y0091720D01*
X0097433Y0090752D01*
X0096950Y0090269D01*
X0095498Y0090269D01*
X0094487Y0090752D02*
X0094003Y0090269D01*
X0093036Y0090269D01*
X0092552Y0090752D01*
X0092552Y0091720D01*
X0093036Y0092204D01*
X0094003Y0092204D01*
X0094487Y0091720D01*
X0094487Y0090752D01*
X0091548Y0092204D02*
X0091064Y0092204D01*
X0090097Y0091236D01*
X0090097Y0090269D02*
X0090097Y0092204D01*
X0089085Y0092687D02*
X0089085Y0091720D01*
X0088601Y0091236D01*
X0087150Y0091236D01*
X0087150Y0090269D02*
X0087150Y0093171D01*
X0088601Y0093171D01*
X0089085Y0092687D01*
X0086181Y0095019D02*
X0086181Y0095502D01*
X0088116Y0097437D01*
X0088116Y0097921D01*
X0086181Y0097921D01*
X0084202Y0097921D02*
X0083234Y0096954D01*
X0082223Y0097437D02*
X0082223Y0096470D01*
X0081739Y0095986D01*
X0080288Y0095986D01*
X0081255Y0095986D02*
X0082223Y0095019D01*
X0083234Y0095019D02*
X0085169Y0095019D01*
X0084202Y0095019D02*
X0084202Y0097921D01*
X0082223Y0097437D02*
X0081739Y0097921D01*
X0080288Y0097921D01*
X0080288Y0095019D01*
X0071634Y0098989D02*
X0071150Y0098505D01*
X0070183Y0098505D01*
X0069699Y0098989D01*
X0068687Y0098989D02*
X0068687Y0101407D01*
X0069699Y0100924D02*
X0070183Y0101407D01*
X0071150Y0101407D01*
X0071634Y0100924D01*
X0071634Y0100440D01*
X0071150Y0099956D01*
X0071634Y0099472D01*
X0071634Y0098989D01*
X0071150Y0099956D02*
X0070666Y0099956D01*
X0068687Y0098989D02*
X0068204Y0098505D01*
X0067236Y0098505D01*
X0066752Y0098989D01*
X0066752Y0101407D01*
X0061116Y0100921D02*
X0059181Y0100921D01*
X0059181Y0099470D01*
X0060148Y0099954D01*
X0060632Y0099954D01*
X0061116Y0099470D01*
X0061116Y0098502D01*
X0060632Y0098019D01*
X0059665Y0098019D01*
X0059181Y0098502D01*
X0058169Y0098019D02*
X0056234Y0098019D01*
X0057202Y0098019D02*
X0057202Y0100921D01*
X0056234Y0099954D01*
X0055223Y0100437D02*
X0054739Y0100921D01*
X0053772Y0100921D01*
X0053288Y0100437D01*
X0053288Y0098502D01*
X0053772Y0098019D01*
X0054739Y0098019D01*
X0055223Y0098502D01*
X0051031Y0101687D02*
X0049097Y0099752D01*
X0049097Y0099269D01*
X0048085Y0099752D02*
X0048085Y0102171D01*
X0049097Y0102171D02*
X0051031Y0102171D01*
X0051031Y0101687D01*
X0048085Y0099752D02*
X0047601Y0099269D01*
X0046634Y0099269D01*
X0046150Y0099752D01*
X0046150Y0102171D01*
X0098445Y0089785D02*
X0100380Y0089785D01*
X0101391Y0090269D02*
X0102843Y0090269D01*
X0103326Y0090752D01*
X0103326Y0092687D01*
X0102843Y0093171D01*
X0101391Y0093171D01*
X0101391Y0090269D01*
X0104338Y0090752D02*
X0104338Y0091720D01*
X0104822Y0092204D01*
X0105789Y0092204D01*
X0106273Y0091720D01*
X0106273Y0091236D01*
X0104338Y0091236D01*
X0104338Y0090752D02*
X0104822Y0090269D01*
X0105789Y0090269D01*
X0107285Y0092204D02*
X0108252Y0090269D01*
X0109220Y0092204D01*
X0110231Y0089785D02*
X0112166Y0089785D01*
X0113178Y0090269D02*
X0114629Y0090269D01*
X0115113Y0090752D01*
X0115113Y0091236D01*
X0114629Y0091720D01*
X0113178Y0091720D01*
X0114629Y0091720D02*
X0115113Y0092204D01*
X0115113Y0092687D01*
X0114629Y0093171D01*
X0113178Y0093171D01*
X0113178Y0090269D01*
X0116124Y0090269D02*
X0117092Y0090269D01*
X0116608Y0090269D02*
X0116608Y0092204D01*
X0116124Y0092204D01*
X0116608Y0093171D02*
X0116608Y0093655D01*
X0118088Y0092204D02*
X0119056Y0092204D01*
X0118572Y0092687D02*
X0118572Y0090752D01*
X0119056Y0090269D01*
X0120053Y0089785D02*
X0121988Y0089785D01*
X0122999Y0090269D02*
X0122999Y0093171D01*
X0124934Y0093171D01*
X0125946Y0093171D02*
X0126430Y0093171D01*
X0126430Y0090269D01*
X0126913Y0090269D02*
X0125946Y0090269D01*
X0127910Y0090269D02*
X0128878Y0090269D01*
X0128394Y0090269D02*
X0128394Y0092204D01*
X0127910Y0092204D01*
X0128394Y0093171D02*
X0128394Y0093655D01*
X0129875Y0091720D02*
X0129875Y0090752D01*
X0130358Y0090269D01*
X0131809Y0090269D01*
X0132821Y0090269D02*
X0132821Y0093171D01*
X0131809Y0092204D02*
X0130358Y0092204D01*
X0129875Y0091720D01*
X0132821Y0091236D02*
X0134272Y0090269D01*
X0135276Y0090752D02*
X0135276Y0091720D01*
X0135760Y0092204D01*
X0136728Y0092204D01*
X0137211Y0091720D01*
X0137211Y0091236D01*
X0135276Y0091236D01*
X0135276Y0090752D02*
X0135760Y0090269D01*
X0136728Y0090269D01*
X0138223Y0090269D02*
X0138223Y0092204D01*
X0139190Y0092204D02*
X0138223Y0091236D01*
X0139190Y0092204D02*
X0139674Y0092204D01*
X0143150Y0093171D02*
X0144601Y0093171D01*
X0145085Y0092687D01*
X0145085Y0091720D01*
X0144601Y0091236D01*
X0143150Y0091236D01*
X0143150Y0090269D02*
X0143150Y0093171D01*
X0146097Y0093171D02*
X0146097Y0090269D01*
X0148031Y0090269D01*
X0149043Y0091236D02*
X0150011Y0090269D01*
X0150978Y0091236D01*
X0150978Y0093171D01*
X0149043Y0093171D02*
X0149043Y0091236D01*
X0147064Y0091720D02*
X0146097Y0091720D01*
X0146097Y0093171D02*
X0148031Y0093171D01*
X0145085Y0090269D02*
X0144117Y0091236D01*
X0154936Y0090269D02*
X0156871Y0092204D01*
X0156871Y0092687D01*
X0156387Y0093171D01*
X0155420Y0093171D01*
X0154936Y0092687D01*
X0154936Y0090269D02*
X0156871Y0090269D01*
X0134272Y0092204D02*
X0132821Y0091236D01*
X0123967Y0091720D02*
X0122999Y0091720D01*
X0179673Y0100802D02*
X0180156Y0100319D01*
X0181124Y0100319D01*
X0181608Y0100802D01*
X0182619Y0100319D02*
X0184554Y0100319D01*
X0183587Y0100319D02*
X0183587Y0103221D01*
X0182619Y0102254D01*
X0181608Y0102737D02*
X0181124Y0103221D01*
X0180156Y0103221D01*
X0179673Y0102737D01*
X0179673Y0100802D01*
X0185566Y0101770D02*
X0187501Y0101770D01*
X0187017Y0100319D02*
X0187017Y0103221D01*
X0185566Y0101770D01*
X0195203Y0107971D02*
X0197138Y0107971D01*
X0197138Y0107487D01*
X0213285Y0104839D02*
X0213769Y0104355D01*
X0214737Y0104355D01*
X0215220Y0104839D01*
X0215220Y0105807D01*
X0228837Y0105552D02*
X0229321Y0105069D01*
X0230288Y0105069D01*
X0230772Y0105552D01*
X0234224Y0106520D02*
X0234708Y0106520D01*
X0235192Y0106036D01*
X0234708Y0106520D02*
X0235192Y0107004D01*
X0235192Y0107487D01*
X0234708Y0107971D01*
X0233741Y0107971D01*
X0233257Y0107487D01*
X0244203Y0105069D02*
X0246138Y0105069D01*
X0250257Y0105069D02*
X0250257Y0107004D01*
X0251224Y0107971D01*
X0252192Y0107004D01*
X0252192Y0105069D01*
X0253203Y0105552D02*
X0253687Y0105069D01*
X0254655Y0105069D01*
X0255138Y0105552D01*
X0255138Y0106036D01*
X0254655Y0106520D01*
X0254171Y0106520D01*
X0254655Y0106520D02*
X0255138Y0107004D01*
X0255138Y0107487D01*
X0254655Y0107971D01*
X0253687Y0107971D01*
X0253203Y0107487D01*
X0252192Y0106520D02*
X0250257Y0106520D01*
X0026603Y0047372D02*
X0024668Y0044469D01*
X0023657Y0044469D02*
X0022689Y0045437D01*
X0023173Y0045437D02*
X0021722Y0045437D01*
X0021722Y0044469D02*
X0021722Y0047372D01*
X0023173Y0047372D01*
X0023657Y0046888D01*
X0023657Y0045921D01*
X0023173Y0045437D01*
X0024668Y0047372D02*
X0026603Y0044469D01*
X0020710Y0047372D02*
X0018775Y0044469D01*
X0017764Y0044469D02*
X0015829Y0047372D01*
X0014817Y0047372D02*
X0012882Y0047372D01*
X0013850Y0047372D02*
X0013850Y0044469D01*
X0015829Y0044469D02*
X0017764Y0047372D01*
X0018882Y0039372D02*
X0020334Y0039372D01*
X0020817Y0038888D01*
X0020817Y0037921D01*
X0020334Y0037437D01*
X0018882Y0037437D01*
X0018882Y0036469D02*
X0018882Y0039372D01*
X0021829Y0039372D02*
X0021829Y0036469D01*
X0022796Y0037437D01*
X0023764Y0036469D01*
X0023764Y0039372D01*
X0024775Y0039372D02*
X0026227Y0039372D01*
X0026710Y0038888D01*
X0026710Y0037921D01*
X0026227Y0037437D01*
X0024775Y0037437D01*
X0024775Y0036469D02*
X0024775Y0039372D01*
X0025743Y0037437D02*
X0026710Y0036469D01*
X0011150Y0032671D02*
X0011150Y0030736D01*
X0012117Y0029769D01*
D12*
X0246000Y0091119D02*
X0246000Y0095119D01*
D13*
X0240300Y0095119D02*
X0227700Y0095119D01*
X0227700Y0101119D01*
X0240300Y0101119D01*
X0240300Y0095119D01*
X0195500Y0092819D02*
X0189500Y0092819D01*
X0189500Y0105419D01*
X0195500Y0105419D01*
X0195500Y0092819D01*
X0186800Y0077119D02*
X0174200Y0077119D01*
X0174200Y0071119D01*
X0186800Y0071119D01*
X0186800Y0065119D01*
X0186800Y0059119D01*
X0186800Y0053119D01*
X0186800Y0047119D01*
X0174200Y0047119D01*
X0174200Y0053119D01*
X0186800Y0053119D01*
X0174200Y0053119D01*
X0174200Y0059119D01*
X0186800Y0059119D01*
X0174200Y0059119D01*
X0174200Y0065119D01*
X0186800Y0065119D01*
X0174200Y0065119D01*
X0174200Y0071119D01*
X0186800Y0071119D01*
X0186800Y0077119D01*
X0155000Y0074419D02*
X0155000Y0061819D01*
X0149000Y0061819D01*
X0149000Y0074419D01*
X0155000Y0074419D01*
X0129300Y0097119D02*
X0116700Y0097119D01*
X0116700Y0103119D01*
X0129300Y0103119D01*
X0129300Y0097119D01*
X0086000Y0094419D02*
X0086000Y0081819D01*
X0080000Y0081819D01*
X0080000Y0094419D01*
X0086000Y0094419D01*
X0065300Y0097119D02*
X0065300Y0091119D01*
X0052700Y0091119D01*
X0052700Y0097119D01*
X0065300Y0097119D01*
X0044300Y0087619D02*
X0044300Y0081619D01*
X0044300Y0075619D01*
X0044300Y0069619D01*
X0031700Y0069619D01*
X0031700Y0075619D01*
X0044300Y0075619D01*
X0031700Y0075619D01*
X0031700Y0081619D01*
X0044300Y0081619D01*
X0031700Y0081619D01*
X0031700Y0087619D01*
X0044300Y0087619D01*
X0026500Y0090319D02*
X0020500Y0090319D01*
X0020500Y0102919D01*
X0026500Y0102919D01*
X0026500Y0090319D01*
X0019500Y0090319D02*
X0013500Y0090319D01*
X0013500Y0102919D01*
X0019500Y0102919D01*
X0019500Y0090319D01*
X0031700Y0069619D02*
X0044300Y0069619D01*
X0044300Y0063619D01*
X0044300Y0057619D01*
X0044300Y0051619D01*
X0031700Y0051619D01*
X0031700Y0057619D01*
X0044300Y0057619D01*
X0031700Y0057619D01*
X0031700Y0063619D01*
X0044300Y0063619D01*
X0031700Y0063619D01*
X0031700Y0069619D01*
X0066000Y0057919D02*
X0072000Y0057919D01*
X0072000Y0045319D01*
X0066000Y0045319D01*
X0066000Y0057919D01*
X0059300Y0049119D02*
X0046700Y0049119D01*
X0046700Y0043119D01*
X0059300Y0043119D01*
X0059300Y0049119D01*
X0066200Y0045119D02*
X0078800Y0045119D01*
X0078800Y0039119D01*
X0066200Y0039119D01*
X0066200Y0045119D01*
X0059300Y0041619D02*
X0059300Y0035619D01*
X0046700Y0035619D01*
X0046700Y0041619D01*
X0059300Y0041619D01*
X0091500Y0060819D02*
X0091500Y0073419D01*
X0097500Y0073419D01*
X0097500Y0060819D01*
X0091500Y0060819D01*
X0118700Y0045619D02*
X0118700Y0039619D01*
X0131300Y0039619D01*
X0131300Y0045619D01*
X0118700Y0045619D01*
X0174200Y0047119D02*
X0174200Y0041119D01*
X0186800Y0041119D01*
X0186800Y0035119D01*
X0174200Y0035119D01*
X0174200Y0041119D01*
X0186800Y0041119D01*
X0186800Y0047119D01*
X0174200Y0047119D01*
D14*
X0045350Y0089269D02*
X0045350Y0102969D01*
X0027650Y0102969D01*
X0027650Y0089269D01*
X0045350Y0089269D01*
D15*
X0141525Y0039319D03*
X0142025Y0039569D03*
X0144325Y0039569D03*
X0144425Y0039519D03*
X0144725Y0039369D03*
X0144825Y0039319D03*
X0145125Y0039569D03*
X0143325Y0034369D03*
X0142975Y0034369D03*
D16*
X0143150Y0034419D03*
X0143150Y0034469D03*
X0142850Y0035119D03*
X0142800Y0035169D03*
X0142800Y0035219D03*
X0142750Y0035369D03*
X0142750Y0035419D03*
X0142650Y0035469D03*
X0142550Y0035619D03*
X0142550Y0035669D03*
X0142500Y0035719D03*
X0142500Y0035769D03*
X0142500Y0035819D03*
X0142500Y0035869D03*
X0142450Y0035919D03*
X0142450Y0035969D03*
X0142400Y0036019D03*
X0142400Y0036069D03*
X0142350Y0036119D03*
X0142350Y0036169D03*
X0142300Y0036219D03*
X0142300Y0036269D03*
X0142250Y0036319D03*
X0142250Y0036369D03*
X0142200Y0036419D03*
X0142200Y0036469D03*
X0142200Y0036519D03*
X0142150Y0036619D03*
X0142100Y0036569D03*
X0142050Y0036669D03*
X0142000Y0036769D03*
X0142000Y0036819D03*
X0141950Y0036869D03*
X0141950Y0036919D03*
X0141900Y0036969D03*
X0141900Y0037019D03*
X0141900Y0037069D03*
X0141850Y0037119D03*
X0141850Y0037169D03*
X0141800Y0037219D03*
X0141800Y0037269D03*
X0141750Y0037319D03*
X0141750Y0037369D03*
X0141700Y0037419D03*
X0141700Y0037469D03*
X0141650Y0037519D03*
X0141650Y0037569D03*
X0141650Y0037619D03*
X0141600Y0037669D03*
X0141600Y0037719D03*
X0141500Y0037769D03*
X0141450Y0037869D03*
X0141450Y0037919D03*
X0141400Y0037969D03*
X0141400Y0038019D03*
X0141350Y0038069D03*
X0141350Y0038119D03*
X0141350Y0038169D03*
X0141300Y0038219D03*
X0141300Y0038269D03*
X0141250Y0038319D03*
X0141250Y0038369D03*
X0141200Y0038419D03*
X0141200Y0038469D03*
X0141150Y0038519D03*
X0141150Y0038569D03*
X0141100Y0038619D03*
X0141100Y0038669D03*
X0141100Y0038719D03*
X0141050Y0038769D03*
X0141050Y0038819D03*
X0140950Y0038869D03*
X0140900Y0038969D03*
X0140900Y0039019D03*
X0140850Y0039069D03*
X0140850Y0039119D03*
X0140800Y0039169D03*
X0140800Y0039219D03*
X0140750Y0039319D03*
X0140750Y0039369D03*
X0140700Y0039419D03*
X0140700Y0039469D03*
X0140650Y0039519D03*
X0140650Y0039569D03*
X0140600Y0039619D03*
X0140600Y0039669D03*
X0140550Y0039719D03*
X0140550Y0039769D03*
X0140500Y0039819D03*
X0140500Y0039869D03*
X0140500Y0039919D03*
X0140450Y0040019D03*
X0140350Y0040069D03*
X0140300Y0040169D03*
X0140300Y0040219D03*
X0140250Y0040269D03*
X0140250Y0040319D03*
X0140200Y0040369D03*
X0140200Y0040419D03*
X0140200Y0040469D03*
X0140150Y0040519D03*
X0140150Y0040569D03*
X0140100Y0040619D03*
X0140100Y0040669D03*
X0140050Y0040719D03*
X0140050Y0040769D03*
X0140000Y0040819D03*
X0140000Y0040869D03*
X0139950Y0040919D03*
X0139950Y0040969D03*
X0139950Y0041019D03*
X0139900Y0041069D03*
X0139900Y0041119D03*
X0139800Y0041169D03*
X0139750Y0041269D03*
X0139750Y0041319D03*
X0139700Y0041369D03*
X0139700Y0041419D03*
X0139650Y0041469D03*
X0139650Y0041519D03*
X0139650Y0041569D03*
X0139600Y0041619D03*
X0139600Y0041669D03*
X0139550Y0041719D03*
X0139550Y0041769D03*
X0133950Y0042369D03*
X0133900Y0042469D03*
X0133850Y0042519D03*
X0133800Y0042619D03*
X0133750Y0042769D03*
X0133700Y0042819D03*
X0133700Y0042869D03*
X0133550Y0043019D03*
X0133450Y0043169D03*
X0133400Y0043319D03*
X0133350Y0043419D03*
X0133300Y0043519D03*
X0133250Y0043569D03*
X0133200Y0043669D03*
X0133150Y0043769D03*
X0132950Y0044069D03*
X0132900Y0044169D03*
X0132850Y0044219D03*
X0132850Y0044269D03*
X0132800Y0044319D03*
X0132750Y0044369D03*
X0132750Y0044419D03*
X0132750Y0044469D03*
X0132700Y0044519D03*
X0132650Y0044619D03*
X0132600Y0044719D03*
X0132550Y0044819D03*
X0132400Y0045019D03*
X0132350Y0045119D03*
X0132300Y0045169D03*
X0132250Y0045269D03*
X0132200Y0045369D03*
X0132150Y0045469D03*
X0132150Y0045519D03*
X0132100Y0045569D03*
X0145350Y0038919D03*
X0145350Y0038869D03*
X0145300Y0038819D03*
X0145300Y0038769D03*
X0145250Y0038719D03*
X0145250Y0038669D03*
X0145250Y0038619D03*
X0145200Y0038569D03*
X0145200Y0038519D03*
X0145150Y0038469D03*
X0145150Y0038419D03*
X0145100Y0038369D03*
X0145100Y0038319D03*
X0145050Y0038269D03*
X0145050Y0038219D03*
X0145000Y0038119D03*
X0145000Y0038069D03*
X0144900Y0038019D03*
X0144850Y0037919D03*
X0144850Y0037869D03*
X0144800Y0037819D03*
X0144800Y0037769D03*
X0144750Y0037719D03*
X0144750Y0037669D03*
X0144700Y0037619D03*
X0144700Y0037569D03*
X0144700Y0037519D03*
X0144650Y0037469D03*
X0144650Y0037419D03*
X0144600Y0037369D03*
X0144600Y0037319D03*
X0144550Y0037269D03*
X0144550Y0037219D03*
X0144500Y0037169D03*
X0144500Y0037119D03*
X0144450Y0037019D03*
X0144450Y0036969D03*
X0144350Y0036919D03*
X0144300Y0036819D03*
X0144300Y0036769D03*
X0144250Y0036719D03*
X0144250Y0036669D03*
X0144200Y0036619D03*
X0144200Y0036569D03*
X0144150Y0036519D03*
X0144150Y0036469D03*
X0144150Y0036419D03*
X0144100Y0036369D03*
X0144100Y0036319D03*
X0144050Y0036269D03*
X0144050Y0036219D03*
X0144000Y0036169D03*
X0144000Y0036119D03*
X0143950Y0036069D03*
X0143950Y0036019D03*
X0143900Y0035969D03*
X0143900Y0035919D03*
X0143750Y0035719D03*
X0143700Y0035619D03*
X0143700Y0035569D03*
X0143650Y0035519D03*
X0143650Y0035469D03*
X0143600Y0035419D03*
X0143600Y0035369D03*
X0143550Y0035319D03*
X0143550Y0035269D03*
X0143550Y0035219D03*
X0143500Y0035169D03*
X0143500Y0035119D03*
X0145400Y0038969D03*
X0145400Y0039019D03*
X0145450Y0039119D03*
X0145600Y0039319D03*
X0145650Y0039419D03*
X0145650Y0039469D03*
X0145700Y0039519D03*
X0145700Y0039569D03*
X0145750Y0039619D03*
X0145750Y0039669D03*
X0145800Y0039719D03*
X0145800Y0039769D03*
X0145850Y0039819D03*
X0145850Y0039869D03*
X0145850Y0039919D03*
X0145900Y0039969D03*
X0145900Y0040019D03*
X0145950Y0040069D03*
X0145950Y0040119D03*
X0146050Y0040319D03*
X0146150Y0040369D03*
X0146150Y0040419D03*
X0146200Y0040519D03*
X0146200Y0040569D03*
X0146250Y0040669D03*
X0146300Y0040769D03*
X0146350Y0040819D03*
X0146350Y0040869D03*
X0146400Y0040969D03*
X0146400Y0041019D03*
X0146450Y0041119D03*
X0146500Y0041169D03*
X0146500Y0041219D03*
X0146550Y0041319D03*
X0146600Y0041419D03*
X0146700Y0041519D03*
X0146750Y0041619D03*
X0146750Y0041669D03*
X0146800Y0041769D03*
X0152300Y0042319D03*
X0152400Y0042369D03*
X0152500Y0042519D03*
X0152550Y0042619D03*
X0152600Y0042769D03*
X0152650Y0042869D03*
X0152700Y0042919D03*
X0152700Y0042969D03*
X0152750Y0043019D03*
X0152800Y0043119D03*
X0152850Y0043219D03*
X0152850Y0043269D03*
X0152950Y0043319D03*
X0153000Y0043419D03*
X0153050Y0043519D03*
X0153100Y0043569D03*
X0153100Y0043619D03*
X0153150Y0043669D03*
X0153200Y0043769D03*
X0153200Y0043819D03*
X0153250Y0043919D03*
X0153300Y0043969D03*
X0153350Y0044069D03*
X0153400Y0044169D03*
X0153450Y0044269D03*
X0153550Y0044319D03*
X0153600Y0044469D03*
X0153650Y0044569D03*
X0153700Y0044619D03*
X0153700Y0044669D03*
X0153750Y0044719D03*
X0153800Y0044819D03*
X0153850Y0044869D03*
X0153900Y0045019D03*
X0153950Y0045119D03*
X0154000Y0045219D03*
X0154100Y0045269D03*
X0154150Y0045369D03*
X0154200Y0045469D03*
X0154200Y0045519D03*
X0154250Y0045569D03*
D17*
X0154175Y0045419D03*
X0154075Y0045319D03*
X0153925Y0045069D03*
X0153875Y0044969D03*
X0153875Y0044919D03*
X0153775Y0044769D03*
X0153625Y0044519D03*
X0153575Y0044419D03*
X0153575Y0044369D03*
X0153475Y0044219D03*
X0153375Y0044119D03*
X0153325Y0044019D03*
X0153225Y0043869D03*
X0153175Y0043719D03*
X0153025Y0043469D03*
X0152825Y0043169D03*
X0152775Y0043069D03*
X0152625Y0042819D03*
X0152575Y0042719D03*
X0152575Y0042669D03*
X0152525Y0042569D03*
X0152425Y0042469D03*
X0146675Y0041569D03*
X0146525Y0041269D03*
X0146125Y0040469D03*
X0146075Y0040269D03*
X0146025Y0040219D03*
X0145575Y0039369D03*
X0145575Y0039269D03*
X0145525Y0039169D03*
X0145475Y0039069D03*
X0144975Y0039769D03*
X0141325Y0039769D03*
X0140775Y0039269D03*
X0140975Y0038919D03*
X0140425Y0039969D03*
X0140375Y0040119D03*
X0139825Y0041219D03*
X0133975Y0042319D03*
X0133925Y0042419D03*
X0133825Y0042569D03*
X0133775Y0042669D03*
X0133775Y0042719D03*
X0133625Y0042919D03*
X0133525Y0043119D03*
X0133425Y0043219D03*
X0133425Y0043269D03*
X0133375Y0043369D03*
X0133325Y0043469D03*
X0133225Y0043619D03*
X0133175Y0043719D03*
X0133125Y0043819D03*
X0133075Y0043869D03*
X0132925Y0044119D03*
X0132675Y0044569D03*
X0132625Y0044669D03*
X0132575Y0044769D03*
X0132475Y0044869D03*
X0132275Y0045219D03*
X0132225Y0045319D03*
X0132175Y0045419D03*
X0141525Y0037819D03*
X0142075Y0036719D03*
X0142625Y0035569D03*
X0142775Y0035319D03*
X0142775Y0035269D03*
X0143125Y0034519D03*
X0143775Y0035669D03*
X0143825Y0035769D03*
X0143825Y0035869D03*
X0144375Y0036869D03*
X0144425Y0037069D03*
X0144925Y0037969D03*
X0144975Y0038169D03*
D18*
X0144925Y0039819D03*
X0144925Y0039869D03*
X0141325Y0039869D03*
X0141325Y0039819D03*
X0143125Y0034619D03*
X0143175Y0034569D03*
D19*
X0143175Y0034669D03*
D20*
X0143150Y0034719D03*
X0143150Y0034769D03*
X0144900Y0039919D03*
D21*
X0141425Y0039919D03*
X0143175Y0034819D03*
D22*
X0143150Y0034869D03*
D23*
X0143175Y0034919D03*
X0144825Y0039969D03*
D24*
X0141500Y0039969D03*
X0143150Y0034969D03*
D25*
X0143175Y0035019D03*
X0143175Y0035069D03*
D26*
X0142650Y0035519D03*
X0146600Y0041369D03*
X0152400Y0042419D03*
X0152950Y0043369D03*
X0154000Y0045169D03*
X0133600Y0042969D03*
X0133550Y0043069D03*
X0133050Y0043919D03*
X0133000Y0044019D03*
X0132450Y0044919D03*
X0132450Y0044969D03*
X0132400Y0045069D03*
D27*
X0133025Y0043969D03*
X0145525Y0039219D03*
X0145975Y0040169D03*
X0146225Y0040619D03*
X0146275Y0040719D03*
X0146375Y0040919D03*
X0146425Y0041069D03*
X0146775Y0041719D03*
X0143825Y0035819D03*
D28*
X0144900Y0039219D03*
X0141600Y0039369D03*
X0141450Y0039219D03*
X0141400Y0039169D03*
X0146250Y0041869D03*
X0154100Y0045769D03*
D29*
X0154100Y0045719D03*
X0143150Y0039869D03*
X0143150Y0039819D03*
X0142150Y0039619D03*
X0141900Y0039519D03*
X0141800Y0039469D03*
X0141700Y0039419D03*
X0141500Y0039269D03*
X0141200Y0039569D03*
X0144550Y0039469D03*
X0144650Y0039419D03*
X0144850Y0039269D03*
X0132200Y0045719D03*
D30*
X0141250Y0039619D03*
X0143800Y0039719D03*
X0145050Y0039669D03*
X0145100Y0039619D03*
D31*
X0144175Y0039619D03*
D32*
X0145000Y0039719D03*
X0141250Y0039669D03*
D33*
X0142325Y0039669D03*
X0142525Y0039719D03*
X0144025Y0039669D03*
X0154175Y0045669D03*
X0132175Y0045669D03*
D34*
X0132150Y0045619D03*
X0141300Y0039719D03*
X0146650Y0041469D03*
X0154200Y0045619D03*
D35*
X0143200Y0039769D03*
D36*
X0144750Y0040019D03*
X0141550Y0040019D03*
D37*
X0141650Y0040069D03*
X0144700Y0040069D03*
D38*
X0144550Y0040119D03*
X0141750Y0040119D03*
D39*
X0141750Y0040169D03*
X0144500Y0040169D03*
D40*
X0144525Y0040269D03*
X0141775Y0040269D03*
X0141775Y0040219D03*
D41*
X0144500Y0040219D03*
X0144550Y0040319D03*
D42*
X0141775Y0040319D03*
X0141775Y0040369D03*
D43*
X0141725Y0040469D03*
X0144525Y0040469D03*
X0144525Y0040419D03*
X0144525Y0040369D03*
D44*
X0141750Y0040419D03*
D45*
X0141700Y0040519D03*
X0144550Y0040519D03*
D46*
X0144525Y0040569D03*
X0141725Y0040569D03*
D47*
X0141700Y0040619D03*
X0141700Y0040669D03*
X0144550Y0040669D03*
X0144550Y0040619D03*
D48*
X0141675Y0040719D03*
D49*
X0141700Y0040769D03*
X0144550Y0040769D03*
X0144550Y0040719D03*
D50*
X0144575Y0040869D03*
X0141675Y0040819D03*
D51*
X0144600Y0040819D03*
D52*
X0141725Y0040869D03*
X0141675Y0040919D03*
X0141675Y0040969D03*
X0141675Y0041019D03*
D53*
X0141650Y0041069D03*
X0144600Y0041019D03*
X0144600Y0040969D03*
X0144600Y0040919D03*
D54*
X0144625Y0041069D03*
X0144625Y0041119D03*
D55*
X0141700Y0041119D03*
X0141700Y0041169D03*
D56*
X0141675Y0041219D03*
X0141675Y0041269D03*
X0144625Y0041219D03*
X0144625Y0041169D03*
D57*
X0144650Y0041269D03*
D58*
X0144625Y0041319D03*
X0141675Y0041319D03*
D59*
X0141675Y0041369D03*
D60*
X0144650Y0041369D03*
D61*
X0143150Y0041419D03*
X0136800Y0041919D03*
X0136750Y0042019D03*
X0136750Y0042069D03*
X0136750Y0042119D03*
X0149600Y0042169D03*
X0149600Y0042219D03*
D62*
X0143125Y0041569D03*
X0143125Y0041469D03*
D63*
X0143150Y0041519D03*
X0136700Y0042269D03*
D64*
X0143125Y0041669D03*
X0143125Y0041619D03*
D65*
X0143125Y0041719D03*
X0143125Y0041769D03*
D66*
X0136875Y0041819D03*
X0136875Y0041869D03*
X0136825Y0041969D03*
X0149475Y0041869D03*
X0149475Y0041819D03*
X0149525Y0041969D03*
X0149575Y0042019D03*
X0149575Y0042069D03*
X0149575Y0042119D03*
D67*
X0143125Y0041819D03*
D68*
X0149500Y0041919D03*
D69*
X0149625Y0042269D03*
X0136725Y0042219D03*
X0136725Y0042169D03*
D70*
X0143175Y0042219D03*
D71*
X0006750Y0019119D02*
X0006752Y0019189D01*
X0006758Y0019259D01*
X0006768Y0019328D01*
X0006781Y0019397D01*
X0006799Y0019465D01*
X0006820Y0019532D01*
X0006845Y0019597D01*
X0006874Y0019661D01*
X0006906Y0019724D01*
X0006942Y0019784D01*
X0006981Y0019842D01*
X0007023Y0019898D01*
X0007068Y0019952D01*
X0007116Y0020003D01*
X0007167Y0020051D01*
X0007221Y0020096D01*
X0007277Y0020138D01*
X0007335Y0020177D01*
X0007395Y0020213D01*
X0007458Y0020245D01*
X0007522Y0020274D01*
X0007587Y0020299D01*
X0007654Y0020320D01*
X0007722Y0020338D01*
X0007791Y0020351D01*
X0007860Y0020361D01*
X0007930Y0020367D01*
X0008000Y0020369D01*
X0008070Y0020367D01*
X0008140Y0020361D01*
X0008209Y0020351D01*
X0008278Y0020338D01*
X0008346Y0020320D01*
X0008413Y0020299D01*
X0008478Y0020274D01*
X0008542Y0020245D01*
X0008605Y0020213D01*
X0008665Y0020177D01*
X0008723Y0020138D01*
X0008779Y0020096D01*
X0008833Y0020051D01*
X0008884Y0020003D01*
X0008932Y0019952D01*
X0008977Y0019898D01*
X0009019Y0019842D01*
X0009058Y0019784D01*
X0009094Y0019724D01*
X0009126Y0019661D01*
X0009155Y0019597D01*
X0009180Y0019532D01*
X0009201Y0019465D01*
X0009219Y0019397D01*
X0009232Y0019328D01*
X0009242Y0019259D01*
X0009248Y0019189D01*
X0009250Y0019119D01*
X0009248Y0019049D01*
X0009242Y0018979D01*
X0009232Y0018910D01*
X0009219Y0018841D01*
X0009201Y0018773D01*
X0009180Y0018706D01*
X0009155Y0018641D01*
X0009126Y0018577D01*
X0009094Y0018514D01*
X0009058Y0018454D01*
X0009019Y0018396D01*
X0008977Y0018340D01*
X0008932Y0018286D01*
X0008884Y0018235D01*
X0008833Y0018187D01*
X0008779Y0018142D01*
X0008723Y0018100D01*
X0008665Y0018061D01*
X0008605Y0018025D01*
X0008542Y0017993D01*
X0008478Y0017964D01*
X0008413Y0017939D01*
X0008346Y0017918D01*
X0008278Y0017900D01*
X0008209Y0017887D01*
X0008140Y0017877D01*
X0008070Y0017871D01*
X0008000Y0017869D01*
X0007930Y0017871D01*
X0007860Y0017877D01*
X0007791Y0017887D01*
X0007722Y0017900D01*
X0007654Y0017918D01*
X0007587Y0017939D01*
X0007522Y0017964D01*
X0007458Y0017993D01*
X0007395Y0018025D01*
X0007335Y0018061D01*
X0007277Y0018100D01*
X0007221Y0018142D01*
X0007167Y0018187D01*
X0007116Y0018235D01*
X0007068Y0018286D01*
X0007023Y0018340D01*
X0006981Y0018396D01*
X0006942Y0018454D01*
X0006906Y0018514D01*
X0006874Y0018577D01*
X0006845Y0018641D01*
X0006820Y0018706D01*
X0006799Y0018773D01*
X0006781Y0018841D01*
X0006768Y0018910D01*
X0006758Y0018979D01*
X0006752Y0019049D01*
X0006750Y0019119D01*
X0008000Y0019119D02*
X0208000Y0019119D01*
X0208000Y0029119D01*
X0008000Y0029119D01*
X0008000Y0019119D01*
X0027665Y0033985D02*
X0029732Y0033985D01*
X0029732Y0042253D01*
X0027665Y0042253D01*
X0027665Y0033985D01*
X0027665Y0034077D02*
X0029732Y0034077D01*
X0029732Y0033985D02*
X0046268Y0033985D01*
X0046268Y0042253D01*
X0029732Y0042253D01*
X0029732Y0033985D01*
X0029732Y0034576D02*
X0027665Y0034576D01*
X0027665Y0035074D02*
X0029732Y0035074D01*
X0029732Y0035573D02*
X0027665Y0035573D01*
X0027665Y0036071D02*
X0029732Y0036071D01*
X0029732Y0036570D02*
X0027665Y0036570D01*
X0027665Y0037068D02*
X0029732Y0037068D01*
X0029732Y0037567D02*
X0027665Y0037567D01*
X0027665Y0038065D02*
X0029732Y0038065D01*
X0029732Y0038564D02*
X0027665Y0038564D01*
X0027665Y0039062D02*
X0029732Y0039062D01*
X0029732Y0039561D02*
X0027665Y0039561D01*
X0027665Y0040059D02*
X0029732Y0040059D01*
X0029732Y0040558D02*
X0027665Y0040558D01*
X0027665Y0041056D02*
X0029732Y0041056D01*
X0029732Y0041555D02*
X0027665Y0041555D01*
X0027665Y0041985D02*
X0029732Y0041985D01*
X0029732Y0050253D01*
X0027665Y0050253D01*
X0027665Y0041985D01*
X0027665Y0042053D02*
X0029732Y0042053D01*
X0027665Y0042053D01*
X0027665Y0042552D02*
X0029732Y0042552D01*
X0029732Y0043050D02*
X0027665Y0043050D01*
X0027665Y0043549D02*
X0029732Y0043549D01*
X0029732Y0044047D02*
X0027665Y0044047D01*
X0027665Y0044546D02*
X0029732Y0044546D01*
X0029732Y0045044D02*
X0027665Y0045044D01*
X0027665Y0045543D02*
X0029732Y0045543D01*
X0029732Y0046041D02*
X0027665Y0046041D01*
X0027665Y0046540D02*
X0029732Y0046540D01*
X0029732Y0047038D02*
X0027665Y0047038D01*
X0027665Y0047537D02*
X0029732Y0047537D01*
X0029732Y0048035D02*
X0027665Y0048035D01*
X0027665Y0048534D02*
X0029732Y0048534D01*
X0029732Y0049032D02*
X0027665Y0049032D01*
X0027665Y0049531D02*
X0029732Y0049531D01*
X0029732Y0050029D02*
X0027665Y0050029D01*
X0029732Y0050253D02*
X0046268Y0050253D01*
X0046268Y0041985D01*
X0029732Y0041985D01*
X0029732Y0050253D01*
X0029055Y0053056D02*
X0025118Y0049119D01*
X0008760Y0049119D01*
X0008760Y0089119D01*
X0025118Y0089119D01*
X0029055Y0085182D01*
X0029055Y0053056D01*
X0072701Y0052095D02*
X0072701Y0074142D01*
X0085299Y0074142D01*
X0085299Y0052095D01*
X0072701Y0052095D01*
X0074276Y0058394D02*
X0074276Y0063119D01*
X0076638Y0063119D01*
X0080575Y0064693D01*
X0081362Y0063119D02*
X0083724Y0063119D01*
X0083724Y0058394D01*
X0083724Y0063119D02*
X0083724Y0067843D01*
X0074276Y0067843D02*
X0074276Y0063119D01*
X0101724Y0052371D02*
X0101724Y0047843D01*
X0106252Y0047843D01*
X0106252Y0052371D01*
X0101724Y0052371D01*
X0101724Y0052023D02*
X0106252Y0052023D01*
X0106252Y0051525D02*
X0101724Y0051525D01*
X0101724Y0051026D02*
X0106252Y0051026D01*
X0106252Y0050528D02*
X0101724Y0050528D01*
X0101724Y0050029D02*
X0106252Y0050029D01*
X0106252Y0049531D02*
X0101724Y0049531D01*
X0101724Y0049032D02*
X0106252Y0049032D01*
X0106252Y0048534D02*
X0101724Y0048534D01*
X0101724Y0048035D02*
X0106252Y0048035D01*
X0101724Y0047843D02*
X0142276Y0047843D01*
X0142276Y0088394D01*
X0101724Y0088394D01*
X0101724Y0047843D01*
X0156500Y0043119D02*
X0156500Y0063119D01*
X0171500Y0063119D01*
X0171500Y0043119D01*
X0156500Y0043119D01*
X0156500Y0042961D02*
X0171500Y0042961D01*
X0169000Y0040619D01*
X0159000Y0040619D01*
X0156500Y0042961D01*
X0156937Y0042552D02*
X0171063Y0042552D01*
X0170531Y0042053D02*
X0157469Y0042053D01*
X0158001Y0041555D02*
X0169999Y0041555D01*
X0169467Y0041056D02*
X0158533Y0041056D01*
X0194980Y0039714D02*
X0194980Y0036461D01*
X0243410Y0036461D01*
X0253696Y0036461D02*
X0255020Y0036461D01*
X0255020Y0086363D01*
X0247741Y0091776D02*
X0194980Y0091776D01*
X0194980Y0071653D01*
X0186156Y0079457D02*
X0188661Y0081963D01*
X0188661Y0083788D01*
X0186156Y0079457D02*
X0171339Y0079457D01*
X0171339Y0083394D01*
X0183937Y0092056D02*
X0183937Y0095993D01*
X0186156Y0096780D02*
X0188661Y0094275D01*
X0188661Y0092843D01*
X0185906Y0094024D02*
X0181969Y0094024D01*
X0186156Y0096780D02*
X0171339Y0096780D01*
X0171339Y0092843D01*
X0197189Y0092607D02*
X0197189Y0103630D01*
X0204276Y0103630D01*
X0204276Y0092607D01*
X0197189Y0092607D01*
X0204276Y0092607D02*
X0213724Y0092607D01*
X0213724Y0103630D01*
X0220811Y0103630D01*
X0220811Y0092607D01*
X0213724Y0092607D01*
X0211362Y0092607D02*
X0206638Y0092607D01*
X0206638Y0094969D01*
X0211362Y0094969D01*
X0211362Y0092607D01*
X0211362Y0092901D02*
X0206638Y0092901D01*
X0206638Y0093400D02*
X0211362Y0093400D01*
X0211362Y0093898D02*
X0206638Y0093898D01*
X0206638Y0094397D02*
X0211362Y0094397D01*
X0211362Y0094895D02*
X0206638Y0094895D01*
X0221598Y0093394D02*
X0221625Y0093598D01*
X0221704Y0093788D01*
X0221829Y0093951D01*
X0221992Y0094076D01*
X0222182Y0094155D01*
X0222386Y0094182D01*
X0222590Y0094155D01*
X0222780Y0094076D01*
X0222943Y0093951D01*
X0223068Y0093788D01*
X0223146Y0093598D01*
X0223173Y0093394D01*
X0223146Y0093190D01*
X0223068Y0093001D01*
X0222943Y0092837D01*
X0222780Y0092712D01*
X0222590Y0092634D01*
X0222386Y0092607D01*
X0222182Y0092634D01*
X0221992Y0092712D01*
X0221829Y0092837D01*
X0221704Y0093001D01*
X0221625Y0093190D01*
X0221598Y0093394D01*
X0221599Y0093400D02*
X0223172Y0093400D01*
X0222992Y0092901D02*
X0221780Y0092901D01*
X0221789Y0093898D02*
X0222983Y0093898D01*
X0213724Y0103630D02*
X0204276Y0103630D01*
X0208000Y0109119D02*
X0208000Y0119119D01*
X0008000Y0119119D01*
X0008000Y0109119D01*
X0006750Y0109119D02*
X0006752Y0109189D01*
X0006758Y0109259D01*
X0006768Y0109328D01*
X0006781Y0109397D01*
X0006799Y0109465D01*
X0006820Y0109532D01*
X0006845Y0109597D01*
X0006874Y0109661D01*
X0006906Y0109724D01*
X0006942Y0109784D01*
X0006981Y0109842D01*
X0007023Y0109898D01*
X0007068Y0109952D01*
X0007116Y0110003D01*
X0007167Y0110051D01*
X0007221Y0110096D01*
X0007277Y0110138D01*
X0007335Y0110177D01*
X0007395Y0110213D01*
X0007458Y0110245D01*
X0007522Y0110274D01*
X0007587Y0110299D01*
X0007654Y0110320D01*
X0007722Y0110338D01*
X0007791Y0110351D01*
X0007860Y0110361D01*
X0007930Y0110367D01*
X0008000Y0110369D01*
X0008070Y0110367D01*
X0008140Y0110361D01*
X0008209Y0110351D01*
X0008278Y0110338D01*
X0008346Y0110320D01*
X0008413Y0110299D01*
X0008478Y0110274D01*
X0008542Y0110245D01*
X0008605Y0110213D01*
X0008665Y0110177D01*
X0008723Y0110138D01*
X0008779Y0110096D01*
X0008833Y0110051D01*
X0008884Y0110003D01*
X0008932Y0109952D01*
X0008977Y0109898D01*
X0009019Y0109842D01*
X0009058Y0109784D01*
X0009094Y0109724D01*
X0009126Y0109661D01*
X0009155Y0109597D01*
X0009180Y0109532D01*
X0009201Y0109465D01*
X0009219Y0109397D01*
X0009232Y0109328D01*
X0009242Y0109259D01*
X0009248Y0109189D01*
X0009250Y0109119D01*
X0009248Y0109049D01*
X0009242Y0108979D01*
X0009232Y0108910D01*
X0009219Y0108841D01*
X0009201Y0108773D01*
X0009180Y0108706D01*
X0009155Y0108641D01*
X0009126Y0108577D01*
X0009094Y0108514D01*
X0009058Y0108454D01*
X0009019Y0108396D01*
X0008977Y0108340D01*
X0008932Y0108286D01*
X0008884Y0108235D01*
X0008833Y0108187D01*
X0008779Y0108142D01*
X0008723Y0108100D01*
X0008665Y0108061D01*
X0008605Y0108025D01*
X0008542Y0107993D01*
X0008478Y0107964D01*
X0008413Y0107939D01*
X0008346Y0107918D01*
X0008278Y0107900D01*
X0008209Y0107887D01*
X0008140Y0107877D01*
X0008070Y0107871D01*
X0008000Y0107869D01*
X0007930Y0107871D01*
X0007860Y0107877D01*
X0007791Y0107887D01*
X0007722Y0107900D01*
X0007654Y0107918D01*
X0007587Y0107939D01*
X0007522Y0107964D01*
X0007458Y0107993D01*
X0007395Y0108025D01*
X0007335Y0108061D01*
X0007277Y0108100D01*
X0007221Y0108142D01*
X0007167Y0108187D01*
X0007116Y0108235D01*
X0007068Y0108286D01*
X0007023Y0108340D01*
X0006981Y0108396D01*
X0006942Y0108454D01*
X0006906Y0108514D01*
X0006874Y0108577D01*
X0006845Y0108641D01*
X0006820Y0108706D01*
X0006799Y0108773D01*
X0006781Y0108841D01*
X0006768Y0108910D01*
X0006758Y0108979D01*
X0006752Y0109049D01*
X0006750Y0109119D01*
X0008000Y0109119D02*
X0208000Y0109119D01*
X0216750Y0109119D02*
X0216752Y0109189D01*
X0216758Y0109259D01*
X0216768Y0109328D01*
X0216781Y0109397D01*
X0216799Y0109465D01*
X0216820Y0109532D01*
X0216845Y0109597D01*
X0216874Y0109661D01*
X0216906Y0109724D01*
X0216942Y0109784D01*
X0216981Y0109842D01*
X0217023Y0109898D01*
X0217068Y0109952D01*
X0217116Y0110003D01*
X0217167Y0110051D01*
X0217221Y0110096D01*
X0217277Y0110138D01*
X0217335Y0110177D01*
X0217395Y0110213D01*
X0217458Y0110245D01*
X0217522Y0110274D01*
X0217587Y0110299D01*
X0217654Y0110320D01*
X0217722Y0110338D01*
X0217791Y0110351D01*
X0217860Y0110361D01*
X0217930Y0110367D01*
X0218000Y0110369D01*
X0218070Y0110367D01*
X0218140Y0110361D01*
X0218209Y0110351D01*
X0218278Y0110338D01*
X0218346Y0110320D01*
X0218413Y0110299D01*
X0218478Y0110274D01*
X0218542Y0110245D01*
X0218605Y0110213D01*
X0218665Y0110177D01*
X0218723Y0110138D01*
X0218779Y0110096D01*
X0218833Y0110051D01*
X0218884Y0110003D01*
X0218932Y0109952D01*
X0218977Y0109898D01*
X0219019Y0109842D01*
X0219058Y0109784D01*
X0219094Y0109724D01*
X0219126Y0109661D01*
X0219155Y0109597D01*
X0219180Y0109532D01*
X0219201Y0109465D01*
X0219219Y0109397D01*
X0219232Y0109328D01*
X0219242Y0109259D01*
X0219248Y0109189D01*
X0219250Y0109119D01*
X0219248Y0109049D01*
X0219242Y0108979D01*
X0219232Y0108910D01*
X0219219Y0108841D01*
X0219201Y0108773D01*
X0219180Y0108706D01*
X0219155Y0108641D01*
X0219126Y0108577D01*
X0219094Y0108514D01*
X0219058Y0108454D01*
X0219019Y0108396D01*
X0218977Y0108340D01*
X0218932Y0108286D01*
X0218884Y0108235D01*
X0218833Y0108187D01*
X0218779Y0108142D01*
X0218723Y0108100D01*
X0218665Y0108061D01*
X0218605Y0108025D01*
X0218542Y0107993D01*
X0218478Y0107964D01*
X0218413Y0107939D01*
X0218346Y0107918D01*
X0218278Y0107900D01*
X0218209Y0107887D01*
X0218140Y0107877D01*
X0218070Y0107871D01*
X0218000Y0107869D01*
X0217930Y0107871D01*
X0217860Y0107877D01*
X0217791Y0107887D01*
X0217722Y0107900D01*
X0217654Y0107918D01*
X0217587Y0107939D01*
X0217522Y0107964D01*
X0217458Y0107993D01*
X0217395Y0108025D01*
X0217335Y0108061D01*
X0217277Y0108100D01*
X0217221Y0108142D01*
X0217167Y0108187D01*
X0217116Y0108235D01*
X0217068Y0108286D01*
X0217023Y0108340D01*
X0216981Y0108396D01*
X0216942Y0108454D01*
X0216906Y0108514D01*
X0216874Y0108577D01*
X0216845Y0108641D01*
X0216820Y0108706D01*
X0216799Y0108773D01*
X0216781Y0108841D01*
X0216768Y0108910D01*
X0216758Y0108979D01*
X0216752Y0109049D01*
X0216750Y0109119D01*
X0218000Y0109119D02*
X0258000Y0109119D01*
X0258000Y0119119D01*
X0218000Y0119119D01*
X0218000Y0109119D01*
X0243882Y0102268D02*
X0254118Y0102268D01*
X0254118Y0095969D02*
X0243882Y0095969D01*
X0194980Y0062544D02*
X0194980Y0049458D01*
X0218000Y0029119D02*
X0258000Y0029119D01*
X0258000Y0019119D01*
X0218000Y0019119D01*
X0216750Y0019119D02*
X0216752Y0019189D01*
X0216758Y0019259D01*
X0216768Y0019328D01*
X0216781Y0019397D01*
X0216799Y0019465D01*
X0216820Y0019532D01*
X0216845Y0019597D01*
X0216874Y0019661D01*
X0216906Y0019724D01*
X0216942Y0019784D01*
X0216981Y0019842D01*
X0217023Y0019898D01*
X0217068Y0019952D01*
X0217116Y0020003D01*
X0217167Y0020051D01*
X0217221Y0020096D01*
X0217277Y0020138D01*
X0217335Y0020177D01*
X0217395Y0020213D01*
X0217458Y0020245D01*
X0217522Y0020274D01*
X0217587Y0020299D01*
X0217654Y0020320D01*
X0217722Y0020338D01*
X0217791Y0020351D01*
X0217860Y0020361D01*
X0217930Y0020367D01*
X0218000Y0020369D01*
X0218070Y0020367D01*
X0218140Y0020361D01*
X0218209Y0020351D01*
X0218278Y0020338D01*
X0218346Y0020320D01*
X0218413Y0020299D01*
X0218478Y0020274D01*
X0218542Y0020245D01*
X0218605Y0020213D01*
X0218665Y0020177D01*
X0218723Y0020138D01*
X0218779Y0020096D01*
X0218833Y0020051D01*
X0218884Y0020003D01*
X0218932Y0019952D01*
X0218977Y0019898D01*
X0219019Y0019842D01*
X0219058Y0019784D01*
X0219094Y0019724D01*
X0219126Y0019661D01*
X0219155Y0019597D01*
X0219180Y0019532D01*
X0219201Y0019465D01*
X0219219Y0019397D01*
X0219232Y0019328D01*
X0219242Y0019259D01*
X0219248Y0019189D01*
X0219250Y0019119D01*
X0219248Y0019049D01*
X0219242Y0018979D01*
X0219232Y0018910D01*
X0219219Y0018841D01*
X0219201Y0018773D01*
X0219180Y0018706D01*
X0219155Y0018641D01*
X0219126Y0018577D01*
X0219094Y0018514D01*
X0219058Y0018454D01*
X0219019Y0018396D01*
X0218977Y0018340D01*
X0218932Y0018286D01*
X0218884Y0018235D01*
X0218833Y0018187D01*
X0218779Y0018142D01*
X0218723Y0018100D01*
X0218665Y0018061D01*
X0218605Y0018025D01*
X0218542Y0017993D01*
X0218478Y0017964D01*
X0218413Y0017939D01*
X0218346Y0017918D01*
X0218278Y0017900D01*
X0218209Y0017887D01*
X0218140Y0017877D01*
X0218070Y0017871D01*
X0218000Y0017869D01*
X0217930Y0017871D01*
X0217860Y0017877D01*
X0217791Y0017887D01*
X0217722Y0017900D01*
X0217654Y0017918D01*
X0217587Y0017939D01*
X0217522Y0017964D01*
X0217458Y0017993D01*
X0217395Y0018025D01*
X0217335Y0018061D01*
X0217277Y0018100D01*
X0217221Y0018142D01*
X0217167Y0018187D01*
X0217116Y0018235D01*
X0217068Y0018286D01*
X0217023Y0018340D01*
X0216981Y0018396D01*
X0216942Y0018454D01*
X0216906Y0018514D01*
X0216874Y0018577D01*
X0216845Y0018641D01*
X0216820Y0018706D01*
X0216799Y0018773D01*
X0216781Y0018841D01*
X0216768Y0018910D01*
X0216758Y0018979D01*
X0216752Y0019049D01*
X0216750Y0019119D01*
X0218000Y0019119D02*
X0218000Y0029119D01*
X0250448Y0056496D02*
X0252072Y0054872D01*
X0252072Y0055954D01*
X0254237Y0055954D01*
X0254237Y0057037D01*
X0252072Y0057037D01*
X0252072Y0058120D01*
X0250448Y0056496D01*
X0250462Y0056510D02*
X0254237Y0056510D01*
X0254237Y0056011D02*
X0250932Y0056011D01*
X0251430Y0055513D02*
X0252072Y0055513D01*
X0252072Y0055014D02*
X0251929Y0055014D01*
X0250961Y0057009D02*
X0254237Y0057009D01*
X0252072Y0057507D02*
X0251459Y0057507D01*
X0251958Y0058006D02*
X0252072Y0058006D01*
X0079398Y0079162D02*
X0079398Y0097075D01*
X0066602Y0097075D01*
X0066602Y0090678D01*
X0066602Y0085560D01*
X0066602Y0079162D01*
X0079398Y0079162D01*
X0069966Y0077377D02*
X0070000Y0077119D01*
X0069966Y0076860D01*
X0069866Y0076619D01*
X0069707Y0076412D01*
X0069500Y0076253D01*
X0069259Y0076153D01*
X0069000Y0076119D01*
X0068741Y0076153D01*
X0068500Y0076253D01*
X0068293Y0076412D01*
X0068134Y0076619D01*
X0068034Y0076860D01*
X0068000Y0077119D01*
X0068034Y0077377D01*
X0068134Y0077619D01*
X0068293Y0077826D01*
X0068500Y0077985D01*
X0068741Y0078085D01*
X0069000Y0078119D01*
X0069259Y0078085D01*
X0069500Y0077985D01*
X0069707Y0077826D01*
X0069866Y0077619D01*
X0069966Y0077377D01*
X0069937Y0077447D02*
X0068063Y0077447D01*
X0068022Y0076949D02*
X0069978Y0076949D01*
X0069737Y0076450D02*
X0068263Y0076450D01*
X0068450Y0077946D02*
X0069550Y0077946D01*
X0066988Y0085119D02*
X0066602Y0085119D01*
X0066602Y0091119D01*
X0066988Y0091119D01*
X0066988Y0085119D01*
X0066988Y0085424D02*
X0066602Y0085424D01*
X0066602Y0085922D02*
X0066988Y0085922D01*
X0066988Y0086421D02*
X0066602Y0086421D01*
X0066602Y0086919D02*
X0066988Y0086919D01*
X0066988Y0087418D02*
X0066602Y0087418D01*
X0066602Y0087916D02*
X0066988Y0087916D01*
X0066988Y0088415D02*
X0066602Y0088415D01*
X0066602Y0088913D02*
X0066988Y0088913D01*
X0066988Y0089412D02*
X0066602Y0089412D01*
X0066602Y0089910D02*
X0066988Y0089910D01*
X0066988Y0090409D02*
X0066602Y0090409D01*
X0066602Y0090907D02*
X0066988Y0090907D01*
D72*
X0015866Y0083095D02*
X0013110Y0083095D01*
X0012126Y0082111D02*
X0012128Y0082049D01*
X0012134Y0081988D01*
X0012143Y0081927D01*
X0012157Y0081866D01*
X0012174Y0081807D01*
X0012195Y0081749D01*
X0012220Y0081692D01*
X0012248Y0081637D01*
X0012279Y0081584D01*
X0012314Y0081533D01*
X0012352Y0081484D01*
X0012393Y0081437D01*
X0012436Y0081394D01*
X0012483Y0081353D01*
X0012532Y0081315D01*
X0012583Y0081280D01*
X0012636Y0081249D01*
X0012691Y0081221D01*
X0012748Y0081196D01*
X0012806Y0081175D01*
X0012865Y0081158D01*
X0012926Y0081144D01*
X0012987Y0081135D01*
X0013048Y0081129D01*
X0013110Y0081127D01*
X0015866Y0081127D01*
X0016850Y0082111D02*
X0016848Y0082173D01*
X0016842Y0082234D01*
X0016833Y0082295D01*
X0016819Y0082356D01*
X0016802Y0082415D01*
X0016781Y0082473D01*
X0016756Y0082530D01*
X0016728Y0082585D01*
X0016697Y0082638D01*
X0016662Y0082689D01*
X0016624Y0082738D01*
X0016583Y0082785D01*
X0016540Y0082828D01*
X0016493Y0082869D01*
X0016444Y0082907D01*
X0016393Y0082942D01*
X0016340Y0082973D01*
X0016285Y0083001D01*
X0016228Y0083026D01*
X0016170Y0083047D01*
X0016111Y0083064D01*
X0016050Y0083078D01*
X0015989Y0083087D01*
X0015928Y0083093D01*
X0015866Y0083095D01*
X0016850Y0082111D02*
X0016848Y0082049D01*
X0016842Y0081988D01*
X0016833Y0081927D01*
X0016819Y0081866D01*
X0016802Y0081807D01*
X0016781Y0081749D01*
X0016756Y0081692D01*
X0016728Y0081637D01*
X0016697Y0081584D01*
X0016662Y0081533D01*
X0016624Y0081484D01*
X0016583Y0081437D01*
X0016540Y0081394D01*
X0016493Y0081353D01*
X0016444Y0081315D01*
X0016393Y0081280D01*
X0016340Y0081249D01*
X0016285Y0081221D01*
X0016228Y0081196D01*
X0016170Y0081175D01*
X0016111Y0081158D01*
X0016050Y0081144D01*
X0015989Y0081135D01*
X0015928Y0081129D01*
X0015866Y0081127D01*
X0013110Y0083095D02*
X0013048Y0083093D01*
X0012987Y0083087D01*
X0012926Y0083078D01*
X0012865Y0083064D01*
X0012806Y0083047D01*
X0012748Y0083026D01*
X0012691Y0083001D01*
X0012636Y0082973D01*
X0012583Y0082942D01*
X0012532Y0082907D01*
X0012483Y0082869D01*
X0012436Y0082828D01*
X0012393Y0082785D01*
X0012352Y0082738D01*
X0012314Y0082689D01*
X0012279Y0082638D01*
X0012248Y0082585D01*
X0012220Y0082530D01*
X0012195Y0082473D01*
X0012174Y0082415D01*
X0012157Y0082356D01*
X0012143Y0082295D01*
X0012134Y0082234D01*
X0012128Y0082173D01*
X0012126Y0082111D01*
X0013110Y0057111D02*
X0015866Y0057111D01*
X0015928Y0057109D01*
X0015989Y0057103D01*
X0016050Y0057094D01*
X0016111Y0057080D01*
X0016170Y0057063D01*
X0016228Y0057042D01*
X0016285Y0057017D01*
X0016340Y0056989D01*
X0016393Y0056958D01*
X0016444Y0056923D01*
X0016493Y0056885D01*
X0016540Y0056844D01*
X0016583Y0056801D01*
X0016624Y0056754D01*
X0016662Y0056705D01*
X0016697Y0056654D01*
X0016728Y0056601D01*
X0016756Y0056546D01*
X0016781Y0056489D01*
X0016802Y0056431D01*
X0016819Y0056372D01*
X0016833Y0056311D01*
X0016842Y0056250D01*
X0016848Y0056189D01*
X0016850Y0056127D01*
X0016848Y0056065D01*
X0016842Y0056004D01*
X0016833Y0055943D01*
X0016819Y0055882D01*
X0016802Y0055823D01*
X0016781Y0055765D01*
X0016756Y0055708D01*
X0016728Y0055653D01*
X0016697Y0055600D01*
X0016662Y0055549D01*
X0016624Y0055500D01*
X0016583Y0055453D01*
X0016540Y0055410D01*
X0016493Y0055369D01*
X0016444Y0055331D01*
X0016393Y0055296D01*
X0016340Y0055265D01*
X0016285Y0055237D01*
X0016228Y0055212D01*
X0016170Y0055191D01*
X0016111Y0055174D01*
X0016050Y0055160D01*
X0015989Y0055151D01*
X0015928Y0055145D01*
X0015866Y0055143D01*
X0015866Y0055142D02*
X0013110Y0055142D01*
X0013110Y0055143D02*
X0013048Y0055145D01*
X0012987Y0055151D01*
X0012926Y0055160D01*
X0012865Y0055174D01*
X0012806Y0055191D01*
X0012748Y0055212D01*
X0012691Y0055237D01*
X0012636Y0055265D01*
X0012583Y0055296D01*
X0012532Y0055331D01*
X0012483Y0055369D01*
X0012436Y0055410D01*
X0012393Y0055453D01*
X0012352Y0055500D01*
X0012314Y0055549D01*
X0012279Y0055600D01*
X0012248Y0055653D01*
X0012220Y0055708D01*
X0012195Y0055765D01*
X0012174Y0055823D01*
X0012157Y0055882D01*
X0012143Y0055943D01*
X0012134Y0056004D01*
X0012128Y0056065D01*
X0012126Y0056127D01*
X0012128Y0056189D01*
X0012134Y0056250D01*
X0012143Y0056311D01*
X0012157Y0056372D01*
X0012174Y0056431D01*
X0012195Y0056489D01*
X0012220Y0056546D01*
X0012248Y0056601D01*
X0012279Y0056654D01*
X0012314Y0056705D01*
X0012352Y0056754D01*
X0012393Y0056801D01*
X0012436Y0056844D01*
X0012483Y0056885D01*
X0012532Y0056923D01*
X0012583Y0056958D01*
X0012636Y0056989D01*
X0012691Y0057017D01*
X0012748Y0057042D01*
X0012806Y0057063D01*
X0012865Y0057080D01*
X0012926Y0057094D01*
X0012987Y0057103D01*
X0013048Y0057109D01*
X0013110Y0057111D01*
D73*
X0212420Y0063119D03*
X0217420Y0072319D03*
D74*
X0216185Y0070852D03*
X0211285Y0074652D03*
X0211315Y0074752D03*
X0211385Y0074952D03*
X0204185Y0068752D03*
X0204185Y0068685D03*
X0204185Y0068652D03*
X0204185Y0068585D03*
X0204185Y0068552D03*
X0212415Y0063152D03*
X0215885Y0083585D03*
X0216015Y0083785D03*
X0211715Y0085952D03*
X0211185Y0084652D03*
D75*
X0211285Y0084485D03*
X0215715Y0083452D03*
X0216115Y0084052D03*
X0213715Y0079085D03*
X0211885Y0076785D03*
X0211815Y0076585D03*
X0211815Y0076552D03*
X0211815Y0076485D03*
X0211785Y0076452D03*
X0211785Y0076385D03*
X0211715Y0076152D03*
X0212185Y0074352D03*
X0212185Y0074285D03*
X0212285Y0073852D03*
X0212315Y0073785D03*
X0212585Y0073452D03*
X0212715Y0073285D03*
X0212785Y0073185D03*
X0212885Y0072952D03*
X0211815Y0072952D03*
X0211015Y0073985D03*
X0210485Y0073485D03*
X0217485Y0076085D03*
X0215985Y0070185D03*
X0216115Y0069552D03*
X0216785Y0068252D03*
X0212415Y0063185D03*
X0205115Y0065952D03*
X0205085Y0065985D03*
X0204515Y0067085D03*
D76*
X0205685Y0067919D03*
X0204385Y0069119D03*
X0212185Y0065919D03*
X0213785Y0065419D03*
X0213815Y0065519D03*
X0213885Y0065619D03*
X0213915Y0065719D03*
X0214115Y0066219D03*
X0213615Y0065019D03*
X0213515Y0064819D03*
X0213415Y0064619D03*
X0212415Y0063219D03*
X0223485Y0070019D03*
X0223515Y0070619D03*
X0223415Y0070819D03*
X0223285Y0071019D03*
X0223885Y0071919D03*
X0224715Y0076519D03*
X0224785Y0076619D03*
X0224885Y0076819D03*
X0212515Y0079419D03*
X0212015Y0077319D03*
X0211985Y0077219D03*
X0212215Y0074519D03*
X0216185Y0084219D03*
X0211315Y0084419D03*
X0210915Y0085919D03*
X0210915Y0086019D03*
X0210915Y0086519D03*
X0210885Y0086619D03*
X0210585Y0087319D03*
D77*
X0211615Y0085852D03*
X0207615Y0084585D03*
X0207615Y0084552D03*
X0207585Y0084485D03*
X0216185Y0084552D03*
X0216185Y0084585D03*
X0212415Y0078985D03*
X0212385Y0078852D03*
X0213115Y0076852D03*
X0213115Y0076785D03*
X0213085Y0076752D03*
X0213015Y0076585D03*
X0213015Y0076552D03*
X0212985Y0076485D03*
X0212915Y0076352D03*
X0212885Y0076285D03*
X0212885Y0076252D03*
X0212815Y0076085D03*
X0212785Y0076052D03*
X0212715Y0075885D03*
X0212715Y0075852D03*
X0212685Y0075785D03*
X0212615Y0075652D03*
X0212585Y0075585D03*
X0212585Y0075552D03*
X0212515Y0075385D03*
X0212485Y0075352D03*
X0212485Y0075285D03*
X0212415Y0075152D03*
X0212385Y0075052D03*
X0210815Y0073685D03*
X0212485Y0072252D03*
X0211515Y0072152D03*
X0211185Y0071752D03*
X0216115Y0070652D03*
X0216215Y0069385D03*
X0216215Y0069352D03*
X0211085Y0066952D03*
X0206715Y0068185D03*
X0206685Y0068152D03*
X0204415Y0069052D03*
X0205315Y0074452D03*
X0205315Y0074485D03*
X0205315Y0074552D03*
X0205315Y0074585D03*
X0205315Y0074652D03*
X0205285Y0074685D03*
X0205285Y0074752D03*
X0205285Y0074785D03*
X0205285Y0074852D03*
X0205285Y0074885D03*
X0214785Y0074885D03*
X0214785Y0074852D03*
X0214785Y0074785D03*
X0214785Y0074752D03*
X0214785Y0074685D03*
X0214785Y0074652D03*
X0219485Y0074152D03*
X0219715Y0074352D03*
X0219815Y0074452D03*
X0223985Y0075485D03*
X0223985Y0072452D03*
X0224015Y0072385D03*
X0224015Y0072352D03*
X0213015Y0063985D03*
X0212985Y0063952D03*
X0212415Y0063252D03*
D78*
X0212415Y0063285D03*
X0210915Y0065885D03*
X0210885Y0066052D03*
X0210885Y0066085D03*
X0206715Y0066485D03*
X0206685Y0066452D03*
X0206615Y0066385D03*
X0206585Y0066352D03*
X0206515Y0067952D03*
X0207015Y0068585D03*
X0207085Y0068685D03*
X0207215Y0068852D03*
X0207285Y0068952D03*
X0211185Y0071785D03*
X0210615Y0072385D03*
X0212485Y0072285D03*
X0217015Y0074552D03*
X0216915Y0074752D03*
X0214785Y0074985D03*
X0219885Y0074552D03*
X0223815Y0075285D03*
X0223885Y0075352D03*
X0223715Y0072685D03*
X0223785Y0072652D03*
X0216085Y0070485D03*
X0205715Y0072652D03*
X0205715Y0072685D03*
X0205685Y0072752D03*
X0205685Y0072785D03*
X0205615Y0072985D03*
X0205585Y0073085D03*
X0205515Y0073352D03*
X0205515Y0073385D03*
X0205485Y0073485D03*
X0213285Y0077285D03*
X0213315Y0077385D03*
X0213385Y0077552D03*
X0213385Y0077585D03*
X0213415Y0077685D03*
X0213685Y0078552D03*
X0213715Y0078652D03*
X0213715Y0078685D03*
X0205315Y0078852D03*
X0205315Y0078885D03*
X0205315Y0078952D03*
X0205315Y0078985D03*
X0205315Y0079052D03*
X0205285Y0078785D03*
X0205285Y0078752D03*
X0205285Y0078685D03*
X0205285Y0078652D03*
X0205285Y0078585D03*
X0205285Y0078552D03*
X0207485Y0084252D03*
X0207485Y0084285D03*
X0215685Y0085652D03*
X0215785Y0085552D03*
X0216185Y0084752D03*
X0216185Y0084685D03*
X0216185Y0084652D03*
X0217315Y0084985D03*
X0223315Y0078252D03*
X0224985Y0077985D03*
X0224985Y0077952D03*
X0225015Y0077885D03*
D79*
X0223400Y0078319D03*
X0223200Y0078119D03*
X0217000Y0074619D03*
X0213400Y0077619D03*
X0213500Y0077919D03*
X0213600Y0078219D03*
X0216100Y0085019D03*
X0215800Y0085519D03*
X0217300Y0084919D03*
X0217300Y0084819D03*
X0217300Y0084719D03*
X0223300Y0069819D03*
X0212900Y0063919D03*
X0212400Y0063319D03*
X0211600Y0064319D03*
X0207400Y0069119D03*
D80*
X0205900Y0072052D03*
X0205900Y0072085D03*
X0212800Y0067052D03*
X0211800Y0064052D03*
X0212400Y0063352D03*
X0221000Y0070552D03*
X0221000Y0070585D03*
X0221000Y0070652D03*
X0221000Y0070685D03*
X0220800Y0075452D03*
X0220900Y0075552D03*
X0223500Y0074885D03*
X0223100Y0077985D03*
X0215700Y0078952D03*
X0215700Y0078985D03*
X0215100Y0077252D03*
X0215000Y0076952D03*
X0215000Y0076885D03*
X0214100Y0082052D03*
X0217200Y0084085D03*
X0217200Y0084152D03*
X0217200Y0084185D03*
X0217300Y0086385D03*
X0206900Y0083152D03*
X0206800Y0082985D03*
X0206800Y0082952D03*
X0206700Y0082752D03*
X0206500Y0082285D03*
X0206400Y0082085D03*
X0206400Y0082052D03*
X0206300Y0081852D03*
D81*
X0206030Y0081252D03*
X0205900Y0080952D03*
X0205870Y0080885D03*
X0205770Y0080652D03*
X0205730Y0080585D03*
X0205700Y0080485D03*
X0205670Y0080452D03*
X0205630Y0080352D03*
X0205600Y0080285D03*
X0205570Y0080185D03*
X0205530Y0080152D03*
X0205500Y0080085D03*
X0205500Y0080052D03*
X0205470Y0079985D03*
X0205470Y0079952D03*
X0205430Y0079885D03*
X0205400Y0079852D03*
X0207330Y0083852D03*
X0215930Y0079552D03*
X0215900Y0079452D03*
X0215870Y0079385D03*
X0215870Y0079352D03*
X0215830Y0079285D03*
X0221200Y0075852D03*
X0221230Y0075885D03*
X0221130Y0075785D03*
X0221100Y0075752D03*
X0221030Y0075685D03*
X0223300Y0074652D03*
X0223330Y0074685D03*
X0222830Y0077685D03*
X0222900Y0077752D03*
X0222930Y0077785D03*
X0224730Y0078252D03*
X0217030Y0083252D03*
X0217030Y0083285D03*
X0217070Y0083385D03*
X0217070Y0083452D03*
X0217070Y0083485D03*
X0217100Y0083552D03*
X0217100Y0083585D03*
X0217130Y0083752D03*
X0217270Y0086552D03*
X0217270Y0086585D03*
X0211900Y0072552D03*
X0206070Y0071652D03*
X0206030Y0071752D03*
X0206000Y0071785D03*
X0205970Y0071885D03*
X0213000Y0067385D03*
X0211900Y0063952D03*
X0212400Y0063385D03*
X0206100Y0065952D03*
X0220100Y0068852D03*
X0220130Y0068885D03*
X0220200Y0068952D03*
X0220970Y0070985D03*
X0220970Y0071052D03*
X0220970Y0071085D03*
X0223030Y0071485D03*
X0223230Y0069785D03*
D82*
X0220900Y0071419D03*
X0223200Y0074519D03*
X0221900Y0076619D03*
X0222000Y0076719D03*
X0222100Y0076819D03*
X0222700Y0077519D03*
X0216000Y0079719D03*
X0216900Y0082719D03*
X0209700Y0084419D03*
X0214900Y0075119D03*
X0211200Y0071919D03*
X0206300Y0071219D03*
X0206200Y0071419D03*
X0212400Y0063419D03*
D83*
X0212400Y0063452D03*
X0212100Y0066085D03*
X0219000Y0067985D03*
X0220700Y0071952D03*
X0220700Y0071985D03*
X0220600Y0072152D03*
X0222900Y0074152D03*
X0219900Y0074685D03*
X0211200Y0071985D03*
X0211200Y0071952D03*
X0207000Y0070385D03*
X0206900Y0070485D03*
X0216200Y0080252D03*
X0216300Y0080485D03*
X0216300Y0080552D03*
X0216400Y0080852D03*
X0216500Y0081152D03*
X0216500Y0081185D03*
X0216600Y0081485D03*
X0216600Y0081552D03*
X0216700Y0081852D03*
X0216700Y0081885D03*
X0216800Y0082252D03*
X0209800Y0084652D03*
X0209700Y0084385D03*
X0217200Y0086885D03*
D84*
X0217130Y0087085D03*
X0209900Y0084752D03*
X0222730Y0073952D03*
X0222770Y0073985D03*
X0220470Y0072352D03*
X0220430Y0072385D03*
X0220530Y0072252D03*
X0223070Y0071552D03*
X0221070Y0069885D03*
X0218700Y0067785D03*
X0212400Y0063485D03*
X0207670Y0069852D03*
X0207530Y0069952D03*
X0207500Y0069985D03*
X0207400Y0070052D03*
X0210400Y0072552D03*
D85*
X0212400Y0063519D03*
D86*
X0212380Y0063552D03*
X0212080Y0066152D03*
X0211180Y0066852D03*
X0207920Y0069652D03*
X0207880Y0069685D03*
X0206120Y0067785D03*
X0205680Y0065685D03*
X0211220Y0072085D03*
X0210350Y0072652D03*
X0210320Y0072685D03*
X0210320Y0072752D03*
X0210280Y0072785D03*
X0217480Y0076052D03*
X0219880Y0074752D03*
X0222420Y0073552D03*
X0222450Y0073585D03*
X0222480Y0073652D03*
X0222520Y0073685D03*
X0222320Y0073352D03*
X0222420Y0073285D03*
X0222480Y0073252D03*
X0222580Y0073185D03*
X0222650Y0073152D03*
X0222750Y0073085D03*
X0222820Y0073052D03*
X0222950Y0072985D03*
X0223020Y0072952D03*
X0223080Y0071585D03*
X0220220Y0072652D03*
X0220180Y0072685D03*
X0218480Y0067652D03*
X0213120Y0083752D03*
X0217050Y0087352D03*
X0217050Y0087385D03*
D87*
X0216985Y0087552D03*
X0216315Y0088485D03*
X0216215Y0088552D03*
X0216185Y0088585D03*
X0216115Y0088652D03*
X0219315Y0075085D03*
X0220015Y0072852D03*
X0220085Y0072785D03*
X0221115Y0069852D03*
X0212885Y0067485D03*
X0212385Y0063585D03*
D88*
X0212385Y0063619D03*
X0209015Y0069019D03*
X0210385Y0088019D03*
X0210985Y0088319D03*
X0216485Y0088319D03*
X0216585Y0088219D03*
D89*
X0216720Y0088052D03*
X0211550Y0088585D03*
X0211480Y0088552D03*
X0211280Y0085785D03*
X0211280Y0085752D03*
X0224050Y0078552D03*
X0219220Y0075152D03*
X0215120Y0075252D03*
X0219850Y0072985D03*
X0209150Y0068952D03*
X0209080Y0068985D03*
X0207980Y0069552D03*
X0216850Y0066885D03*
X0212380Y0063652D03*
D90*
X0212400Y0063685D03*
X0211700Y0088652D03*
D91*
X0212070Y0088819D03*
X0211200Y0085619D03*
X0213830Y0082119D03*
X0224070Y0078519D03*
X0219100Y0075219D03*
X0208000Y0069519D03*
X0212400Y0063719D03*
D92*
X0212385Y0063752D03*
X0205715Y0065885D03*
X0212185Y0072452D03*
X0215185Y0075285D03*
X0219685Y0073085D03*
X0207585Y0083752D03*
X0211185Y0085585D03*
X0212215Y0088885D03*
D93*
X0221250Y0069785D03*
X0212750Y0067552D03*
X0212380Y0063785D03*
D94*
X0212385Y0063819D03*
X0216815Y0066919D03*
D95*
X0212400Y0063852D03*
X0224070Y0078452D03*
X0211000Y0085485D03*
D96*
X0219815Y0074952D03*
X0219485Y0073185D03*
X0212385Y0063885D03*
D97*
X0211965Y0063919D03*
X0206035Y0065919D03*
X0219435Y0068319D03*
X0219565Y0068419D03*
X0220865Y0071519D03*
X0221635Y0076319D03*
X0221735Y0076419D03*
X0222265Y0077019D03*
X0222365Y0077119D03*
X0222435Y0077219D03*
X0222535Y0077319D03*
X0216035Y0079819D03*
X0216865Y0082519D03*
X0216935Y0082819D03*
X0216965Y0082919D03*
X0217235Y0086719D03*
D98*
X0217335Y0086252D03*
X0217335Y0086185D03*
X0217335Y0086152D03*
X0217235Y0084352D03*
X0217235Y0084285D03*
X0217165Y0083985D03*
X0217165Y0083952D03*
X0206865Y0083085D03*
X0206835Y0083052D03*
X0206765Y0082885D03*
X0206765Y0082852D03*
X0206735Y0082785D03*
X0206665Y0082685D03*
X0206665Y0082652D03*
X0206635Y0082585D03*
X0206565Y0082452D03*
X0206535Y0082385D03*
X0206535Y0082352D03*
X0206435Y0082152D03*
X0206365Y0081985D03*
X0206165Y0081552D03*
X0205365Y0079685D03*
X0205365Y0079652D03*
X0205365Y0079585D03*
X0205365Y0079552D03*
X0215035Y0077052D03*
X0215035Y0076985D03*
X0215065Y0077152D03*
X0214965Y0076785D03*
X0214965Y0076752D03*
X0214935Y0076652D03*
X0214835Y0076085D03*
X0214835Y0076052D03*
X0214835Y0075985D03*
X0214835Y0075952D03*
X0215535Y0078552D03*
X0215635Y0078785D03*
X0215665Y0078885D03*
X0215735Y0079052D03*
X0223065Y0077952D03*
X0223565Y0074952D03*
X0220835Y0075485D03*
X0220735Y0075385D03*
X0212465Y0072352D03*
X0205935Y0071985D03*
X0205865Y0072152D03*
X0205865Y0072185D03*
X0206135Y0067585D03*
X0206235Y0066052D03*
X0211765Y0064085D03*
X0211865Y0063985D03*
X0212735Y0066952D03*
X0212865Y0067152D03*
X0212935Y0067252D03*
X0220435Y0069152D03*
X0220465Y0069185D03*
D99*
X0211835Y0064019D03*
X0220765Y0075419D03*
X0220865Y0075519D03*
X0223535Y0074919D03*
X0223035Y0077919D03*
X0215665Y0078919D03*
X0215635Y0078819D03*
X0215065Y0077119D03*
X0215035Y0077019D03*
X0214965Y0076819D03*
X0214835Y0076119D03*
X0214835Y0076019D03*
X0214835Y0075919D03*
X0205365Y0079519D03*
X0205365Y0079619D03*
X0206335Y0081919D03*
X0206465Y0082219D03*
X0206565Y0082419D03*
X0206635Y0082619D03*
X0206735Y0082819D03*
X0206835Y0083019D03*
X0217165Y0083919D03*
X0217235Y0084319D03*
X0217335Y0086119D03*
X0217335Y0086219D03*
D100*
X0207735Y0084919D03*
X0207665Y0084719D03*
X0207635Y0084619D03*
X0212465Y0079319D03*
X0212465Y0079219D03*
X0212435Y0079119D03*
X0212365Y0078819D03*
X0212365Y0078719D03*
X0212335Y0078619D03*
X0212265Y0078319D03*
X0212235Y0078219D03*
X0213735Y0078919D03*
X0213035Y0076619D03*
X0212365Y0075019D03*
X0212335Y0074919D03*
X0210835Y0073719D03*
X0211835Y0072819D03*
X0205265Y0075019D03*
X0205265Y0075119D03*
X0205265Y0075219D03*
X0205265Y0075319D03*
X0205235Y0075419D03*
X0205235Y0075519D03*
X0205235Y0075619D03*
X0205235Y0075719D03*
X0205235Y0075819D03*
X0205235Y0075919D03*
X0205235Y0076019D03*
X0205235Y0076119D03*
X0205235Y0076819D03*
X0205235Y0076919D03*
X0205235Y0077019D03*
X0205235Y0077119D03*
X0205235Y0077219D03*
X0205235Y0077319D03*
X0205235Y0077419D03*
X0205235Y0077519D03*
X0205235Y0077619D03*
X0219335Y0074019D03*
X0219565Y0074219D03*
X0219665Y0074319D03*
X0224165Y0075719D03*
X0225065Y0077419D03*
X0225065Y0077519D03*
X0225065Y0077619D03*
X0224035Y0072319D03*
X0224035Y0072219D03*
X0214435Y0067019D03*
X0213035Y0064019D03*
X0207565Y0067319D03*
X0207665Y0067419D03*
X0207765Y0067519D03*
X0207935Y0067719D03*
X0208035Y0067819D03*
X0208135Y0067919D03*
X0208235Y0068019D03*
X0207465Y0067219D03*
X0207365Y0067119D03*
X0207265Y0067019D03*
D101*
X0207335Y0067085D03*
X0207435Y0067185D03*
X0207535Y0067285D03*
X0207635Y0067385D03*
X0207735Y0067485D03*
X0207835Y0067585D03*
X0207965Y0067752D03*
X0208065Y0067852D03*
X0208165Y0067952D03*
X0208265Y0068052D03*
X0208635Y0068452D03*
X0208665Y0068485D03*
X0206135Y0067485D03*
X0212165Y0065952D03*
X0213065Y0064052D03*
X0214365Y0066852D03*
X0214435Y0066985D03*
X0214465Y0067085D03*
X0216235Y0069252D03*
X0216135Y0070685D03*
X0211565Y0072185D03*
X0210665Y0073585D03*
X0210865Y0073752D03*
X0212335Y0074885D03*
X0212335Y0074952D03*
X0212365Y0074985D03*
X0212435Y0075185D03*
X0212935Y0076385D03*
X0212965Y0076452D03*
X0213065Y0076685D03*
X0216835Y0074885D03*
X0219365Y0074052D03*
X0219535Y0074185D03*
X0219635Y0074285D03*
X0224035Y0075552D03*
X0224065Y0075585D03*
X0224135Y0075685D03*
X0225065Y0077452D03*
X0225065Y0077485D03*
X0225065Y0077552D03*
X0225065Y0077585D03*
X0225065Y0077652D03*
X0224035Y0072285D03*
X0224035Y0072252D03*
X0224035Y0072185D03*
X0212265Y0078352D03*
X0212265Y0078385D03*
X0212335Y0078585D03*
X0212335Y0078652D03*
X0212335Y0078685D03*
X0212365Y0078752D03*
X0212365Y0078785D03*
X0212435Y0079052D03*
X0212435Y0079085D03*
X0212435Y0079152D03*
X0212465Y0079185D03*
X0212465Y0079252D03*
X0212465Y0079285D03*
X0205235Y0077685D03*
X0205235Y0077652D03*
X0205235Y0077585D03*
X0205235Y0077552D03*
X0205235Y0077485D03*
X0205235Y0077452D03*
X0205235Y0077385D03*
X0205235Y0077352D03*
X0205235Y0077285D03*
X0205235Y0077252D03*
X0205235Y0077185D03*
X0205235Y0077152D03*
X0205235Y0077085D03*
X0205235Y0077052D03*
X0205235Y0076985D03*
X0205235Y0076952D03*
X0205235Y0076885D03*
X0205235Y0076852D03*
X0205235Y0076185D03*
X0205235Y0076152D03*
X0205235Y0076085D03*
X0205235Y0076052D03*
X0205235Y0075985D03*
X0205235Y0075952D03*
X0205235Y0075885D03*
X0205235Y0075852D03*
X0205235Y0075785D03*
X0205235Y0075752D03*
X0205235Y0075685D03*
X0205235Y0075652D03*
X0205235Y0075585D03*
X0205235Y0075552D03*
X0205235Y0075485D03*
X0205235Y0075452D03*
X0205235Y0075385D03*
X0205265Y0075352D03*
X0205265Y0075285D03*
X0205265Y0075252D03*
X0205265Y0075185D03*
X0205265Y0075152D03*
X0205265Y0075085D03*
X0205265Y0075052D03*
X0205265Y0074985D03*
X0205265Y0074952D03*
X0215565Y0083385D03*
X0211335Y0084352D03*
X0207765Y0084952D03*
X0207765Y0084985D03*
X0207735Y0084885D03*
X0207735Y0084852D03*
X0207665Y0084685D03*
D102*
X0207700Y0084752D03*
X0207700Y0084785D03*
X0216200Y0084485D03*
X0216200Y0084452D03*
X0212400Y0078952D03*
X0212400Y0078885D03*
X0212300Y0078485D03*
X0212300Y0078452D03*
X0212400Y0075085D03*
X0219400Y0074085D03*
X0219600Y0074252D03*
X0217300Y0071985D03*
X0217300Y0071952D03*
X0217300Y0071685D03*
X0223400Y0069885D03*
X0224100Y0075652D03*
X0208300Y0068085D03*
X0208200Y0067985D03*
X0208100Y0067885D03*
X0208000Y0067785D03*
X0207800Y0067552D03*
X0207700Y0067452D03*
X0207600Y0067352D03*
X0207500Y0067252D03*
X0207400Y0067152D03*
X0207300Y0067052D03*
X0204400Y0069085D03*
X0214400Y0066952D03*
X0213100Y0064085D03*
D103*
X0211750Y0064119D03*
X0211420Y0064619D03*
X0211320Y0064819D03*
X0211250Y0064919D03*
X0211220Y0065019D03*
X0211180Y0065119D03*
X0211120Y0065219D03*
X0211080Y0065319D03*
X0211050Y0065419D03*
X0211020Y0065519D03*
X0210980Y0065619D03*
X0206320Y0066119D03*
X0207480Y0069219D03*
X0205850Y0072219D03*
X0205820Y0072319D03*
X0205780Y0072419D03*
X0211180Y0071819D03*
X0211880Y0072619D03*
X0214820Y0075719D03*
X0214820Y0075819D03*
X0215080Y0077219D03*
X0215120Y0077319D03*
X0215150Y0077419D03*
X0215180Y0077519D03*
X0215220Y0077619D03*
X0215250Y0077719D03*
X0215280Y0077819D03*
X0215320Y0077919D03*
X0215350Y0078019D03*
X0215380Y0078119D03*
X0215420Y0078219D03*
X0215450Y0078319D03*
X0215480Y0078419D03*
X0215520Y0078519D03*
X0215550Y0078619D03*
X0223120Y0078019D03*
X0224880Y0078119D03*
X0223680Y0075119D03*
X0223620Y0075019D03*
X0220680Y0075319D03*
X0220580Y0075219D03*
X0220480Y0075119D03*
X0220980Y0070419D03*
X0220950Y0070219D03*
X0220950Y0070019D03*
X0220580Y0069319D03*
X0216920Y0066819D03*
X0205350Y0079319D03*
X0205350Y0079419D03*
X0207320Y0083919D03*
X0215880Y0085419D03*
X0215950Y0085319D03*
X0216020Y0085219D03*
X0216050Y0085119D03*
X0217280Y0084619D03*
X0217250Y0084519D03*
X0217250Y0084419D03*
X0217220Y0084219D03*
X0217350Y0085819D03*
X0217350Y0085919D03*
X0217350Y0086019D03*
D104*
X0216180Y0084319D03*
X0212280Y0078419D03*
X0212220Y0078119D03*
X0212180Y0078019D03*
X0212120Y0077719D03*
X0212280Y0074719D03*
X0217050Y0074419D03*
X0217320Y0072019D03*
X0216050Y0070319D03*
X0216250Y0069219D03*
X0214350Y0066819D03*
X0214320Y0066719D03*
X0214280Y0066619D03*
X0213180Y0064219D03*
X0213120Y0064119D03*
X0208520Y0068319D03*
X0208420Y0068219D03*
X0208320Y0068119D03*
X0207850Y0067619D03*
X0205420Y0068219D03*
X0205320Y0068319D03*
X0205220Y0068419D03*
X0205020Y0068619D03*
X0211180Y0071719D03*
X0211580Y0072219D03*
X0211650Y0072319D03*
X0212480Y0072219D03*
X0205220Y0076219D03*
X0205220Y0076319D03*
X0205220Y0076419D03*
X0205220Y0076519D03*
X0205220Y0076619D03*
X0205220Y0076719D03*
X0224250Y0075819D03*
X0225020Y0077219D03*
X0225050Y0077319D03*
X0224020Y0072119D03*
X0223750Y0071819D03*
X0223420Y0069919D03*
D105*
X0223020Y0071452D03*
X0220980Y0070485D03*
X0220980Y0070452D03*
X0220980Y0070385D03*
X0220980Y0070352D03*
X0220950Y0070252D03*
X0220950Y0070185D03*
X0220550Y0069285D03*
X0220520Y0069252D03*
X0211720Y0064152D03*
X0211680Y0064185D03*
X0211620Y0064285D03*
X0211550Y0064385D03*
X0211450Y0064552D03*
X0211380Y0064685D03*
X0211350Y0064752D03*
X0211320Y0064785D03*
X0211280Y0064852D03*
X0211280Y0064885D03*
X0211250Y0064952D03*
X0211220Y0064985D03*
X0211220Y0065052D03*
X0211180Y0065085D03*
X0211150Y0065152D03*
X0211150Y0065185D03*
X0211120Y0065252D03*
X0211120Y0065285D03*
X0211080Y0065352D03*
X0211080Y0065385D03*
X0211050Y0065452D03*
X0211020Y0065552D03*
X0210980Y0065652D03*
X0206350Y0066152D03*
X0206280Y0066085D03*
X0207380Y0069085D03*
X0207450Y0069185D03*
X0204450Y0068985D03*
X0205850Y0072252D03*
X0205820Y0072285D03*
X0205820Y0072352D03*
X0214820Y0075052D03*
X0214820Y0075752D03*
X0214820Y0075785D03*
X0214820Y0075852D03*
X0214820Y0075885D03*
X0215050Y0077085D03*
X0215080Y0077185D03*
X0215120Y0077285D03*
X0215120Y0077352D03*
X0215150Y0077385D03*
X0215150Y0077452D03*
X0215180Y0077485D03*
X0215180Y0077552D03*
X0215220Y0077652D03*
X0215250Y0077752D03*
X0215280Y0077852D03*
X0215320Y0077952D03*
X0215350Y0078052D03*
X0215380Y0078152D03*
X0215420Y0078252D03*
X0215450Y0078352D03*
X0215480Y0078385D03*
X0215480Y0078452D03*
X0215520Y0078485D03*
X0215550Y0078585D03*
X0215580Y0078652D03*
X0215580Y0078685D03*
X0215620Y0078752D03*
X0215650Y0078852D03*
X0213620Y0078285D03*
X0213580Y0078185D03*
X0220450Y0075085D03*
X0220520Y0075152D03*
X0220550Y0075185D03*
X0220620Y0075252D03*
X0220650Y0075285D03*
X0220720Y0075352D03*
X0223580Y0074985D03*
X0223650Y0075052D03*
X0223650Y0075085D03*
X0223720Y0075152D03*
X0223150Y0078052D03*
X0223180Y0078085D03*
X0224820Y0078185D03*
X0224850Y0078152D03*
X0217220Y0084252D03*
X0217250Y0084385D03*
X0217250Y0084452D03*
X0217250Y0084485D03*
X0217280Y0084652D03*
X0217280Y0084685D03*
X0217350Y0085785D03*
X0217350Y0085852D03*
X0217350Y0085885D03*
X0217350Y0085952D03*
X0217350Y0085985D03*
X0217350Y0086052D03*
X0217350Y0086085D03*
X0215980Y0085285D03*
X0215980Y0085252D03*
X0216020Y0085185D03*
X0216050Y0085152D03*
X0216080Y0085085D03*
X0216080Y0085052D03*
X0216120Y0084985D03*
X0216120Y0084952D03*
X0215920Y0085385D03*
X0207350Y0083985D03*
X0207350Y0083952D03*
X0207320Y0083885D03*
X0205350Y0079485D03*
X0205350Y0079452D03*
X0205350Y0079385D03*
X0205350Y0079352D03*
D106*
X0205220Y0076785D03*
X0205220Y0076752D03*
X0205220Y0076685D03*
X0205220Y0076652D03*
X0205220Y0076585D03*
X0205220Y0076552D03*
X0205220Y0076485D03*
X0205220Y0076452D03*
X0205220Y0076385D03*
X0205220Y0076352D03*
X0205220Y0076285D03*
X0205220Y0076252D03*
X0210880Y0073785D03*
X0212250Y0074652D03*
X0212280Y0074752D03*
X0212280Y0074785D03*
X0212320Y0074852D03*
X0214820Y0074585D03*
X0211680Y0072352D03*
X0211650Y0072285D03*
X0211620Y0072252D03*
X0216180Y0069452D03*
X0214380Y0066885D03*
X0214350Y0066785D03*
X0214320Y0066752D03*
X0214320Y0066685D03*
X0214280Y0066652D03*
X0214250Y0066585D03*
X0214250Y0066552D03*
X0214220Y0066485D03*
X0214180Y0066385D03*
X0213220Y0064252D03*
X0213150Y0064152D03*
X0208550Y0068352D03*
X0208580Y0068385D03*
X0208480Y0068285D03*
X0208450Y0068252D03*
X0208380Y0068185D03*
X0208350Y0068152D03*
X0207920Y0067685D03*
X0207880Y0067652D03*
X0205480Y0068152D03*
X0205450Y0068185D03*
X0205380Y0068252D03*
X0205350Y0068285D03*
X0205280Y0068352D03*
X0205250Y0068385D03*
X0204980Y0068652D03*
X0204950Y0068685D03*
X0204850Y0068752D03*
X0204820Y0068785D03*
X0205650Y0065385D03*
X0222980Y0071385D03*
X0224020Y0072152D03*
X0223450Y0069952D03*
X0224180Y0075752D03*
X0224220Y0075785D03*
X0224980Y0077052D03*
X0224980Y0077085D03*
X0225020Y0077152D03*
X0225020Y0077185D03*
X0225050Y0077252D03*
X0225050Y0077285D03*
X0225050Y0077352D03*
X0225050Y0077385D03*
X0213750Y0078952D03*
X0212480Y0079352D03*
X0212320Y0078552D03*
X0212250Y0078285D03*
X0212250Y0078252D03*
X0212220Y0078185D03*
X0212220Y0078152D03*
X0212220Y0078085D03*
X0212180Y0078052D03*
X0212180Y0077985D03*
X0212180Y0077952D03*
X0212150Y0077885D03*
X0212150Y0077852D03*
X0216180Y0084352D03*
X0216180Y0084385D03*
D107*
X0216165Y0084285D03*
X0211665Y0085885D03*
X0211335Y0084385D03*
X0210565Y0087352D03*
X0213735Y0078985D03*
X0212135Y0077785D03*
X0212135Y0077752D03*
X0212065Y0077552D03*
X0212035Y0077385D03*
X0212265Y0074685D03*
X0212235Y0074585D03*
X0212235Y0074552D03*
X0210935Y0073852D03*
X0211835Y0072852D03*
X0216035Y0070285D03*
X0216165Y0069485D03*
X0217335Y0071652D03*
X0217335Y0072052D03*
X0217035Y0074385D03*
X0223165Y0071152D03*
X0223235Y0071085D03*
X0223265Y0071052D03*
X0223335Y0070952D03*
X0223365Y0070885D03*
X0223435Y0070785D03*
X0223465Y0069985D03*
X0214165Y0066352D03*
X0214135Y0066285D03*
X0214135Y0066252D03*
X0214065Y0066085D03*
X0213965Y0065852D03*
X0213535Y0064852D03*
X0213435Y0064652D03*
X0213335Y0064452D03*
X0213265Y0064352D03*
X0213235Y0064285D03*
X0213165Y0064185D03*
X0206135Y0067452D03*
X0205635Y0067985D03*
X0205565Y0068052D03*
X0205535Y0068085D03*
X0205165Y0068485D03*
X0205065Y0068585D03*
X0224265Y0075852D03*
X0224335Y0075952D03*
X0224365Y0075985D03*
X0224435Y0076085D03*
X0224765Y0076585D03*
X0224865Y0076785D03*
X0224935Y0076952D03*
X0224965Y0076985D03*
D108*
X0223765Y0075219D03*
X0223665Y0072719D03*
X0220965Y0070319D03*
X0220935Y0070119D03*
X0212465Y0072319D03*
X0207335Y0069019D03*
X0207265Y0068919D03*
X0206435Y0066219D03*
X0210935Y0065819D03*
X0210965Y0065719D03*
X0211365Y0064719D03*
X0211465Y0064519D03*
X0211535Y0064419D03*
X0211665Y0064219D03*
X0205765Y0072519D03*
X0205735Y0072619D03*
X0213435Y0077719D03*
X0213465Y0077819D03*
X0213535Y0078019D03*
X0213565Y0078119D03*
X0213635Y0078319D03*
X0213665Y0078419D03*
X0205335Y0079119D03*
X0205335Y0079219D03*
X0207365Y0084019D03*
X0216135Y0084919D03*
X0217335Y0085019D03*
X0217335Y0085119D03*
X0217335Y0085219D03*
X0217335Y0085319D03*
X0217365Y0085719D03*
D109*
X0217365Y0085752D03*
X0217335Y0085385D03*
X0217335Y0085352D03*
X0217335Y0085285D03*
X0217335Y0085252D03*
X0217335Y0085185D03*
X0217335Y0085152D03*
X0217335Y0085085D03*
X0217335Y0085052D03*
X0217265Y0084585D03*
X0217265Y0084552D03*
X0216135Y0084885D03*
X0215935Y0085352D03*
X0215865Y0085452D03*
X0215835Y0085485D03*
X0214735Y0082885D03*
X0213665Y0078485D03*
X0213665Y0078452D03*
X0213635Y0078385D03*
X0213635Y0078352D03*
X0213565Y0078152D03*
X0213565Y0078085D03*
X0213535Y0078052D03*
X0213535Y0077985D03*
X0213465Y0077852D03*
X0213435Y0077752D03*
X0215235Y0077685D03*
X0215265Y0077785D03*
X0215335Y0077985D03*
X0215365Y0078085D03*
X0215435Y0078285D03*
X0216965Y0074685D03*
X0211865Y0072685D03*
X0211865Y0072652D03*
X0205765Y0072485D03*
X0205765Y0072452D03*
X0205735Y0072585D03*
X0207435Y0069152D03*
X0207365Y0069052D03*
X0207235Y0068885D03*
X0207165Y0068785D03*
X0206135Y0067552D03*
X0206465Y0066252D03*
X0205665Y0065485D03*
X0210935Y0065785D03*
X0210965Y0065752D03*
X0210965Y0065685D03*
X0210935Y0065852D03*
X0211035Y0065485D03*
X0211435Y0064585D03*
X0211565Y0064352D03*
X0211635Y0064252D03*
X0212165Y0065985D03*
X0220635Y0069385D03*
X0220935Y0070052D03*
X0220935Y0070085D03*
X0220935Y0070152D03*
X0220965Y0070285D03*
X0223735Y0075185D03*
X0223235Y0078152D03*
X0223265Y0078185D03*
X0224035Y0078685D03*
X0224935Y0078052D03*
X0207435Y0084152D03*
X0205335Y0079285D03*
X0205335Y0079252D03*
X0205335Y0079185D03*
X0205335Y0079152D03*
X0205335Y0079085D03*
D110*
X0212065Y0077519D03*
X0212135Y0077819D03*
X0212165Y0077919D03*
X0213735Y0079019D03*
X0212235Y0074619D03*
X0216135Y0070719D03*
X0214235Y0066519D03*
X0214165Y0066319D03*
X0214065Y0066119D03*
X0214035Y0066019D03*
X0213465Y0064719D03*
X0213365Y0064519D03*
X0213265Y0064319D03*
X0205135Y0068519D03*
X0223365Y0070919D03*
X0223465Y0070719D03*
X0223965Y0072019D03*
X0224335Y0075919D03*
X0224465Y0076119D03*
X0224535Y0076219D03*
X0224835Y0076719D03*
X0224935Y0076919D03*
X0224965Y0077019D03*
D111*
X0224900Y0076885D03*
X0224900Y0076852D03*
X0224800Y0076652D03*
X0224700Y0076485D03*
X0224300Y0075885D03*
X0224000Y0072085D03*
X0224000Y0072052D03*
X0223800Y0071852D03*
X0223300Y0070985D03*
X0223400Y0070852D03*
X0222600Y0071785D03*
X0212500Y0072185D03*
X0210700Y0072352D03*
X0210600Y0073552D03*
X0212100Y0077652D03*
X0212100Y0077685D03*
X0212500Y0079385D03*
X0210900Y0085852D03*
X0214200Y0086252D03*
X0205100Y0068552D03*
X0205200Y0068452D03*
X0213300Y0064385D03*
X0213400Y0064585D03*
X0213500Y0064785D03*
X0213900Y0065685D03*
X0214100Y0066152D03*
X0214100Y0066185D03*
X0214200Y0066452D03*
D112*
X0214200Y0066419D03*
X0214000Y0065919D03*
X0213700Y0065219D03*
X0213300Y0064419D03*
X0205600Y0068019D03*
X0205500Y0068119D03*
X0204900Y0068719D03*
X0210900Y0073819D03*
X0216800Y0074919D03*
X0212100Y0077619D03*
X0224400Y0076019D03*
X0224600Y0076319D03*
X0225000Y0077119D03*
X0223200Y0071119D03*
D113*
X0220600Y0069352D03*
X0219900Y0074585D03*
X0217000Y0074585D03*
X0217000Y0074652D03*
X0215200Y0077585D03*
X0215300Y0077885D03*
X0215400Y0078185D03*
X0213700Y0078585D03*
X0213600Y0078252D03*
X0213500Y0077952D03*
X0213500Y0077885D03*
X0213400Y0077652D03*
X0205800Y0072385D03*
X0207300Y0068985D03*
X0206500Y0066285D03*
X0206400Y0066185D03*
X0210900Y0065985D03*
X0210900Y0065952D03*
X0211000Y0065585D03*
X0211400Y0064652D03*
X0211500Y0064485D03*
X0211500Y0064452D03*
X0223800Y0075252D03*
X0224900Y0078085D03*
X0217300Y0084752D03*
X0217300Y0084785D03*
X0217300Y0084852D03*
X0217300Y0084885D03*
X0217300Y0084952D03*
X0207400Y0084085D03*
X0207400Y0084052D03*
D114*
X0210950Y0086085D03*
X0210950Y0086152D03*
X0210950Y0086185D03*
X0210950Y0086252D03*
X0210950Y0086285D03*
X0210850Y0086752D03*
X0212050Y0077485D03*
X0212050Y0077452D03*
X0211950Y0077085D03*
X0211950Y0077052D03*
X0216750Y0074952D03*
X0214850Y0074552D03*
X0217350Y0072085D03*
X0216150Y0070752D03*
X0216250Y0069185D03*
X0210850Y0072152D03*
X0210950Y0073885D03*
X0223150Y0071185D03*
X0223450Y0070752D03*
X0223850Y0071885D03*
X0223950Y0071985D03*
X0224550Y0076252D03*
X0224650Y0076385D03*
X0224750Y0076552D03*
X0224850Y0076752D03*
X0205650Y0067952D03*
X0205650Y0065352D03*
X0213350Y0064485D03*
X0213450Y0064685D03*
X0213550Y0064885D03*
X0213650Y0065085D03*
X0213750Y0065352D03*
X0213850Y0065552D03*
X0213850Y0065585D03*
X0213950Y0065785D03*
X0214050Y0066052D03*
D115*
X0214015Y0065985D03*
X0214015Y0065952D03*
X0213985Y0065885D03*
X0213915Y0065752D03*
X0213885Y0065652D03*
X0213815Y0065485D03*
X0213815Y0065452D03*
X0213785Y0065385D03*
X0213715Y0065285D03*
X0213715Y0065252D03*
X0213685Y0065185D03*
X0213685Y0065152D03*
X0213615Y0065052D03*
X0213585Y0064985D03*
X0213585Y0064952D03*
X0213485Y0064752D03*
X0213385Y0064552D03*
X0205715Y0067885D03*
X0211815Y0072885D03*
X0212215Y0074485D03*
X0211985Y0077152D03*
X0211985Y0077185D03*
X0211985Y0077252D03*
X0212015Y0077285D03*
X0212015Y0077352D03*
X0212085Y0077585D03*
X0224415Y0076052D03*
X0224485Y0076152D03*
X0224515Y0076185D03*
X0224585Y0076285D03*
X0224615Y0076352D03*
X0224685Y0076452D03*
X0224815Y0076685D03*
X0223915Y0071952D03*
X0222985Y0071352D03*
X0223485Y0070685D03*
X0223485Y0070652D03*
X0223515Y0070585D03*
X0223515Y0070552D03*
X0223515Y0070085D03*
X0216015Y0070252D03*
X0216185Y0084252D03*
X0210915Y0085885D03*
X0210915Y0085952D03*
X0210915Y0085985D03*
X0210915Y0086052D03*
X0210915Y0086452D03*
X0210915Y0086485D03*
X0210885Y0086652D03*
X0210815Y0086852D03*
X0210615Y0087285D03*
D116*
X0210650Y0087219D03*
X0210750Y0087019D03*
X0210950Y0086219D03*
X0210950Y0086119D03*
X0212050Y0077419D03*
X0224650Y0076419D03*
X0223550Y0070419D03*
X0216150Y0069519D03*
X0213950Y0065819D03*
X0213750Y0065319D03*
X0213650Y0065119D03*
X0213550Y0064919D03*
D117*
X0205665Y0065185D03*
D118*
X0205665Y0065219D03*
X0211135Y0084719D03*
D119*
X0209850Y0072985D03*
X0205650Y0065252D03*
D120*
X0205650Y0065285D03*
X0210250Y0073352D03*
X0211250Y0074552D03*
X0211350Y0074852D03*
X0215850Y0083552D03*
X0215950Y0083685D03*
D121*
X0211265Y0084519D03*
X0212565Y0079519D03*
X0211735Y0076219D03*
X0211665Y0076019D03*
X0212165Y0074219D03*
X0212165Y0074119D03*
X0212235Y0073919D03*
X0212765Y0073219D03*
X0212865Y0073019D03*
X0212835Y0072619D03*
X0212765Y0072519D03*
X0211035Y0074019D03*
X0217035Y0074319D03*
X0204335Y0067719D03*
X0204365Y0067619D03*
X0204435Y0067319D03*
X0204465Y0067219D03*
X0204535Y0067019D03*
X0204565Y0066919D03*
X0204665Y0066719D03*
X0204865Y0066319D03*
X0205065Y0066019D03*
X0205665Y0065319D03*
D122*
X0205650Y0065419D03*
X0205350Y0074219D03*
X0205250Y0077719D03*
X0205250Y0077819D03*
X0205250Y0077919D03*
X0205250Y0078019D03*
X0205250Y0078119D03*
X0212450Y0075219D03*
X0212650Y0075719D03*
X0212850Y0076219D03*
X0212950Y0076419D03*
X0213150Y0076919D03*
X0219450Y0074119D03*
X0225050Y0077719D03*
X0207550Y0084419D03*
D123*
X0207450Y0084185D03*
X0215650Y0085685D03*
X0215750Y0085585D03*
X0216150Y0084852D03*
X0216150Y0084785D03*
X0217350Y0085452D03*
X0217350Y0085485D03*
X0217350Y0085552D03*
X0217350Y0085585D03*
X0217350Y0085652D03*
X0217350Y0085685D03*
X0223350Y0078285D03*
X0213450Y0077785D03*
X0213350Y0077485D03*
X0213350Y0077452D03*
X0205450Y0073652D03*
X0205550Y0073252D03*
X0205650Y0072885D03*
X0205650Y0072852D03*
X0205750Y0072552D03*
X0207150Y0068752D03*
X0206950Y0068485D03*
X0206450Y0067885D03*
X0210850Y0066252D03*
X0210850Y0066185D03*
X0210850Y0066152D03*
X0205650Y0065452D03*
D124*
X0205685Y0065519D03*
X0211115Y0066919D03*
X0212715Y0066919D03*
X0212785Y0067019D03*
X0212915Y0067219D03*
X0212985Y0067319D03*
X0220285Y0069019D03*
X0220385Y0069119D03*
X0220985Y0070719D03*
X0220985Y0070819D03*
X0220985Y0070919D03*
X0219915Y0074619D03*
X0220985Y0075619D03*
X0224785Y0078219D03*
X0215715Y0079019D03*
X0214915Y0076619D03*
X0214915Y0076519D03*
X0214885Y0076419D03*
X0205915Y0072019D03*
X0205385Y0079719D03*
X0205615Y0080319D03*
X0205885Y0080919D03*
X0205915Y0081019D03*
X0205985Y0081119D03*
X0206015Y0081219D03*
X0206115Y0081419D03*
X0206185Y0081619D03*
X0206285Y0081819D03*
X0206385Y0082019D03*
X0206415Y0082119D03*
X0206515Y0082319D03*
X0206885Y0083119D03*
X0217115Y0083719D03*
X0217185Y0084019D03*
X0217315Y0086319D03*
X0217285Y0086419D03*
X0217285Y0086519D03*
D125*
X0217015Y0083185D03*
X0217015Y0083152D03*
X0216985Y0083085D03*
X0216985Y0083052D03*
X0215985Y0079685D03*
X0215915Y0079485D03*
X0222685Y0077485D03*
X0222715Y0077552D03*
X0222815Y0077652D03*
X0221785Y0076485D03*
X0221515Y0076185D03*
X0221485Y0076152D03*
X0221415Y0076085D03*
X0221385Y0076052D03*
X0221315Y0075985D03*
X0221285Y0075952D03*
X0223215Y0074552D03*
X0220915Y0071385D03*
X0220915Y0071352D03*
X0220985Y0069952D03*
X0220015Y0068785D03*
X0219985Y0068752D03*
X0219885Y0068685D03*
X0222385Y0069252D03*
X0212115Y0066052D03*
X0205685Y0065552D03*
X0204515Y0068885D03*
X0206215Y0071385D03*
X0206185Y0071452D03*
X0206115Y0071552D03*
X0206115Y0071585D03*
X0210485Y0072452D03*
X0211185Y0071885D03*
X0224685Y0078285D03*
D126*
X0222420Y0077185D03*
X0222380Y0077152D03*
X0222150Y0076885D03*
X0222120Y0076852D03*
X0223080Y0074385D03*
X0223050Y0074352D03*
X0223020Y0074285D03*
X0222980Y0074252D03*
X0220750Y0071852D03*
X0220780Y0071785D03*
X0220780Y0071752D03*
X0220820Y0071685D03*
X0219350Y0068252D03*
X0219220Y0068152D03*
X0219080Y0068052D03*
X0210450Y0072485D03*
X0206420Y0071052D03*
X0206550Y0070885D03*
X0206580Y0070852D03*
X0206620Y0070785D03*
X0206650Y0070752D03*
X0206720Y0070685D03*
X0206750Y0070652D03*
X0206820Y0070585D03*
X0205680Y0065585D03*
X0216050Y0079852D03*
X0216080Y0079952D03*
X0216120Y0079985D03*
X0216120Y0080052D03*
X0216150Y0080085D03*
X0216180Y0080185D03*
X0216220Y0080285D03*
X0216250Y0080385D03*
X0216750Y0082052D03*
X0216750Y0082085D03*
X0216780Y0082152D03*
X0216780Y0082185D03*
X0216820Y0082285D03*
X0216820Y0082352D03*
X0216850Y0082452D03*
X0216850Y0082485D03*
X0216880Y0082585D03*
X0209750Y0084585D03*
X0217220Y0086852D03*
D127*
X0216515Y0081219D03*
X0216485Y0081119D03*
X0222885Y0074119D03*
X0220615Y0072119D03*
X0210415Y0072519D03*
X0207315Y0070119D03*
X0207185Y0070219D03*
X0207085Y0070319D03*
X0205685Y0065619D03*
D128*
X0205685Y0065652D03*
X0206115Y0067752D03*
X0207615Y0069885D03*
X0210385Y0072585D03*
X0220315Y0072552D03*
X0220385Y0072452D03*
X0222685Y0073885D03*
X0216885Y0066852D03*
X0213115Y0083685D03*
X0217115Y0087152D03*
X0217115Y0087185D03*
X0217085Y0087252D03*
D129*
X0216985Y0087519D03*
X0216385Y0088419D03*
X0216285Y0088519D03*
X0216015Y0088719D03*
X0213215Y0083619D03*
X0206115Y0067819D03*
X0205685Y0065719D03*
D130*
X0205700Y0065752D03*
X0208700Y0069185D03*
X0208770Y0069152D03*
X0212070Y0066185D03*
X0218270Y0067552D03*
X0219970Y0072885D03*
X0219870Y0074785D03*
X0216930Y0087652D03*
X0216900Y0087685D03*
X0216430Y0088385D03*
X0215970Y0088752D03*
X0215900Y0088785D03*
X0210830Y0088252D03*
X0210700Y0088185D03*
X0210630Y0088152D03*
D131*
X0214300Y0086152D03*
X0216600Y0088185D03*
X0216700Y0088085D03*
X0219900Y0072952D03*
X0223100Y0071652D03*
X0205700Y0065785D03*
D132*
X0205700Y0065819D03*
X0209200Y0068919D03*
X0212800Y0067519D03*
X0219800Y0073019D03*
D133*
X0219730Y0073052D03*
X0205700Y0065852D03*
X0211230Y0085652D03*
X0212000Y0088785D03*
D134*
X0212600Y0079585D03*
X0213700Y0079152D03*
X0217030Y0074285D03*
X0217400Y0072252D03*
X0222400Y0071852D03*
X0216730Y0068452D03*
X0216870Y0067985D03*
X0216870Y0067952D03*
X0212200Y0065852D03*
X0209870Y0072952D03*
X0210170Y0073285D03*
D135*
X0209900Y0072852D03*
X0211800Y0072985D03*
X0212800Y0073152D03*
X0212900Y0072885D03*
X0212900Y0072852D03*
X0212900Y0072785D03*
X0212900Y0072752D03*
X0212800Y0072552D03*
X0212200Y0073985D03*
X0211700Y0076052D03*
X0211700Y0076085D03*
X0216100Y0083952D03*
X0216100Y0083985D03*
X0216800Y0068185D03*
X0212200Y0065885D03*
X0205000Y0066085D03*
X0204900Y0066252D03*
X0204700Y0066652D03*
X0204600Y0066852D03*
X0204600Y0066885D03*
X0204500Y0067152D03*
X0204500Y0067185D03*
X0204400Y0067452D03*
X0204400Y0067485D03*
X0204300Y0067852D03*
D136*
X0206130Y0067419D03*
X0205170Y0065919D03*
X0214730Y0067719D03*
X0216000Y0070219D03*
X0217370Y0071619D03*
X0217370Y0072119D03*
X0212530Y0073519D03*
X0212370Y0073719D03*
X0212300Y0073819D03*
X0212200Y0074419D03*
X0210970Y0073919D03*
X0210530Y0073519D03*
X0209930Y0072819D03*
X0210730Y0072319D03*
X0210800Y0072219D03*
X0211830Y0076619D03*
X0211870Y0076719D03*
X0211900Y0076819D03*
X0211900Y0076919D03*
X0211930Y0077019D03*
X0211970Y0077119D03*
X0224030Y0078719D03*
X0215670Y0083419D03*
X0210930Y0086319D03*
X0210930Y0086419D03*
X0210870Y0086719D03*
X0210830Y0086819D03*
X0210800Y0086919D03*
X0210700Y0087119D03*
X0223000Y0071319D03*
X0223100Y0071219D03*
X0223530Y0070519D03*
X0223570Y0070319D03*
X0223530Y0070219D03*
X0223530Y0070119D03*
D137*
X0216085Y0070519D03*
X0207185Y0068819D03*
X0207115Y0068719D03*
X0206485Y0067919D03*
X0210885Y0066019D03*
X0210915Y0065919D03*
X0205685Y0072719D03*
X0205615Y0073019D03*
X0205585Y0073119D03*
X0205485Y0073519D03*
X0205415Y0073819D03*
X0213285Y0077319D03*
X0213315Y0077419D03*
X0213685Y0078519D03*
X0213715Y0078619D03*
X0213715Y0078719D03*
X0214785Y0075019D03*
X0223285Y0078219D03*
X0216185Y0084719D03*
X0215715Y0085619D03*
X0207415Y0084119D03*
X0205315Y0079019D03*
X0205315Y0078919D03*
X0205315Y0078819D03*
X0205285Y0078719D03*
X0205285Y0078619D03*
X0205285Y0078519D03*
D138*
X0205650Y0080385D03*
X0205850Y0080852D03*
X0205950Y0081052D03*
X0205950Y0081085D03*
X0206050Y0081285D03*
X0206150Y0081485D03*
X0206250Y0081752D03*
X0206350Y0081952D03*
X0206450Y0082185D03*
X0215750Y0079085D03*
X0214950Y0076685D03*
X0214850Y0076285D03*
X0214850Y0076252D03*
X0214850Y0076185D03*
X0214850Y0076152D03*
X0214850Y0075085D03*
X0220950Y0075585D03*
X0220950Y0069985D03*
X0220350Y0069085D03*
X0220250Y0068985D03*
X0212950Y0067285D03*
X0212750Y0066985D03*
X0212650Y0066852D03*
X0206150Y0065985D03*
X0205950Y0071952D03*
X0217150Y0083785D03*
X0217150Y0083852D03*
X0217150Y0083885D03*
D139*
X0217200Y0084119D03*
X0206800Y0082919D03*
X0206700Y0082719D03*
X0206600Y0082519D03*
X0215600Y0078719D03*
X0215000Y0076919D03*
X0205900Y0072119D03*
X0206200Y0066019D03*
X0220500Y0069219D03*
X0221000Y0070519D03*
X0221000Y0070619D03*
D140*
X0212850Y0067119D03*
X0212150Y0066019D03*
X0205950Y0071919D03*
X0210550Y0072419D03*
X0214850Y0076219D03*
X0214850Y0076319D03*
X0214950Y0076719D03*
X0215750Y0079119D03*
X0222950Y0077819D03*
X0223450Y0074819D03*
X0206250Y0081719D03*
X0206150Y0081519D03*
X0206050Y0081319D03*
X0205750Y0080619D03*
X0217150Y0083819D03*
D141*
X0211765Y0076352D03*
X0211735Y0076252D03*
X0211735Y0076185D03*
X0211665Y0075985D03*
X0211665Y0075952D03*
X0211635Y0075852D03*
X0212165Y0074252D03*
X0212165Y0074185D03*
X0212165Y0074152D03*
X0212235Y0073952D03*
X0212665Y0073352D03*
X0212735Y0073252D03*
X0212835Y0073085D03*
X0212865Y0072985D03*
X0212865Y0072685D03*
X0212735Y0072485D03*
X0211065Y0074052D03*
X0211065Y0074085D03*
X0210435Y0073452D03*
X0216735Y0074985D03*
X0217365Y0072185D03*
X0217365Y0072152D03*
X0216235Y0069152D03*
X0216735Y0068352D03*
X0216765Y0068285D03*
X0206135Y0067385D03*
X0204735Y0066585D03*
X0204735Y0066552D03*
X0204765Y0066485D03*
X0204835Y0066385D03*
X0204835Y0066352D03*
X0204935Y0066185D03*
X0204965Y0066152D03*
X0205035Y0066052D03*
X0204665Y0066685D03*
X0204635Y0066752D03*
X0204635Y0066785D03*
X0204565Y0066952D03*
X0204535Y0067052D03*
X0204465Y0067252D03*
X0204465Y0067285D03*
X0204435Y0067352D03*
X0204435Y0067385D03*
X0204365Y0067585D03*
D142*
X0204380Y0067519D03*
X0204420Y0067419D03*
X0204320Y0067819D03*
X0204280Y0067919D03*
X0204250Y0068019D03*
X0204250Y0068119D03*
X0204220Y0068219D03*
X0204750Y0066519D03*
X0204920Y0066219D03*
X0204980Y0066119D03*
X0216820Y0068119D03*
X0216180Y0070819D03*
X0217380Y0072219D03*
X0222480Y0071819D03*
X0212180Y0074019D03*
X0211080Y0074119D03*
X0211480Y0075319D03*
X0211520Y0075419D03*
X0211550Y0075519D03*
X0211580Y0075619D03*
X0211580Y0075719D03*
X0211620Y0075819D03*
X0211650Y0075919D03*
X0213720Y0079119D03*
X0215820Y0083519D03*
X0216080Y0083919D03*
D143*
X0216150Y0084819D03*
X0217350Y0085419D03*
X0217350Y0085519D03*
X0217350Y0085619D03*
X0207450Y0084219D03*
X0213350Y0077519D03*
X0213250Y0077219D03*
X0216950Y0074719D03*
X0211850Y0072719D03*
X0205650Y0072919D03*
X0205550Y0073219D03*
X0204450Y0069019D03*
X0207050Y0068619D03*
X0206650Y0066419D03*
X0206550Y0066319D03*
X0210850Y0066219D03*
X0210850Y0066119D03*
X0223850Y0075319D03*
X0224950Y0078019D03*
D144*
X0219885Y0074719D03*
X0222715Y0073919D03*
X0223315Y0072819D03*
X0220415Y0072419D03*
X0218585Y0067719D03*
X0212085Y0066119D03*
X0207715Y0069819D03*
X0207415Y0083819D03*
X0213085Y0083719D03*
X0217085Y0087219D03*
D145*
X0216735Y0088019D03*
X0216665Y0088119D03*
X0219865Y0074819D03*
X0219935Y0072919D03*
X0212035Y0066219D03*
X0211235Y0066819D03*
D146*
X0212015Y0066252D03*
X0209285Y0068885D03*
X0223115Y0071685D03*
X0211915Y0088752D03*
D147*
X0211220Y0084585D03*
X0211250Y0084552D03*
X0215780Y0083485D03*
X0211650Y0075885D03*
X0211620Y0075785D03*
X0211620Y0075752D03*
X0211580Y0075685D03*
X0211580Y0075652D03*
X0211550Y0075585D03*
X0211550Y0075552D03*
X0211520Y0075452D03*
X0211150Y0074252D03*
X0211120Y0074185D03*
X0211120Y0074152D03*
X0212180Y0074085D03*
X0212180Y0074052D03*
X0212850Y0072652D03*
X0212820Y0072585D03*
X0211180Y0071652D03*
X0216080Y0069585D03*
X0216750Y0068385D03*
X0216820Y0068152D03*
X0204880Y0066285D03*
X0204780Y0066452D03*
X0204380Y0067552D03*
X0204350Y0067652D03*
X0204350Y0067685D03*
X0204320Y0067752D03*
X0204320Y0067785D03*
X0204280Y0067885D03*
X0204280Y0067952D03*
X0204280Y0067985D03*
X0204250Y0068052D03*
X0204250Y0068085D03*
X0204250Y0068152D03*
X0204220Y0068252D03*
X0204220Y0068285D03*
D148*
X0211630Y0066285D03*
X0210500Y0084052D03*
X0214000Y0085452D03*
X0214000Y0085485D03*
X0209570Y0087852D03*
X0209630Y0087885D03*
X0214070Y0089552D03*
X0208500Y0085985D03*
D149*
X0207870Y0083619D03*
X0212400Y0067719D03*
X0211630Y0066319D03*
D150*
X0211650Y0066352D03*
X0213550Y0083985D03*
D151*
X0211635Y0066385D03*
D152*
X0216800Y0068219D03*
X0212500Y0072119D03*
X0212900Y0072719D03*
X0212900Y0072819D03*
X0212900Y0072919D03*
X0211700Y0076119D03*
X0204500Y0067119D03*
X0204700Y0066619D03*
X0204800Y0066419D03*
D153*
X0211650Y0066419D03*
X0214420Y0085919D03*
D154*
X0213965Y0085285D03*
X0212735Y0082385D03*
X0208565Y0086085D03*
X0212335Y0067752D03*
X0211665Y0066485D03*
X0211665Y0066452D03*
D155*
X0207170Y0066919D03*
X0207070Y0066819D03*
X0206970Y0066719D03*
X0206870Y0066619D03*
X0206770Y0066519D03*
X0206130Y0067519D03*
X0206570Y0068019D03*
X0206670Y0068119D03*
X0206730Y0068219D03*
X0206830Y0068319D03*
X0206900Y0068419D03*
X0206970Y0068519D03*
X0216230Y0069319D03*
X0216070Y0070419D03*
X0217270Y0071719D03*
X0217270Y0071819D03*
X0217030Y0074519D03*
X0219870Y0074519D03*
X0223930Y0075419D03*
X0225030Y0077819D03*
X0225000Y0077919D03*
X0223830Y0072619D03*
X0223930Y0072519D03*
X0224000Y0072419D03*
X0223000Y0071419D03*
X0212570Y0075519D03*
X0212600Y0075619D03*
X0212730Y0075919D03*
X0213230Y0077119D03*
X0213730Y0078819D03*
X0205270Y0078419D03*
X0205270Y0078319D03*
X0205270Y0078219D03*
X0205330Y0074319D03*
X0205370Y0074119D03*
X0205370Y0074019D03*
X0205400Y0073919D03*
X0205430Y0073719D03*
X0205470Y0073619D03*
X0205500Y0073419D03*
X0205530Y0073319D03*
X0205670Y0072819D03*
X0207500Y0084319D03*
X0215600Y0085719D03*
D156*
X0210485Y0084119D03*
X0208585Y0086119D03*
X0211685Y0066519D03*
D157*
X0214500Y0067152D03*
X0207230Y0066985D03*
X0207200Y0066952D03*
X0207130Y0066885D03*
X0207100Y0066852D03*
X0207030Y0066785D03*
X0207000Y0066752D03*
X0206930Y0066685D03*
X0206900Y0066652D03*
X0206830Y0066585D03*
X0206800Y0066552D03*
X0206530Y0067985D03*
X0206600Y0068052D03*
X0206630Y0068085D03*
X0206770Y0068252D03*
X0206800Y0068285D03*
X0206830Y0068352D03*
X0206870Y0068385D03*
X0206930Y0068452D03*
X0207000Y0068552D03*
X0207070Y0068652D03*
X0205630Y0072952D03*
X0205600Y0073052D03*
X0205570Y0073152D03*
X0205570Y0073185D03*
X0205530Y0073285D03*
X0205500Y0073452D03*
X0205470Y0073552D03*
X0205470Y0073585D03*
X0205430Y0073685D03*
X0205430Y0073752D03*
X0205430Y0073785D03*
X0205400Y0073852D03*
X0205400Y0073885D03*
X0205400Y0073952D03*
X0205400Y0073985D03*
X0205370Y0074052D03*
X0205370Y0074085D03*
X0205370Y0074152D03*
X0205370Y0074185D03*
X0205330Y0074285D03*
X0205330Y0074352D03*
X0205330Y0074385D03*
X0210770Y0073652D03*
X0212630Y0075685D03*
X0212670Y0075752D03*
X0213170Y0076952D03*
X0213170Y0076985D03*
X0213200Y0077052D03*
X0213200Y0077085D03*
X0213230Y0077152D03*
X0213230Y0077185D03*
X0213270Y0077252D03*
X0213300Y0077352D03*
X0213730Y0078752D03*
X0213730Y0078785D03*
X0214770Y0074952D03*
X0216900Y0074785D03*
X0217030Y0074485D03*
X0219830Y0074485D03*
X0217270Y0071885D03*
X0217270Y0071852D03*
X0217270Y0071785D03*
X0217270Y0071752D03*
X0216100Y0070585D03*
X0216100Y0070552D03*
X0216070Y0070452D03*
X0223370Y0069852D03*
X0223970Y0072485D03*
X0223900Y0072552D03*
X0223870Y0072585D03*
X0223900Y0075385D03*
X0225030Y0077852D03*
X0207570Y0084452D03*
X0207530Y0084385D03*
X0207530Y0084352D03*
X0205270Y0078485D03*
X0205270Y0078452D03*
X0205270Y0078385D03*
X0205270Y0078352D03*
X0205270Y0078285D03*
X0205270Y0078252D03*
X0205270Y0078185D03*
D158*
X0210485Y0084152D03*
X0209585Y0084952D03*
X0209415Y0087752D03*
X0211685Y0066552D03*
D159*
X0211700Y0066585D03*
X0212270Y0067785D03*
X0209700Y0068585D03*
X0210470Y0084185D03*
X0210430Y0084285D03*
X0208600Y0086152D03*
X0208970Y0087352D03*
X0213970Y0085252D03*
X0214430Y0085885D03*
X0213630Y0084085D03*
D160*
X0213970Y0085219D03*
X0212600Y0082419D03*
X0214070Y0089519D03*
X0210800Y0068319D03*
X0211700Y0066619D03*
D161*
X0211715Y0066652D03*
X0211785Y0066785D03*
X0218885Y0073352D03*
X0208615Y0086185D03*
X0208915Y0087252D03*
D162*
X0208950Y0087285D03*
X0213950Y0085185D03*
X0213950Y0085152D03*
X0214450Y0083185D03*
X0210450Y0084252D03*
X0211750Y0066685D03*
X0216650Y0067052D03*
D163*
X0211750Y0066719D03*
X0213650Y0084119D03*
X0213950Y0085119D03*
X0210450Y0084219D03*
X0208950Y0087319D03*
D164*
X0213665Y0084152D03*
X0212435Y0082452D03*
X0211765Y0066752D03*
D165*
X0216965Y0066785D03*
X0216735Y0068485D03*
X0215935Y0070085D03*
X0211765Y0073085D03*
X0209965Y0073152D03*
X0206135Y0067285D03*
X0211165Y0084685D03*
X0211735Y0085985D03*
D166*
X0211685Y0085919D03*
X0216115Y0084019D03*
X0211815Y0076519D03*
X0211785Y0076419D03*
X0212185Y0074319D03*
X0212615Y0073419D03*
X0212685Y0073319D03*
X0212815Y0073119D03*
X0211815Y0072919D03*
X0204615Y0066819D03*
D167*
X0206130Y0067619D03*
X0204500Y0068919D03*
X0206030Y0071719D03*
X0206000Y0071819D03*
X0211900Y0072519D03*
X0219930Y0068719D03*
X0220170Y0068919D03*
X0220970Y0071019D03*
X0220970Y0071119D03*
X0223370Y0074719D03*
X0221270Y0075919D03*
X0221170Y0075819D03*
X0221070Y0075719D03*
X0222870Y0077719D03*
X0215830Y0079319D03*
X0215800Y0079219D03*
X0217070Y0083419D03*
X0217100Y0083519D03*
X0217100Y0083619D03*
X0217270Y0086619D03*
X0214230Y0086219D03*
X0211230Y0084319D03*
X0205830Y0080819D03*
X0205800Y0080719D03*
X0205700Y0080519D03*
X0205670Y0080419D03*
X0205570Y0080219D03*
X0205530Y0080119D03*
X0205470Y0080019D03*
X0205430Y0079919D03*
X0205400Y0079819D03*
X0212630Y0066819D03*
D168*
X0212950Y0067452D03*
X0211150Y0066885D03*
X0207350Y0070085D03*
X0207150Y0070252D03*
X0214950Y0075152D03*
X0222850Y0074085D03*
X0218950Y0067952D03*
X0218850Y0067885D03*
X0216350Y0080685D03*
X0216450Y0080985D03*
X0217150Y0087052D03*
D169*
X0217285Y0086485D03*
X0217285Y0086452D03*
X0217315Y0086352D03*
X0217315Y0086285D03*
X0217185Y0084052D03*
X0217115Y0083685D03*
X0217115Y0083652D03*
X0206615Y0082552D03*
X0206585Y0082485D03*
X0206485Y0082252D03*
X0206315Y0081885D03*
X0206285Y0081785D03*
X0206215Y0081685D03*
X0206215Y0081652D03*
X0206185Y0081585D03*
X0206115Y0081452D03*
X0206085Y0081385D03*
X0206085Y0081352D03*
X0206015Y0081185D03*
X0205985Y0081152D03*
X0205915Y0080985D03*
X0205815Y0080785D03*
X0205815Y0080752D03*
X0205785Y0080685D03*
X0205715Y0080552D03*
X0205585Y0080252D03*
X0205385Y0079785D03*
X0205385Y0079752D03*
X0214985Y0076852D03*
X0214915Y0076585D03*
X0214915Y0076552D03*
X0214885Y0076485D03*
X0214885Y0076452D03*
X0214885Y0076385D03*
X0214885Y0076352D03*
X0215785Y0079152D03*
X0215785Y0079185D03*
X0215815Y0079252D03*
X0222985Y0077852D03*
X0223015Y0077885D03*
X0221015Y0075652D03*
X0223385Y0074752D03*
X0223415Y0074785D03*
X0223485Y0074852D03*
X0220985Y0070952D03*
X0220985Y0070885D03*
X0220985Y0070852D03*
X0220985Y0070785D03*
X0220985Y0070752D03*
X0220315Y0069052D03*
X0212985Y0067352D03*
X0212885Y0067185D03*
X0212815Y0067085D03*
X0212685Y0066885D03*
X0204485Y0068952D03*
X0205985Y0071852D03*
X0211185Y0071852D03*
X0211885Y0072585D03*
D170*
X0214800Y0074619D03*
X0212300Y0074819D03*
X0213000Y0076519D03*
X0212300Y0078519D03*
X0212400Y0078919D03*
X0216200Y0084419D03*
X0207700Y0084819D03*
X0216200Y0069419D03*
X0214400Y0066919D03*
X0208700Y0068519D03*
X0208600Y0068419D03*
D171*
X0208100Y0069352D03*
X0216770Y0066952D03*
X0224070Y0078385D03*
X0214370Y0086052D03*
X0208330Y0085752D03*
X0208330Y0085585D03*
X0207730Y0083685D03*
D172*
X0212550Y0079485D03*
X0211850Y0076685D03*
X0211850Y0076652D03*
X0211750Y0076285D03*
X0212250Y0073885D03*
X0212350Y0073752D03*
X0212550Y0073485D03*
X0212650Y0073385D03*
X0212850Y0073052D03*
X0204350Y0069152D03*
X0204550Y0066985D03*
X0223550Y0070252D03*
X0223550Y0070285D03*
X0216150Y0084085D03*
D173*
X0214530Y0083085D03*
X0210500Y0083985D03*
X0207800Y0083652D03*
X0208430Y0085852D03*
X0214070Y0089585D03*
X0215470Y0075385D03*
X0210270Y0068485D03*
X0216730Y0066985D03*
D174*
X0216685Y0067019D03*
X0217715Y0074019D03*
X0209485Y0087819D03*
D175*
X0207650Y0084652D03*
X0213750Y0078885D03*
X0213750Y0078852D03*
X0213150Y0076885D03*
X0213050Y0076652D03*
X0212850Y0076185D03*
X0212850Y0076152D03*
X0212750Y0075985D03*
X0212750Y0075952D03*
X0212550Y0075485D03*
X0212550Y0075452D03*
X0212450Y0075252D03*
X0216850Y0074852D03*
X0217050Y0074452D03*
X0217750Y0074152D03*
X0219750Y0074385D03*
X0223950Y0075452D03*
X0225050Y0077685D03*
X0225050Y0077752D03*
X0225050Y0077785D03*
X0223650Y0071785D03*
X0216050Y0070385D03*
X0216050Y0070352D03*
X0216250Y0069285D03*
X0214450Y0067052D03*
X0211850Y0072752D03*
X0211850Y0072785D03*
X0205350Y0074252D03*
X0205250Y0077752D03*
X0205250Y0077785D03*
X0205250Y0077852D03*
X0205250Y0077885D03*
X0205250Y0077952D03*
X0205250Y0077985D03*
X0205250Y0078052D03*
X0205250Y0078085D03*
X0205250Y0078152D03*
D176*
X0213850Y0084552D03*
X0213850Y0084585D03*
X0208750Y0086552D03*
X0208750Y0086585D03*
X0212050Y0067885D03*
X0216650Y0067085D03*
D177*
X0214485Y0067119D03*
X0216115Y0070619D03*
X0217285Y0071919D03*
X0219785Y0074419D03*
X0216885Y0074819D03*
X0214785Y0074819D03*
X0214785Y0074919D03*
X0214785Y0074719D03*
X0212685Y0075819D03*
X0212785Y0076019D03*
X0212815Y0076119D03*
X0212915Y0076319D03*
X0213085Y0076719D03*
X0213115Y0076819D03*
X0213185Y0077019D03*
X0212515Y0075419D03*
X0212485Y0075319D03*
X0212415Y0075119D03*
X0210715Y0073619D03*
X0205315Y0074419D03*
X0205315Y0074519D03*
X0205315Y0074619D03*
X0205285Y0074719D03*
X0205285Y0074819D03*
X0205285Y0074919D03*
X0212415Y0079019D03*
X0224015Y0075519D03*
X0224085Y0075619D03*
X0216185Y0084519D03*
X0216185Y0084619D03*
X0207585Y0084519D03*
D178*
X0216615Y0067119D03*
D179*
X0216600Y0067152D03*
X0222000Y0069652D03*
X0208200Y0083452D03*
D180*
X0217630Y0073685D03*
X0216230Y0067185D03*
D181*
X0206130Y0067219D03*
X0211770Y0086019D03*
D182*
X0216265Y0067219D03*
D183*
X0206135Y0067252D03*
X0217035Y0074252D03*
D184*
X0217900Y0073452D03*
X0216300Y0067252D03*
D185*
X0216350Y0067285D03*
X0209550Y0085385D03*
D186*
X0210200Y0073319D03*
X0209870Y0072919D03*
X0204300Y0069219D03*
X0206130Y0067319D03*
X0216070Y0069619D03*
X0216230Y0069119D03*
D187*
X0216385Y0067319D03*
X0209585Y0085419D03*
D188*
X0215935Y0083652D03*
X0216065Y0083852D03*
X0216065Y0083885D03*
X0211535Y0075485D03*
X0211465Y0075285D03*
X0211465Y0075252D03*
X0211435Y0075185D03*
X0211435Y0075152D03*
X0211435Y0075085D03*
X0211365Y0074885D03*
X0211335Y0074785D03*
X0211265Y0074585D03*
X0211235Y0074485D03*
X0211235Y0074452D03*
X0211165Y0074285D03*
X0209865Y0072885D03*
X0216235Y0073352D03*
X0217435Y0071585D03*
X0215965Y0070152D03*
X0216835Y0068085D03*
X0216835Y0068052D03*
X0206135Y0067352D03*
X0204235Y0068185D03*
X0204335Y0069185D03*
D189*
X0216420Y0067352D03*
X0209620Y0085452D03*
D190*
X0216465Y0067385D03*
D191*
X0219685Y0068519D03*
X0219815Y0068619D03*
X0220915Y0071319D03*
X0223285Y0074619D03*
X0221815Y0076519D03*
X0222615Y0077419D03*
X0222785Y0077619D03*
X0215915Y0079519D03*
X0215885Y0079419D03*
X0216985Y0083019D03*
X0217015Y0083119D03*
X0217015Y0083219D03*
X0214085Y0089719D03*
X0206085Y0071619D03*
X0213015Y0067419D03*
D192*
X0216485Y0067419D03*
D193*
X0216515Y0067452D03*
D194*
X0215550Y0067485D03*
X0213680Y0084185D03*
X0213950Y0085052D03*
X0213950Y0085085D03*
X0214450Y0085852D03*
X0209380Y0087685D03*
X0208880Y0087152D03*
X0208650Y0086285D03*
X0208650Y0086252D03*
D195*
X0211135Y0085552D03*
X0213265Y0083785D03*
X0214635Y0082985D03*
X0212365Y0088952D03*
X0219035Y0075252D03*
X0208035Y0069485D03*
X0218035Y0067485D03*
D196*
X0215400Y0067519D03*
X0210500Y0084019D03*
D197*
X0211420Y0088519D03*
X0215680Y0088919D03*
X0217750Y0074119D03*
X0221180Y0069819D03*
X0218180Y0067519D03*
D198*
X0215280Y0067552D03*
X0218650Y0075385D03*
X0217450Y0075985D03*
X0209680Y0084885D03*
D199*
X0208265Y0085652D03*
X0208265Y0085685D03*
X0213565Y0083452D03*
X0214335Y0086085D03*
X0217735Y0074085D03*
X0215165Y0067585D03*
X0212665Y0067585D03*
D200*
X0214950Y0067652D03*
X0218350Y0067585D03*
X0224050Y0078585D03*
X0216950Y0087585D03*
X0216350Y0088452D03*
X0216050Y0088685D03*
D201*
X0214070Y0089619D03*
X0209530Y0068719D03*
X0212600Y0067619D03*
D202*
X0215050Y0067619D03*
X0212150Y0072419D03*
D203*
X0210320Y0072719D03*
X0220250Y0072619D03*
X0222380Y0073319D03*
X0222520Y0073219D03*
X0222380Y0073519D03*
X0222550Y0073719D03*
X0222880Y0073019D03*
X0223080Y0072919D03*
X0218420Y0067619D03*
X0209780Y0084319D03*
X0217020Y0087419D03*
D204*
X0217235Y0086785D03*
X0217235Y0086752D03*
X0209735Y0084552D03*
X0216965Y0082985D03*
X0216965Y0082952D03*
X0216935Y0082852D03*
X0216935Y0082785D03*
X0216935Y0082752D03*
X0216865Y0082552D03*
X0216835Y0082385D03*
X0216065Y0079885D03*
X0216035Y0079785D03*
X0215965Y0079652D03*
X0222335Y0077085D03*
X0222235Y0076985D03*
X0222065Y0076785D03*
X0222035Y0076752D03*
X0221965Y0076685D03*
X0221935Y0076652D03*
X0221865Y0076585D03*
X0221835Y0076552D03*
X0221765Y0076452D03*
X0221665Y0076352D03*
X0221565Y0076252D03*
X0222465Y0077252D03*
X0222565Y0077352D03*
X0224035Y0078652D03*
X0223165Y0074485D03*
X0223135Y0074452D03*
X0220835Y0071652D03*
X0220865Y0071585D03*
X0220865Y0071552D03*
X0220935Y0071285D03*
X0219765Y0068585D03*
X0219735Y0068552D03*
X0219535Y0068385D03*
X0219465Y0068352D03*
X0219265Y0068185D03*
X0214835Y0067685D03*
X0206465Y0070985D03*
X0206365Y0071152D03*
X0206335Y0071185D03*
X0206265Y0071285D03*
X0206235Y0071352D03*
X0206135Y0067652D03*
D205*
X0208135Y0069285D03*
X0209565Y0068685D03*
X0212535Y0067652D03*
D206*
X0207235Y0070185D03*
X0207035Y0070352D03*
X0206935Y0070452D03*
X0206835Y0070552D03*
X0204535Y0068852D03*
X0206135Y0067685D03*
X0219135Y0068085D03*
X0220735Y0071885D03*
X0220665Y0072052D03*
X0220635Y0072085D03*
X0222935Y0074185D03*
X0216165Y0080152D03*
X0216235Y0080352D03*
X0216265Y0080452D03*
X0216335Y0080652D03*
X0216365Y0080752D03*
X0216435Y0080952D03*
X0216465Y0081052D03*
X0216535Y0081252D03*
X0216535Y0081285D03*
X0216565Y0081352D03*
X0216565Y0081385D03*
X0216635Y0081585D03*
X0216635Y0081652D03*
X0216665Y0081685D03*
X0216665Y0081752D03*
X0216665Y0081785D03*
X0216735Y0081952D03*
X0216735Y0081985D03*
X0209835Y0084685D03*
X0217165Y0086952D03*
X0217165Y0086985D03*
D207*
X0214065Y0085652D03*
X0213165Y0082285D03*
X0212465Y0067685D03*
D208*
X0218535Y0067685D03*
X0220365Y0072485D03*
X0220265Y0072585D03*
X0222565Y0073752D03*
X0223165Y0072885D03*
X0223235Y0072852D03*
X0213165Y0083652D03*
X0209935Y0084785D03*
X0214265Y0086185D03*
X0217065Y0087285D03*
D209*
X0217130Y0087119D03*
X0209870Y0084719D03*
X0214700Y0082919D03*
X0224030Y0078619D03*
X0222800Y0074019D03*
X0220500Y0072319D03*
X0211200Y0072019D03*
X0207570Y0069919D03*
X0207430Y0070019D03*
X0206130Y0067719D03*
D210*
X0207750Y0069785D03*
X0218650Y0067752D03*
X0222650Y0073852D03*
D211*
X0212180Y0067819D03*
X0208880Y0087119D03*
D212*
X0217150Y0087019D03*
X0216550Y0081319D03*
X0220550Y0072219D03*
X0218750Y0067819D03*
X0204550Y0068819D03*
D213*
X0206115Y0067852D03*
X0208885Y0069085D03*
X0207515Y0083785D03*
X0213285Y0083585D03*
X0216885Y0087752D03*
X0216815Y0087885D03*
X0216515Y0088285D03*
X0215815Y0088852D03*
X0214085Y0089685D03*
X0211115Y0088385D03*
X0210915Y0088285D03*
X0210515Y0088085D03*
X0210315Y0087985D03*
D214*
X0208685Y0086352D03*
X0213915Y0084952D03*
X0213915Y0084885D03*
X0211015Y0068252D03*
X0212115Y0067852D03*
D215*
X0216900Y0067852D03*
X0213700Y0079185D03*
D216*
X0216315Y0080585D03*
X0216385Y0080785D03*
X0216415Y0080885D03*
X0216485Y0081085D03*
X0216585Y0081452D03*
X0209715Y0084352D03*
X0222815Y0074052D03*
X0223415Y0072785D03*
X0220585Y0072185D03*
X0220515Y0072285D03*
X0218815Y0067852D03*
X0207285Y0070152D03*
X0207115Y0070285D03*
D217*
X0204285Y0069252D03*
X0216885Y0067885D03*
X0209215Y0087985D03*
D218*
X0211950Y0067919D03*
D219*
X0216865Y0067919D03*
X0211165Y0071619D03*
X0209865Y0073019D03*
X0209935Y0073119D03*
X0212635Y0079619D03*
D220*
X0216200Y0080219D03*
X0216300Y0080519D03*
X0216400Y0080819D03*
X0216600Y0081519D03*
X0216700Y0081819D03*
X0217200Y0086919D03*
X0218900Y0067919D03*
D221*
X0211885Y0067952D03*
X0214485Y0085752D03*
X0209315Y0087552D03*
D222*
X0214370Y0083285D03*
X0211530Y0068085D03*
X0211630Y0068052D03*
X0211800Y0067985D03*
D223*
X0211700Y0068019D03*
X0209300Y0087519D03*
D224*
X0211250Y0074519D03*
X0215950Y0070119D03*
X0216850Y0068019D03*
D225*
X0219035Y0068019D03*
X0221035Y0069919D03*
X0220665Y0072019D03*
X0222965Y0074219D03*
X0216235Y0080319D03*
X0216265Y0080419D03*
X0216335Y0080619D03*
X0216365Y0080719D03*
X0216435Y0080919D03*
X0216465Y0081019D03*
X0216565Y0081419D03*
X0216635Y0081619D03*
X0216665Y0081719D03*
X0216735Y0082019D03*
X0216765Y0082119D03*
X0206865Y0070519D03*
X0206965Y0070419D03*
D226*
X0211435Y0068119D03*
X0208065Y0083519D03*
D227*
X0209720Y0084519D03*
X0209780Y0084619D03*
X0216880Y0082619D03*
X0216850Y0082419D03*
X0216820Y0082319D03*
X0216780Y0082219D03*
X0216720Y0081919D03*
X0216150Y0080119D03*
X0216120Y0080019D03*
X0216080Y0079919D03*
X0222180Y0076919D03*
X0223120Y0074419D03*
X0223050Y0074319D03*
X0223050Y0071519D03*
X0220850Y0071619D03*
X0220820Y0071719D03*
X0220780Y0071819D03*
X0220720Y0071919D03*
X0219320Y0068219D03*
X0219180Y0068119D03*
X0206780Y0070619D03*
X0206680Y0070719D03*
X0206620Y0070819D03*
X0206520Y0070919D03*
X0206450Y0071019D03*
X0206380Y0071119D03*
X0224620Y0078319D03*
X0217220Y0086819D03*
D228*
X0211865Y0082585D03*
X0211335Y0068152D03*
D229*
X0211235Y0068185D03*
X0213865Y0084652D03*
X0214465Y0085785D03*
X0209335Y0087585D03*
D230*
X0208815Y0086819D03*
X0208785Y0086619D03*
X0213885Y0084719D03*
X0211115Y0068219D03*
D231*
X0210900Y0068285D03*
X0208900Y0087185D03*
D232*
X0209700Y0084485D03*
X0209700Y0084452D03*
X0216900Y0082685D03*
X0216900Y0082652D03*
X0216000Y0079752D03*
X0222300Y0077052D03*
X0222200Y0076952D03*
X0222500Y0077285D03*
X0222600Y0077385D03*
X0221700Y0076385D03*
X0221600Y0076285D03*
X0219900Y0074652D03*
X0223500Y0072752D03*
X0220900Y0071485D03*
X0220900Y0071452D03*
X0219600Y0068452D03*
X0219400Y0068285D03*
X0211900Y0072485D03*
X0206500Y0070952D03*
X0206400Y0071085D03*
X0206300Y0071252D03*
D233*
X0211200Y0074419D03*
X0211400Y0075019D03*
X0204200Y0068419D03*
X0204200Y0068319D03*
X0211200Y0084619D03*
D234*
X0216150Y0084119D03*
X0211750Y0076319D03*
X0212450Y0073619D03*
X0216750Y0068319D03*
D235*
X0212500Y0072085D03*
X0210300Y0073385D03*
X0211200Y0074352D03*
X0211200Y0074385D03*
X0211300Y0074685D03*
X0211400Y0074985D03*
X0211400Y0075052D03*
X0211500Y0075352D03*
X0211500Y0075385D03*
X0212600Y0079552D03*
X0216000Y0083752D03*
X0204200Y0068785D03*
X0204200Y0068485D03*
X0204200Y0068452D03*
X0204200Y0068385D03*
X0204200Y0068352D03*
D236*
X0210700Y0068352D03*
X0213600Y0084052D03*
D237*
X0212885Y0082352D03*
X0210585Y0068385D03*
D238*
X0210485Y0068419D03*
X0213015Y0082319D03*
X0214515Y0083119D03*
X0214015Y0085519D03*
D239*
X0216035Y0083819D03*
X0211465Y0075219D03*
X0211435Y0075119D03*
X0211365Y0074919D03*
X0211335Y0074819D03*
X0211165Y0074319D03*
X0211135Y0074219D03*
X0210365Y0073419D03*
X0214935Y0074519D03*
X0216735Y0068419D03*
D240*
X0210380Y0068452D03*
X0209620Y0068652D03*
D241*
X0206150Y0071485D03*
X0206050Y0071685D03*
X0219650Y0068485D03*
X0219850Y0068652D03*
X0220950Y0071152D03*
X0220950Y0071185D03*
X0220950Y0071252D03*
X0223250Y0074585D03*
X0222650Y0077452D03*
X0222750Y0077585D03*
X0215950Y0079585D03*
X0216950Y0082885D03*
X0217050Y0083352D03*
X0217250Y0086652D03*
X0217250Y0086685D03*
D242*
X0215985Y0083719D03*
X0215915Y0083619D03*
X0211315Y0074719D03*
X0211285Y0074619D03*
X0211785Y0073019D03*
X0204185Y0068719D03*
X0204185Y0068619D03*
X0204185Y0068519D03*
D243*
X0210165Y0068519D03*
X0214365Y0086019D03*
D244*
X0211765Y0073119D03*
X0216735Y0068519D03*
D245*
X0209750Y0068552D03*
X0213750Y0084285D03*
X0209550Y0084985D03*
X0208850Y0086985D03*
X0209350Y0087652D03*
X0214050Y0089485D03*
D246*
X0209650Y0068619D03*
D247*
X0209480Y0068752D03*
X0208080Y0069385D03*
X0212680Y0089052D03*
D248*
X0218950Y0075285D03*
X0209450Y0068785D03*
D249*
X0209400Y0068819D03*
X0214300Y0086119D03*
X0212300Y0088919D03*
D250*
X0217050Y0083319D03*
X0215950Y0079619D03*
X0221350Y0076019D03*
X0221450Y0076119D03*
X0221550Y0076219D03*
X0220950Y0071219D03*
X0220050Y0068819D03*
X0206250Y0071319D03*
X0206150Y0071519D03*
D251*
X0209350Y0068852D03*
X0219850Y0074852D03*
X0211250Y0085685D03*
X0215550Y0088985D03*
D252*
X0215750Y0088885D03*
X0216450Y0088352D03*
X0216550Y0088252D03*
X0216850Y0087785D03*
X0211050Y0088352D03*
X0210450Y0088052D03*
X0208950Y0069052D03*
X0222350Y0069285D03*
D253*
X0223100Y0071619D03*
X0219270Y0075119D03*
X0208830Y0069119D03*
X0216930Y0087619D03*
X0216900Y0087719D03*
X0215870Y0088819D03*
X0210770Y0088219D03*
X0210570Y0088119D03*
D254*
X0216150Y0088619D03*
X0215050Y0075219D03*
X0220050Y0072819D03*
X0208650Y0069219D03*
X0207950Y0069619D03*
D255*
X0208150Y0069252D03*
X0208450Y0085885D03*
X0209850Y0087952D03*
D256*
X0208115Y0069319D03*
D257*
X0222300Y0069319D03*
D258*
X0222285Y0069352D03*
X0219815Y0074985D03*
X0218785Y0075352D03*
D259*
X0222215Y0069385D03*
X0214085Y0085685D03*
D260*
X0212570Y0089019D03*
X0215270Y0075319D03*
X0208070Y0069419D03*
D261*
X0221815Y0069419D03*
D262*
X0223135Y0071752D03*
X0219565Y0073152D03*
X0208035Y0069452D03*
X0224065Y0078485D03*
X0215365Y0089052D03*
X0214065Y0089652D03*
X0212465Y0088985D03*
D263*
X0214350Y0083352D03*
X0221850Y0069452D03*
D264*
X0221885Y0069485D03*
D265*
X0221915Y0069519D03*
D266*
X0221935Y0069552D03*
X0221965Y0069585D03*
D267*
X0207965Y0069585D03*
X0214665Y0082952D03*
X0210565Y0083885D03*
X0216835Y0087852D03*
X0216765Y0087952D03*
X0216765Y0087985D03*
X0216635Y0088152D03*
X0211335Y0088485D03*
X0211265Y0088452D03*
D268*
X0210780Y0082819D03*
X0222050Y0069719D03*
X0221980Y0069619D03*
D269*
X0222320Y0071885D03*
X0216050Y0069652D03*
X0215920Y0070052D03*
X0214720Y0082852D03*
D270*
X0218020Y0073985D03*
X0222050Y0069752D03*
X0222020Y0069685D03*
D271*
X0220335Y0072519D03*
X0222465Y0073619D03*
X0222635Y0073819D03*
X0210365Y0072619D03*
X0207835Y0069719D03*
X0217065Y0087319D03*
D272*
X0215000Y0075185D03*
X0222600Y0073785D03*
X0211200Y0072052D03*
X0207800Y0069752D03*
D273*
X0210800Y0072185D03*
X0210770Y0072252D03*
X0210770Y0072285D03*
X0211170Y0071685D03*
X0212500Y0072152D03*
X0216170Y0070785D03*
X0223030Y0071285D03*
X0223070Y0071252D03*
X0223530Y0070485D03*
X0223530Y0070452D03*
X0223570Y0070385D03*
X0223570Y0070352D03*
X0223530Y0070185D03*
X0223530Y0070152D03*
X0223500Y0070052D03*
X0217030Y0074352D03*
X0212500Y0073552D03*
X0212470Y0073585D03*
X0212430Y0073652D03*
X0212400Y0073685D03*
X0212200Y0074385D03*
X0212200Y0074452D03*
X0211000Y0073952D03*
X0211870Y0076752D03*
X0211900Y0076852D03*
X0211900Y0076885D03*
X0211930Y0076952D03*
X0211930Y0076985D03*
X0213730Y0079052D03*
X0212530Y0079452D03*
X0210630Y0083852D03*
X0211300Y0084452D03*
X0210930Y0086352D03*
X0210930Y0086385D03*
X0210900Y0086552D03*
X0210900Y0086585D03*
X0210870Y0086685D03*
X0210830Y0086785D03*
X0210800Y0086885D03*
X0210770Y0086952D03*
X0210770Y0086985D03*
X0210730Y0087052D03*
X0210730Y0087085D03*
X0210700Y0087152D03*
X0210670Y0087185D03*
X0210630Y0087252D03*
X0216170Y0084185D03*
X0216170Y0084152D03*
D274*
X0209900Y0073085D03*
X0209900Y0073052D03*
X0216200Y0070885D03*
D275*
X0216215Y0070919D03*
D276*
X0223115Y0071719D03*
X0213415Y0083519D03*
D277*
X0222250Y0071919D03*
D278*
X0222185Y0071952D03*
D279*
X0212500Y0072019D03*
D280*
X0212515Y0072052D03*
X0211785Y0073052D03*
X0210115Y0073252D03*
X0210015Y0073185D03*
X0217415Y0072285D03*
D281*
X0222300Y0073419D03*
X0222700Y0073119D03*
X0211200Y0072119D03*
D282*
X0217430Y0072352D03*
X0214100Y0089752D03*
D283*
X0212150Y0088852D03*
X0219850Y0074885D03*
X0212150Y0072385D03*
D284*
X0220165Y0072719D03*
X0209965Y0084819D03*
D285*
X0213965Y0082085D03*
X0222365Y0073485D03*
X0222335Y0073452D03*
X0220135Y0072752D03*
D286*
X0210700Y0072819D03*
D287*
X0219620Y0073119D03*
X0211080Y0085519D03*
D288*
X0210050Y0073219D03*
D289*
X0219420Y0073219D03*
X0208280Y0085619D03*
D290*
X0213415Y0083852D03*
X0214585Y0083052D03*
X0219315Y0073252D03*
D291*
X0219200Y0073285D03*
D292*
X0219065Y0073319D03*
X0209635Y0084919D03*
X0209735Y0087919D03*
D293*
X0209520Y0085352D03*
X0217750Y0073585D03*
X0218020Y0073385D03*
D294*
X0222300Y0073385D03*
X0217000Y0087452D03*
X0217000Y0087485D03*
D295*
X0217835Y0073519D03*
X0217965Y0073419D03*
D296*
X0217865Y0073485D03*
X0217765Y0073552D03*
D297*
X0217700Y0073619D03*
X0214000Y0089119D03*
D298*
X0217650Y0073652D03*
D299*
X0217620Y0073719D03*
D300*
X0217615Y0073752D03*
D301*
X0217650Y0073785D03*
D302*
X0217680Y0073819D03*
X0209420Y0083119D03*
D303*
X0208330Y0083385D03*
X0217730Y0073852D03*
D304*
X0217800Y0073885D03*
X0217300Y0075785D03*
D305*
X0217865Y0073919D03*
X0210335Y0082919D03*
D306*
X0210500Y0082885D03*
X0214030Y0089352D03*
X0217930Y0073952D03*
D307*
X0217715Y0074052D03*
X0219785Y0075052D03*
X0213315Y0082252D03*
X0213785Y0083385D03*
D308*
X0217465Y0076019D03*
X0219835Y0074919D03*
D309*
X0219800Y0075019D03*
D310*
X0219165Y0075185D03*
X0213335Y0083552D03*
X0211765Y0088685D03*
X0215635Y0088952D03*
D311*
X0210515Y0083919D03*
X0218885Y0075319D03*
D312*
X0215350Y0075352D03*
D313*
X0217020Y0075419D03*
D314*
X0217000Y0075452D03*
D315*
X0216985Y0075485D03*
D316*
X0216950Y0075519D03*
D317*
X0216935Y0075552D03*
D318*
X0216900Y0075585D03*
D319*
X0216885Y0075619D03*
D320*
X0216850Y0075652D03*
D321*
X0216820Y0075685D03*
D322*
X0217265Y0075719D03*
D323*
X0217280Y0075752D03*
X0209250Y0085085D03*
D324*
X0217335Y0075819D03*
D325*
X0217365Y0075852D03*
D326*
X0217380Y0075885D03*
X0214380Y0083252D03*
D327*
X0208900Y0087219D03*
X0217400Y0075919D03*
D328*
X0217415Y0075952D03*
X0213515Y0083952D03*
X0214415Y0085952D03*
X0208485Y0085952D03*
D329*
X0208365Y0085785D03*
X0224065Y0078352D03*
D330*
X0224065Y0078419D03*
D331*
X0212650Y0079652D03*
D332*
X0213715Y0082152D03*
D333*
X0213565Y0082185D03*
D334*
X0213450Y0082219D03*
D335*
X0212300Y0082485D03*
X0208000Y0083552D03*
X0208700Y0086385D03*
D336*
X0208750Y0086519D03*
X0209350Y0087619D03*
X0213850Y0084619D03*
X0212150Y0082519D03*
D337*
X0212000Y0082552D03*
X0208800Y0086752D03*
D338*
X0211715Y0082619D03*
D339*
X0211550Y0082652D03*
D340*
X0211420Y0082685D03*
X0208150Y0083485D03*
X0209280Y0087452D03*
D341*
X0211250Y0082719D03*
D342*
X0211100Y0082752D03*
D343*
X0210950Y0082785D03*
X0214050Y0089385D03*
D344*
X0210650Y0082852D03*
D345*
X0210180Y0082952D03*
D346*
X0210035Y0082985D03*
D347*
X0209870Y0083019D03*
X0209200Y0085019D03*
D348*
X0214600Y0083019D03*
D349*
X0209715Y0083052D03*
X0209215Y0085052D03*
D350*
X0209565Y0083085D03*
X0214035Y0089285D03*
D351*
X0209250Y0083152D03*
D352*
X0210480Y0084085D03*
X0213980Y0085352D03*
X0214480Y0083152D03*
X0208550Y0086052D03*
X0209450Y0087785D03*
D353*
X0208715Y0083185D03*
D354*
X0208650Y0083219D03*
D355*
X0208715Y0086419D03*
X0213915Y0084919D03*
X0214415Y0083219D03*
D356*
X0208585Y0083252D03*
D357*
X0208535Y0083285D03*
X0209435Y0085252D03*
D358*
X0208450Y0083319D03*
X0214020Y0089219D03*
D359*
X0214050Y0089419D03*
X0214350Y0083319D03*
D360*
X0208400Y0083352D03*
D361*
X0208270Y0083419D03*
D362*
X0213650Y0083419D03*
D363*
X0213500Y0083485D03*
D364*
X0207950Y0083585D03*
D365*
X0207650Y0083719D03*
D366*
X0213365Y0083819D03*
D367*
X0213450Y0083885D03*
D368*
X0213500Y0083919D03*
D369*
X0210500Y0083952D03*
X0208400Y0085552D03*
D370*
X0213565Y0084019D03*
X0213965Y0085319D03*
D371*
X0213700Y0084219D03*
D372*
X0213735Y0084252D03*
X0213935Y0084985D03*
X0208865Y0087052D03*
X0208865Y0087085D03*
D373*
X0208850Y0087019D03*
X0213750Y0084319D03*
D374*
X0213770Y0084352D03*
X0213900Y0084785D03*
X0213900Y0084852D03*
X0208730Y0086452D03*
X0208730Y0086485D03*
X0208830Y0086885D03*
X0208830Y0086952D03*
D375*
X0208815Y0086852D03*
X0208815Y0086785D03*
X0208785Y0086685D03*
X0208785Y0086652D03*
X0213885Y0084752D03*
X0213885Y0084685D03*
X0213815Y0084485D03*
X0213815Y0084452D03*
X0213785Y0084385D03*
D376*
X0213800Y0084419D03*
X0213900Y0084819D03*
X0214470Y0085819D03*
X0208830Y0086919D03*
D377*
X0213835Y0084519D03*
D378*
X0209750Y0084852D03*
D379*
X0208665Y0086319D03*
X0213935Y0085019D03*
D380*
X0209285Y0085119D03*
D381*
X0209315Y0085152D03*
D382*
X0209350Y0085185D03*
D383*
X0209400Y0085219D03*
D384*
X0209465Y0085285D03*
D385*
X0209500Y0085319D03*
D386*
X0214000Y0085385D03*
D387*
X0214000Y0085419D03*
D388*
X0208550Y0085485D03*
D389*
X0208470Y0085519D03*
D390*
X0214035Y0085552D03*
X0214035Y0085585D03*
D391*
X0214050Y0085619D03*
X0208480Y0085919D03*
D392*
X0208300Y0085719D03*
D393*
X0211265Y0085719D03*
X0211635Y0088619D03*
D394*
X0214085Y0085719D03*
D395*
X0208400Y0085819D03*
D396*
X0211300Y0085819D03*
X0211200Y0088419D03*
X0216800Y0087919D03*
D397*
X0214400Y0085985D03*
D398*
X0208535Y0086019D03*
D399*
X0208635Y0086219D03*
D400*
X0208800Y0086719D03*
D401*
X0209285Y0087385D03*
D402*
X0209300Y0087419D03*
D403*
X0209300Y0087485D03*
D404*
X0209385Y0087719D03*
D405*
X0216850Y0087819D03*
D406*
X0211850Y0088719D03*
D407*
X0215465Y0089019D03*
D408*
X0214000Y0089085D03*
D409*
X0214015Y0089152D03*
D410*
X0214015Y0089185D03*
D411*
X0214030Y0089252D03*
D412*
X0214035Y0089319D03*
D413*
X0214050Y0089452D03*
M02*
