G75*
%MOIN*%
%OFA0B0*%
%FSLAX25Y25*%
%IPPOS*%
%LPD*%
%AMOC8*
5,1,8,0,0,1.08239X$1,22.5*
%
%ADD10C,0.00100*%
%ADD11R,0.03543X0.01378*%
%ADD12R,0.08268X0.08268*%
%ADD13R,0.01378X0.03543*%
%ADD14R,0.04331X0.03937*%
%ADD15R,0.07874X0.01969*%
%ADD16R,0.03937X0.04331*%
%ADD17R,0.08661X0.05512*%
%ADD18R,0.09449X0.05512*%
%ADD19R,0.15748X0.05906*%
%ADD20R,0.03937X0.05906*%
%ADD21R,0.06299X0.03543*%
%ADD22C,0.05906*%
%ADD23C,0.00039*%
%ADD24C,0.03543*%
%ADD25R,0.03937X0.08661*%
%ADD26R,0.09843X0.03937*%
%ADD27C,0.01969*%
%ADD28C,0.03169*%
%ADD29C,0.01000*%
D10*
X0009000Y0020119D02*
X0009000Y0118119D01*
X0258000Y0118119D01*
X0258000Y0020119D01*
X0009000Y0020119D01*
D11*
X0052126Y0063280D03*
X0052126Y0065839D03*
X0052126Y0068398D03*
X0052126Y0070957D03*
X0067874Y0070957D03*
X0067874Y0068398D03*
X0067874Y0065839D03*
X0067874Y0063280D03*
D12*
X0060000Y0067119D03*
D13*
X0058720Y0059245D03*
X0056161Y0059245D03*
X0061280Y0059245D03*
X0063839Y0059245D03*
X0063839Y0074993D03*
X0061280Y0074993D03*
X0058720Y0074993D03*
X0056161Y0074993D03*
D14*
X0039346Y0078119D03*
X0032654Y0078119D03*
X0054654Y0084619D03*
X0061346Y0084619D03*
X0039846Y0096119D03*
X0033154Y0096119D03*
X0078654Y0066119D03*
X0085346Y0066119D03*
X0085346Y0060119D03*
X0078654Y0060119D03*
X0173654Y0100119D03*
X0180346Y0100119D03*
X0177154Y0041119D03*
X0183846Y0041119D03*
X0183846Y0035119D03*
X0177154Y0035119D03*
D15*
X0121539Y0061619D03*
X0121539Y0066619D03*
X0121539Y0071619D03*
X0121539Y0076619D03*
X0096461Y0076619D03*
X0096461Y0071619D03*
X0096461Y0066619D03*
X0096461Y0061619D03*
D16*
X0135000Y0054465D03*
X0135000Y0047772D03*
X0159000Y0047772D03*
X0159000Y0054465D03*
X0093000Y0086772D03*
X0087000Y0086772D03*
X0081000Y0086772D03*
X0081000Y0093465D03*
X0087000Y0093465D03*
X0093000Y0093465D03*
X0167000Y0099772D03*
X0167000Y0106465D03*
D17*
X0134902Y0099619D03*
X0134902Y0089619D03*
X0110098Y0099619D03*
D18*
X0110492Y0089619D03*
D19*
X0152500Y0090914D03*
D20*
X0152500Y0065323D03*
X0143445Y0065323D03*
X0161555Y0065323D03*
D21*
X0177000Y0058827D03*
X0177000Y0047410D03*
X0151500Y0045410D03*
X0142500Y0045410D03*
X0142500Y0056827D03*
X0151500Y0056827D03*
D22*
X0153000Y0024119D03*
X0163000Y0024119D03*
X0173000Y0024119D03*
X0183000Y0024119D03*
X0193000Y0024119D03*
X0203000Y0024119D03*
X0223000Y0024119D03*
X0233000Y0024119D03*
X0243000Y0024119D03*
X0253000Y0024119D03*
X0143000Y0024119D03*
X0133000Y0024119D03*
X0123000Y0024119D03*
X0113000Y0024119D03*
X0103000Y0024119D03*
X0093000Y0024119D03*
X0083000Y0024119D03*
X0073000Y0024119D03*
X0063000Y0024119D03*
X0053000Y0024119D03*
X0043000Y0024119D03*
X0033000Y0024119D03*
X0023000Y0024119D03*
X0013000Y0024119D03*
X0013000Y0114119D03*
X0023000Y0114119D03*
X0033000Y0114119D03*
X0043000Y0114119D03*
X0053000Y0114119D03*
X0063000Y0114119D03*
X0073000Y0114119D03*
X0083000Y0114119D03*
X0093000Y0114119D03*
X0103000Y0114119D03*
X0113000Y0114119D03*
X0123000Y0114119D03*
X0133000Y0114119D03*
X0143000Y0114119D03*
X0153000Y0114119D03*
X0163000Y0114119D03*
X0173000Y0114119D03*
X0183000Y0114119D03*
X0193000Y0114119D03*
X0203000Y0114119D03*
X0223000Y0114119D03*
X0233000Y0114119D03*
X0243000Y0114119D03*
X0253000Y0114119D03*
D23*
X0015866Y0083095D02*
X0013110Y0083095D01*
X0012126Y0082111D02*
X0012128Y0082049D01*
X0012134Y0081988D01*
X0012143Y0081927D01*
X0012157Y0081866D01*
X0012174Y0081807D01*
X0012195Y0081749D01*
X0012220Y0081692D01*
X0012248Y0081637D01*
X0012279Y0081584D01*
X0012314Y0081533D01*
X0012352Y0081484D01*
X0012393Y0081437D01*
X0012436Y0081394D01*
X0012483Y0081353D01*
X0012532Y0081315D01*
X0012583Y0081280D01*
X0012636Y0081249D01*
X0012691Y0081221D01*
X0012748Y0081196D01*
X0012806Y0081175D01*
X0012865Y0081158D01*
X0012926Y0081144D01*
X0012987Y0081135D01*
X0013048Y0081129D01*
X0013110Y0081127D01*
X0015866Y0081127D01*
X0016850Y0082111D02*
X0016848Y0082173D01*
X0016842Y0082234D01*
X0016833Y0082295D01*
X0016819Y0082356D01*
X0016802Y0082415D01*
X0016781Y0082473D01*
X0016756Y0082530D01*
X0016728Y0082585D01*
X0016697Y0082638D01*
X0016662Y0082689D01*
X0016624Y0082738D01*
X0016583Y0082785D01*
X0016540Y0082828D01*
X0016493Y0082869D01*
X0016444Y0082907D01*
X0016393Y0082942D01*
X0016340Y0082973D01*
X0016285Y0083001D01*
X0016228Y0083026D01*
X0016170Y0083047D01*
X0016111Y0083064D01*
X0016050Y0083078D01*
X0015989Y0083087D01*
X0015928Y0083093D01*
X0015866Y0083095D01*
X0016850Y0082111D02*
X0016848Y0082049D01*
X0016842Y0081988D01*
X0016833Y0081927D01*
X0016819Y0081866D01*
X0016802Y0081807D01*
X0016781Y0081749D01*
X0016756Y0081692D01*
X0016728Y0081637D01*
X0016697Y0081584D01*
X0016662Y0081533D01*
X0016624Y0081484D01*
X0016583Y0081437D01*
X0016540Y0081394D01*
X0016493Y0081353D01*
X0016444Y0081315D01*
X0016393Y0081280D01*
X0016340Y0081249D01*
X0016285Y0081221D01*
X0016228Y0081196D01*
X0016170Y0081175D01*
X0016111Y0081158D01*
X0016050Y0081144D01*
X0015989Y0081135D01*
X0015928Y0081129D01*
X0015866Y0081127D01*
X0013110Y0083095D02*
X0013048Y0083093D01*
X0012987Y0083087D01*
X0012926Y0083078D01*
X0012865Y0083064D01*
X0012806Y0083047D01*
X0012748Y0083026D01*
X0012691Y0083001D01*
X0012636Y0082973D01*
X0012583Y0082942D01*
X0012532Y0082907D01*
X0012483Y0082869D01*
X0012436Y0082828D01*
X0012393Y0082785D01*
X0012352Y0082738D01*
X0012314Y0082689D01*
X0012279Y0082638D01*
X0012248Y0082585D01*
X0012220Y0082530D01*
X0012195Y0082473D01*
X0012174Y0082415D01*
X0012157Y0082356D01*
X0012143Y0082295D01*
X0012134Y0082234D01*
X0012128Y0082173D01*
X0012126Y0082111D01*
X0013110Y0057111D02*
X0015866Y0057111D01*
X0015928Y0057109D01*
X0015989Y0057103D01*
X0016050Y0057094D01*
X0016111Y0057080D01*
X0016170Y0057063D01*
X0016228Y0057042D01*
X0016285Y0057017D01*
X0016340Y0056989D01*
X0016393Y0056958D01*
X0016444Y0056923D01*
X0016493Y0056885D01*
X0016540Y0056844D01*
X0016583Y0056801D01*
X0016624Y0056754D01*
X0016662Y0056705D01*
X0016697Y0056654D01*
X0016728Y0056601D01*
X0016756Y0056546D01*
X0016781Y0056489D01*
X0016802Y0056431D01*
X0016819Y0056372D01*
X0016833Y0056311D01*
X0016842Y0056250D01*
X0016848Y0056189D01*
X0016850Y0056127D01*
X0016848Y0056065D01*
X0016842Y0056004D01*
X0016833Y0055943D01*
X0016819Y0055882D01*
X0016802Y0055823D01*
X0016781Y0055765D01*
X0016756Y0055708D01*
X0016728Y0055653D01*
X0016697Y0055600D01*
X0016662Y0055549D01*
X0016624Y0055500D01*
X0016583Y0055453D01*
X0016540Y0055410D01*
X0016493Y0055369D01*
X0016444Y0055331D01*
X0016393Y0055296D01*
X0016340Y0055265D01*
X0016285Y0055237D01*
X0016228Y0055212D01*
X0016170Y0055191D01*
X0016111Y0055174D01*
X0016050Y0055160D01*
X0015989Y0055151D01*
X0015928Y0055145D01*
X0015866Y0055143D01*
X0015866Y0055142D02*
X0013110Y0055142D01*
X0013110Y0055143D02*
X0013048Y0055145D01*
X0012987Y0055151D01*
X0012926Y0055160D01*
X0012865Y0055174D01*
X0012806Y0055191D01*
X0012748Y0055212D01*
X0012691Y0055237D01*
X0012636Y0055265D01*
X0012583Y0055296D01*
X0012532Y0055331D01*
X0012483Y0055369D01*
X0012436Y0055410D01*
X0012393Y0055453D01*
X0012352Y0055500D01*
X0012314Y0055549D01*
X0012279Y0055600D01*
X0012248Y0055653D01*
X0012220Y0055708D01*
X0012195Y0055765D01*
X0012174Y0055823D01*
X0012157Y0055882D01*
X0012143Y0055943D01*
X0012134Y0056004D01*
X0012128Y0056065D01*
X0012126Y0056127D01*
X0012128Y0056189D01*
X0012134Y0056250D01*
X0012143Y0056311D01*
X0012157Y0056372D01*
X0012174Y0056431D01*
X0012195Y0056489D01*
X0012220Y0056546D01*
X0012248Y0056601D01*
X0012279Y0056654D01*
X0012314Y0056705D01*
X0012352Y0056754D01*
X0012393Y0056801D01*
X0012436Y0056844D01*
X0012483Y0056885D01*
X0012532Y0056923D01*
X0012583Y0056958D01*
X0012636Y0056989D01*
X0012691Y0057017D01*
X0012748Y0057042D01*
X0012806Y0057063D01*
X0012865Y0057080D01*
X0012926Y0057094D01*
X0012987Y0057103D01*
X0013048Y0057109D01*
X0013110Y0057111D01*
D24*
X0015866Y0056127D02*
X0015866Y0056127D01*
X0013110Y0056127D01*
X0013110Y0056127D01*
X0015866Y0056127D01*
X0015866Y0082111D02*
X0015866Y0082111D01*
X0013110Y0082111D01*
X0013110Y0082111D01*
X0015866Y0082111D01*
D25*
X0198567Y0099434D03*
X0206441Y0099434D03*
X0214315Y0099434D03*
X0222189Y0099434D03*
X0230063Y0099434D03*
X0237937Y0099434D03*
X0245811Y0099434D03*
X0253685Y0099434D03*
X0253685Y0038804D03*
X0245811Y0038804D03*
X0237937Y0038804D03*
X0230063Y0038804D03*
X0222189Y0038804D03*
X0214315Y0038804D03*
X0206441Y0038804D03*
X0198567Y0038804D03*
D26*
X0189709Y0049434D03*
X0189709Y0057308D03*
X0189709Y0065182D03*
X0189709Y0073056D03*
X0189709Y0080930D03*
X0189709Y0088804D03*
D27*
X0213000Y0113119D03*
X0018000Y0039119D03*
D28*
X0027000Y0049119D03*
X0046000Y0054119D03*
X0050000Y0052119D03*
X0056000Y0052119D03*
X0062000Y0052119D03*
X0064000Y0045619D03*
X0062000Y0038119D03*
X0070000Y0038119D03*
X0081500Y0047619D03*
X0079000Y0055119D03*
X0071000Y0060119D03*
X0072000Y0066619D03*
X0079000Y0074119D03*
X0071000Y0075119D03*
X0087000Y0081119D03*
X0091000Y0081119D03*
X0073000Y0088119D03*
X0059000Y0089119D03*
X0048000Y0086119D03*
X0030000Y0087119D03*
X0028000Y0096119D03*
X0012000Y0100119D03*
X0023500Y0104619D03*
X0029000Y0108119D03*
X0047500Y0104619D03*
X0056000Y0104119D03*
X0064000Y0101119D03*
X0071000Y0098619D03*
X0090000Y0103119D03*
X0121000Y0106119D03*
X0125000Y0106119D03*
X0123000Y0095119D03*
X0120000Y0092119D03*
X0159000Y0079119D03*
X0159000Y0074119D03*
X0157000Y0070119D03*
X0157000Y0066119D03*
X0171500Y0058119D03*
X0171500Y0047119D03*
X0142500Y0049119D03*
X0129000Y0038619D03*
X0125000Y0038119D03*
X0121000Y0038619D03*
X0090000Y0056619D03*
X0113000Y0068119D03*
X0129000Y0068119D03*
X0090000Y0071619D03*
X0049000Y0077119D03*
X0046000Y0073119D03*
X0046000Y0068119D03*
X0046000Y0061119D03*
X0161000Y0096619D03*
X0167000Y0095119D03*
X0187000Y0095119D03*
X0199000Y0090119D03*
X0203000Y0090119D03*
X0226000Y0093119D03*
X0253000Y0084119D03*
X0218000Y0070119D03*
X0218000Y0064119D03*
X0230000Y0059119D03*
X0218000Y0058119D03*
X0204000Y0053119D03*
X0218000Y0048119D03*
X0248000Y0046119D03*
X0169000Y0074119D03*
X0246000Y0106119D03*
D29*
X0245000Y0107119D01*
X0224000Y0107119D01*
X0222189Y0105308D01*
X0222189Y0099434D01*
X0206441Y0099434D02*
X0206441Y0104678D01*
X0206000Y0105119D01*
X0189000Y0105119D01*
X0184000Y0100119D01*
X0180346Y0100119D01*
X0173654Y0100119D02*
X0167346Y0100119D01*
X0167000Y0099772D01*
X0167000Y0095119D01*
X0163000Y0095007D02*
X0144000Y0095007D01*
X0144000Y0094009D02*
X0163000Y0094009D01*
X0163000Y0093010D02*
X0144000Y0093010D01*
X0144000Y0092011D02*
X0163000Y0092011D01*
X0163000Y0091013D02*
X0144000Y0091013D01*
X0144000Y0090014D02*
X0163000Y0090014D01*
X0163000Y0089119D02*
X0162000Y0088119D01*
X0144000Y0088119D01*
X0144000Y0104119D01*
X0139000Y0109119D01*
X0183000Y0109119D01*
X0183000Y0104119D01*
X0164000Y0104119D01*
X0163000Y0103119D01*
X0163000Y0089119D01*
X0162897Y0089016D02*
X0144000Y0089016D01*
X0141000Y0086119D02*
X0141000Y0098119D01*
X0139500Y0099619D01*
X0134902Y0099619D01*
X0134902Y0104217D01*
X0133000Y0106119D01*
X0125000Y0106119D01*
X0139132Y0108986D02*
X0183000Y0108986D01*
X0183000Y0107988D02*
X0140131Y0107988D01*
X0141130Y0106989D02*
X0183000Y0106989D01*
X0183000Y0105991D02*
X0142128Y0105991D01*
X0143127Y0104992D02*
X0183000Y0104992D01*
X0167346Y0106119D02*
X0167000Y0106465D01*
X0162346Y0106465D01*
X0161000Y0105119D01*
X0161000Y0096619D01*
X0153500Y0096619D01*
X0152500Y0095619D01*
X0152500Y0090914D01*
X0158000Y0086119D02*
X0155000Y0083119D01*
X0106000Y0083119D01*
X0104500Y0084619D01*
X0104500Y0100619D01*
X0103000Y0102119D01*
X0103000Y0114119D01*
X0093000Y0114119D02*
X0093000Y0109119D01*
X0102500Y0099619D01*
X0102500Y0084320D01*
X0105702Y0081119D01*
X0156000Y0081119D01*
X0159000Y0084119D01*
X0205500Y0084119D01*
X0209500Y0088119D01*
X0251000Y0088119D01*
X0253685Y0090804D01*
X0253685Y0099434D01*
X0245811Y0099434D02*
X0245811Y0091930D01*
X0244000Y0090119D01*
X0209000Y0090119D01*
X0205000Y0086119D01*
X0198000Y0086119D01*
X0196000Y0088119D01*
X0196000Y0091619D01*
X0195500Y0092119D01*
X0179000Y0092119D01*
X0173000Y0086119D01*
X0158000Y0086119D01*
X0159000Y0079119D02*
X0144000Y0079119D01*
X0135000Y0070119D01*
X0135000Y0064119D01*
X0128000Y0057119D01*
X0106000Y0057119D01*
X0101500Y0061619D01*
X0106000Y0066119D01*
X0106000Y0078119D01*
X0100500Y0083619D01*
X0100500Y0098619D01*
X0093000Y0106119D01*
X0081000Y0106119D01*
X0073000Y0114119D01*
X0063000Y0114119D02*
X0058000Y0109119D01*
X0052000Y0109119D01*
X0047500Y0104619D01*
X0045000Y0101119D02*
X0041500Y0104619D01*
X0023500Y0104619D01*
X0023000Y0104119D01*
X0023000Y0024119D01*
X0013000Y0024119D02*
X0013000Y0044119D01*
X0019000Y0050119D01*
X0019000Y0108119D01*
X0013000Y0114119D01*
X0019000Y0108119D02*
X0029000Y0108119D01*
X0045000Y0101119D02*
X0064000Y0101119D01*
X0071000Y0098619D02*
X0076000Y0093619D01*
X0076000Y0071119D01*
X0075000Y0070119D01*
X0075000Y0054119D01*
X0078000Y0051119D01*
X0127000Y0051119D01*
X0130346Y0054465D01*
X0135000Y0054465D01*
X0137362Y0056827D01*
X0142500Y0056827D01*
X0143445Y0057272D01*
X0143445Y0065323D01*
X0137000Y0063619D02*
X0128500Y0055119D01*
X0093000Y0055119D01*
X0091000Y0053119D01*
X0085000Y0053119D01*
X0082000Y0056119D01*
X0082000Y0065619D01*
X0082500Y0066119D01*
X0085346Y0066119D01*
X0083846Y0066619D01*
X0096461Y0066619D01*
X0102500Y0066619D01*
X0104000Y0068119D01*
X0104000Y0077119D01*
X0098500Y0082619D01*
X0098500Y0097619D01*
X0093000Y0103119D01*
X0090000Y0103119D01*
X0082000Y0096308D02*
X0074190Y0104119D01*
X0056000Y0104119D01*
X0046000Y0094119D02*
X0044000Y0096119D01*
X0039846Y0096119D01*
X0046000Y0094119D02*
X0060000Y0094119D01*
X0074000Y0080119D01*
X0074000Y0072448D01*
X0069950Y0068398D01*
X0067874Y0068398D01*
X0071220Y0065839D02*
X0072000Y0066619D01*
X0071220Y0065839D02*
X0067874Y0065839D01*
X0067874Y0063280D02*
X0070839Y0063280D01*
X0071000Y0063119D01*
X0071000Y0060119D01*
X0078654Y0060119D02*
X0079000Y0060119D01*
X0079000Y0066119D01*
X0078654Y0066119D01*
X0079000Y0066119D02*
X0079000Y0074119D01*
X0081500Y0076619D01*
X0096461Y0076619D01*
X0096461Y0090005D01*
X0093000Y0093465D01*
X0093000Y0087465D02*
X0087000Y0093465D01*
X0082000Y0096308D02*
X0081000Y0093465D01*
X0081000Y0086772D02*
X0087000Y0086772D01*
X0087000Y0081119D01*
X0091000Y0081119D02*
X0093000Y0083119D01*
X0093000Y0086772D01*
X0093000Y0087465D01*
X0110492Y0089619D02*
X0114992Y0085119D01*
X0140000Y0085119D01*
X0141000Y0086119D01*
X0134902Y0089619D02*
X0129402Y0095119D01*
X0123000Y0095119D01*
X0120000Y0092119D02*
X0111500Y0099619D01*
X0110098Y0099619D01*
X0144000Y0100000D02*
X0163000Y0100000D01*
X0163000Y0100998D02*
X0144000Y0100998D01*
X0144000Y0101997D02*
X0163000Y0101997D01*
X0163000Y0102995D02*
X0144000Y0102995D01*
X0144000Y0103994D02*
X0163875Y0103994D01*
X0163000Y0099001D02*
X0144000Y0099001D01*
X0144000Y0098003D02*
X0163000Y0098003D01*
X0163000Y0097004D02*
X0144000Y0097004D01*
X0144000Y0096006D02*
X0163000Y0096006D01*
X0198567Y0099434D02*
X0198567Y0090552D01*
X0199000Y0090119D01*
X0199000Y0077119D02*
X0175000Y0077119D01*
X0173000Y0075119D01*
X0173000Y0069619D01*
X0162500Y0059119D01*
X0162500Y0036119D01*
X0161000Y0034619D01*
X0063500Y0034619D01*
X0053000Y0024119D01*
X0063000Y0024119D02*
X0071500Y0032619D01*
X0162000Y0032619D01*
X0164500Y0035119D01*
X0164500Y0058619D01*
X0174500Y0068619D01*
X0213500Y0068619D01*
X0218000Y0064119D01*
X0215000Y0061119D02*
X0218000Y0058119D01*
X0215000Y0061119D02*
X0183500Y0061119D01*
X0182500Y0062119D01*
X0171500Y0062119D01*
X0166500Y0057119D01*
X0166500Y0034119D01*
X0163000Y0030619D01*
X0079500Y0030619D01*
X0073000Y0024119D01*
X0083000Y0024119D02*
X0087500Y0028619D01*
X0163500Y0028619D01*
X0168500Y0033619D01*
X0168500Y0050619D01*
X0171000Y0053119D01*
X0195000Y0053119D01*
X0198000Y0050119D01*
X0216000Y0050119D01*
X0218000Y0048119D01*
X0198567Y0038804D02*
X0195315Y0038804D01*
X0189000Y0045119D01*
X0184000Y0045119D01*
X0182000Y0047119D01*
X0177291Y0047119D01*
X0177000Y0047410D01*
X0171791Y0047410D01*
X0171500Y0047119D01*
X0177000Y0047410D02*
X0177000Y0041272D01*
X0177154Y0041119D01*
X0177154Y0035119D01*
X0183846Y0035119D02*
X0183846Y0031272D01*
X0186000Y0029119D01*
X0252000Y0029119D01*
X0253685Y0030804D01*
X0253685Y0038804D01*
X0237937Y0038804D02*
X0237937Y0033056D01*
X0236000Y0031119D01*
X0192000Y0031119D01*
X0190000Y0033119D01*
X0190000Y0039119D01*
X0188000Y0041119D01*
X0183846Y0041119D01*
X0159000Y0047772D02*
X0156638Y0045410D01*
X0151500Y0045410D01*
X0142500Y0045410D01*
X0142500Y0049119D01*
X0142500Y0045410D02*
X0137362Y0045410D01*
X0135000Y0047772D01*
X0125000Y0046678D02*
X0125000Y0038119D01*
X0118000Y0047119D02*
X0115000Y0044119D01*
X0085000Y0044119D01*
X0081500Y0047619D01*
X0064000Y0045619D02*
X0059000Y0050619D01*
X0059000Y0053119D01*
X0061280Y0055398D01*
X0061280Y0059245D01*
X0063839Y0059245D02*
X0063839Y0053957D01*
X0062000Y0052119D01*
X0058720Y0056839D02*
X0056000Y0054119D01*
X0056000Y0052119D01*
X0050000Y0052119D02*
X0049000Y0053119D01*
X0049000Y0062119D01*
X0050161Y0063280D01*
X0052126Y0063280D01*
X0052126Y0065839D02*
X0047720Y0065839D01*
X0046000Y0064119D01*
X0046000Y0061119D01*
X0058720Y0059245D02*
X0058720Y0056839D01*
X0058720Y0059245D02*
X0058720Y0067119D01*
X0060000Y0067119D01*
X0052126Y0068398D02*
X0046280Y0068398D01*
X0046000Y0068119D01*
X0049000Y0072119D02*
X0050161Y0070957D01*
X0052126Y0070957D01*
X0049000Y0072119D02*
X0049000Y0077119D01*
X0048000Y0078119D01*
X0050000Y0080119D01*
X0054000Y0080119D01*
X0056161Y0077957D01*
X0056161Y0074993D01*
X0058720Y0074993D02*
X0058720Y0078398D01*
X0054654Y0082465D01*
X0054654Y0084619D01*
X0049500Y0084619D01*
X0048000Y0086119D01*
X0059000Y0089119D02*
X0060000Y0089119D01*
X0061346Y0087772D01*
X0061346Y0084619D01*
X0048000Y0078119D02*
X0039346Y0078119D01*
X0032654Y0078119D02*
X0032000Y0078772D01*
X0032000Y0082119D01*
X0030000Y0084119D01*
X0030000Y0087119D01*
X0028000Y0096119D02*
X0033154Y0096119D01*
X0071000Y0075119D02*
X0072000Y0074119D01*
X0072000Y0073270D01*
X0069687Y0070957D01*
X0067874Y0070957D01*
X0090000Y0071619D02*
X0096461Y0071619D01*
X0096461Y0076619D02*
X0098500Y0076619D01*
X0113000Y0068119D02*
X0114500Y0066619D01*
X0121539Y0066619D01*
X0121539Y0071619D01*
X0121539Y0076619D01*
X0137000Y0069119D02*
X0145000Y0077119D01*
X0156000Y0077119D01*
X0159000Y0074119D01*
X0157000Y0070119D02*
X0154000Y0070119D01*
X0152500Y0068619D01*
X0152500Y0065323D01*
X0152500Y0057327D01*
X0151500Y0056827D01*
X0156638Y0056827D01*
X0159000Y0054465D01*
X0171500Y0058119D02*
X0172209Y0058827D01*
X0177000Y0058827D01*
X0161555Y0065323D02*
X0157795Y0065323D01*
X0157000Y0066119D01*
X0137000Y0063619D02*
X0137000Y0069119D01*
X0121539Y0066619D02*
X0121539Y0061619D01*
X0101500Y0061619D02*
X0096461Y0061619D01*
X0089500Y0061619D01*
X0088000Y0060119D01*
X0085346Y0060119D01*
X0118000Y0047119D02*
X0124559Y0047119D01*
X0125000Y0046678D01*
X0199000Y0077119D02*
X0204000Y0072119D01*
X0216000Y0072119D01*
X0218000Y0070119D01*
M02*
