G75*
%MOIN*%
%OFA0B0*%
%FSLAX25Y25*%
%IPPOS*%
%LPD*%
%AMOC8*
5,1,8,0,0,1.08239X$1,22.5*
%
%ADD10C,0.00100*%
%ADD11R,0.03543X0.01378*%
%ADD12R,0.01378X0.03543*%
%ADD13C,0.00500*%
%ADD14R,0.04331X0.03937*%
%ADD15R,0.07874X0.01969*%
%ADD16R,0.03937X0.04331*%
%ADD17R,0.08661X0.05512*%
%ADD18R,0.09449X0.05512*%
%ADD19R,0.15748X0.05906*%
%ADD20R,0.03937X0.05906*%
%ADD21R,0.06299X0.03543*%
%ADD22C,0.00039*%
%ADD23R,0.03937X0.08661*%
%ADD24R,0.09843X0.03937*%
D10*
X0009000Y0020119D02*
X0009000Y0118119D01*
X0258000Y0118119D01*
X0258000Y0020119D01*
X0009000Y0020119D01*
D11*
X0052126Y0063280D03*
X0052126Y0065839D03*
X0052126Y0068398D03*
X0052126Y0070957D03*
X0067874Y0070957D03*
X0067874Y0068398D03*
X0067874Y0065839D03*
X0067874Y0063280D03*
D12*
X0063839Y0059245D03*
X0061280Y0059245D03*
X0058720Y0059245D03*
X0056161Y0059245D03*
X0056161Y0074993D03*
X0058720Y0074993D03*
X0061280Y0074993D03*
X0063839Y0074993D03*
D13*
X0063000Y0070119D02*
X0061000Y0070119D01*
X0061000Y0068119D01*
X0063000Y0068119D01*
X0063000Y0070119D01*
X0063000Y0069970D02*
X0061000Y0069970D01*
X0061000Y0069471D02*
X0063000Y0069471D01*
X0063000Y0068973D02*
X0061000Y0068973D01*
X0061000Y0068474D02*
X0063000Y0068474D01*
X0063000Y0066119D02*
X0061000Y0066119D01*
X0061000Y0064119D01*
X0063000Y0064119D01*
X0063000Y0066119D01*
X0063000Y0065982D02*
X0061000Y0065982D01*
X0061000Y0065483D02*
X0063000Y0065483D01*
X0063000Y0064985D02*
X0061000Y0064985D01*
X0061000Y0064486D02*
X0063000Y0064486D01*
X0059000Y0064486D02*
X0057000Y0064486D01*
X0057000Y0064119D02*
X0059000Y0064119D01*
X0059000Y0066119D01*
X0057000Y0066119D01*
X0057000Y0064119D01*
X0057000Y0064985D02*
X0059000Y0064985D01*
X0059000Y0065483D02*
X0057000Y0065483D01*
X0057000Y0065982D02*
X0059000Y0065982D01*
X0059000Y0068119D02*
X0057000Y0068119D01*
X0057000Y0070119D01*
X0059000Y0070119D01*
X0059000Y0068119D01*
X0059000Y0068474D02*
X0057000Y0068474D01*
X0057000Y0068973D02*
X0059000Y0068973D01*
X0059000Y0069471D02*
X0057000Y0069471D01*
X0057000Y0069970D02*
X0059000Y0069970D01*
D14*
X0078654Y0066119D03*
X0085346Y0066119D03*
X0085346Y0060119D03*
X0078654Y0060119D03*
X0039346Y0078119D03*
X0032654Y0078119D03*
X0054654Y0084619D03*
X0061346Y0084619D03*
X0039846Y0096119D03*
X0033154Y0096119D03*
X0173654Y0100119D03*
X0180346Y0100119D03*
X0177154Y0041119D03*
X0183846Y0041119D03*
X0183846Y0035119D03*
X0177154Y0035119D03*
D15*
X0121539Y0061619D03*
X0121539Y0066619D03*
X0121539Y0071619D03*
X0121539Y0076619D03*
X0096461Y0076619D03*
X0096461Y0071619D03*
X0096461Y0066619D03*
X0096461Y0061619D03*
D16*
X0135000Y0054465D03*
X0135000Y0047772D03*
X0159000Y0047772D03*
X0159000Y0054465D03*
X0093000Y0086772D03*
X0087000Y0086772D03*
X0081000Y0086772D03*
X0081000Y0093465D03*
X0087000Y0093465D03*
X0093000Y0093465D03*
X0167000Y0099772D03*
X0167000Y0106465D03*
D17*
X0134902Y0099619D03*
X0134902Y0089619D03*
X0110098Y0099619D03*
D18*
X0110492Y0089619D03*
D19*
X0152500Y0090914D03*
D20*
X0152500Y0065323D03*
X0143445Y0065323D03*
X0161555Y0065323D03*
D21*
X0177000Y0058827D03*
X0177000Y0047410D03*
X0151500Y0045410D03*
X0142500Y0045410D03*
X0142500Y0056827D03*
X0151500Y0056827D03*
D22*
X0015866Y0057111D02*
X0013110Y0057111D01*
X0012126Y0056127D02*
X0012128Y0056065D01*
X0012134Y0056004D01*
X0012143Y0055943D01*
X0012157Y0055882D01*
X0012174Y0055823D01*
X0012195Y0055765D01*
X0012220Y0055708D01*
X0012248Y0055653D01*
X0012279Y0055600D01*
X0012314Y0055549D01*
X0012352Y0055500D01*
X0012393Y0055453D01*
X0012436Y0055410D01*
X0012483Y0055369D01*
X0012532Y0055331D01*
X0012583Y0055296D01*
X0012636Y0055265D01*
X0012691Y0055237D01*
X0012748Y0055212D01*
X0012806Y0055191D01*
X0012865Y0055174D01*
X0012926Y0055160D01*
X0012987Y0055151D01*
X0013048Y0055145D01*
X0013110Y0055143D01*
X0013110Y0055142D02*
X0015866Y0055142D01*
X0016850Y0056127D02*
X0016848Y0056189D01*
X0016842Y0056250D01*
X0016833Y0056311D01*
X0016819Y0056372D01*
X0016802Y0056431D01*
X0016781Y0056489D01*
X0016756Y0056546D01*
X0016728Y0056601D01*
X0016697Y0056654D01*
X0016662Y0056705D01*
X0016624Y0056754D01*
X0016583Y0056801D01*
X0016540Y0056844D01*
X0016493Y0056885D01*
X0016444Y0056923D01*
X0016393Y0056958D01*
X0016340Y0056989D01*
X0016285Y0057017D01*
X0016228Y0057042D01*
X0016170Y0057063D01*
X0016111Y0057080D01*
X0016050Y0057094D01*
X0015989Y0057103D01*
X0015928Y0057109D01*
X0015866Y0057111D01*
X0016850Y0056127D02*
X0016848Y0056065D01*
X0016842Y0056004D01*
X0016833Y0055943D01*
X0016819Y0055882D01*
X0016802Y0055823D01*
X0016781Y0055765D01*
X0016756Y0055708D01*
X0016728Y0055653D01*
X0016697Y0055600D01*
X0016662Y0055549D01*
X0016624Y0055500D01*
X0016583Y0055453D01*
X0016540Y0055410D01*
X0016493Y0055369D01*
X0016444Y0055331D01*
X0016393Y0055296D01*
X0016340Y0055265D01*
X0016285Y0055237D01*
X0016228Y0055212D01*
X0016170Y0055191D01*
X0016111Y0055174D01*
X0016050Y0055160D01*
X0015989Y0055151D01*
X0015928Y0055145D01*
X0015866Y0055143D01*
X0013110Y0057111D02*
X0013048Y0057109D01*
X0012987Y0057103D01*
X0012926Y0057094D01*
X0012865Y0057080D01*
X0012806Y0057063D01*
X0012748Y0057042D01*
X0012691Y0057017D01*
X0012636Y0056989D01*
X0012583Y0056958D01*
X0012532Y0056923D01*
X0012483Y0056885D01*
X0012436Y0056844D01*
X0012393Y0056801D01*
X0012352Y0056754D01*
X0012314Y0056705D01*
X0012279Y0056654D01*
X0012248Y0056601D01*
X0012220Y0056546D01*
X0012195Y0056489D01*
X0012174Y0056431D01*
X0012157Y0056372D01*
X0012143Y0056311D01*
X0012134Y0056250D01*
X0012128Y0056189D01*
X0012126Y0056127D01*
X0013110Y0081127D02*
X0015866Y0081127D01*
X0016850Y0082111D02*
X0016848Y0082173D01*
X0016842Y0082234D01*
X0016833Y0082295D01*
X0016819Y0082356D01*
X0016802Y0082415D01*
X0016781Y0082473D01*
X0016756Y0082530D01*
X0016728Y0082585D01*
X0016697Y0082638D01*
X0016662Y0082689D01*
X0016624Y0082738D01*
X0016583Y0082785D01*
X0016540Y0082828D01*
X0016493Y0082869D01*
X0016444Y0082907D01*
X0016393Y0082942D01*
X0016340Y0082973D01*
X0016285Y0083001D01*
X0016228Y0083026D01*
X0016170Y0083047D01*
X0016111Y0083064D01*
X0016050Y0083078D01*
X0015989Y0083087D01*
X0015928Y0083093D01*
X0015866Y0083095D01*
X0013110Y0083095D01*
X0012126Y0082111D02*
X0012128Y0082049D01*
X0012134Y0081988D01*
X0012143Y0081927D01*
X0012157Y0081866D01*
X0012174Y0081807D01*
X0012195Y0081749D01*
X0012220Y0081692D01*
X0012248Y0081637D01*
X0012279Y0081584D01*
X0012314Y0081533D01*
X0012352Y0081484D01*
X0012393Y0081437D01*
X0012436Y0081394D01*
X0012483Y0081353D01*
X0012532Y0081315D01*
X0012583Y0081280D01*
X0012636Y0081249D01*
X0012691Y0081221D01*
X0012748Y0081196D01*
X0012806Y0081175D01*
X0012865Y0081158D01*
X0012926Y0081144D01*
X0012987Y0081135D01*
X0013048Y0081129D01*
X0013110Y0081127D01*
X0012126Y0082111D02*
X0012128Y0082173D01*
X0012134Y0082234D01*
X0012143Y0082295D01*
X0012157Y0082356D01*
X0012174Y0082415D01*
X0012195Y0082473D01*
X0012220Y0082530D01*
X0012248Y0082585D01*
X0012279Y0082638D01*
X0012314Y0082689D01*
X0012352Y0082738D01*
X0012393Y0082785D01*
X0012436Y0082828D01*
X0012483Y0082869D01*
X0012532Y0082907D01*
X0012583Y0082942D01*
X0012636Y0082973D01*
X0012691Y0083001D01*
X0012748Y0083026D01*
X0012806Y0083047D01*
X0012865Y0083064D01*
X0012926Y0083078D01*
X0012987Y0083087D01*
X0013048Y0083093D01*
X0013110Y0083095D01*
X0015866Y0081127D02*
X0015928Y0081129D01*
X0015989Y0081135D01*
X0016050Y0081144D01*
X0016111Y0081158D01*
X0016170Y0081175D01*
X0016228Y0081196D01*
X0016285Y0081221D01*
X0016340Y0081249D01*
X0016393Y0081280D01*
X0016444Y0081315D01*
X0016493Y0081353D01*
X0016540Y0081394D01*
X0016583Y0081437D01*
X0016624Y0081484D01*
X0016662Y0081533D01*
X0016697Y0081584D01*
X0016728Y0081637D01*
X0016756Y0081692D01*
X0016781Y0081749D01*
X0016802Y0081807D01*
X0016819Y0081866D01*
X0016833Y0081927D01*
X0016842Y0081988D01*
X0016848Y0082049D01*
X0016850Y0082111D01*
D23*
X0198567Y0099434D03*
X0206441Y0099434D03*
X0214315Y0099434D03*
X0222189Y0099434D03*
X0230063Y0099434D03*
X0237937Y0099434D03*
X0245811Y0099434D03*
X0253685Y0099434D03*
X0253685Y0038804D03*
X0245811Y0038804D03*
X0237937Y0038804D03*
X0230063Y0038804D03*
X0222189Y0038804D03*
X0214315Y0038804D03*
X0206441Y0038804D03*
X0198567Y0038804D03*
D24*
X0189709Y0049434D03*
X0189709Y0057308D03*
X0189709Y0065182D03*
X0189709Y0073056D03*
X0189709Y0080930D03*
X0189709Y0088804D03*
M02*
