G75*
%MOIN*%
%OFA0B0*%
%FSLAX25Y25*%
%IPPOS*%
%LPD*%
%AMOC8*
5,1,8,0,0,1.08239X$1,22.5*
%
%ADD10C,0.00100*%
%ADD11C,0.05906*%
%ADD12C,0.00039*%
%ADD13C,0.01000*%
%ADD14C,0.03169*%
D10*
X0009000Y0020119D02*
X0009000Y0118119D01*
X0258000Y0118119D01*
X0258000Y0020119D01*
X0009000Y0020119D01*
D11*
X0013000Y0024119D03*
X0023000Y0024119D03*
X0033000Y0024119D03*
X0043000Y0024119D03*
X0053000Y0024119D03*
X0063000Y0024119D03*
X0073000Y0024119D03*
X0083000Y0024119D03*
X0093000Y0024119D03*
X0103000Y0024119D03*
X0113000Y0024119D03*
X0123000Y0024119D03*
X0133000Y0024119D03*
X0143000Y0024119D03*
X0153000Y0024119D03*
X0163000Y0024119D03*
X0173000Y0024119D03*
X0183000Y0024119D03*
X0193000Y0024119D03*
X0203000Y0024119D03*
X0223000Y0024119D03*
X0233000Y0024119D03*
X0243000Y0024119D03*
X0253000Y0024119D03*
X0253000Y0114119D03*
X0243000Y0114119D03*
X0233000Y0114119D03*
X0223000Y0114119D03*
X0203000Y0114119D03*
X0193000Y0114119D03*
X0183000Y0114119D03*
X0173000Y0114119D03*
X0163000Y0114119D03*
X0153000Y0114119D03*
X0143000Y0114119D03*
X0133000Y0114119D03*
X0123000Y0114119D03*
X0113000Y0114119D03*
X0103000Y0114119D03*
X0093000Y0114119D03*
X0083000Y0114119D03*
X0073000Y0114119D03*
X0063000Y0114119D03*
X0053000Y0114119D03*
X0043000Y0114119D03*
X0033000Y0114119D03*
X0023000Y0114119D03*
X0013000Y0114119D03*
D12*
X0013110Y0083095D02*
X0015866Y0083095D01*
X0015928Y0083093D01*
X0015989Y0083087D01*
X0016050Y0083078D01*
X0016111Y0083064D01*
X0016170Y0083047D01*
X0016228Y0083026D01*
X0016285Y0083001D01*
X0016340Y0082973D01*
X0016393Y0082942D01*
X0016444Y0082907D01*
X0016493Y0082869D01*
X0016540Y0082828D01*
X0016583Y0082785D01*
X0016624Y0082738D01*
X0016662Y0082689D01*
X0016697Y0082638D01*
X0016728Y0082585D01*
X0016756Y0082530D01*
X0016781Y0082473D01*
X0016802Y0082415D01*
X0016819Y0082356D01*
X0016833Y0082295D01*
X0016842Y0082234D01*
X0016848Y0082173D01*
X0016850Y0082111D01*
X0016848Y0082049D01*
X0016842Y0081988D01*
X0016833Y0081927D01*
X0016819Y0081866D01*
X0016802Y0081807D01*
X0016781Y0081749D01*
X0016756Y0081692D01*
X0016728Y0081637D01*
X0016697Y0081584D01*
X0016662Y0081533D01*
X0016624Y0081484D01*
X0016583Y0081437D01*
X0016540Y0081394D01*
X0016493Y0081353D01*
X0016444Y0081315D01*
X0016393Y0081280D01*
X0016340Y0081249D01*
X0016285Y0081221D01*
X0016228Y0081196D01*
X0016170Y0081175D01*
X0016111Y0081158D01*
X0016050Y0081144D01*
X0015989Y0081135D01*
X0015928Y0081129D01*
X0015866Y0081127D01*
X0013110Y0081127D01*
X0013048Y0081129D01*
X0012987Y0081135D01*
X0012926Y0081144D01*
X0012865Y0081158D01*
X0012806Y0081175D01*
X0012748Y0081196D01*
X0012691Y0081221D01*
X0012636Y0081249D01*
X0012583Y0081280D01*
X0012532Y0081315D01*
X0012483Y0081353D01*
X0012436Y0081394D01*
X0012393Y0081437D01*
X0012352Y0081484D01*
X0012314Y0081533D01*
X0012279Y0081584D01*
X0012248Y0081637D01*
X0012220Y0081692D01*
X0012195Y0081749D01*
X0012174Y0081807D01*
X0012157Y0081866D01*
X0012143Y0081927D01*
X0012134Y0081988D01*
X0012128Y0082049D01*
X0012126Y0082111D01*
X0012128Y0082173D01*
X0012134Y0082234D01*
X0012143Y0082295D01*
X0012157Y0082356D01*
X0012174Y0082415D01*
X0012195Y0082473D01*
X0012220Y0082530D01*
X0012248Y0082585D01*
X0012279Y0082638D01*
X0012314Y0082689D01*
X0012352Y0082738D01*
X0012393Y0082785D01*
X0012436Y0082828D01*
X0012483Y0082869D01*
X0012532Y0082907D01*
X0012583Y0082942D01*
X0012636Y0082973D01*
X0012691Y0083001D01*
X0012748Y0083026D01*
X0012806Y0083047D01*
X0012865Y0083064D01*
X0012926Y0083078D01*
X0012987Y0083087D01*
X0013048Y0083093D01*
X0013110Y0083095D01*
X0013110Y0057111D02*
X0015866Y0057111D01*
X0015928Y0057109D01*
X0015989Y0057103D01*
X0016050Y0057094D01*
X0016111Y0057080D01*
X0016170Y0057063D01*
X0016228Y0057042D01*
X0016285Y0057017D01*
X0016340Y0056989D01*
X0016393Y0056958D01*
X0016444Y0056923D01*
X0016493Y0056885D01*
X0016540Y0056844D01*
X0016583Y0056801D01*
X0016624Y0056754D01*
X0016662Y0056705D01*
X0016697Y0056654D01*
X0016728Y0056601D01*
X0016756Y0056546D01*
X0016781Y0056489D01*
X0016802Y0056431D01*
X0016819Y0056372D01*
X0016833Y0056311D01*
X0016842Y0056250D01*
X0016848Y0056189D01*
X0016850Y0056127D01*
X0016848Y0056065D01*
X0016842Y0056004D01*
X0016833Y0055943D01*
X0016819Y0055882D01*
X0016802Y0055823D01*
X0016781Y0055765D01*
X0016756Y0055708D01*
X0016728Y0055653D01*
X0016697Y0055600D01*
X0016662Y0055549D01*
X0016624Y0055500D01*
X0016583Y0055453D01*
X0016540Y0055410D01*
X0016493Y0055369D01*
X0016444Y0055331D01*
X0016393Y0055296D01*
X0016340Y0055265D01*
X0016285Y0055237D01*
X0016228Y0055212D01*
X0016170Y0055191D01*
X0016111Y0055174D01*
X0016050Y0055160D01*
X0015989Y0055151D01*
X0015928Y0055145D01*
X0015866Y0055143D01*
X0015866Y0055142D02*
X0013110Y0055142D01*
X0013110Y0055143D02*
X0013048Y0055145D01*
X0012987Y0055151D01*
X0012926Y0055160D01*
X0012865Y0055174D01*
X0012806Y0055191D01*
X0012748Y0055212D01*
X0012691Y0055237D01*
X0012636Y0055265D01*
X0012583Y0055296D01*
X0012532Y0055331D01*
X0012483Y0055369D01*
X0012436Y0055410D01*
X0012393Y0055453D01*
X0012352Y0055500D01*
X0012314Y0055549D01*
X0012279Y0055600D01*
X0012248Y0055653D01*
X0012220Y0055708D01*
X0012195Y0055765D01*
X0012174Y0055823D01*
X0012157Y0055882D01*
X0012143Y0055943D01*
X0012134Y0056004D01*
X0012128Y0056065D01*
X0012126Y0056127D01*
X0012128Y0056189D01*
X0012134Y0056250D01*
X0012143Y0056311D01*
X0012157Y0056372D01*
X0012174Y0056431D01*
X0012195Y0056489D01*
X0012220Y0056546D01*
X0012248Y0056601D01*
X0012279Y0056654D01*
X0012314Y0056705D01*
X0012352Y0056754D01*
X0012393Y0056801D01*
X0012436Y0056844D01*
X0012483Y0056885D01*
X0012532Y0056923D01*
X0012583Y0056958D01*
X0012636Y0056989D01*
X0012691Y0057017D01*
X0012748Y0057042D01*
X0012806Y0057063D01*
X0012865Y0057080D01*
X0012926Y0057094D01*
X0012987Y0057103D01*
X0013048Y0057109D01*
X0013110Y0057111D01*
D13*
X0012439Y0058630D02*
X0011277Y0057960D01*
X0011277Y0057960D01*
X0011277Y0057960D01*
X0010606Y0056797D01*
X0010606Y0055456D01*
X0011277Y0054294D01*
X0011277Y0054294D01*
X0012439Y0053623D01*
X0016537Y0053623D01*
X0017699Y0054294D01*
X0018370Y0055456D01*
X0018370Y0056797D01*
X0017699Y0057960D01*
X0016537Y0058630D01*
X0016496Y0058630D01*
X0012439Y0058630D01*
X0011455Y0058062D02*
X0010550Y0058062D01*
X0010550Y0057064D02*
X0010760Y0057064D01*
X0010606Y0056065D02*
X0010550Y0056065D01*
X0010550Y0055067D02*
X0010831Y0055067D01*
X0011277Y0054294D02*
X0011277Y0054294D01*
X0011668Y0054068D02*
X0010550Y0054068D01*
X0010550Y0053070D02*
X0047055Y0053070D01*
X0046916Y0052732D02*
X0047385Y0053866D01*
X0048253Y0054733D01*
X0049386Y0055203D01*
X0050613Y0055203D01*
X0051747Y0054733D01*
X0052615Y0053866D01*
X0053084Y0052732D01*
X0053084Y0051505D01*
X0052615Y0050372D01*
X0051747Y0049504D01*
X0050613Y0049034D01*
X0049386Y0049034D01*
X0048253Y0049504D01*
X0047385Y0050372D01*
X0046916Y0051505D01*
X0046916Y0052732D01*
X0046916Y0052071D02*
X0010550Y0052071D01*
X0010550Y0051073D02*
X0047095Y0051073D01*
X0047683Y0050074D02*
X0010550Y0050074D01*
X0010550Y0049076D02*
X0049287Y0049076D01*
X0050713Y0049076D02*
X0061287Y0049076D01*
X0061386Y0049034D02*
X0062613Y0049034D01*
X0063747Y0049504D01*
X0064615Y0050372D01*
X0065084Y0051505D01*
X0065084Y0052732D01*
X0064615Y0053866D01*
X0063747Y0054733D01*
X0062613Y0055203D01*
X0061386Y0055203D01*
X0060253Y0054733D01*
X0059385Y0053866D01*
X0058916Y0052732D01*
X0058916Y0051505D01*
X0059385Y0050372D01*
X0060253Y0049504D01*
X0061386Y0049034D01*
X0062253Y0048233D02*
X0061385Y0047366D01*
X0060916Y0046232D01*
X0060916Y0045005D01*
X0061385Y0043872D01*
X0062253Y0043004D01*
X0063386Y0042534D01*
X0064613Y0042534D01*
X0065747Y0043004D01*
X0066615Y0043872D01*
X0067084Y0045005D01*
X0067084Y0046232D01*
X0066615Y0047366D01*
X0065747Y0048233D01*
X0064613Y0048703D01*
X0063386Y0048703D01*
X0062253Y0048233D01*
X0062097Y0048077D02*
X0010550Y0048077D01*
X0010550Y0047078D02*
X0061266Y0047078D01*
X0060916Y0046080D02*
X0010550Y0046080D01*
X0010550Y0045081D02*
X0060916Y0045081D01*
X0061298Y0044083D02*
X0010550Y0044083D01*
X0010550Y0043084D02*
X0062172Y0043084D01*
X0062613Y0041203D02*
X0061386Y0041203D01*
X0060253Y0040733D01*
X0059385Y0039866D01*
X0058916Y0038732D01*
X0058916Y0037505D01*
X0059385Y0036372D01*
X0060253Y0035504D01*
X0061386Y0035034D01*
X0062613Y0035034D01*
X0063747Y0035504D01*
X0064615Y0036372D01*
X0065084Y0037505D01*
X0065084Y0038732D01*
X0064615Y0039866D01*
X0063747Y0040733D01*
X0062613Y0041203D01*
X0062892Y0041087D02*
X0069108Y0041087D01*
X0069386Y0041203D02*
X0068253Y0040733D01*
X0067385Y0039866D01*
X0066916Y0038732D01*
X0066916Y0037505D01*
X0067385Y0036372D01*
X0068253Y0035504D01*
X0069386Y0035034D01*
X0070613Y0035034D01*
X0071747Y0035504D01*
X0072615Y0036372D01*
X0073084Y0037505D01*
X0073084Y0038732D01*
X0072615Y0039866D01*
X0071747Y0040733D01*
X0070613Y0041203D01*
X0069386Y0041203D01*
X0070892Y0041087D02*
X0124108Y0041087D01*
X0124386Y0041203D02*
X0123253Y0040733D01*
X0122385Y0039866D01*
X0121916Y0038732D01*
X0121916Y0037505D01*
X0122385Y0036372D01*
X0123253Y0035504D01*
X0124386Y0035034D01*
X0125613Y0035034D01*
X0126747Y0035504D01*
X0127250Y0036007D01*
X0127253Y0036004D01*
X0128386Y0035534D01*
X0129613Y0035534D01*
X0130747Y0036004D01*
X0131615Y0036872D01*
X0132084Y0038005D01*
X0132084Y0039232D01*
X0131615Y0040366D01*
X0130747Y0041233D01*
X0129613Y0041703D01*
X0128386Y0041703D01*
X0127253Y0041233D01*
X0126750Y0040730D01*
X0126747Y0040733D01*
X0125613Y0041203D01*
X0124386Y0041203D01*
X0125892Y0041087D02*
X0127107Y0041087D01*
X0122608Y0040089D02*
X0072392Y0040089D01*
X0072936Y0039090D02*
X0122064Y0039090D01*
X0121916Y0038092D02*
X0073084Y0038092D01*
X0072914Y0037093D02*
X0122086Y0037093D01*
X0122662Y0036095D02*
X0072338Y0036095D01*
X0070763Y0035096D02*
X0124237Y0035096D01*
X0125763Y0035096D02*
X0256450Y0035096D01*
X0256450Y0034098D02*
X0010550Y0034098D01*
X0010550Y0035096D02*
X0061237Y0035096D01*
X0062763Y0035096D02*
X0069237Y0035096D01*
X0067662Y0036095D02*
X0064338Y0036095D01*
X0064914Y0037093D02*
X0067086Y0037093D01*
X0066916Y0038092D02*
X0065084Y0038092D01*
X0064936Y0039090D02*
X0067064Y0039090D01*
X0067608Y0040089D02*
X0064392Y0040089D01*
X0061108Y0041087D02*
X0010550Y0041087D01*
X0010550Y0040089D02*
X0059608Y0040089D01*
X0059064Y0039090D02*
X0010550Y0039090D01*
X0010550Y0038092D02*
X0058916Y0038092D01*
X0059086Y0037093D02*
X0010550Y0037093D01*
X0010550Y0036095D02*
X0059662Y0036095D01*
X0062114Y0028571D02*
X0060478Y0027894D01*
X0059225Y0026641D01*
X0058547Y0025004D01*
X0058547Y0023233D01*
X0059195Y0021669D01*
X0056805Y0021669D01*
X0057453Y0023233D01*
X0057453Y0025004D01*
X0056775Y0026641D01*
X0055522Y0027894D01*
X0053886Y0028571D01*
X0052114Y0028571D01*
X0050478Y0027894D01*
X0049225Y0026641D01*
X0048547Y0025004D01*
X0048547Y0023233D01*
X0049195Y0021669D01*
X0046724Y0021669D01*
X0046808Y0021785D01*
X0047127Y0022409D01*
X0047343Y0023076D01*
X0047432Y0023634D01*
X0043484Y0023634D01*
X0043484Y0024603D01*
X0042516Y0024603D01*
X0042516Y0028550D01*
X0041957Y0028462D01*
X0041291Y0028245D01*
X0040666Y0027927D01*
X0040099Y0027515D01*
X0039604Y0027019D01*
X0039192Y0026452D01*
X0038873Y0025828D01*
X0038657Y0025161D01*
X0038568Y0024603D01*
X0042516Y0024603D01*
X0042516Y0023634D01*
X0038568Y0023634D01*
X0038657Y0023076D01*
X0038873Y0022409D01*
X0039192Y0021785D01*
X0039276Y0021669D01*
X0036805Y0021669D01*
X0037453Y0023233D01*
X0037453Y0025004D01*
X0036775Y0026641D01*
X0035522Y0027894D01*
X0033886Y0028571D01*
X0032114Y0028571D01*
X0030478Y0027894D01*
X0029225Y0026641D01*
X0028547Y0025004D01*
X0028547Y0023233D01*
X0029195Y0021669D01*
X0026805Y0021669D01*
X0027453Y0023233D01*
X0027453Y0025004D01*
X0026775Y0026641D01*
X0025522Y0027894D01*
X0023886Y0028571D01*
X0022114Y0028571D01*
X0020478Y0027894D01*
X0019225Y0026641D01*
X0018547Y0025004D01*
X0018547Y0023233D01*
X0019195Y0021669D01*
X0016805Y0021669D01*
X0017453Y0023233D01*
X0017453Y0025004D01*
X0016775Y0026641D01*
X0015522Y0027894D01*
X0013886Y0028571D01*
X0012114Y0028571D01*
X0010550Y0027923D01*
X0010550Y0110314D01*
X0012114Y0109666D01*
X0013886Y0109666D01*
X0015522Y0110344D01*
X0016775Y0111596D01*
X0017453Y0113233D01*
X0017453Y0115004D01*
X0016805Y0116569D01*
X0019195Y0116569D01*
X0018547Y0115004D01*
X0018547Y0113233D01*
X0019225Y0111596D01*
X0020478Y0110344D01*
X0022114Y0109666D01*
X0023886Y0109666D01*
X0025522Y0110344D01*
X0026775Y0111596D01*
X0027453Y0113233D01*
X0027453Y0115004D01*
X0026805Y0116569D01*
X0029195Y0116569D01*
X0028547Y0115004D01*
X0028547Y0113233D01*
X0029225Y0111596D01*
X0029622Y0111199D01*
X0029613Y0111203D01*
X0028386Y0111203D01*
X0027253Y0110733D01*
X0026385Y0109866D01*
X0025916Y0108732D01*
X0025916Y0107505D01*
X0026385Y0106372D01*
X0027253Y0105504D01*
X0028386Y0105034D01*
X0029613Y0105034D01*
X0030747Y0105504D01*
X0031615Y0106372D01*
X0032084Y0107505D01*
X0032084Y0108732D01*
X0031615Y0109866D01*
X0031603Y0109878D01*
X0032114Y0109666D01*
X0033886Y0109666D01*
X0035522Y0110344D01*
X0036775Y0111596D01*
X0037453Y0113233D01*
X0037453Y0115004D01*
X0036805Y0116569D01*
X0039276Y0116569D01*
X0039192Y0116452D01*
X0038873Y0115828D01*
X0038657Y0115161D01*
X0038568Y0114603D01*
X0042516Y0114603D01*
X0042516Y0113634D01*
X0043484Y0113634D01*
X0043484Y0109687D01*
X0044043Y0109776D01*
X0044709Y0109992D01*
X0045334Y0110310D01*
X0045901Y0110722D01*
X0046396Y0111218D01*
X0046808Y0111785D01*
X0047127Y0112409D01*
X0047343Y0113076D01*
X0047432Y0113634D01*
X0043484Y0113634D01*
X0043484Y0114603D01*
X0047432Y0114603D01*
X0047343Y0115161D01*
X0047127Y0115828D01*
X0046808Y0116452D01*
X0046724Y0116569D01*
X0049195Y0116569D01*
X0048547Y0115004D01*
X0048547Y0113233D01*
X0049225Y0111596D01*
X0050478Y0110344D01*
X0052114Y0109666D01*
X0053886Y0109666D01*
X0055522Y0110344D01*
X0056775Y0111596D01*
X0057453Y0113233D01*
X0057453Y0115004D01*
X0056805Y0116569D01*
X0059195Y0116569D01*
X0058547Y0115004D01*
X0058547Y0113233D01*
X0059225Y0111596D01*
X0060478Y0110344D01*
X0062114Y0109666D01*
X0063886Y0109666D01*
X0065522Y0110344D01*
X0066775Y0111596D01*
X0067453Y0113233D01*
X0067453Y0115004D01*
X0066805Y0116569D01*
X0069195Y0116569D01*
X0068547Y0115004D01*
X0068547Y0113233D01*
X0069225Y0111596D01*
X0070478Y0110344D01*
X0072114Y0109666D01*
X0073886Y0109666D01*
X0075522Y0110344D01*
X0076775Y0111596D01*
X0077453Y0113233D01*
X0077453Y0115004D01*
X0076805Y0116569D01*
X0079195Y0116569D01*
X0078547Y0115004D01*
X0078547Y0113233D01*
X0079225Y0111596D01*
X0080478Y0110344D01*
X0082114Y0109666D01*
X0083886Y0109666D01*
X0085522Y0110344D01*
X0086775Y0111596D01*
X0087453Y0113233D01*
X0087453Y0115004D01*
X0086805Y0116569D01*
X0089195Y0116569D01*
X0088547Y0115004D01*
X0088547Y0113233D01*
X0089225Y0111596D01*
X0090478Y0110344D01*
X0092114Y0109666D01*
X0093886Y0109666D01*
X0095522Y0110344D01*
X0096775Y0111596D01*
X0097453Y0113233D01*
X0097453Y0115004D01*
X0096805Y0116569D01*
X0099195Y0116569D01*
X0098547Y0115004D01*
X0098547Y0113233D01*
X0099225Y0111596D01*
X0100478Y0110344D01*
X0102114Y0109666D01*
X0103886Y0109666D01*
X0105522Y0110344D01*
X0106775Y0111596D01*
X0107453Y0113233D01*
X0107453Y0115004D01*
X0106805Y0116569D01*
X0109195Y0116569D01*
X0108547Y0115004D01*
X0108547Y0113233D01*
X0109225Y0111596D01*
X0110478Y0110344D01*
X0112114Y0109666D01*
X0113886Y0109666D01*
X0115522Y0110344D01*
X0116775Y0111596D01*
X0117453Y0113233D01*
X0117453Y0115004D01*
X0116805Y0116569D01*
X0119195Y0116569D01*
X0118547Y0115004D01*
X0118547Y0113233D01*
X0119225Y0111596D01*
X0120478Y0110344D01*
X0122114Y0109666D01*
X0123886Y0109666D01*
X0125522Y0110344D01*
X0126775Y0111596D01*
X0127453Y0113233D01*
X0127453Y0115004D01*
X0126805Y0116569D01*
X0129195Y0116569D01*
X0128547Y0115004D01*
X0128547Y0113233D01*
X0129225Y0111596D01*
X0130478Y0110344D01*
X0132114Y0109666D01*
X0133886Y0109666D01*
X0135522Y0110344D01*
X0136775Y0111596D01*
X0137453Y0113233D01*
X0137453Y0115004D01*
X0136805Y0116569D01*
X0139195Y0116569D01*
X0138547Y0115004D01*
X0138547Y0113233D01*
X0139225Y0111596D01*
X0140478Y0110344D01*
X0142114Y0109666D01*
X0143886Y0109666D01*
X0145522Y0110344D01*
X0146775Y0111596D01*
X0147453Y0113233D01*
X0147453Y0115004D01*
X0146805Y0116569D01*
X0149195Y0116569D01*
X0148547Y0115004D01*
X0148547Y0113233D01*
X0149225Y0111596D01*
X0150478Y0110344D01*
X0152114Y0109666D01*
X0153886Y0109666D01*
X0155522Y0110344D01*
X0156775Y0111596D01*
X0157453Y0113233D01*
X0157453Y0115004D01*
X0156805Y0116569D01*
X0159195Y0116569D01*
X0158547Y0115004D01*
X0158547Y0113233D01*
X0159225Y0111596D01*
X0160478Y0110344D01*
X0162114Y0109666D01*
X0163886Y0109666D01*
X0165522Y0110344D01*
X0166775Y0111596D01*
X0167453Y0113233D01*
X0167453Y0115004D01*
X0166805Y0116569D01*
X0169195Y0116569D01*
X0168547Y0115004D01*
X0168547Y0113233D01*
X0169225Y0111596D01*
X0170478Y0110344D01*
X0172114Y0109666D01*
X0173886Y0109666D01*
X0175522Y0110344D01*
X0176775Y0111596D01*
X0177453Y0113233D01*
X0177453Y0115004D01*
X0176805Y0116569D01*
X0179195Y0116569D01*
X0178547Y0115004D01*
X0178547Y0113233D01*
X0179225Y0111596D01*
X0180478Y0110344D01*
X0182114Y0109666D01*
X0183886Y0109666D01*
X0185522Y0110344D01*
X0186775Y0111596D01*
X0187453Y0113233D01*
X0187453Y0115004D01*
X0186805Y0116569D01*
X0189195Y0116569D01*
X0188547Y0115004D01*
X0188547Y0113233D01*
X0189225Y0111596D01*
X0190478Y0110344D01*
X0192114Y0109666D01*
X0193886Y0109666D01*
X0195522Y0110344D01*
X0196775Y0111596D01*
X0197453Y0113233D01*
X0197453Y0115004D01*
X0196805Y0116569D01*
X0199195Y0116569D01*
X0198547Y0115004D01*
X0198547Y0113233D01*
X0199225Y0111596D01*
X0200478Y0110344D01*
X0202114Y0109666D01*
X0203886Y0109666D01*
X0205522Y0110344D01*
X0206775Y0111596D01*
X0207453Y0113233D01*
X0207453Y0115004D01*
X0206805Y0116569D01*
X0219276Y0116569D01*
X0219192Y0116452D01*
X0218873Y0115828D01*
X0218657Y0115161D01*
X0218568Y0114603D01*
X0222516Y0114603D01*
X0222516Y0113634D01*
X0223484Y0113634D01*
X0223484Y0109687D01*
X0224043Y0109776D01*
X0224709Y0109992D01*
X0225334Y0110310D01*
X0225901Y0110722D01*
X0226396Y0111218D01*
X0226808Y0111785D01*
X0227127Y0112409D01*
X0227343Y0113076D01*
X0227432Y0113634D01*
X0223484Y0113634D01*
X0223484Y0114603D01*
X0227432Y0114603D01*
X0227343Y0115161D01*
X0227127Y0115828D01*
X0226808Y0116452D01*
X0226724Y0116569D01*
X0229195Y0116569D01*
X0228547Y0115004D01*
X0228547Y0113233D01*
X0229225Y0111596D01*
X0230478Y0110344D01*
X0232114Y0109666D01*
X0233886Y0109666D01*
X0235522Y0110344D01*
X0236775Y0111596D01*
X0237453Y0113233D01*
X0237453Y0115004D01*
X0236805Y0116569D01*
X0239195Y0116569D01*
X0238547Y0115004D01*
X0238547Y0113233D01*
X0239225Y0111596D01*
X0240478Y0110344D01*
X0242114Y0109666D01*
X0243886Y0109666D01*
X0245522Y0110344D01*
X0246775Y0111596D01*
X0247453Y0113233D01*
X0247453Y0115004D01*
X0246805Y0116569D01*
X0249195Y0116569D01*
X0248547Y0115004D01*
X0248547Y0113233D01*
X0249225Y0111596D01*
X0250478Y0110344D01*
X0252114Y0109666D01*
X0253886Y0109666D01*
X0255522Y0110344D01*
X0256450Y0111272D01*
X0256450Y0026966D01*
X0255522Y0027894D01*
X0253886Y0028571D01*
X0252114Y0028571D01*
X0250478Y0027894D01*
X0249225Y0026641D01*
X0248547Y0025004D01*
X0248547Y0023233D01*
X0249195Y0021669D01*
X0246805Y0021669D01*
X0247453Y0023233D01*
X0247453Y0025004D01*
X0246775Y0026641D01*
X0245522Y0027894D01*
X0243886Y0028571D01*
X0242114Y0028571D01*
X0240478Y0027894D01*
X0239225Y0026641D01*
X0238547Y0025004D01*
X0238547Y0023233D01*
X0239195Y0021669D01*
X0236805Y0021669D01*
X0237453Y0023233D01*
X0237453Y0025004D01*
X0236775Y0026641D01*
X0235522Y0027894D01*
X0233886Y0028571D01*
X0232114Y0028571D01*
X0230478Y0027894D01*
X0229225Y0026641D01*
X0228547Y0025004D01*
X0228547Y0023233D01*
X0229195Y0021669D01*
X0226724Y0021669D01*
X0226808Y0021785D01*
X0227127Y0022409D01*
X0227343Y0023076D01*
X0227432Y0023634D01*
X0223484Y0023634D01*
X0223484Y0024603D01*
X0222516Y0024603D01*
X0222516Y0028550D01*
X0221957Y0028462D01*
X0221291Y0028245D01*
X0220666Y0027927D01*
X0220099Y0027515D01*
X0219604Y0027019D01*
X0219192Y0026452D01*
X0218873Y0025828D01*
X0218657Y0025161D01*
X0218568Y0024603D01*
X0222516Y0024603D01*
X0222516Y0023634D01*
X0218568Y0023634D01*
X0218657Y0023076D01*
X0218873Y0022409D01*
X0219192Y0021785D01*
X0219276Y0021669D01*
X0206805Y0021669D01*
X0207453Y0023233D01*
X0207453Y0025004D01*
X0206775Y0026641D01*
X0205522Y0027894D01*
X0203886Y0028571D01*
X0202114Y0028571D01*
X0200478Y0027894D01*
X0199225Y0026641D01*
X0198547Y0025004D01*
X0198547Y0023233D01*
X0199195Y0021669D01*
X0196805Y0021669D01*
X0197453Y0023233D01*
X0197453Y0025004D01*
X0196775Y0026641D01*
X0195522Y0027894D01*
X0193886Y0028571D01*
X0192114Y0028571D01*
X0190478Y0027894D01*
X0189225Y0026641D01*
X0188547Y0025004D01*
X0188547Y0023233D01*
X0189195Y0021669D01*
X0186805Y0021669D01*
X0187453Y0023233D01*
X0187453Y0025004D01*
X0186775Y0026641D01*
X0185522Y0027894D01*
X0183886Y0028571D01*
X0182114Y0028571D01*
X0180478Y0027894D01*
X0179225Y0026641D01*
X0178547Y0025004D01*
X0178547Y0023233D01*
X0179195Y0021669D01*
X0176805Y0021669D01*
X0177453Y0023233D01*
X0177453Y0025004D01*
X0176775Y0026641D01*
X0175522Y0027894D01*
X0173886Y0028571D01*
X0172114Y0028571D01*
X0170478Y0027894D01*
X0169225Y0026641D01*
X0168547Y0025004D01*
X0168547Y0023233D01*
X0169195Y0021669D01*
X0166805Y0021669D01*
X0167453Y0023233D01*
X0167453Y0025004D01*
X0166775Y0026641D01*
X0165522Y0027894D01*
X0163886Y0028571D01*
X0162114Y0028571D01*
X0160478Y0027894D01*
X0159225Y0026641D01*
X0158547Y0025004D01*
X0158547Y0023233D01*
X0159195Y0021669D01*
X0156805Y0021669D01*
X0157453Y0023233D01*
X0157453Y0025004D01*
X0156775Y0026641D01*
X0155522Y0027894D01*
X0153886Y0028571D01*
X0152114Y0028571D01*
X0150478Y0027894D01*
X0149225Y0026641D01*
X0148547Y0025004D01*
X0148547Y0023233D01*
X0149195Y0021669D01*
X0146805Y0021669D01*
X0147453Y0023233D01*
X0147453Y0025004D01*
X0146775Y0026641D01*
X0145522Y0027894D01*
X0143886Y0028571D01*
X0142114Y0028571D01*
X0140478Y0027894D01*
X0139225Y0026641D01*
X0138547Y0025004D01*
X0138547Y0023233D01*
X0139195Y0021669D01*
X0136805Y0021669D01*
X0137453Y0023233D01*
X0137453Y0025004D01*
X0136775Y0026641D01*
X0135522Y0027894D01*
X0133886Y0028571D01*
X0132114Y0028571D01*
X0130478Y0027894D01*
X0129225Y0026641D01*
X0128547Y0025004D01*
X0128547Y0023233D01*
X0129195Y0021669D01*
X0126805Y0021669D01*
X0127453Y0023233D01*
X0127453Y0025004D01*
X0126775Y0026641D01*
X0125522Y0027894D01*
X0123886Y0028571D01*
X0122114Y0028571D01*
X0120478Y0027894D01*
X0119225Y0026641D01*
X0118547Y0025004D01*
X0118547Y0023233D01*
X0119195Y0021669D01*
X0116805Y0021669D01*
X0117453Y0023233D01*
X0117453Y0025004D01*
X0116775Y0026641D01*
X0115522Y0027894D01*
X0113886Y0028571D01*
X0112114Y0028571D01*
X0110478Y0027894D01*
X0109225Y0026641D01*
X0108547Y0025004D01*
X0108547Y0023233D01*
X0109195Y0021669D01*
X0106805Y0021669D01*
X0107453Y0023233D01*
X0107453Y0025004D01*
X0106775Y0026641D01*
X0105522Y0027894D01*
X0103886Y0028571D01*
X0102114Y0028571D01*
X0100478Y0027894D01*
X0099225Y0026641D01*
X0098547Y0025004D01*
X0098547Y0023233D01*
X0099195Y0021669D01*
X0096805Y0021669D01*
X0097453Y0023233D01*
X0097453Y0025004D01*
X0096775Y0026641D01*
X0095522Y0027894D01*
X0093886Y0028571D01*
X0092114Y0028571D01*
X0090478Y0027894D01*
X0089225Y0026641D01*
X0088547Y0025004D01*
X0088547Y0023233D01*
X0089195Y0021669D01*
X0086805Y0021669D01*
X0087453Y0023233D01*
X0087453Y0025004D01*
X0086775Y0026641D01*
X0085522Y0027894D01*
X0083886Y0028571D01*
X0082114Y0028571D01*
X0080478Y0027894D01*
X0079225Y0026641D01*
X0078547Y0025004D01*
X0078547Y0023233D01*
X0079195Y0021669D01*
X0076805Y0021669D01*
X0077453Y0023233D01*
X0077453Y0025004D01*
X0076775Y0026641D01*
X0075522Y0027894D01*
X0073886Y0028571D01*
X0072114Y0028571D01*
X0070478Y0027894D01*
X0069225Y0026641D01*
X0068547Y0025004D01*
X0068547Y0023233D01*
X0069195Y0021669D01*
X0066805Y0021669D01*
X0067453Y0023233D01*
X0067453Y0025004D01*
X0066775Y0026641D01*
X0065522Y0027894D01*
X0063886Y0028571D01*
X0062114Y0028571D01*
X0060993Y0028107D02*
X0055007Y0028107D01*
X0056308Y0027108D02*
X0059692Y0027108D01*
X0059005Y0026110D02*
X0056995Y0026110D01*
X0057408Y0025111D02*
X0058592Y0025111D01*
X0058547Y0024113D02*
X0057453Y0024113D01*
X0057404Y0023114D02*
X0058596Y0023114D01*
X0059010Y0022116D02*
X0056990Y0022116D01*
X0049010Y0022116D02*
X0046977Y0022116D01*
X0047349Y0023114D02*
X0048596Y0023114D01*
X0048547Y0024113D02*
X0043484Y0024113D01*
X0043484Y0024603D02*
X0047432Y0024603D01*
X0047343Y0025161D01*
X0047127Y0025828D01*
X0046808Y0026452D01*
X0046396Y0027019D01*
X0045901Y0027515D01*
X0045334Y0027927D01*
X0044709Y0028245D01*
X0044043Y0028462D01*
X0043484Y0028550D01*
X0043484Y0024603D01*
X0043484Y0025111D02*
X0042516Y0025111D01*
X0042516Y0024113D02*
X0037453Y0024113D01*
X0037408Y0025111D02*
X0038649Y0025111D01*
X0039017Y0026110D02*
X0036995Y0026110D01*
X0036308Y0027108D02*
X0039692Y0027108D01*
X0041019Y0028107D02*
X0035007Y0028107D01*
X0030993Y0028107D02*
X0025007Y0028107D01*
X0026308Y0027108D02*
X0029692Y0027108D01*
X0029005Y0026110D02*
X0026995Y0026110D01*
X0027408Y0025111D02*
X0028592Y0025111D01*
X0028547Y0024113D02*
X0027453Y0024113D01*
X0027404Y0023114D02*
X0028596Y0023114D01*
X0029010Y0022116D02*
X0026990Y0022116D01*
X0019010Y0022116D02*
X0016990Y0022116D01*
X0017404Y0023114D02*
X0018596Y0023114D01*
X0018547Y0024113D02*
X0017453Y0024113D01*
X0017408Y0025111D02*
X0018592Y0025111D01*
X0019005Y0026110D02*
X0016995Y0026110D01*
X0016308Y0027108D02*
X0019692Y0027108D01*
X0020993Y0028107D02*
X0015007Y0028107D01*
X0010993Y0028107D02*
X0010550Y0028107D01*
X0010550Y0029105D02*
X0256450Y0029105D01*
X0256450Y0028107D02*
X0255007Y0028107D01*
X0256308Y0027108D02*
X0256450Y0027108D01*
X0250993Y0028107D02*
X0245007Y0028107D01*
X0246308Y0027108D02*
X0249692Y0027108D01*
X0249005Y0026110D02*
X0246995Y0026110D01*
X0247408Y0025111D02*
X0248592Y0025111D01*
X0248547Y0024113D02*
X0247453Y0024113D01*
X0247404Y0023114D02*
X0248596Y0023114D01*
X0249010Y0022116D02*
X0246990Y0022116D01*
X0239010Y0022116D02*
X0236990Y0022116D01*
X0237404Y0023114D02*
X0238596Y0023114D01*
X0238547Y0024113D02*
X0237453Y0024113D01*
X0237408Y0025111D02*
X0238592Y0025111D01*
X0239005Y0026110D02*
X0236995Y0026110D01*
X0236308Y0027108D02*
X0239692Y0027108D01*
X0240993Y0028107D02*
X0235007Y0028107D01*
X0230993Y0028107D02*
X0224981Y0028107D01*
X0224709Y0028245D02*
X0224043Y0028462D01*
X0223484Y0028550D01*
X0223484Y0024603D01*
X0227432Y0024603D01*
X0227343Y0025161D01*
X0227127Y0025828D01*
X0226808Y0026452D01*
X0226396Y0027019D01*
X0225901Y0027515D01*
X0225334Y0027927D01*
X0224709Y0028245D01*
X0223484Y0028107D02*
X0222516Y0028107D01*
X0222516Y0027108D02*
X0223484Y0027108D01*
X0223484Y0026110D02*
X0222516Y0026110D01*
X0222516Y0025111D02*
X0223484Y0025111D01*
X0223484Y0024113D02*
X0228547Y0024113D01*
X0228592Y0025111D02*
X0227351Y0025111D01*
X0226983Y0026110D02*
X0229005Y0026110D01*
X0229692Y0027108D02*
X0226308Y0027108D01*
X0222516Y0024113D02*
X0207453Y0024113D01*
X0207408Y0025111D02*
X0218649Y0025111D01*
X0219017Y0026110D02*
X0206995Y0026110D01*
X0206308Y0027108D02*
X0219692Y0027108D01*
X0221019Y0028107D02*
X0205007Y0028107D01*
X0200993Y0028107D02*
X0195007Y0028107D01*
X0196308Y0027108D02*
X0199692Y0027108D01*
X0199005Y0026110D02*
X0196995Y0026110D01*
X0197408Y0025111D02*
X0198592Y0025111D01*
X0198547Y0024113D02*
X0197453Y0024113D01*
X0197404Y0023114D02*
X0198596Y0023114D01*
X0199010Y0022116D02*
X0196990Y0022116D01*
X0189010Y0022116D02*
X0186990Y0022116D01*
X0187404Y0023114D02*
X0188596Y0023114D01*
X0188547Y0024113D02*
X0187453Y0024113D01*
X0187408Y0025111D02*
X0188592Y0025111D01*
X0189005Y0026110D02*
X0186995Y0026110D01*
X0186308Y0027108D02*
X0189692Y0027108D01*
X0190993Y0028107D02*
X0185007Y0028107D01*
X0180993Y0028107D02*
X0175007Y0028107D01*
X0176308Y0027108D02*
X0179692Y0027108D01*
X0179005Y0026110D02*
X0176995Y0026110D01*
X0177408Y0025111D02*
X0178592Y0025111D01*
X0178547Y0024113D02*
X0177453Y0024113D01*
X0177404Y0023114D02*
X0178596Y0023114D01*
X0179010Y0022116D02*
X0176990Y0022116D01*
X0169010Y0022116D02*
X0166990Y0022116D01*
X0167404Y0023114D02*
X0168596Y0023114D01*
X0168547Y0024113D02*
X0167453Y0024113D01*
X0167408Y0025111D02*
X0168592Y0025111D01*
X0169005Y0026110D02*
X0166995Y0026110D01*
X0166308Y0027108D02*
X0169692Y0027108D01*
X0170993Y0028107D02*
X0165007Y0028107D01*
X0160993Y0028107D02*
X0155007Y0028107D01*
X0156308Y0027108D02*
X0159692Y0027108D01*
X0159005Y0026110D02*
X0156995Y0026110D01*
X0157408Y0025111D02*
X0158592Y0025111D01*
X0158547Y0024113D02*
X0157453Y0024113D01*
X0157404Y0023114D02*
X0158596Y0023114D01*
X0159010Y0022116D02*
X0156990Y0022116D01*
X0149010Y0022116D02*
X0146990Y0022116D01*
X0147404Y0023114D02*
X0148596Y0023114D01*
X0148547Y0024113D02*
X0147453Y0024113D01*
X0147408Y0025111D02*
X0148592Y0025111D01*
X0149005Y0026110D02*
X0146995Y0026110D01*
X0146308Y0027108D02*
X0149692Y0027108D01*
X0150993Y0028107D02*
X0145007Y0028107D01*
X0140993Y0028107D02*
X0135007Y0028107D01*
X0136308Y0027108D02*
X0139692Y0027108D01*
X0139005Y0026110D02*
X0136995Y0026110D01*
X0137408Y0025111D02*
X0138592Y0025111D01*
X0138547Y0024113D02*
X0137453Y0024113D01*
X0137404Y0023114D02*
X0138596Y0023114D01*
X0139010Y0022116D02*
X0136990Y0022116D01*
X0129010Y0022116D02*
X0126990Y0022116D01*
X0127404Y0023114D02*
X0128596Y0023114D01*
X0128547Y0024113D02*
X0127453Y0024113D01*
X0127408Y0025111D02*
X0128592Y0025111D01*
X0129005Y0026110D02*
X0126995Y0026110D01*
X0126308Y0027108D02*
X0129692Y0027108D01*
X0130993Y0028107D02*
X0125007Y0028107D01*
X0120993Y0028107D02*
X0115007Y0028107D01*
X0116308Y0027108D02*
X0119692Y0027108D01*
X0119005Y0026110D02*
X0116995Y0026110D01*
X0117408Y0025111D02*
X0118592Y0025111D01*
X0118547Y0024113D02*
X0117453Y0024113D01*
X0117404Y0023114D02*
X0118596Y0023114D01*
X0119010Y0022116D02*
X0116990Y0022116D01*
X0109010Y0022116D02*
X0106990Y0022116D01*
X0107404Y0023114D02*
X0108596Y0023114D01*
X0108547Y0024113D02*
X0107453Y0024113D01*
X0107408Y0025111D02*
X0108592Y0025111D01*
X0109005Y0026110D02*
X0106995Y0026110D01*
X0106308Y0027108D02*
X0109692Y0027108D01*
X0110993Y0028107D02*
X0105007Y0028107D01*
X0100993Y0028107D02*
X0095007Y0028107D01*
X0096308Y0027108D02*
X0099692Y0027108D01*
X0099005Y0026110D02*
X0096995Y0026110D01*
X0097408Y0025111D02*
X0098592Y0025111D01*
X0098547Y0024113D02*
X0097453Y0024113D01*
X0097404Y0023114D02*
X0098596Y0023114D01*
X0099010Y0022116D02*
X0096990Y0022116D01*
X0089010Y0022116D02*
X0086990Y0022116D01*
X0087404Y0023114D02*
X0088596Y0023114D01*
X0088547Y0024113D02*
X0087453Y0024113D01*
X0087408Y0025111D02*
X0088592Y0025111D01*
X0089005Y0026110D02*
X0086995Y0026110D01*
X0086308Y0027108D02*
X0089692Y0027108D01*
X0090993Y0028107D02*
X0085007Y0028107D01*
X0080993Y0028107D02*
X0075007Y0028107D01*
X0076308Y0027108D02*
X0079692Y0027108D01*
X0079005Y0026110D02*
X0076995Y0026110D01*
X0077408Y0025111D02*
X0078592Y0025111D01*
X0078547Y0024113D02*
X0077453Y0024113D01*
X0077404Y0023114D02*
X0078596Y0023114D01*
X0079010Y0022116D02*
X0076990Y0022116D01*
X0069010Y0022116D02*
X0066990Y0022116D01*
X0067404Y0023114D02*
X0068596Y0023114D01*
X0068547Y0024113D02*
X0067453Y0024113D01*
X0067408Y0025111D02*
X0068592Y0025111D01*
X0069005Y0026110D02*
X0066995Y0026110D01*
X0066308Y0027108D02*
X0069692Y0027108D01*
X0070993Y0028107D02*
X0065007Y0028107D01*
X0050993Y0028107D02*
X0044981Y0028107D01*
X0043484Y0028107D02*
X0042516Y0028107D01*
X0042516Y0027108D02*
X0043484Y0027108D01*
X0043484Y0026110D02*
X0042516Y0026110D01*
X0046308Y0027108D02*
X0049692Y0027108D01*
X0049005Y0026110D02*
X0046983Y0026110D01*
X0047351Y0025111D02*
X0048592Y0025111D01*
X0039023Y0022116D02*
X0036990Y0022116D01*
X0037404Y0023114D02*
X0038651Y0023114D01*
X0010550Y0030104D02*
X0256450Y0030104D01*
X0256450Y0031102D02*
X0010550Y0031102D01*
X0010550Y0032101D02*
X0256450Y0032101D01*
X0256450Y0033099D02*
X0010550Y0033099D01*
X0010550Y0042086D02*
X0256450Y0042086D01*
X0256450Y0043084D02*
X0065828Y0043084D01*
X0066702Y0044083D02*
X0170769Y0044083D01*
X0170886Y0044034D02*
X0172113Y0044034D01*
X0173247Y0044504D01*
X0174115Y0045372D01*
X0174584Y0046505D01*
X0174584Y0047732D01*
X0174115Y0048866D01*
X0173247Y0049733D01*
X0172113Y0050203D01*
X0170886Y0050203D01*
X0169753Y0049733D01*
X0168885Y0048866D01*
X0168416Y0047732D01*
X0168416Y0046505D01*
X0168885Y0045372D01*
X0169753Y0044504D01*
X0170886Y0044034D01*
X0172231Y0044083D02*
X0256450Y0044083D01*
X0256450Y0045081D02*
X0218727Y0045081D01*
X0218613Y0045034D02*
X0219747Y0045504D01*
X0220615Y0046372D01*
X0221084Y0047505D01*
X0221084Y0048732D01*
X0220615Y0049866D01*
X0219747Y0050733D01*
X0218613Y0051203D01*
X0217386Y0051203D01*
X0216253Y0050733D01*
X0215385Y0049866D01*
X0214916Y0048732D01*
X0214916Y0047505D01*
X0215385Y0046372D01*
X0216253Y0045504D01*
X0217386Y0045034D01*
X0218613Y0045034D01*
X0217273Y0045081D02*
X0173825Y0045081D01*
X0174408Y0046080D02*
X0215677Y0046080D01*
X0215092Y0047078D02*
X0174584Y0047078D01*
X0174441Y0048077D02*
X0214916Y0048077D01*
X0215058Y0049076D02*
X0173905Y0049076D01*
X0172425Y0050074D02*
X0215594Y0050074D01*
X0217072Y0051073D02*
X0064905Y0051073D01*
X0065084Y0052071D02*
X0256450Y0052071D01*
X0256450Y0051073D02*
X0218928Y0051073D01*
X0220406Y0050074D02*
X0256450Y0050074D01*
X0256450Y0049076D02*
X0220942Y0049076D01*
X0221084Y0048077D02*
X0256450Y0048077D01*
X0256450Y0047078D02*
X0220907Y0047078D01*
X0220323Y0046080D02*
X0256450Y0046080D01*
X0248000Y0046119D02*
X0248000Y0049119D01*
X0256450Y0053070D02*
X0064945Y0053070D01*
X0064412Y0054068D02*
X0088189Y0054068D01*
X0088253Y0054004D02*
X0089386Y0053534D01*
X0090613Y0053534D01*
X0091747Y0054004D01*
X0092615Y0054872D01*
X0093084Y0056005D01*
X0093084Y0057232D01*
X0092615Y0058366D01*
X0091747Y0059233D01*
X0090613Y0059703D01*
X0089386Y0059703D01*
X0088253Y0059233D01*
X0087385Y0058366D01*
X0086916Y0057232D01*
X0086916Y0056005D01*
X0087385Y0054872D01*
X0088253Y0054004D01*
X0087305Y0055067D02*
X0062943Y0055067D01*
X0061057Y0055067D02*
X0050943Y0055067D01*
X0052412Y0054068D02*
X0059588Y0054068D01*
X0059055Y0053070D02*
X0052945Y0053070D01*
X0053084Y0052071D02*
X0058916Y0052071D01*
X0059095Y0051073D02*
X0052905Y0051073D01*
X0052317Y0050074D02*
X0059683Y0050074D01*
X0062713Y0049076D02*
X0078765Y0049076D01*
X0078885Y0049366D02*
X0078416Y0048232D01*
X0078416Y0047005D01*
X0078885Y0045872D01*
X0079753Y0045004D01*
X0080886Y0044534D01*
X0082113Y0044534D01*
X0083247Y0045004D01*
X0084115Y0045872D01*
X0084584Y0047005D01*
X0084584Y0048232D01*
X0084115Y0049366D01*
X0083247Y0050233D01*
X0082113Y0050703D01*
X0080886Y0050703D01*
X0079753Y0050233D01*
X0078885Y0049366D01*
X0079594Y0050074D02*
X0064317Y0050074D01*
X0065903Y0048077D02*
X0078416Y0048077D01*
X0078416Y0047078D02*
X0066734Y0047078D01*
X0067084Y0046080D02*
X0078799Y0046080D01*
X0079675Y0045081D02*
X0067084Y0045081D01*
X0083325Y0045081D02*
X0169175Y0045081D01*
X0168592Y0046080D02*
X0084201Y0046080D01*
X0084584Y0047078D02*
X0168416Y0047078D01*
X0168559Y0048077D02*
X0084584Y0048077D01*
X0084235Y0049076D02*
X0169095Y0049076D01*
X0170575Y0050074D02*
X0083406Y0050074D01*
X0091811Y0054068D02*
X0256450Y0054068D01*
X0256450Y0055067D02*
X0218691Y0055067D01*
X0218613Y0055034D02*
X0219747Y0055504D01*
X0220615Y0056372D01*
X0221084Y0057505D01*
X0221084Y0058732D01*
X0220615Y0059866D01*
X0219747Y0060733D01*
X0218817Y0061119D01*
X0219747Y0061504D01*
X0220615Y0062372D01*
X0221084Y0063505D01*
X0221084Y0064732D01*
X0220615Y0065866D01*
X0219747Y0066733D01*
X0218817Y0067119D01*
X0219747Y0067504D01*
X0220615Y0068372D01*
X0221084Y0069505D01*
X0221084Y0070732D01*
X0220615Y0071866D01*
X0219747Y0072733D01*
X0218613Y0073203D01*
X0217386Y0073203D01*
X0216253Y0072733D01*
X0215385Y0071866D01*
X0214916Y0070732D01*
X0214916Y0069505D01*
X0215385Y0068372D01*
X0216253Y0067504D01*
X0217183Y0067119D01*
X0216253Y0066733D01*
X0215385Y0065866D01*
X0214916Y0064732D01*
X0214916Y0063505D01*
X0215385Y0062372D01*
X0216253Y0061504D01*
X0217183Y0061119D01*
X0216253Y0060733D01*
X0215385Y0059866D01*
X0214916Y0058732D01*
X0214916Y0057505D01*
X0215385Y0056372D01*
X0216253Y0055504D01*
X0217386Y0055034D01*
X0218613Y0055034D01*
X0217309Y0055067D02*
X0092695Y0055067D01*
X0093084Y0056065D02*
X0215692Y0056065D01*
X0215099Y0057064D02*
X0093084Y0057064D01*
X0092740Y0058062D02*
X0214916Y0058062D01*
X0215052Y0059061D02*
X0091920Y0059061D01*
X0088080Y0059061D02*
X0073900Y0059061D01*
X0074084Y0059505D02*
X0073615Y0058372D01*
X0072747Y0057504D01*
X0071613Y0057034D01*
X0070386Y0057034D01*
X0069253Y0057504D01*
X0068385Y0058372D01*
X0067916Y0059505D01*
X0067916Y0060732D01*
X0068385Y0061866D01*
X0069253Y0062733D01*
X0070386Y0063203D01*
X0071613Y0063203D01*
X0072747Y0062733D01*
X0073615Y0061866D01*
X0074084Y0060732D01*
X0074084Y0059505D01*
X0074084Y0060059D02*
X0215579Y0060059D01*
X0217036Y0061058D02*
X0073949Y0061058D01*
X0073424Y0062056D02*
X0215701Y0062056D01*
X0215102Y0063055D02*
X0071971Y0063055D01*
X0071386Y0063534D02*
X0072613Y0063534D01*
X0073747Y0064004D01*
X0074615Y0064872D01*
X0075084Y0066005D01*
X0075084Y0067232D01*
X0074615Y0068366D01*
X0073747Y0069233D01*
X0072613Y0069703D01*
X0071386Y0069703D01*
X0070253Y0069233D01*
X0069385Y0068366D01*
X0068916Y0067232D01*
X0068916Y0066005D01*
X0069385Y0064872D01*
X0070253Y0064004D01*
X0071386Y0063534D01*
X0070204Y0064053D02*
X0046975Y0064053D01*
X0046613Y0064203D02*
X0045386Y0064203D01*
X0044253Y0063733D01*
X0043385Y0062866D01*
X0042916Y0061732D01*
X0042916Y0060505D01*
X0043385Y0059372D01*
X0044253Y0058504D01*
X0045386Y0058034D01*
X0046613Y0058034D01*
X0047747Y0058504D01*
X0048615Y0059372D01*
X0049084Y0060505D01*
X0049084Y0061732D01*
X0048615Y0062866D01*
X0047747Y0063733D01*
X0046613Y0064203D01*
X0046613Y0065034D02*
X0047747Y0065504D01*
X0048615Y0066372D01*
X0049084Y0067505D01*
X0049084Y0068732D01*
X0048615Y0069866D01*
X0047747Y0070733D01*
X0046613Y0071203D01*
X0045386Y0071203D01*
X0044253Y0070733D01*
X0043385Y0069866D01*
X0042916Y0068732D01*
X0042916Y0067505D01*
X0043385Y0066372D01*
X0044253Y0065504D01*
X0045386Y0065034D01*
X0046613Y0065034D01*
X0046655Y0065052D02*
X0069311Y0065052D01*
X0068916Y0066050D02*
X0048293Y0066050D01*
X0048895Y0067049D02*
X0068916Y0067049D01*
X0069253Y0068047D02*
X0049084Y0068047D01*
X0048954Y0069046D02*
X0070065Y0069046D01*
X0073935Y0069046D02*
X0154106Y0069046D01*
X0153916Y0069505D02*
X0154385Y0068372D01*
X0155253Y0067504D01*
X0156386Y0067034D01*
X0157613Y0067034D01*
X0158747Y0067504D01*
X0159615Y0068372D01*
X0160084Y0069505D01*
X0160084Y0070732D01*
X0159908Y0071157D01*
X0160747Y0071504D01*
X0161615Y0072372D01*
X0162084Y0073505D01*
X0162084Y0074732D01*
X0161615Y0075866D01*
X0160862Y0076619D01*
X0161615Y0077372D01*
X0162084Y0078505D01*
X0162084Y0079732D01*
X0161615Y0080866D01*
X0160747Y0081733D01*
X0159613Y0082203D01*
X0158386Y0082203D01*
X0157253Y0081733D01*
X0156385Y0080866D01*
X0155916Y0079732D01*
X0155916Y0078505D01*
X0156385Y0077372D01*
X0157138Y0076619D01*
X0156385Y0075866D01*
X0155916Y0074732D01*
X0155916Y0073505D01*
X0156092Y0073081D01*
X0155253Y0072733D01*
X0154385Y0071866D01*
X0153916Y0070732D01*
X0153916Y0069505D01*
X0153916Y0070044D02*
X0048436Y0070044D01*
X0047000Y0071043D02*
X0078366Y0071043D01*
X0078386Y0071034D02*
X0079613Y0071034D01*
X0080747Y0071504D01*
X0081615Y0072372D01*
X0082084Y0073505D01*
X0082084Y0074732D01*
X0081615Y0075866D01*
X0080747Y0076733D01*
X0079613Y0077203D01*
X0078386Y0077203D01*
X0077253Y0076733D01*
X0076385Y0075866D01*
X0075916Y0074732D01*
X0075916Y0073505D01*
X0076385Y0072372D01*
X0077253Y0071504D01*
X0078386Y0071034D01*
X0079634Y0071043D02*
X0154044Y0071043D01*
X0154561Y0072041D02*
X0081284Y0072041D01*
X0081891Y0073040D02*
X0155993Y0073040D01*
X0155916Y0074038D02*
X0082084Y0074038D01*
X0081958Y0075037D02*
X0156042Y0075037D01*
X0156555Y0076035D02*
X0081445Y0076035D01*
X0080022Y0077034D02*
X0156723Y0077034D01*
X0156112Y0078032D02*
X0051960Y0078032D01*
X0052084Y0077732D02*
X0051615Y0078866D01*
X0050747Y0079733D01*
X0049613Y0080203D01*
X0048386Y0080203D01*
X0047253Y0079733D01*
X0046385Y0078866D01*
X0045916Y0077732D01*
X0045916Y0076505D01*
X0046385Y0075372D01*
X0047253Y0074504D01*
X0048386Y0074034D01*
X0049613Y0074034D01*
X0050747Y0074504D01*
X0051615Y0075372D01*
X0052084Y0076505D01*
X0052084Y0077732D01*
X0052084Y0077034D02*
X0077978Y0077034D01*
X0076555Y0076035D02*
X0051890Y0076035D01*
X0051280Y0075037D02*
X0076042Y0075037D01*
X0075916Y0074038D02*
X0049623Y0074038D01*
X0048377Y0074038D02*
X0010550Y0074038D01*
X0010550Y0073040D02*
X0076109Y0073040D01*
X0076716Y0072041D02*
X0010550Y0072041D01*
X0010550Y0071043D02*
X0045000Y0071043D01*
X0043564Y0070044D02*
X0010550Y0070044D01*
X0010550Y0069046D02*
X0043046Y0069046D01*
X0042916Y0068047D02*
X0010550Y0068047D01*
X0010550Y0067049D02*
X0043105Y0067049D01*
X0043707Y0066050D02*
X0010550Y0066050D01*
X0010550Y0065052D02*
X0045345Y0065052D01*
X0045025Y0064053D02*
X0010550Y0064053D01*
X0010550Y0063055D02*
X0043574Y0063055D01*
X0043050Y0062056D02*
X0010550Y0062056D01*
X0010550Y0061058D02*
X0042916Y0061058D01*
X0043100Y0060059D02*
X0010550Y0060059D01*
X0010550Y0059061D02*
X0043696Y0059061D01*
X0045320Y0058062D02*
X0017521Y0058062D01*
X0017699Y0057960D02*
X0017699Y0057960D01*
X0017699Y0057960D01*
X0018216Y0057064D02*
X0070316Y0057064D01*
X0071684Y0057064D02*
X0086916Y0057064D01*
X0086916Y0056065D02*
X0018370Y0056065D01*
X0018145Y0055067D02*
X0049057Y0055067D01*
X0047588Y0054068D02*
X0017309Y0054068D01*
X0017699Y0054294D02*
X0017699Y0054294D01*
X0027000Y0049119D02*
X0027000Y0048119D01*
X0046000Y0054119D02*
X0047000Y0054119D01*
X0046680Y0058062D02*
X0068695Y0058062D01*
X0068100Y0059061D02*
X0048304Y0059061D01*
X0048899Y0060059D02*
X0067916Y0060059D01*
X0068051Y0061058D02*
X0049084Y0061058D01*
X0048950Y0062056D02*
X0068576Y0062056D01*
X0070029Y0063055D02*
X0048426Y0063055D01*
X0046000Y0073119D02*
X0046000Y0074119D01*
X0046720Y0075037D02*
X0010550Y0075037D01*
X0010550Y0076035D02*
X0046110Y0076035D01*
X0045916Y0077034D02*
X0010550Y0077034D01*
X0010550Y0078032D02*
X0046040Y0078032D01*
X0046550Y0079031D02*
X0010550Y0079031D01*
X0010550Y0080029D02*
X0011708Y0080029D01*
X0011277Y0080278D02*
X0012439Y0079607D01*
X0016537Y0079607D01*
X0017699Y0080278D01*
X0018370Y0081440D01*
X0018370Y0082782D01*
X0017699Y0083944D01*
X0016537Y0084615D01*
X0016496Y0084615D01*
X0012439Y0084615D01*
X0011277Y0083944D01*
X0010606Y0082782D01*
X0010606Y0081440D01*
X0011277Y0080278D01*
X0011277Y0080278D01*
X0011277Y0080278D01*
X0010844Y0081028D02*
X0010550Y0081028D01*
X0010550Y0082026D02*
X0010606Y0082026D01*
X0010550Y0083025D02*
X0010747Y0083025D01*
X0010550Y0084023D02*
X0011415Y0084023D01*
X0011277Y0083944D02*
X0011277Y0083944D01*
X0011277Y0083944D01*
X0010550Y0085022D02*
X0045116Y0085022D01*
X0044916Y0085505D02*
X0045385Y0084372D01*
X0046253Y0083504D01*
X0047386Y0083034D01*
X0048613Y0083034D01*
X0049747Y0083504D01*
X0050615Y0084372D01*
X0051084Y0085505D01*
X0051084Y0086732D01*
X0050615Y0087866D01*
X0049747Y0088733D01*
X0048613Y0089203D01*
X0047386Y0089203D01*
X0046253Y0088733D01*
X0045385Y0087866D01*
X0044916Y0086732D01*
X0044916Y0085505D01*
X0044916Y0086020D02*
X0010550Y0086020D01*
X0010550Y0087019D02*
X0045035Y0087019D01*
X0045537Y0088017D02*
X0010550Y0088017D01*
X0010550Y0089016D02*
X0046935Y0089016D01*
X0049065Y0089016D02*
X0200118Y0089016D01*
X0200000Y0089119D02*
X0199000Y0090119D01*
X0199916Y0090014D02*
X0122258Y0090014D01*
X0122615Y0090372D02*
X0121747Y0089504D01*
X0120613Y0089034D01*
X0119386Y0089034D01*
X0118253Y0089504D01*
X0117385Y0090372D01*
X0116916Y0091505D01*
X0116916Y0092732D01*
X0117385Y0093866D01*
X0118253Y0094733D01*
X0119386Y0095203D01*
X0119916Y0095203D01*
X0119916Y0095732D01*
X0120385Y0096866D01*
X0121253Y0097733D01*
X0122386Y0098203D01*
X0123613Y0098203D01*
X0124747Y0097733D01*
X0125615Y0096866D01*
X0126084Y0095732D01*
X0126084Y0094505D01*
X0125615Y0093372D01*
X0124747Y0092504D01*
X0123613Y0092034D01*
X0123084Y0092034D01*
X0123084Y0091505D01*
X0122615Y0090372D01*
X0122880Y0091013D02*
X0200032Y0091013D01*
X0199916Y0090732D02*
X0199916Y0089505D01*
X0200385Y0088372D01*
X0201253Y0087504D01*
X0202386Y0087034D01*
X0203613Y0087034D01*
X0204747Y0087504D01*
X0205615Y0088372D01*
X0206084Y0089505D01*
X0206084Y0090732D01*
X0205615Y0091866D01*
X0204747Y0092733D01*
X0203613Y0093203D01*
X0202386Y0093203D01*
X0201253Y0092733D01*
X0200385Y0091866D01*
X0199916Y0090732D01*
X0200531Y0092011D02*
X0123084Y0092011D01*
X0125253Y0093010D02*
X0184747Y0093010D01*
X0184385Y0093372D02*
X0185253Y0092504D01*
X0186386Y0092034D01*
X0187613Y0092034D01*
X0188747Y0092504D01*
X0189615Y0093372D01*
X0190084Y0094505D01*
X0190084Y0095732D01*
X0189615Y0096866D01*
X0188747Y0097733D01*
X0187613Y0098203D01*
X0186386Y0098203D01*
X0185253Y0097733D01*
X0184385Y0096866D01*
X0183916Y0095732D01*
X0183916Y0094505D01*
X0184385Y0093372D01*
X0184121Y0094009D02*
X0162752Y0094009D01*
X0162747Y0094004D02*
X0163615Y0094872D01*
X0164084Y0096005D01*
X0164084Y0097232D01*
X0163615Y0098366D01*
X0162747Y0099233D01*
X0161613Y0099703D01*
X0160386Y0099703D01*
X0159253Y0099233D01*
X0158385Y0098366D01*
X0157916Y0097232D01*
X0157916Y0096005D01*
X0158385Y0094872D01*
X0159253Y0094004D01*
X0160386Y0093534D01*
X0161613Y0093534D01*
X0162747Y0094004D01*
X0163671Y0095007D02*
X0183916Y0095007D01*
X0184029Y0096006D02*
X0164084Y0096006D01*
X0164084Y0097004D02*
X0184524Y0097004D01*
X0185903Y0098003D02*
X0163765Y0098003D01*
X0162979Y0099001D02*
X0256450Y0099001D01*
X0256450Y0098003D02*
X0188097Y0098003D01*
X0189476Y0097004D02*
X0256450Y0097004D01*
X0256450Y0096006D02*
X0227090Y0096006D01*
X0226613Y0096203D02*
X0225386Y0096203D01*
X0224253Y0095733D01*
X0223385Y0094866D01*
X0222916Y0093732D01*
X0222916Y0092505D01*
X0223385Y0091372D01*
X0224253Y0090504D01*
X0225386Y0090034D01*
X0226613Y0090034D01*
X0227747Y0090504D01*
X0228615Y0091372D01*
X0229084Y0092505D01*
X0229084Y0093732D01*
X0228615Y0094866D01*
X0227747Y0095733D01*
X0226613Y0096203D01*
X0224910Y0096006D02*
X0189971Y0096006D01*
X0190084Y0095007D02*
X0223527Y0095007D01*
X0223030Y0094009D02*
X0189879Y0094009D01*
X0189253Y0093010D02*
X0201921Y0093010D01*
X0204079Y0093010D02*
X0222916Y0093010D01*
X0223120Y0092011D02*
X0205469Y0092011D01*
X0205968Y0091013D02*
X0223744Y0091013D01*
X0228256Y0091013D02*
X0256450Y0091013D01*
X0256450Y0092011D02*
X0228880Y0092011D01*
X0229084Y0093010D02*
X0256450Y0093010D01*
X0256450Y0094009D02*
X0228970Y0094009D01*
X0228473Y0095007D02*
X0256450Y0095007D01*
X0256450Y0090014D02*
X0206084Y0090014D01*
X0205882Y0089016D02*
X0256450Y0089016D01*
X0256450Y0088017D02*
X0205261Y0088017D01*
X0200739Y0088017D02*
X0050463Y0088017D01*
X0050965Y0087019D02*
X0256450Y0087019D01*
X0256450Y0086020D02*
X0051084Y0086020D01*
X0050884Y0085022D02*
X0256450Y0085022D01*
X0256450Y0084023D02*
X0088047Y0084023D01*
X0087613Y0084203D02*
X0086386Y0084203D01*
X0085253Y0083733D01*
X0084385Y0082866D01*
X0083916Y0081732D01*
X0083916Y0080505D01*
X0084385Y0079372D01*
X0085253Y0078504D01*
X0086386Y0078034D01*
X0087613Y0078034D01*
X0088747Y0078504D01*
X0089615Y0079372D01*
X0090084Y0080505D01*
X0090084Y0081732D01*
X0089615Y0082866D01*
X0088747Y0083733D01*
X0087613Y0084203D01*
X0085953Y0084023D02*
X0050267Y0084023D01*
X0045733Y0084023D02*
X0017561Y0084023D01*
X0017699Y0083944D02*
X0017699Y0083944D01*
X0017699Y0083944D01*
X0018230Y0083025D02*
X0084544Y0083025D01*
X0084038Y0082026D02*
X0018370Y0082026D01*
X0018132Y0081028D02*
X0083916Y0081028D01*
X0084113Y0080029D02*
X0050033Y0080029D01*
X0051450Y0079031D02*
X0084726Y0079031D01*
X0089274Y0079031D02*
X0155916Y0079031D01*
X0156039Y0080029D02*
X0089887Y0080029D01*
X0090084Y0081028D02*
X0156547Y0081028D01*
X0157960Y0082026D02*
X0089962Y0082026D01*
X0091000Y0082119D02*
X0091000Y0081119D01*
X0089456Y0083025D02*
X0256450Y0083025D01*
X0256450Y0082026D02*
X0160040Y0082026D01*
X0161453Y0081028D02*
X0256450Y0081028D01*
X0256450Y0080029D02*
X0161961Y0080029D01*
X0162084Y0079031D02*
X0256450Y0079031D01*
X0256450Y0078032D02*
X0161888Y0078032D01*
X0161277Y0077034D02*
X0167978Y0077034D01*
X0168386Y0077203D02*
X0167253Y0076733D01*
X0166385Y0075866D01*
X0165916Y0074732D01*
X0165916Y0073505D01*
X0166385Y0072372D01*
X0167253Y0071504D01*
X0168386Y0071034D01*
X0169613Y0071034D01*
X0170747Y0071504D01*
X0171615Y0072372D01*
X0172084Y0073505D01*
X0172084Y0074732D01*
X0171615Y0075866D01*
X0170747Y0076733D01*
X0169613Y0077203D01*
X0168386Y0077203D01*
X0170022Y0077034D02*
X0256450Y0077034D01*
X0256450Y0076035D02*
X0171445Y0076035D01*
X0171958Y0075037D02*
X0256450Y0075037D01*
X0256450Y0074038D02*
X0172084Y0074038D01*
X0171891Y0073040D02*
X0216993Y0073040D01*
X0215561Y0072041D02*
X0171284Y0072041D01*
X0169634Y0071043D02*
X0215044Y0071043D01*
X0214916Y0070044D02*
X0160084Y0070044D01*
X0159956Y0071043D02*
X0168366Y0071043D01*
X0166716Y0072041D02*
X0161284Y0072041D01*
X0161891Y0073040D02*
X0166109Y0073040D01*
X0165916Y0074038D02*
X0162084Y0074038D01*
X0161958Y0075037D02*
X0166042Y0075037D01*
X0166555Y0076035D02*
X0161445Y0076035D01*
X0159894Y0069046D02*
X0215106Y0069046D01*
X0215710Y0068047D02*
X0159290Y0068047D01*
X0157648Y0067049D02*
X0217014Y0067049D01*
X0215570Y0066050D02*
X0075084Y0066050D01*
X0075084Y0067049D02*
X0156352Y0067049D01*
X0157000Y0067119D02*
X0157000Y0066119D01*
X0154710Y0068047D02*
X0074747Y0068047D01*
X0074689Y0065052D02*
X0215048Y0065052D01*
X0214916Y0064053D02*
X0073796Y0064053D01*
X0073305Y0058062D02*
X0087260Y0058062D01*
X0079000Y0056119D02*
X0079000Y0055119D01*
X0088000Y0072119D02*
X0088000Y0073119D01*
X0090000Y0072119D02*
X0090000Y0071619D01*
X0117742Y0090014D02*
X0010550Y0090014D01*
X0010550Y0091013D02*
X0117120Y0091013D01*
X0116916Y0092011D02*
X0010550Y0092011D01*
X0010550Y0093010D02*
X0117031Y0093010D01*
X0117528Y0094009D02*
X0030252Y0094009D01*
X0030615Y0094372D02*
X0031084Y0095505D01*
X0031084Y0096732D01*
X0030615Y0097866D01*
X0029747Y0098733D01*
X0028613Y0099203D01*
X0027386Y0099203D01*
X0026253Y0098733D01*
X0025385Y0097866D01*
X0024916Y0096732D01*
X0024916Y0095505D01*
X0025385Y0094372D01*
X0026253Y0093504D01*
X0027386Y0093034D01*
X0028613Y0093034D01*
X0029747Y0093504D01*
X0030615Y0094372D01*
X0030878Y0095007D02*
X0118914Y0095007D01*
X0120029Y0096006D02*
X0072749Y0096006D01*
X0072747Y0096004D02*
X0073615Y0096872D01*
X0074084Y0098005D01*
X0074084Y0099232D01*
X0073615Y0100366D01*
X0072747Y0101233D01*
X0071613Y0101703D01*
X0070386Y0101703D01*
X0069253Y0101233D01*
X0068385Y0100366D01*
X0067916Y0099232D01*
X0067916Y0098005D01*
X0068385Y0096872D01*
X0069253Y0096004D01*
X0070386Y0095534D01*
X0071613Y0095534D01*
X0072747Y0096004D01*
X0073670Y0097004D02*
X0120524Y0097004D01*
X0121903Y0098003D02*
X0074083Y0098003D01*
X0074084Y0099001D02*
X0159021Y0099001D01*
X0158235Y0098003D02*
X0124097Y0098003D01*
X0125476Y0097004D02*
X0157916Y0097004D01*
X0157916Y0096006D02*
X0125971Y0096006D01*
X0126084Y0095007D02*
X0158329Y0095007D01*
X0159248Y0094009D02*
X0125879Y0094009D01*
X0121613Y0103034D02*
X0120386Y0103034D01*
X0119253Y0103504D01*
X0118385Y0104372D01*
X0117916Y0105505D01*
X0117916Y0106732D01*
X0118385Y0107866D01*
X0119253Y0108733D01*
X0120386Y0109203D01*
X0121613Y0109203D01*
X0122747Y0108733D01*
X0123615Y0107866D01*
X0124084Y0106732D01*
X0124084Y0105505D01*
X0123615Y0104372D01*
X0122747Y0103504D01*
X0121613Y0103034D01*
X0123237Y0103994D02*
X0243763Y0103994D01*
X0243385Y0104372D02*
X0244253Y0103504D01*
X0245386Y0103034D01*
X0246613Y0103034D01*
X0247747Y0103504D01*
X0248615Y0104372D01*
X0249084Y0105505D01*
X0249084Y0106732D01*
X0248615Y0107866D01*
X0247747Y0108733D01*
X0246613Y0109203D01*
X0245386Y0109203D01*
X0244253Y0108733D01*
X0243385Y0107866D01*
X0242916Y0106732D01*
X0242916Y0105505D01*
X0243385Y0104372D01*
X0243128Y0104992D02*
X0123872Y0104992D01*
X0124084Y0105991D02*
X0242916Y0105991D01*
X0243022Y0106989D02*
X0123978Y0106989D01*
X0123493Y0107988D02*
X0243507Y0107988D01*
X0244863Y0108986D02*
X0122137Y0108986D01*
X0121345Y0109985D02*
X0114655Y0109985D01*
X0116162Y0110983D02*
X0119838Y0110983D01*
X0119066Y0111982D02*
X0116934Y0111982D01*
X0117348Y0112980D02*
X0118652Y0112980D01*
X0118547Y0113979D02*
X0117453Y0113979D01*
X0117453Y0114977D02*
X0118547Y0114977D01*
X0118950Y0115976D02*
X0117050Y0115976D01*
X0108950Y0115976D02*
X0107050Y0115976D01*
X0107453Y0114977D02*
X0108547Y0114977D01*
X0108547Y0113979D02*
X0107453Y0113979D01*
X0107348Y0112980D02*
X0108652Y0112980D01*
X0109066Y0111982D02*
X0106934Y0111982D01*
X0106162Y0110983D02*
X0109838Y0110983D01*
X0111345Y0109985D02*
X0104655Y0109985D01*
X0101345Y0109985D02*
X0094655Y0109985D01*
X0096162Y0110983D02*
X0099838Y0110983D01*
X0099066Y0111982D02*
X0096934Y0111982D01*
X0097348Y0112980D02*
X0098652Y0112980D01*
X0098547Y0113979D02*
X0097453Y0113979D01*
X0097453Y0114977D02*
X0098547Y0114977D01*
X0098950Y0115976D02*
X0097050Y0115976D01*
X0088950Y0115976D02*
X0087050Y0115976D01*
X0087453Y0114977D02*
X0088547Y0114977D01*
X0088547Y0113979D02*
X0087453Y0113979D01*
X0087348Y0112980D02*
X0088652Y0112980D01*
X0089066Y0111982D02*
X0086934Y0111982D01*
X0086162Y0110983D02*
X0089838Y0110983D01*
X0091345Y0109985D02*
X0084655Y0109985D01*
X0081345Y0109985D02*
X0074655Y0109985D01*
X0076162Y0110983D02*
X0079838Y0110983D01*
X0079066Y0111982D02*
X0076934Y0111982D01*
X0077348Y0112980D02*
X0078652Y0112980D01*
X0078547Y0113979D02*
X0077453Y0113979D01*
X0077453Y0114977D02*
X0078547Y0114977D01*
X0078950Y0115976D02*
X0077050Y0115976D01*
X0068950Y0115976D02*
X0067050Y0115976D01*
X0067453Y0114977D02*
X0068547Y0114977D01*
X0068547Y0113979D02*
X0067453Y0113979D01*
X0067348Y0112980D02*
X0068652Y0112980D01*
X0069066Y0111982D02*
X0066934Y0111982D01*
X0066162Y0110983D02*
X0069838Y0110983D01*
X0071345Y0109985D02*
X0064655Y0109985D01*
X0061345Y0109985D02*
X0054655Y0109985D01*
X0056162Y0110983D02*
X0059838Y0110983D01*
X0059066Y0111982D02*
X0056934Y0111982D01*
X0057348Y0112980D02*
X0058652Y0112980D01*
X0058547Y0113979D02*
X0057453Y0113979D01*
X0057453Y0114977D02*
X0058547Y0114977D01*
X0058950Y0115976D02*
X0057050Y0115976D01*
X0048950Y0115976D02*
X0047051Y0115976D01*
X0047372Y0114977D02*
X0048547Y0114977D01*
X0048547Y0113979D02*
X0043484Y0113979D01*
X0042516Y0113979D02*
X0037453Y0113979D01*
X0037453Y0114977D02*
X0038628Y0114977D01*
X0038949Y0115976D02*
X0037050Y0115976D01*
X0038568Y0113634D02*
X0038657Y0113076D01*
X0038873Y0112409D01*
X0039192Y0111785D01*
X0039604Y0111218D01*
X0040099Y0110722D01*
X0040666Y0110310D01*
X0041291Y0109992D01*
X0041957Y0109776D01*
X0042516Y0109687D01*
X0042516Y0113634D01*
X0038568Y0113634D01*
X0038688Y0112980D02*
X0037348Y0112980D01*
X0036934Y0111982D02*
X0039091Y0111982D01*
X0039838Y0110983D02*
X0036162Y0110983D01*
X0034655Y0109985D02*
X0041314Y0109985D01*
X0042516Y0109985D02*
X0043484Y0109985D01*
X0043484Y0110983D02*
X0042516Y0110983D01*
X0042516Y0111982D02*
X0043484Y0111982D01*
X0043484Y0112980D02*
X0042516Y0112980D01*
X0046162Y0110983D02*
X0049838Y0110983D01*
X0049066Y0111982D02*
X0046909Y0111982D01*
X0047312Y0112980D02*
X0048652Y0112980D01*
X0051345Y0109985D02*
X0044686Y0109985D01*
X0045753Y0107233D02*
X0044885Y0106366D01*
X0044416Y0105232D01*
X0044416Y0104005D01*
X0044885Y0102872D01*
X0045753Y0102004D01*
X0046886Y0101534D01*
X0048113Y0101534D01*
X0049247Y0102004D01*
X0050115Y0102872D01*
X0050584Y0104005D01*
X0050584Y0105232D01*
X0050115Y0106366D01*
X0049247Y0107233D01*
X0048113Y0107703D01*
X0046886Y0107703D01*
X0045753Y0107233D01*
X0045509Y0106989D02*
X0031870Y0106989D01*
X0032084Y0107988D02*
X0118507Y0107988D01*
X0118022Y0106989D02*
X0057130Y0106989D01*
X0056613Y0107203D02*
X0057747Y0106733D01*
X0058615Y0105866D01*
X0059084Y0104732D01*
X0059084Y0103505D01*
X0058615Y0102372D01*
X0057747Y0101504D01*
X0056613Y0101034D01*
X0055386Y0101034D01*
X0054253Y0101504D01*
X0053385Y0102372D01*
X0052916Y0103505D01*
X0052916Y0104732D01*
X0053385Y0105866D01*
X0054253Y0106733D01*
X0055386Y0107203D01*
X0056613Y0107203D01*
X0054870Y0106989D02*
X0049491Y0106989D01*
X0050270Y0105991D02*
X0053510Y0105991D01*
X0053023Y0104992D02*
X0050584Y0104992D01*
X0050579Y0103994D02*
X0052916Y0103994D01*
X0053127Y0102995D02*
X0050166Y0102995D01*
X0049229Y0101997D02*
X0053760Y0101997D01*
X0058240Y0101997D02*
X0061025Y0101997D01*
X0060916Y0101732D02*
X0060916Y0100505D01*
X0061385Y0099372D01*
X0062253Y0098504D01*
X0063386Y0098034D01*
X0064613Y0098034D01*
X0065747Y0098504D01*
X0066615Y0099372D01*
X0067084Y0100505D01*
X0067084Y0101732D01*
X0066615Y0102866D01*
X0065747Y0103733D01*
X0064613Y0104203D01*
X0063386Y0104203D01*
X0062253Y0103733D01*
X0061385Y0102866D01*
X0060916Y0101732D01*
X0060916Y0100998D02*
X0010550Y0100998D01*
X0010550Y0100000D02*
X0061125Y0100000D01*
X0061756Y0099001D02*
X0029101Y0099001D01*
X0030478Y0098003D02*
X0067917Y0098003D01*
X0067916Y0099001D02*
X0066244Y0099001D01*
X0066875Y0100000D02*
X0068234Y0100000D01*
X0069018Y0100998D02*
X0067084Y0100998D01*
X0066975Y0101997D02*
X0087126Y0101997D01*
X0086916Y0102505D02*
X0087385Y0101372D01*
X0088253Y0100504D01*
X0089386Y0100034D01*
X0090613Y0100034D01*
X0091747Y0100504D01*
X0092615Y0101372D01*
X0093084Y0102505D01*
X0093084Y0103732D01*
X0092615Y0104866D01*
X0091747Y0105733D01*
X0090613Y0106203D01*
X0089386Y0106203D01*
X0088253Y0105733D01*
X0087385Y0104866D01*
X0086916Y0103732D01*
X0086916Y0102505D01*
X0086916Y0102995D02*
X0066485Y0102995D01*
X0065119Y0103994D02*
X0087024Y0103994D01*
X0087512Y0104992D02*
X0058977Y0104992D01*
X0059084Y0103994D02*
X0062881Y0103994D01*
X0061515Y0102995D02*
X0058873Y0102995D01*
X0058490Y0105991D02*
X0088874Y0105991D01*
X0091126Y0105991D02*
X0117916Y0105991D01*
X0118128Y0104992D02*
X0092488Y0104992D01*
X0092976Y0103994D02*
X0118763Y0103994D01*
X0119863Y0108986D02*
X0031979Y0108986D01*
X0031234Y0105991D02*
X0044730Y0105991D01*
X0044416Y0104992D02*
X0026584Y0104992D01*
X0026584Y0105232D02*
X0026115Y0106366D01*
X0025247Y0107233D01*
X0024113Y0107703D01*
X0022886Y0107703D01*
X0021753Y0107233D01*
X0020885Y0106366D01*
X0020416Y0105232D01*
X0020416Y0104005D01*
X0020885Y0102872D01*
X0021753Y0102004D01*
X0022886Y0101534D01*
X0024113Y0101534D01*
X0025247Y0102004D01*
X0026115Y0102872D01*
X0026584Y0104005D01*
X0026584Y0105232D01*
X0026766Y0105991D02*
X0026270Y0105991D01*
X0026129Y0106989D02*
X0025491Y0106989D01*
X0025916Y0107988D02*
X0010550Y0107988D01*
X0010550Y0108986D02*
X0026021Y0108986D01*
X0026504Y0109985D02*
X0024655Y0109985D01*
X0026162Y0110983D02*
X0027856Y0110983D01*
X0026934Y0111982D02*
X0029066Y0111982D01*
X0028652Y0112980D02*
X0027348Y0112980D01*
X0027453Y0113979D02*
X0028547Y0113979D01*
X0028547Y0114977D02*
X0027453Y0114977D01*
X0027050Y0115976D02*
X0028950Y0115976D01*
X0018950Y0115976D02*
X0017050Y0115976D01*
X0017453Y0114977D02*
X0018547Y0114977D01*
X0018547Y0113979D02*
X0017453Y0113979D01*
X0017348Y0112980D02*
X0018652Y0112980D01*
X0019066Y0111982D02*
X0016934Y0111982D01*
X0016162Y0110983D02*
X0019838Y0110983D01*
X0021345Y0109985D02*
X0014655Y0109985D01*
X0011345Y0109985D02*
X0010550Y0109985D01*
X0010550Y0106989D02*
X0021509Y0106989D01*
X0020730Y0105991D02*
X0010550Y0105991D01*
X0010550Y0104992D02*
X0020416Y0104992D01*
X0020421Y0103994D02*
X0010550Y0103994D01*
X0010550Y0102995D02*
X0020834Y0102995D01*
X0021771Y0101997D02*
X0010550Y0101997D01*
X0012000Y0101119D02*
X0012000Y0100119D01*
X0010550Y0099001D02*
X0026899Y0099001D01*
X0025522Y0098003D02*
X0010550Y0098003D01*
X0010550Y0097004D02*
X0025028Y0097004D01*
X0024916Y0096006D02*
X0010550Y0096006D01*
X0010550Y0095007D02*
X0025122Y0095007D01*
X0025748Y0094009D02*
X0010550Y0094009D01*
X0025229Y0101997D02*
X0045771Y0101997D01*
X0044834Y0102995D02*
X0026166Y0102995D01*
X0026579Y0103994D02*
X0044421Y0103994D01*
X0030972Y0097004D02*
X0068330Y0097004D01*
X0069251Y0096006D02*
X0031084Y0096006D01*
X0030000Y0087119D02*
X0029000Y0087119D01*
X0017699Y0080278D02*
X0017699Y0080278D01*
X0017699Y0080278D01*
X0017269Y0080029D02*
X0047967Y0080029D01*
X0058000Y0089119D02*
X0059000Y0089119D01*
X0073766Y0100000D02*
X0256450Y0100000D01*
X0256450Y0100998D02*
X0092241Y0100998D01*
X0092874Y0101997D02*
X0256450Y0101997D01*
X0256450Y0102995D02*
X0093084Y0102995D01*
X0087759Y0100998D02*
X0072982Y0100998D01*
X0124655Y0109985D02*
X0131345Y0109985D01*
X0129838Y0110983D02*
X0126162Y0110983D01*
X0126934Y0111982D02*
X0129066Y0111982D01*
X0128652Y0112980D02*
X0127348Y0112980D01*
X0127453Y0113979D02*
X0128547Y0113979D01*
X0128547Y0114977D02*
X0127453Y0114977D01*
X0127050Y0115976D02*
X0128950Y0115976D01*
X0137050Y0115976D02*
X0138950Y0115976D01*
X0138547Y0114977D02*
X0137453Y0114977D01*
X0137453Y0113979D02*
X0138547Y0113979D01*
X0138652Y0112980D02*
X0137348Y0112980D01*
X0136934Y0111982D02*
X0139066Y0111982D01*
X0139838Y0110983D02*
X0136162Y0110983D01*
X0134655Y0109985D02*
X0141345Y0109985D01*
X0144655Y0109985D02*
X0151345Y0109985D01*
X0149838Y0110983D02*
X0146162Y0110983D01*
X0146934Y0111982D02*
X0149066Y0111982D01*
X0148652Y0112980D02*
X0147348Y0112980D01*
X0147453Y0113979D02*
X0148547Y0113979D01*
X0148547Y0114977D02*
X0147453Y0114977D01*
X0147050Y0115976D02*
X0148950Y0115976D01*
X0157050Y0115976D02*
X0158950Y0115976D01*
X0158547Y0114977D02*
X0157453Y0114977D01*
X0157453Y0113979D02*
X0158547Y0113979D01*
X0158652Y0112980D02*
X0157348Y0112980D01*
X0156934Y0111982D02*
X0159066Y0111982D01*
X0159838Y0110983D02*
X0156162Y0110983D01*
X0154655Y0109985D02*
X0161345Y0109985D01*
X0164655Y0109985D02*
X0171345Y0109985D01*
X0169838Y0110983D02*
X0166162Y0110983D01*
X0166934Y0111982D02*
X0169066Y0111982D01*
X0168652Y0112980D02*
X0167348Y0112980D01*
X0167453Y0113979D02*
X0168547Y0113979D01*
X0168547Y0114977D02*
X0167453Y0114977D01*
X0167050Y0115976D02*
X0168950Y0115976D01*
X0177050Y0115976D02*
X0178950Y0115976D01*
X0178547Y0114977D02*
X0177453Y0114977D01*
X0177453Y0113979D02*
X0178547Y0113979D01*
X0178652Y0112980D02*
X0177348Y0112980D01*
X0176934Y0111982D02*
X0179066Y0111982D01*
X0179838Y0110983D02*
X0176162Y0110983D01*
X0174655Y0109985D02*
X0181345Y0109985D01*
X0184655Y0109985D02*
X0191345Y0109985D01*
X0189838Y0110983D02*
X0186162Y0110983D01*
X0186934Y0111982D02*
X0189066Y0111982D01*
X0188652Y0112980D02*
X0187348Y0112980D01*
X0187453Y0113979D02*
X0188547Y0113979D01*
X0188547Y0114977D02*
X0187453Y0114977D01*
X0187050Y0115976D02*
X0188950Y0115976D01*
X0197050Y0115976D02*
X0198950Y0115976D01*
X0198547Y0114977D02*
X0197453Y0114977D01*
X0197453Y0113979D02*
X0198547Y0113979D01*
X0198652Y0112980D02*
X0197348Y0112980D01*
X0196934Y0111982D02*
X0199066Y0111982D01*
X0199838Y0110983D02*
X0196162Y0110983D01*
X0194655Y0109985D02*
X0201345Y0109985D01*
X0204655Y0109985D02*
X0221314Y0109985D01*
X0221291Y0109992D02*
X0221957Y0109776D01*
X0222516Y0109687D01*
X0222516Y0113634D01*
X0218568Y0113634D01*
X0218657Y0113076D01*
X0218873Y0112409D01*
X0219192Y0111785D01*
X0219604Y0111218D01*
X0220099Y0110722D01*
X0220666Y0110310D01*
X0221291Y0109992D01*
X0222516Y0109985D02*
X0223484Y0109985D01*
X0223484Y0110983D02*
X0222516Y0110983D01*
X0222516Y0111982D02*
X0223484Y0111982D01*
X0223484Y0112980D02*
X0222516Y0112980D01*
X0222516Y0113979D02*
X0207453Y0113979D01*
X0207453Y0114977D02*
X0218628Y0114977D01*
X0218949Y0115976D02*
X0207050Y0115976D01*
X0207348Y0112980D02*
X0218688Y0112980D01*
X0219091Y0111982D02*
X0206934Y0111982D01*
X0206162Y0110983D02*
X0219838Y0110983D01*
X0223484Y0113979D02*
X0228547Y0113979D01*
X0228547Y0114977D02*
X0227372Y0114977D01*
X0227051Y0115976D02*
X0228950Y0115976D01*
X0237050Y0115976D02*
X0238950Y0115976D01*
X0238547Y0114977D02*
X0237453Y0114977D01*
X0237453Y0113979D02*
X0238547Y0113979D01*
X0238652Y0112980D02*
X0237348Y0112980D01*
X0236934Y0111982D02*
X0239066Y0111982D01*
X0239838Y0110983D02*
X0236162Y0110983D01*
X0234655Y0109985D02*
X0241345Y0109985D01*
X0244655Y0109985D02*
X0251345Y0109985D01*
X0249838Y0110983D02*
X0246162Y0110983D01*
X0246934Y0111982D02*
X0249066Y0111982D01*
X0248652Y0112980D02*
X0247348Y0112980D01*
X0247453Y0113979D02*
X0248547Y0113979D01*
X0248547Y0114977D02*
X0247453Y0114977D01*
X0247050Y0115976D02*
X0248950Y0115976D01*
X0256162Y0110983D02*
X0256450Y0110983D01*
X0256450Y0109985D02*
X0254655Y0109985D01*
X0256450Y0108986D02*
X0247137Y0108986D01*
X0248493Y0107988D02*
X0256450Y0107988D01*
X0256450Y0106989D02*
X0248978Y0106989D01*
X0249084Y0105991D02*
X0256450Y0105991D01*
X0256450Y0104992D02*
X0248872Y0104992D01*
X0248237Y0103994D02*
X0256450Y0103994D01*
X0231345Y0109985D02*
X0224686Y0109985D01*
X0226162Y0110983D02*
X0229838Y0110983D01*
X0229066Y0111982D02*
X0226909Y0111982D01*
X0227312Y0112980D02*
X0228652Y0112980D01*
X0169000Y0095119D02*
X0167000Y0095119D01*
X0219007Y0073040D02*
X0256450Y0073040D01*
X0256450Y0072041D02*
X0220439Y0072041D01*
X0220956Y0071043D02*
X0256450Y0071043D01*
X0256450Y0070044D02*
X0221084Y0070044D01*
X0220894Y0069046D02*
X0256450Y0069046D01*
X0256450Y0068047D02*
X0220290Y0068047D01*
X0218986Y0067049D02*
X0256450Y0067049D01*
X0256450Y0066050D02*
X0220430Y0066050D01*
X0220952Y0065052D02*
X0256450Y0065052D01*
X0256450Y0064053D02*
X0221084Y0064053D01*
X0220898Y0063055D02*
X0256450Y0063055D01*
X0256450Y0062056D02*
X0230968Y0062056D01*
X0230613Y0062203D02*
X0229386Y0062203D01*
X0228253Y0061733D01*
X0227385Y0060866D01*
X0226916Y0059732D01*
X0226916Y0058505D01*
X0227385Y0057372D01*
X0228253Y0056504D01*
X0229386Y0056034D01*
X0230613Y0056034D01*
X0231747Y0056504D01*
X0232615Y0057372D01*
X0233084Y0058505D01*
X0233084Y0059732D01*
X0232615Y0060866D01*
X0231747Y0061733D01*
X0230613Y0062203D01*
X0229032Y0062056D02*
X0220299Y0062056D01*
X0218964Y0061058D02*
X0227577Y0061058D01*
X0227051Y0060059D02*
X0220421Y0060059D01*
X0220948Y0059061D02*
X0226916Y0059061D01*
X0227099Y0058062D02*
X0221084Y0058062D01*
X0220901Y0057064D02*
X0227693Y0057064D01*
X0229312Y0056065D02*
X0220308Y0056065D01*
X0230688Y0056065D02*
X0256450Y0056065D01*
X0256450Y0057064D02*
X0232307Y0057064D01*
X0232901Y0058062D02*
X0256450Y0058062D01*
X0256450Y0059061D02*
X0233084Y0059061D01*
X0232949Y0060059D02*
X0256450Y0060059D01*
X0256450Y0061058D02*
X0232423Y0061058D01*
X0204000Y0053119D02*
X0199000Y0053119D01*
X0171500Y0058119D02*
X0170500Y0058119D01*
X0142500Y0049119D02*
X0141000Y0049119D01*
X0130893Y0041087D02*
X0256450Y0041087D01*
X0256450Y0040089D02*
X0131729Y0040089D01*
X0132084Y0039090D02*
X0256450Y0039090D01*
X0256450Y0038092D02*
X0132084Y0038092D01*
X0131707Y0037093D02*
X0256450Y0037093D01*
X0256450Y0036095D02*
X0130838Y0036095D01*
X0206990Y0022116D02*
X0219023Y0022116D01*
X0218651Y0023114D02*
X0207404Y0023114D01*
X0226977Y0022116D02*
X0229010Y0022116D01*
X0228596Y0023114D02*
X0227349Y0023114D01*
X0251000Y0084119D02*
X0253000Y0084119D01*
D14*
X0253000Y0084119D03*
X0226000Y0093119D03*
X0203000Y0090119D03*
X0199000Y0090119D03*
X0187000Y0095119D03*
X0167000Y0095119D03*
X0161000Y0096619D03*
X0125000Y0106119D03*
X0121000Y0106119D03*
X0123000Y0095119D03*
X0120000Y0092119D03*
X0091000Y0081119D03*
X0087000Y0081119D03*
X0071000Y0075119D03*
X0079000Y0074119D03*
X0090000Y0071619D03*
X0072000Y0066619D03*
X0071000Y0060119D03*
X0079000Y0055119D03*
X0090000Y0056619D03*
X0081500Y0047619D03*
X0064000Y0045619D03*
X0062000Y0052119D03*
X0056000Y0052119D03*
X0050000Y0052119D03*
X0046000Y0054119D03*
X0046000Y0061119D03*
X0046000Y0068119D03*
X0046000Y0073119D03*
X0049000Y0077119D03*
X0048000Y0086119D03*
X0059000Y0089119D03*
X0073000Y0088119D03*
X0071000Y0098619D03*
X0064000Y0101119D03*
X0056000Y0104119D03*
X0047500Y0104619D03*
X0029000Y0108119D03*
X0023500Y0104619D03*
X0012000Y0100119D03*
X0028000Y0096119D03*
X0030000Y0087119D03*
X0090000Y0103119D03*
X0159000Y0079119D03*
X0159000Y0074119D03*
X0157000Y0070119D03*
X0157000Y0066119D03*
X0171500Y0058119D03*
X0171500Y0047119D03*
X0142500Y0049119D03*
X0129000Y0038619D03*
X0125000Y0038119D03*
X0121000Y0038619D03*
X0070000Y0038119D03*
X0062000Y0038119D03*
X0027000Y0049119D03*
X0113000Y0068119D03*
X0129000Y0068119D03*
X0169000Y0074119D03*
X0204000Y0053119D03*
X0218000Y0058119D03*
X0230000Y0059119D03*
X0218000Y0064119D03*
X0218000Y0070119D03*
X0218000Y0048119D03*
X0248000Y0046119D03*
X0246000Y0106119D03*
M02*
