G75*
%MOIN*%
%OFA0B0*%
%FSLAX25Y25*%
%IPPOS*%
%LPD*%
%AMOC8*
5,1,8,0,0,1.08239X$1,22.5*
%
%ADD10C,0.00100*%
%ADD11C,0.00300*%
%ADD12C,0.01000*%
%ADD13C,0.00200*%
%ADD14C,0.00600*%
%ADD15R,0.00100X0.00050*%
%ADD16R,0.00550X0.00050*%
%ADD17R,0.00600X0.00050*%
%ADD18R,0.00700X0.00050*%
%ADD19R,0.00800X0.00050*%
%ADD20R,0.00850X0.00050*%
%ADD21R,0.00900X0.00050*%
%ADD22R,0.00950X0.00050*%
%ADD23R,0.01000X0.00050*%
%ADD24R,0.01050X0.00050*%
%ADD25R,0.01100X0.00050*%
%ADD26R,0.00650X0.00050*%
%ADD27R,0.00500X0.00050*%
%ADD28R,0.00050X0.00050*%
%ADD29R,0.00150X0.00050*%
%ADD30R,0.00250X0.00050*%
%ADD31R,0.00200X0.00050*%
%ADD32R,0.00350X0.00050*%
%ADD33R,0.00300X0.00050*%
%ADD34R,0.00450X0.00050*%
%ADD35R,0.01150X0.00050*%
%ADD36R,0.01250X0.00050*%
%ADD37R,0.01450X0.00050*%
%ADD38R,0.01750X0.00050*%
%ADD39R,0.01850X0.00050*%
%ADD40R,0.01900X0.00050*%
%ADD41R,0.01950X0.00050*%
%ADD42R,0.02000X0.00050*%
%ADD43R,0.02100X0.00050*%
%ADD44R,0.02050X0.00050*%
%ADD45R,0.02150X0.00050*%
%ADD46R,0.02200X0.00050*%
%ADD47R,0.02250X0.00050*%
%ADD48R,0.02300X0.00050*%
%ADD49R,0.02350X0.00050*%
%ADD50R,0.02400X0.00050*%
%ADD51R,0.02450X0.00050*%
%ADD52R,0.02500X0.00050*%
%ADD53R,0.02550X0.00050*%
%ADD54R,0.02600X0.00050*%
%ADD55R,0.02650X0.00050*%
%ADD56R,0.02700X0.00050*%
%ADD57R,0.02750X0.00050*%
%ADD58R,0.02800X0.00050*%
%ADD59R,0.02900X0.00050*%
%ADD60R,0.02850X0.00050*%
%ADD61R,0.05850X0.00050*%
%ADD62R,0.06000X0.00050*%
%ADD63R,0.05950X0.00050*%
%ADD64R,0.06100X0.00050*%
%ADD65R,0.06200X0.00050*%
%ADD66R,0.05800X0.00050*%
%ADD67R,0.06300X0.00050*%
%ADD68R,0.05750X0.00050*%
%ADD69R,0.05900X0.00050*%
%ADD70R,0.06500X0.00050*%
%ADD71C,0.00500*%
%ADD72C,0.00039*%
D10*
X0009000Y0020119D02*
X0009000Y0118119D01*
X0258000Y0118119D01*
X0258000Y0020119D01*
X0009000Y0020119D01*
D11*
X0012117Y0029769D02*
X0013085Y0030736D01*
X0013085Y0032671D01*
X0014097Y0032671D02*
X0015064Y0032671D01*
X0014580Y0032671D02*
X0014580Y0029769D01*
X0014097Y0029769D02*
X0015064Y0029769D01*
X0016061Y0029769D02*
X0016061Y0032671D01*
X0017996Y0029769D01*
X0017996Y0032671D01*
X0020150Y0032671D02*
X0020150Y0030252D01*
X0020634Y0029769D01*
X0021601Y0029769D01*
X0022085Y0030252D01*
X0022085Y0032671D01*
X0023097Y0032187D02*
X0023097Y0031704D01*
X0023580Y0031220D01*
X0024548Y0031220D01*
X0025031Y0030736D01*
X0025031Y0030252D01*
X0024548Y0029769D01*
X0023580Y0029769D01*
X0023097Y0030252D01*
X0023097Y0032187D02*
X0023580Y0032671D01*
X0024548Y0032671D01*
X0025031Y0032187D01*
X0026043Y0032671D02*
X0027494Y0032671D01*
X0027978Y0032187D01*
X0027978Y0031704D01*
X0027494Y0031220D01*
X0026043Y0031220D01*
X0026043Y0029769D02*
X0026043Y0032671D01*
X0029150Y0032187D02*
X0029634Y0032671D01*
X0030601Y0032671D01*
X0031085Y0032187D01*
X0031085Y0031704D01*
X0030601Y0031220D01*
X0031085Y0030736D01*
X0031085Y0030252D01*
X0030601Y0029769D01*
X0029634Y0029769D01*
X0029150Y0030252D01*
X0027978Y0030252D02*
X0027494Y0029769D01*
X0026043Y0029769D01*
X0027978Y0030252D02*
X0027978Y0030736D01*
X0027494Y0031220D01*
X0030117Y0031220D02*
X0030601Y0031220D01*
X0032097Y0030252D02*
X0032097Y0029769D01*
X0032580Y0029769D01*
X0032580Y0030252D01*
X0032097Y0030252D01*
X0033570Y0030252D02*
X0034054Y0029769D01*
X0035021Y0029769D01*
X0035505Y0030252D01*
X0035505Y0030736D01*
X0035021Y0031220D01*
X0034537Y0031220D01*
X0035021Y0031220D02*
X0035505Y0031704D01*
X0035505Y0032187D01*
X0035021Y0032671D01*
X0034054Y0032671D01*
X0033570Y0032187D01*
X0036516Y0032671D02*
X0036516Y0030736D01*
X0037484Y0029769D01*
X0038451Y0030736D01*
X0038451Y0032671D01*
X0040150Y0032187D02*
X0040150Y0030252D01*
X0040634Y0029769D01*
X0041601Y0029769D01*
X0042085Y0030252D01*
X0042085Y0031220D01*
X0041117Y0031220D01*
X0040150Y0032187D02*
X0040634Y0032671D01*
X0041601Y0032671D01*
X0042085Y0032187D01*
X0043097Y0032671D02*
X0045031Y0029769D01*
X0045031Y0032671D01*
X0046043Y0032671D02*
X0047494Y0032671D01*
X0047978Y0032187D01*
X0047978Y0030252D01*
X0047494Y0029769D01*
X0046043Y0029769D01*
X0046043Y0032671D01*
X0043097Y0032671D02*
X0043097Y0029769D01*
X0051150Y0029769D02*
X0051150Y0032671D01*
X0052601Y0032671D01*
X0053085Y0032187D01*
X0053085Y0031220D01*
X0052601Y0030736D01*
X0051150Y0030736D01*
X0054097Y0030252D02*
X0054580Y0029769D01*
X0055548Y0029769D01*
X0056031Y0030252D01*
X0056031Y0032187D01*
X0054097Y0030252D01*
X0054097Y0032187D01*
X0054580Y0032671D01*
X0055548Y0032671D01*
X0056031Y0032187D01*
X0061150Y0032671D02*
X0061150Y0029769D01*
X0061150Y0030736D02*
X0062601Y0030736D01*
X0063085Y0031220D01*
X0063085Y0032187D01*
X0062601Y0032671D01*
X0061150Y0032671D01*
X0064097Y0031704D02*
X0065064Y0032671D01*
X0065064Y0029769D01*
X0064097Y0029769D02*
X0066031Y0029769D01*
X0071150Y0029769D02*
X0071150Y0032671D01*
X0072601Y0032671D01*
X0073085Y0032187D01*
X0073085Y0031220D01*
X0072601Y0030736D01*
X0071150Y0030736D01*
X0074097Y0029769D02*
X0076031Y0031704D01*
X0076031Y0032187D01*
X0075548Y0032671D01*
X0074580Y0032671D01*
X0074097Y0032187D01*
X0074097Y0029769D02*
X0076031Y0029769D01*
X0081150Y0029769D02*
X0081150Y0032671D01*
X0082601Y0032671D01*
X0083085Y0032187D01*
X0083085Y0031220D01*
X0082601Y0030736D01*
X0081150Y0030736D01*
X0084097Y0030252D02*
X0084580Y0029769D01*
X0085548Y0029769D01*
X0086031Y0030252D01*
X0086031Y0030736D01*
X0085548Y0031220D01*
X0085064Y0031220D01*
X0085548Y0031220D02*
X0086031Y0031704D01*
X0086031Y0032187D01*
X0085548Y0032671D01*
X0084580Y0032671D01*
X0084097Y0032187D01*
X0091150Y0032671D02*
X0091150Y0029769D01*
X0091150Y0030736D02*
X0092601Y0030736D01*
X0093085Y0031220D01*
X0093085Y0032187D01*
X0092601Y0032671D01*
X0091150Y0032671D01*
X0094097Y0031220D02*
X0095548Y0032671D01*
X0095548Y0029769D01*
X0096031Y0031220D02*
X0094097Y0031220D01*
X0101150Y0030736D02*
X0102601Y0030736D01*
X0103085Y0031220D01*
X0103085Y0032187D01*
X0102601Y0032671D01*
X0101150Y0032671D01*
X0101150Y0029769D01*
X0104097Y0030252D02*
X0104580Y0029769D01*
X0105548Y0029769D01*
X0106031Y0030252D01*
X0106031Y0031220D01*
X0105548Y0031704D01*
X0105064Y0031704D01*
X0104097Y0031220D01*
X0104097Y0032671D01*
X0106031Y0032671D01*
X0111150Y0032671D02*
X0112601Y0032671D01*
X0113085Y0032187D01*
X0113085Y0031220D01*
X0112601Y0030736D01*
X0111150Y0030736D01*
X0111150Y0029769D02*
X0111150Y0032671D01*
X0114097Y0031220D02*
X0115064Y0032187D01*
X0116031Y0032671D01*
X0115548Y0031220D02*
X0114097Y0031220D01*
X0114097Y0030252D01*
X0114580Y0029769D01*
X0115548Y0029769D01*
X0116031Y0030252D01*
X0116031Y0030736D01*
X0115548Y0031220D01*
X0121650Y0030736D02*
X0123101Y0030736D01*
X0123585Y0031220D01*
X0123585Y0032187D01*
X0123101Y0032671D01*
X0121650Y0032671D01*
X0121650Y0029769D01*
X0124597Y0029769D02*
X0124597Y0030252D01*
X0126531Y0032187D01*
X0126531Y0032671D01*
X0124597Y0032671D01*
X0131150Y0032671D02*
X0132601Y0032671D01*
X0133085Y0032187D01*
X0133085Y0031220D01*
X0132601Y0030736D01*
X0131150Y0030736D01*
X0131150Y0029769D02*
X0131150Y0032671D01*
X0134097Y0032187D02*
X0134097Y0031704D01*
X0134580Y0031220D01*
X0135548Y0031220D01*
X0136031Y0030736D01*
X0136031Y0030252D01*
X0135548Y0029769D01*
X0134580Y0029769D01*
X0134097Y0030252D01*
X0134097Y0030736D01*
X0134580Y0031220D01*
X0135548Y0031220D02*
X0136031Y0031704D01*
X0136031Y0032187D01*
X0135548Y0032671D01*
X0134580Y0032671D01*
X0134097Y0032187D01*
X0140650Y0032671D02*
X0140650Y0029769D01*
X0140650Y0030736D02*
X0142101Y0030736D01*
X0142585Y0031220D01*
X0142585Y0032187D01*
X0142101Y0032671D01*
X0140650Y0032671D01*
X0143597Y0032187D02*
X0143597Y0031704D01*
X0144080Y0031220D01*
X0145531Y0031220D01*
X0145531Y0032187D02*
X0145531Y0030252D01*
X0145048Y0029769D01*
X0144080Y0029769D01*
X0143597Y0030252D01*
X0143597Y0032187D02*
X0144080Y0032671D01*
X0145048Y0032671D01*
X0145531Y0032187D01*
X0149650Y0032671D02*
X0151101Y0032671D01*
X0151585Y0032187D01*
X0151585Y0031220D01*
X0151101Y0030736D01*
X0149650Y0030736D01*
X0149650Y0029769D02*
X0149650Y0032671D01*
X0152597Y0031704D02*
X0153564Y0032671D01*
X0153564Y0029769D01*
X0152597Y0029769D02*
X0154531Y0029769D01*
X0155543Y0030252D02*
X0157478Y0032187D01*
X0157478Y0030252D01*
X0156994Y0029769D01*
X0156027Y0029769D01*
X0155543Y0030252D01*
X0155543Y0032187D01*
X0156027Y0032671D01*
X0156994Y0032671D01*
X0157478Y0032187D01*
X0160150Y0032671D02*
X0161601Y0032671D01*
X0162085Y0032187D01*
X0162085Y0031220D01*
X0161601Y0030736D01*
X0160150Y0030736D01*
X0160150Y0029769D02*
X0160150Y0032671D01*
X0163097Y0031704D02*
X0164064Y0032671D01*
X0164064Y0029769D01*
X0163097Y0029769D02*
X0165031Y0029769D01*
X0166043Y0029769D02*
X0167978Y0029769D01*
X0167011Y0029769D02*
X0167011Y0032671D01*
X0166043Y0031704D01*
X0169650Y0032671D02*
X0169650Y0029769D01*
X0169650Y0030736D02*
X0171101Y0030736D01*
X0171585Y0031220D01*
X0171585Y0032187D01*
X0171101Y0032671D01*
X0169650Y0032671D01*
X0172597Y0031704D02*
X0173564Y0032671D01*
X0173564Y0029769D01*
X0172597Y0029769D02*
X0174531Y0029769D01*
X0175543Y0029769D02*
X0177478Y0031704D01*
X0177478Y0032187D01*
X0176994Y0032671D01*
X0176027Y0032671D01*
X0175543Y0032187D01*
X0179150Y0032671D02*
X0180601Y0032671D01*
X0181085Y0032187D01*
X0181085Y0031220D01*
X0180601Y0030736D01*
X0179150Y0030736D01*
X0179150Y0029769D02*
X0179150Y0032671D01*
X0182097Y0031704D02*
X0183064Y0032671D01*
X0183064Y0029769D01*
X0182097Y0029769D02*
X0184031Y0029769D01*
X0185043Y0030252D02*
X0185527Y0029769D01*
X0186494Y0029769D01*
X0186978Y0030252D01*
X0186978Y0030736D01*
X0186494Y0031220D01*
X0186011Y0031220D01*
X0186494Y0031220D02*
X0186978Y0031704D01*
X0186978Y0032187D01*
X0186494Y0032671D01*
X0185527Y0032671D01*
X0185043Y0032187D01*
X0189150Y0032671D02*
X0190601Y0032671D01*
X0191085Y0032187D01*
X0191085Y0031220D01*
X0190601Y0030736D01*
X0189150Y0030736D01*
X0189150Y0029769D02*
X0189150Y0032671D01*
X0192097Y0031704D02*
X0193064Y0032671D01*
X0193064Y0029769D01*
X0192097Y0029769D02*
X0194031Y0029769D01*
X0195043Y0031220D02*
X0196978Y0031220D01*
X0196494Y0032671D02*
X0195043Y0031220D01*
X0196494Y0029769D02*
X0196494Y0032671D01*
X0199150Y0032671D02*
X0200601Y0032671D01*
X0201085Y0032187D01*
X0201085Y0031220D01*
X0200601Y0030736D01*
X0199150Y0030736D01*
X0199150Y0029769D02*
X0199150Y0032671D01*
X0202097Y0031704D02*
X0203064Y0032671D01*
X0203064Y0029769D01*
X0202097Y0029769D02*
X0204031Y0029769D01*
X0205043Y0030252D02*
X0205527Y0029769D01*
X0206494Y0029769D01*
X0206978Y0030252D01*
X0206978Y0031220D01*
X0206494Y0031704D01*
X0206011Y0031704D01*
X0205043Y0031220D01*
X0205043Y0032671D01*
X0206978Y0032671D01*
X0209182Y0032733D02*
X0209666Y0032249D01*
X0210634Y0032249D01*
X0211117Y0032733D01*
X0211117Y0033216D01*
X0210634Y0033700D01*
X0209666Y0033700D01*
X0209182Y0034184D01*
X0209182Y0034668D01*
X0209666Y0035151D01*
X0210634Y0035151D01*
X0211117Y0034668D01*
X0212129Y0035151D02*
X0213580Y0035151D01*
X0214064Y0034668D01*
X0214064Y0032733D01*
X0213580Y0032249D01*
X0212129Y0032249D01*
X0212129Y0035151D01*
X0215076Y0034184D02*
X0216043Y0035151D01*
X0216043Y0032249D01*
X0215076Y0032249D02*
X0217010Y0032249D01*
X0219150Y0032187D02*
X0219150Y0030252D01*
X0219634Y0029769D01*
X0220601Y0029769D01*
X0221085Y0030252D01*
X0221085Y0031220D01*
X0220117Y0031220D01*
X0219150Y0032187D02*
X0219634Y0032671D01*
X0220601Y0032671D01*
X0221085Y0032187D01*
X0222097Y0032671D02*
X0224031Y0029769D01*
X0224031Y0032671D01*
X0225043Y0032671D02*
X0226494Y0032671D01*
X0226978Y0032187D01*
X0226978Y0030252D01*
X0226494Y0029769D01*
X0225043Y0029769D01*
X0225043Y0032671D01*
X0222097Y0032671D02*
X0222097Y0029769D01*
X0229150Y0030252D02*
X0229634Y0029769D01*
X0230601Y0029769D01*
X0231085Y0030252D01*
X0231085Y0030736D01*
X0230601Y0031220D01*
X0230117Y0031220D01*
X0230601Y0031220D02*
X0231085Y0031704D01*
X0231085Y0032187D01*
X0230601Y0032671D01*
X0229634Y0032671D01*
X0229150Y0032187D01*
X0232097Y0030252D02*
X0232580Y0030252D01*
X0232580Y0029769D01*
X0232097Y0029769D01*
X0232097Y0030252D01*
X0233570Y0030252D02*
X0234054Y0029769D01*
X0235021Y0029769D01*
X0235505Y0030252D01*
X0235505Y0030736D01*
X0235021Y0031220D01*
X0234537Y0031220D01*
X0235021Y0031220D02*
X0235505Y0031704D01*
X0235505Y0032187D01*
X0235021Y0032671D01*
X0234054Y0032671D01*
X0233570Y0032187D01*
X0236516Y0032671D02*
X0236516Y0030736D01*
X0237484Y0029769D01*
X0238451Y0030736D01*
X0238451Y0032671D01*
X0240650Y0031704D02*
X0241617Y0032671D01*
X0242585Y0031704D01*
X0242585Y0029769D01*
X0243597Y0030252D02*
X0245531Y0032187D01*
X0245531Y0030252D01*
X0245048Y0029769D01*
X0244080Y0029769D01*
X0243597Y0030252D01*
X0243597Y0032187D01*
X0244080Y0032671D01*
X0245048Y0032671D01*
X0245531Y0032187D01*
X0242585Y0031220D02*
X0240650Y0031220D01*
X0240650Y0031704D02*
X0240650Y0029769D01*
X0250650Y0029769D02*
X0250650Y0031704D01*
X0251617Y0032671D01*
X0252585Y0031704D01*
X0252585Y0029769D01*
X0253597Y0029769D02*
X0255531Y0029769D01*
X0254564Y0029769D02*
X0254564Y0032671D01*
X0253597Y0031704D01*
X0252585Y0031220D02*
X0250650Y0031220D01*
X0177478Y0029769D02*
X0175543Y0029769D01*
X0173001Y0036819D02*
X0171066Y0036819D01*
X0172033Y0036819D02*
X0172033Y0039721D01*
X0171066Y0038754D01*
X0169087Y0039721D02*
X0169087Y0036819D01*
X0170054Y0036819D02*
X0168119Y0036819D01*
X0167108Y0036819D02*
X0166140Y0037786D01*
X0166624Y0037786D02*
X0165173Y0037786D01*
X0165173Y0036819D02*
X0165173Y0039721D01*
X0166624Y0039721D01*
X0167108Y0039237D01*
X0167108Y0038270D01*
X0166624Y0037786D01*
X0168119Y0038754D02*
X0169087Y0039721D01*
X0169087Y0042819D02*
X0169087Y0045721D01*
X0168119Y0044754D01*
X0167108Y0045237D02*
X0167108Y0044270D01*
X0166624Y0043786D01*
X0165173Y0043786D01*
X0166140Y0043786D02*
X0167108Y0042819D01*
X0168119Y0042819D02*
X0170054Y0042819D01*
X0171066Y0043302D02*
X0173001Y0045237D01*
X0173001Y0043302D01*
X0172517Y0042819D01*
X0171549Y0042819D01*
X0171066Y0043302D01*
X0171066Y0045237D01*
X0171549Y0045721D01*
X0172517Y0045721D01*
X0173001Y0045237D01*
X0167108Y0045237D02*
X0166624Y0045721D01*
X0165173Y0045721D01*
X0165173Y0042819D01*
X0166156Y0049319D02*
X0167124Y0049319D01*
X0167608Y0049802D01*
X0168619Y0049319D02*
X0170554Y0049319D01*
X0169587Y0049319D02*
X0169587Y0052221D01*
X0168619Y0051254D01*
X0167608Y0051737D02*
X0167124Y0052221D01*
X0166156Y0052221D01*
X0165673Y0051737D01*
X0165673Y0049802D01*
X0166156Y0049319D01*
X0171566Y0049802D02*
X0171566Y0050770D01*
X0173017Y0050770D01*
X0173501Y0050286D01*
X0173501Y0049802D01*
X0173017Y0049319D01*
X0172049Y0049319D01*
X0171566Y0049802D01*
X0171566Y0050770D02*
X0172533Y0051737D01*
X0173501Y0052221D01*
X0172517Y0054819D02*
X0171549Y0054819D01*
X0171066Y0055302D01*
X0171549Y0056270D02*
X0173001Y0056270D01*
X0173001Y0057237D02*
X0173001Y0055302D01*
X0172517Y0054819D01*
X0171549Y0056270D02*
X0171066Y0056754D01*
X0171066Y0057237D01*
X0171549Y0057721D01*
X0172517Y0057721D01*
X0173001Y0057237D01*
X0170054Y0057237D02*
X0170054Y0056270D01*
X0169570Y0055786D01*
X0168119Y0055786D01*
X0168119Y0054819D02*
X0168119Y0057721D01*
X0169570Y0057721D01*
X0170054Y0057237D01*
X0169087Y0055786D02*
X0170054Y0054819D01*
X0170054Y0060819D02*
X0169087Y0061786D01*
X0169570Y0061786D02*
X0168119Y0061786D01*
X0168119Y0060819D02*
X0168119Y0063721D01*
X0169570Y0063721D01*
X0170054Y0063237D01*
X0170054Y0062270D01*
X0169570Y0061786D01*
X0171066Y0061786D02*
X0171549Y0062270D01*
X0172517Y0062270D01*
X0173001Y0061786D01*
X0173001Y0061302D01*
X0172517Y0060819D01*
X0171549Y0060819D01*
X0171066Y0061302D01*
X0171066Y0061786D01*
X0171549Y0062270D02*
X0171066Y0062754D01*
X0171066Y0063237D01*
X0171549Y0063721D01*
X0172517Y0063721D01*
X0173001Y0063237D01*
X0173001Y0062754D01*
X0172517Y0062270D01*
X0171066Y0066819D02*
X0171066Y0067302D01*
X0173001Y0069237D01*
X0173001Y0069721D01*
X0171066Y0069721D01*
X0170054Y0069237D02*
X0170054Y0068270D01*
X0169570Y0067786D01*
X0168119Y0067786D01*
X0168119Y0066819D02*
X0168119Y0069721D01*
X0169570Y0069721D01*
X0170054Y0069237D01*
X0169087Y0067786D02*
X0170054Y0066819D01*
X0170054Y0072819D02*
X0169087Y0073786D01*
X0169570Y0073786D02*
X0168119Y0073786D01*
X0168119Y0072819D02*
X0168119Y0075721D01*
X0169570Y0075721D01*
X0170054Y0075237D01*
X0170054Y0074270D01*
X0169570Y0073786D01*
X0171066Y0074270D02*
X0171066Y0073302D01*
X0171549Y0072819D01*
X0172517Y0072819D01*
X0173001Y0073302D01*
X0173001Y0073786D01*
X0172517Y0074270D01*
X0171066Y0074270D01*
X0172033Y0075237D01*
X0173001Y0075721D01*
X0168382Y0080048D02*
X0168382Y0080532D01*
X0170317Y0082467D01*
X0170317Y0082951D01*
X0168382Y0082951D01*
X0166403Y0082951D02*
X0166403Y0080048D01*
X0167370Y0080048D02*
X0165435Y0080048D01*
X0164424Y0080532D02*
X0163940Y0080048D01*
X0162972Y0080048D01*
X0162489Y0080532D01*
X0162489Y0082467D01*
X0162972Y0082951D01*
X0163940Y0082951D01*
X0164424Y0082467D01*
X0165435Y0081983D02*
X0166403Y0082951D01*
X0153686Y0077921D02*
X0152234Y0076470D01*
X0154169Y0076470D01*
X0153686Y0075019D02*
X0153686Y0077921D01*
X0151223Y0077437D02*
X0150739Y0077921D01*
X0149772Y0077921D01*
X0149288Y0077437D01*
X0149288Y0075502D01*
X0149772Y0075019D01*
X0150739Y0075019D01*
X0151223Y0075502D01*
X0150011Y0090269D02*
X0150978Y0091236D01*
X0150978Y0093171D01*
X0149043Y0093171D02*
X0149043Y0091236D01*
X0150011Y0090269D01*
X0148031Y0090269D02*
X0146097Y0090269D01*
X0146097Y0093171D01*
X0148031Y0093171D01*
X0147064Y0091720D02*
X0146097Y0091720D01*
X0145085Y0091720D02*
X0144601Y0091236D01*
X0143150Y0091236D01*
X0143150Y0090269D02*
X0143150Y0093171D01*
X0144601Y0093171D01*
X0145085Y0092687D01*
X0145085Y0091720D01*
X0144117Y0091236D02*
X0145085Y0090269D01*
X0139674Y0092204D02*
X0139190Y0092204D01*
X0138223Y0091236D01*
X0138223Y0090269D02*
X0138223Y0092204D01*
X0137211Y0091720D02*
X0137211Y0091236D01*
X0135276Y0091236D01*
X0135276Y0090752D02*
X0135276Y0091720D01*
X0135760Y0092204D01*
X0136728Y0092204D01*
X0137211Y0091720D01*
X0135760Y0090269D02*
X0135276Y0090752D01*
X0135760Y0090269D02*
X0136728Y0090269D01*
X0134272Y0090269D02*
X0132821Y0091236D01*
X0134272Y0092204D01*
X0132821Y0093171D02*
X0132821Y0090269D01*
X0131809Y0090269D02*
X0130358Y0090269D01*
X0129875Y0090752D01*
X0129875Y0091720D01*
X0130358Y0092204D01*
X0131809Y0092204D01*
X0128394Y0092204D02*
X0128394Y0090269D01*
X0127910Y0090269D02*
X0128878Y0090269D01*
X0126913Y0090269D02*
X0125946Y0090269D01*
X0126430Y0090269D02*
X0126430Y0093171D01*
X0125946Y0093171D01*
X0124934Y0093171D02*
X0122999Y0093171D01*
X0122999Y0090269D01*
X0121988Y0089785D02*
X0120053Y0089785D01*
X0119056Y0090269D02*
X0118572Y0090752D01*
X0118572Y0092687D01*
X0118088Y0092204D02*
X0119056Y0092204D01*
X0116608Y0092204D02*
X0116608Y0090269D01*
X0116124Y0090269D02*
X0117092Y0090269D01*
X0115113Y0090752D02*
X0114629Y0090269D01*
X0113178Y0090269D01*
X0113178Y0093171D01*
X0114629Y0093171D01*
X0115113Y0092687D01*
X0115113Y0092204D01*
X0114629Y0091720D01*
X0113178Y0091720D01*
X0114629Y0091720D02*
X0115113Y0091236D01*
X0115113Y0090752D01*
X0116124Y0092204D02*
X0116608Y0092204D01*
X0116608Y0093171D02*
X0116608Y0093655D01*
X0122999Y0091720D02*
X0123967Y0091720D01*
X0127910Y0092204D02*
X0128394Y0092204D01*
X0128394Y0093171D02*
X0128394Y0093655D01*
X0130772Y0100019D02*
X0131739Y0100019D01*
X0132223Y0100502D01*
X0133234Y0100502D02*
X0133718Y0100019D01*
X0134686Y0100019D01*
X0135169Y0100502D01*
X0135169Y0100986D01*
X0134686Y0101470D01*
X0134202Y0101470D01*
X0134686Y0101470D02*
X0135169Y0101954D01*
X0135169Y0102437D01*
X0134686Y0102921D01*
X0133718Y0102921D01*
X0133234Y0102437D01*
X0132223Y0102437D02*
X0131739Y0102921D01*
X0130772Y0102921D01*
X0130288Y0102437D01*
X0130288Y0100502D01*
X0130772Y0100019D01*
X0129310Y0105069D02*
X0129310Y0107971D01*
X0130762Y0107971D01*
X0131245Y0107487D01*
X0131245Y0106520D01*
X0130762Y0106036D01*
X0129310Y0106036D01*
X0127138Y0106520D02*
X0125203Y0106520D01*
X0126655Y0107971D01*
X0126655Y0105069D01*
X0124192Y0105069D02*
X0122257Y0105069D01*
X0124192Y0107004D01*
X0124192Y0107487D01*
X0123708Y0107971D01*
X0122741Y0107971D01*
X0122257Y0107487D01*
X0121245Y0107487D02*
X0121245Y0106520D01*
X0120762Y0106036D01*
X0119310Y0106036D01*
X0119310Y0105069D02*
X0119310Y0107971D01*
X0120762Y0107971D01*
X0121245Y0107487D01*
X0117138Y0107971D02*
X0115203Y0107971D01*
X0115203Y0106520D01*
X0116171Y0107004D01*
X0116655Y0107004D01*
X0117138Y0106520D01*
X0117138Y0105552D01*
X0116655Y0105069D01*
X0115687Y0105069D01*
X0115203Y0105552D01*
X0114192Y0105069D02*
X0112257Y0105069D01*
X0114192Y0107004D01*
X0114192Y0107487D01*
X0113708Y0107971D01*
X0112741Y0107971D01*
X0112257Y0107487D01*
X0111245Y0107487D02*
X0111245Y0106520D01*
X0110762Y0106036D01*
X0109310Y0106036D01*
X0109310Y0105069D02*
X0109310Y0107971D01*
X0110762Y0107971D01*
X0111245Y0107487D01*
X0107138Y0107971D02*
X0106171Y0107487D01*
X0105203Y0106520D01*
X0106655Y0106520D01*
X0107138Y0106036D01*
X0107138Y0105552D01*
X0106655Y0105069D01*
X0105687Y0105069D01*
X0105203Y0105552D01*
X0105203Y0106520D01*
X0104192Y0107004D02*
X0102257Y0105069D01*
X0104192Y0105069D01*
X0104192Y0107004D02*
X0104192Y0107487D01*
X0103708Y0107971D01*
X0102741Y0107971D01*
X0102257Y0107487D01*
X0101245Y0107487D02*
X0101245Y0106520D01*
X0100762Y0106036D01*
X0099310Y0106036D01*
X0099310Y0105069D02*
X0099310Y0107971D01*
X0100762Y0107971D01*
X0101245Y0107487D01*
X0097138Y0107487D02*
X0095203Y0105552D01*
X0095203Y0105069D01*
X0094192Y0105069D02*
X0092257Y0105069D01*
X0094192Y0107004D01*
X0094192Y0107487D01*
X0093708Y0107971D01*
X0092741Y0107971D01*
X0092257Y0107487D01*
X0091245Y0107487D02*
X0091245Y0106520D01*
X0090762Y0106036D01*
X0089310Y0106036D01*
X0089310Y0105069D02*
X0089310Y0107971D01*
X0090762Y0107971D01*
X0091245Y0107487D01*
X0095203Y0107971D02*
X0097138Y0107971D01*
X0097138Y0107487D01*
X0087138Y0107487D02*
X0087138Y0107004D01*
X0086655Y0106520D01*
X0085687Y0106520D01*
X0085203Y0107004D01*
X0085203Y0107487D01*
X0085687Y0107971D01*
X0086655Y0107971D01*
X0087138Y0107487D01*
X0086655Y0106520D02*
X0087138Y0106036D01*
X0087138Y0105552D01*
X0086655Y0105069D01*
X0085687Y0105069D01*
X0085203Y0105552D01*
X0085203Y0106036D01*
X0085687Y0106520D01*
X0084192Y0107004D02*
X0082257Y0105069D01*
X0084192Y0105069D01*
X0084192Y0107004D02*
X0084192Y0107487D01*
X0083708Y0107971D01*
X0082741Y0107971D01*
X0082257Y0107487D01*
X0081245Y0107487D02*
X0081245Y0106520D01*
X0080762Y0106036D01*
X0079310Y0106036D01*
X0079310Y0105069D02*
X0079310Y0107971D01*
X0080762Y0107971D01*
X0081245Y0107487D01*
X0077138Y0107487D02*
X0076655Y0107971D01*
X0075687Y0107971D01*
X0075203Y0107487D01*
X0075203Y0107004D01*
X0075687Y0106520D01*
X0077138Y0106520D01*
X0077138Y0107487D02*
X0077138Y0105552D01*
X0076655Y0105069D01*
X0075687Y0105069D01*
X0075203Y0105552D01*
X0074192Y0105069D02*
X0072257Y0105069D01*
X0074192Y0107004D01*
X0074192Y0107487D01*
X0073708Y0107971D01*
X0072741Y0107971D01*
X0072257Y0107487D01*
X0071245Y0107487D02*
X0071245Y0106520D01*
X0070762Y0106036D01*
X0069310Y0106036D01*
X0069310Y0105069D02*
X0069310Y0107971D01*
X0070762Y0107971D01*
X0071245Y0107487D01*
X0067138Y0107487D02*
X0065203Y0105552D01*
X0065687Y0105069D01*
X0066655Y0105069D01*
X0067138Y0105552D01*
X0067138Y0107487D01*
X0066655Y0107971D01*
X0065687Y0107971D01*
X0065203Y0107487D01*
X0065203Y0105552D01*
X0064192Y0105552D02*
X0064192Y0106036D01*
X0063708Y0106520D01*
X0063224Y0106520D01*
X0063708Y0106520D02*
X0064192Y0107004D01*
X0064192Y0107487D01*
X0063708Y0107971D01*
X0062741Y0107971D01*
X0062257Y0107487D01*
X0061245Y0107487D02*
X0061245Y0106520D01*
X0060762Y0106036D01*
X0059310Y0106036D01*
X0059310Y0105069D02*
X0059310Y0107971D01*
X0060762Y0107971D01*
X0061245Y0107487D01*
X0062257Y0105552D02*
X0062741Y0105069D01*
X0063708Y0105069D01*
X0064192Y0105552D01*
X0057138Y0105069D02*
X0055203Y0105069D01*
X0056171Y0105069D02*
X0056171Y0107971D01*
X0055203Y0107004D01*
X0054192Y0107004D02*
X0053708Y0106520D01*
X0054192Y0106036D01*
X0054192Y0105552D01*
X0053708Y0105069D01*
X0052741Y0105069D01*
X0052257Y0105552D01*
X0053224Y0106520D02*
X0053708Y0106520D01*
X0054192Y0107004D02*
X0054192Y0107487D01*
X0053708Y0107971D01*
X0052741Y0107971D01*
X0052257Y0107487D01*
X0051245Y0107487D02*
X0051245Y0106520D01*
X0050762Y0106036D01*
X0049310Y0106036D01*
X0049310Y0105069D02*
X0049310Y0107971D01*
X0050762Y0107971D01*
X0051245Y0107487D01*
X0047138Y0107487D02*
X0047138Y0105552D01*
X0046655Y0105069D01*
X0045203Y0105069D01*
X0045203Y0107971D01*
X0046655Y0107971D01*
X0047138Y0107487D01*
X0044192Y0107971D02*
X0044192Y0105069D01*
X0042257Y0107971D01*
X0042257Y0105069D01*
X0041245Y0105552D02*
X0041245Y0106520D01*
X0040278Y0106520D01*
X0041245Y0107487D02*
X0040762Y0107971D01*
X0039794Y0107971D01*
X0039310Y0107487D01*
X0039310Y0105552D01*
X0039794Y0105069D01*
X0040762Y0105069D01*
X0041245Y0105552D01*
X0037138Y0106036D02*
X0037138Y0107971D01*
X0035203Y0107971D02*
X0035203Y0106036D01*
X0036171Y0105069D01*
X0037138Y0106036D01*
X0034192Y0106036D02*
X0034192Y0105552D01*
X0033708Y0105069D01*
X0032741Y0105069D01*
X0032257Y0105552D01*
X0031267Y0105552D02*
X0031267Y0105069D01*
X0030784Y0105069D01*
X0030784Y0105552D01*
X0031267Y0105552D01*
X0029772Y0105552D02*
X0029772Y0106036D01*
X0029288Y0106520D01*
X0028805Y0106520D01*
X0029288Y0106520D02*
X0029772Y0107004D01*
X0029772Y0107487D01*
X0029288Y0107971D01*
X0028321Y0107971D01*
X0027837Y0107487D01*
X0026138Y0107487D02*
X0026138Y0107004D01*
X0025655Y0106520D01*
X0024203Y0106520D01*
X0023192Y0106036D02*
X0023192Y0105552D01*
X0022708Y0105069D01*
X0021741Y0105069D01*
X0021257Y0105552D01*
X0020245Y0105552D02*
X0020245Y0107971D01*
X0021257Y0107487D02*
X0021257Y0107004D01*
X0021741Y0106520D01*
X0022708Y0106520D01*
X0023192Y0106036D01*
X0024203Y0105069D02*
X0025655Y0105069D01*
X0026138Y0105552D01*
X0026138Y0106036D01*
X0025655Y0106520D01*
X0026138Y0107487D02*
X0025655Y0107971D01*
X0024203Y0107971D01*
X0024203Y0105069D01*
X0027837Y0105552D02*
X0028321Y0105069D01*
X0029288Y0105069D01*
X0029772Y0105552D01*
X0033224Y0106520D02*
X0033708Y0106520D01*
X0034192Y0106036D01*
X0033708Y0106520D02*
X0034192Y0107004D01*
X0034192Y0107487D01*
X0033708Y0107971D01*
X0032741Y0107971D01*
X0032257Y0107487D01*
X0023192Y0107487D02*
X0022708Y0107971D01*
X0021741Y0107971D01*
X0021257Y0107487D01*
X0018310Y0107971D02*
X0018310Y0105552D01*
X0018794Y0105069D01*
X0019762Y0105069D01*
X0020245Y0105552D01*
X0016638Y0105069D02*
X0016638Y0107971D01*
X0014703Y0107971D02*
X0016638Y0105069D01*
X0014703Y0105069D02*
X0014703Y0107971D01*
X0013707Y0107971D02*
X0012739Y0107971D01*
X0013223Y0107971D02*
X0013223Y0105069D01*
X0012739Y0105069D02*
X0013707Y0105069D01*
X0011728Y0106036D02*
X0011728Y0107971D01*
X0011728Y0106036D02*
X0010760Y0105069D01*
X0009793Y0106036D01*
X0009793Y0107971D01*
X0009931Y0103350D02*
X0009448Y0102866D01*
X0009448Y0101899D01*
X0009931Y0101415D01*
X0009931Y0103350D02*
X0010415Y0103350D01*
X0012350Y0101415D01*
X0012350Y0103350D01*
X0012350Y0100404D02*
X0012350Y0098469D01*
X0009448Y0098469D01*
X0012220Y0095788D02*
X0012220Y0093853D01*
X0012220Y0094820D02*
X0009318Y0094820D01*
X0010285Y0093853D01*
X0009318Y0092841D02*
X0009318Y0091874D01*
X0009318Y0092358D02*
X0011736Y0092358D01*
X0012220Y0091874D01*
X0012220Y0091390D01*
X0011736Y0090906D01*
X0017350Y0088671D02*
X0018801Y0088671D01*
X0019285Y0088187D01*
X0019285Y0087220D01*
X0018801Y0086736D01*
X0017350Y0086736D01*
X0017350Y0085769D02*
X0017350Y0088671D01*
X0018317Y0086736D02*
X0019285Y0085769D01*
X0020297Y0085769D02*
X0022231Y0085769D01*
X0021264Y0085769D02*
X0021264Y0088671D01*
X0020297Y0087704D01*
X0023243Y0087220D02*
X0023243Y0086252D01*
X0023727Y0085769D01*
X0024694Y0085769D01*
X0025178Y0086252D01*
X0025178Y0086736D01*
X0024694Y0087220D01*
X0023243Y0087220D01*
X0024211Y0088187D01*
X0025178Y0088671D01*
X0047788Y0085937D02*
X0047788Y0084002D01*
X0048272Y0083519D01*
X0049239Y0083519D01*
X0049723Y0084002D01*
X0050734Y0083519D02*
X0052669Y0083519D01*
X0051702Y0083519D02*
X0051702Y0086421D01*
X0050734Y0085454D01*
X0049723Y0085937D02*
X0049239Y0086421D01*
X0048272Y0086421D01*
X0047788Y0085937D01*
X0047851Y0079384D02*
X0047851Y0076481D01*
X0049786Y0076481D01*
X0050797Y0076481D02*
X0052732Y0076481D01*
X0051765Y0076481D02*
X0051765Y0079384D01*
X0050797Y0078416D01*
X0051764Y0073671D02*
X0051764Y0070769D01*
X0050797Y0070769D02*
X0052731Y0070769D01*
X0053743Y0071252D02*
X0054227Y0070769D01*
X0055194Y0070769D01*
X0055678Y0071252D01*
X0055678Y0073187D01*
X0055194Y0073671D01*
X0054227Y0073671D01*
X0053743Y0073187D01*
X0053743Y0072704D01*
X0054227Y0072220D01*
X0055678Y0072220D01*
X0051764Y0073671D02*
X0050797Y0072704D01*
X0049785Y0073187D02*
X0049301Y0073671D01*
X0048334Y0073671D01*
X0047850Y0073187D01*
X0047850Y0071252D01*
X0048334Y0070769D01*
X0049301Y0070769D01*
X0049785Y0071252D01*
X0049739Y0067421D02*
X0050223Y0066937D01*
X0050223Y0065970D01*
X0049739Y0065486D01*
X0048288Y0065486D01*
X0049255Y0065486D02*
X0050223Y0064519D01*
X0051234Y0064519D02*
X0053169Y0064519D01*
X0052202Y0064519D02*
X0052202Y0067421D01*
X0051234Y0066454D01*
X0049739Y0067421D02*
X0048288Y0067421D01*
X0048288Y0064519D01*
X0048288Y0061421D02*
X0049739Y0061421D01*
X0050223Y0060937D01*
X0050223Y0059970D01*
X0049739Y0059486D01*
X0048288Y0059486D01*
X0049255Y0059486D02*
X0050223Y0058519D01*
X0051234Y0058519D02*
X0053169Y0058519D01*
X0052202Y0058519D02*
X0052202Y0061421D01*
X0051234Y0060454D01*
X0054181Y0060937D02*
X0054665Y0061421D01*
X0055632Y0061421D01*
X0056116Y0060937D01*
X0056116Y0060454D01*
X0054181Y0058519D01*
X0056116Y0058519D01*
X0055694Y0056171D02*
X0056178Y0055687D01*
X0056178Y0055204D01*
X0055694Y0054720D01*
X0054727Y0054720D01*
X0054243Y0055204D01*
X0054243Y0055687D01*
X0054727Y0056171D01*
X0055694Y0056171D01*
X0055694Y0054720D02*
X0056178Y0054236D01*
X0056178Y0053752D01*
X0055694Y0053269D01*
X0054727Y0053269D01*
X0054243Y0053752D01*
X0054243Y0054236D01*
X0054727Y0054720D01*
X0053231Y0053269D02*
X0051297Y0053269D01*
X0052264Y0053269D02*
X0052264Y0056171D01*
X0051297Y0055204D01*
X0050285Y0055687D02*
X0049801Y0056171D01*
X0048834Y0056171D01*
X0048350Y0055687D01*
X0048350Y0053752D01*
X0048834Y0053269D01*
X0049801Y0053269D01*
X0050285Y0053752D01*
X0048288Y0058519D02*
X0048288Y0061421D01*
X0054181Y0065002D02*
X0054665Y0064519D01*
X0055632Y0064519D01*
X0056116Y0065002D01*
X0056116Y0065486D01*
X0055632Y0065970D01*
X0055148Y0065970D01*
X0055632Y0065970D02*
X0056116Y0066454D01*
X0056116Y0066937D01*
X0055632Y0067421D01*
X0054665Y0067421D01*
X0054181Y0066937D01*
X0064288Y0060937D02*
X0064772Y0061421D01*
X0065739Y0061421D01*
X0066223Y0060937D01*
X0067234Y0061421D02*
X0069169Y0061421D01*
X0069169Y0060937D01*
X0067234Y0059002D01*
X0067234Y0058519D01*
X0066223Y0059002D02*
X0065739Y0058519D01*
X0064772Y0058519D01*
X0064288Y0059002D01*
X0064288Y0060937D01*
X0072626Y0051045D02*
X0074078Y0051045D01*
X0074561Y0050561D01*
X0074561Y0049594D01*
X0074078Y0049110D01*
X0072626Y0049110D01*
X0072626Y0048143D02*
X0072626Y0051045D01*
X0075573Y0051045D02*
X0075573Y0048143D01*
X0077508Y0048143D01*
X0078519Y0048626D02*
X0079003Y0048143D01*
X0079971Y0048143D01*
X0080454Y0048626D01*
X0080454Y0049110D01*
X0079971Y0049594D01*
X0079003Y0049594D01*
X0078519Y0050078D01*
X0078519Y0050561D01*
X0079003Y0051045D01*
X0079971Y0051045D01*
X0080454Y0050561D01*
X0081466Y0051045D02*
X0081466Y0048143D01*
X0083401Y0048143D01*
X0085380Y0048143D02*
X0085380Y0051045D01*
X0086347Y0051045D02*
X0084412Y0051045D01*
X0083401Y0051045D02*
X0081466Y0051045D01*
X0081466Y0049594D02*
X0082433Y0049594D01*
X0077508Y0051045D02*
X0075573Y0051045D01*
X0075573Y0049594D02*
X0076540Y0049594D01*
X0074561Y0048143D02*
X0073594Y0049110D01*
X0065169Y0047437D02*
X0064686Y0047921D01*
X0063718Y0047921D01*
X0063234Y0047437D01*
X0062223Y0047437D02*
X0062223Y0046470D01*
X0061739Y0045986D01*
X0060288Y0045986D01*
X0061255Y0045986D02*
X0062223Y0045019D01*
X0063234Y0045019D02*
X0065169Y0046954D01*
X0065169Y0047437D01*
X0062223Y0047437D02*
X0061739Y0047921D01*
X0060288Y0047921D01*
X0060288Y0045019D01*
X0063234Y0045019D02*
X0065169Y0045019D01*
X0064202Y0040421D02*
X0064202Y0037519D01*
X0065169Y0037519D02*
X0063234Y0037519D01*
X0062223Y0037519D02*
X0061255Y0038486D01*
X0061739Y0038486D02*
X0060288Y0038486D01*
X0060288Y0037519D02*
X0060288Y0040421D01*
X0061739Y0040421D01*
X0062223Y0039937D01*
X0062223Y0038970D01*
X0061739Y0038486D01*
X0063234Y0039454D02*
X0064202Y0040421D01*
X0066788Y0037921D02*
X0068239Y0037921D01*
X0068723Y0037437D01*
X0068723Y0036470D01*
X0068239Y0035986D01*
X0066788Y0035986D01*
X0067755Y0035986D02*
X0068723Y0035019D01*
X0069734Y0035019D02*
X0071669Y0035019D01*
X0070702Y0035019D02*
X0070702Y0037921D01*
X0069734Y0036954D01*
X0072681Y0036470D02*
X0074616Y0036470D01*
X0074132Y0035019D02*
X0074132Y0037921D01*
X0072681Y0036470D01*
X0066788Y0035019D02*
X0066788Y0037921D01*
X0101874Y0044012D02*
X0102358Y0043529D01*
X0103326Y0043529D01*
X0103809Y0044012D01*
X0103809Y0046431D01*
X0104821Y0045463D02*
X0105788Y0046431D01*
X0105788Y0043529D01*
X0104821Y0043529D02*
X0106756Y0043529D01*
X0101874Y0044012D02*
X0101874Y0046431D01*
X0112288Y0043937D02*
X0112288Y0042002D01*
X0112772Y0041519D01*
X0113739Y0041519D01*
X0114223Y0042002D01*
X0115234Y0042002D02*
X0115718Y0041519D01*
X0116686Y0041519D01*
X0117169Y0042002D01*
X0117169Y0042486D01*
X0116686Y0042970D01*
X0115234Y0042970D01*
X0115234Y0042002D01*
X0115234Y0042970D02*
X0116202Y0043937D01*
X0117169Y0044421D01*
X0114223Y0043937D02*
X0113739Y0044421D01*
X0112772Y0044421D01*
X0112288Y0043937D01*
X0092186Y0075519D02*
X0091218Y0075519D01*
X0090734Y0076002D01*
X0090734Y0076970D02*
X0091702Y0077454D01*
X0092186Y0077454D01*
X0092669Y0076970D01*
X0092669Y0076002D01*
X0092186Y0075519D01*
X0090734Y0076970D02*
X0090734Y0078421D01*
X0092669Y0078421D01*
X0089723Y0077937D02*
X0089239Y0078421D01*
X0088272Y0078421D01*
X0087788Y0077937D01*
X0087788Y0076002D01*
X0088272Y0075519D01*
X0089239Y0075519D01*
X0089723Y0076002D01*
X0090097Y0090269D02*
X0090097Y0092204D01*
X0091064Y0092204D02*
X0090097Y0091236D01*
X0089085Y0091720D02*
X0088601Y0091236D01*
X0087150Y0091236D01*
X0087150Y0090269D02*
X0087150Y0093171D01*
X0088601Y0093171D01*
X0089085Y0092687D01*
X0089085Y0091720D01*
X0091064Y0092204D02*
X0091548Y0092204D01*
X0092552Y0091720D02*
X0092552Y0090752D01*
X0093036Y0090269D01*
X0094003Y0090269D01*
X0094487Y0090752D01*
X0094487Y0091720D01*
X0094003Y0092204D01*
X0093036Y0092204D01*
X0092552Y0091720D01*
X0095498Y0092204D02*
X0096950Y0092204D01*
X0097433Y0091720D01*
X0097433Y0090752D01*
X0096950Y0090269D01*
X0095498Y0090269D01*
X0095498Y0089301D02*
X0095498Y0092204D01*
X0098445Y0089785D02*
X0100380Y0089785D01*
X0101391Y0090269D02*
X0102843Y0090269D01*
X0103326Y0090752D01*
X0103326Y0092687D01*
X0102843Y0093171D01*
X0101391Y0093171D01*
X0101391Y0090269D01*
X0104338Y0090752D02*
X0104338Y0091720D01*
X0104822Y0092204D01*
X0105789Y0092204D01*
X0106273Y0091720D01*
X0106273Y0091236D01*
X0104338Y0091236D01*
X0104338Y0090752D02*
X0104822Y0090269D01*
X0105789Y0090269D01*
X0107285Y0092204D02*
X0108252Y0090269D01*
X0109220Y0092204D01*
X0110231Y0089785D02*
X0112166Y0089785D01*
X0088116Y0097437D02*
X0086181Y0095502D01*
X0086181Y0095019D01*
X0085169Y0095019D02*
X0083234Y0095019D01*
X0084202Y0095019D02*
X0084202Y0097921D01*
X0083234Y0096954D01*
X0082223Y0097437D02*
X0082223Y0096470D01*
X0081739Y0095986D01*
X0080288Y0095986D01*
X0081255Y0095986D02*
X0082223Y0095019D01*
X0080288Y0095019D02*
X0080288Y0097921D01*
X0081739Y0097921D01*
X0082223Y0097437D01*
X0086181Y0097921D02*
X0088116Y0097921D01*
X0088116Y0097437D01*
X0071634Y0098989D02*
X0071150Y0098505D01*
X0070183Y0098505D01*
X0069699Y0098989D01*
X0068687Y0098989D02*
X0068687Y0101407D01*
X0069699Y0100924D02*
X0070183Y0101407D01*
X0071150Y0101407D01*
X0071634Y0100924D01*
X0071634Y0100440D01*
X0071150Y0099956D01*
X0071634Y0099472D01*
X0071634Y0098989D01*
X0071150Y0099956D02*
X0070666Y0099956D01*
X0068687Y0098989D02*
X0068204Y0098505D01*
X0067236Y0098505D01*
X0066752Y0098989D01*
X0066752Y0101407D01*
X0061116Y0100921D02*
X0059181Y0100921D01*
X0059181Y0099470D01*
X0060148Y0099954D01*
X0060632Y0099954D01*
X0061116Y0099470D01*
X0061116Y0098502D01*
X0060632Y0098019D01*
X0059665Y0098019D01*
X0059181Y0098502D01*
X0058169Y0098019D02*
X0056234Y0098019D01*
X0057202Y0098019D02*
X0057202Y0100921D01*
X0056234Y0099954D01*
X0055223Y0100437D02*
X0054739Y0100921D01*
X0053772Y0100921D01*
X0053288Y0100437D01*
X0053288Y0098502D01*
X0053772Y0098019D01*
X0054739Y0098019D01*
X0055223Y0098502D01*
X0051031Y0101687D02*
X0049097Y0099752D01*
X0049097Y0099269D01*
X0048085Y0099752D02*
X0048085Y0102171D01*
X0049097Y0102171D02*
X0051031Y0102171D01*
X0051031Y0101687D01*
X0048085Y0099752D02*
X0047601Y0099269D01*
X0046634Y0099269D01*
X0046150Y0099752D01*
X0046150Y0102171D01*
X0132257Y0105069D02*
X0134192Y0107004D01*
X0134192Y0107487D01*
X0133708Y0107971D01*
X0132741Y0107971D01*
X0132257Y0107487D01*
X0135203Y0107487D02*
X0135687Y0107971D01*
X0136655Y0107971D01*
X0137138Y0107487D01*
X0137138Y0107004D01*
X0136655Y0106520D01*
X0137138Y0106036D01*
X0137138Y0105552D01*
X0136655Y0105069D01*
X0135687Y0105069D01*
X0135203Y0105552D01*
X0134192Y0105069D02*
X0132257Y0105069D01*
X0136171Y0106520D02*
X0136655Y0106520D01*
X0139310Y0106036D02*
X0140762Y0106036D01*
X0141245Y0106520D01*
X0141245Y0107487D01*
X0140762Y0107971D01*
X0139310Y0107971D01*
X0139310Y0105069D01*
X0142257Y0105069D02*
X0144192Y0107004D01*
X0144192Y0107487D01*
X0143708Y0107971D01*
X0142741Y0107971D01*
X0142257Y0107487D01*
X0145203Y0107487D02*
X0145687Y0107971D01*
X0146655Y0107971D01*
X0147138Y0107487D01*
X0147138Y0107004D01*
X0145203Y0105069D01*
X0147138Y0105069D01*
X0149310Y0105069D02*
X0149310Y0107971D01*
X0150762Y0107971D01*
X0151245Y0107487D01*
X0151245Y0106520D01*
X0150762Y0106036D01*
X0149310Y0106036D01*
X0152257Y0105069D02*
X0154192Y0107004D01*
X0154192Y0107487D01*
X0153708Y0107971D01*
X0152741Y0107971D01*
X0152257Y0107487D01*
X0155203Y0107004D02*
X0156171Y0107971D01*
X0156171Y0105069D01*
X0157138Y0105069D02*
X0155203Y0105069D01*
X0154192Y0105069D02*
X0152257Y0105069D01*
X0144192Y0105069D02*
X0142257Y0105069D01*
X0159310Y0105069D02*
X0159310Y0107971D01*
X0160762Y0107971D01*
X0161245Y0107487D01*
X0161245Y0106520D01*
X0160762Y0106036D01*
X0159310Y0106036D01*
X0162257Y0105069D02*
X0164192Y0107004D01*
X0164192Y0107487D01*
X0163708Y0107971D01*
X0162741Y0107971D01*
X0162257Y0107487D01*
X0165203Y0107487D02*
X0165687Y0107971D01*
X0166655Y0107971D01*
X0167138Y0107487D01*
X0165203Y0105552D01*
X0165687Y0105069D01*
X0166655Y0105069D01*
X0167138Y0105552D01*
X0167138Y0107487D01*
X0165203Y0107487D02*
X0165203Y0105552D01*
X0164192Y0105069D02*
X0162257Y0105069D01*
X0169310Y0105069D02*
X0169310Y0107971D01*
X0170762Y0107971D01*
X0171245Y0107487D01*
X0171245Y0106520D01*
X0170762Y0106036D01*
X0169310Y0106036D01*
X0172257Y0105069D02*
X0174192Y0105069D01*
X0173224Y0105069D02*
X0173224Y0107971D01*
X0172257Y0107004D01*
X0175203Y0107004D02*
X0175687Y0106520D01*
X0177138Y0106520D01*
X0177138Y0107487D02*
X0177138Y0105552D01*
X0176655Y0105069D01*
X0175687Y0105069D01*
X0175203Y0105552D01*
X0175203Y0107004D02*
X0175203Y0107487D01*
X0175687Y0107971D01*
X0176655Y0107971D01*
X0177138Y0107487D01*
X0179310Y0107971D02*
X0180762Y0107971D01*
X0181245Y0107487D01*
X0181245Y0106520D01*
X0180762Y0106036D01*
X0179310Y0106036D01*
X0179310Y0105069D02*
X0179310Y0107971D01*
X0182257Y0107004D02*
X0183224Y0107971D01*
X0183224Y0105069D01*
X0182257Y0105069D02*
X0184192Y0105069D01*
X0185203Y0105552D02*
X0185203Y0106036D01*
X0185687Y0106520D01*
X0186655Y0106520D01*
X0187138Y0106036D01*
X0187138Y0105552D01*
X0186655Y0105069D01*
X0185687Y0105069D01*
X0185203Y0105552D01*
X0185687Y0106520D02*
X0185203Y0107004D01*
X0185203Y0107487D01*
X0185687Y0107971D01*
X0186655Y0107971D01*
X0187138Y0107487D01*
X0187138Y0107004D01*
X0186655Y0106520D01*
X0189310Y0106036D02*
X0190762Y0106036D01*
X0191245Y0106520D01*
X0191245Y0107487D01*
X0190762Y0107971D01*
X0189310Y0107971D01*
X0189310Y0105069D01*
X0192257Y0105069D02*
X0194192Y0105069D01*
X0193224Y0105069D02*
X0193224Y0107971D01*
X0192257Y0107004D01*
X0195203Y0107971D02*
X0197138Y0107971D01*
X0197138Y0107487D01*
X0195203Y0105552D01*
X0195203Y0105069D01*
X0199310Y0105069D02*
X0199310Y0107971D01*
X0200762Y0107971D01*
X0201245Y0107487D01*
X0201245Y0106520D01*
X0200762Y0106036D01*
X0199310Y0106036D01*
X0202257Y0105069D02*
X0204192Y0105069D01*
X0203224Y0105069D02*
X0203224Y0107971D01*
X0202257Y0107004D01*
X0205203Y0106520D02*
X0205203Y0105552D01*
X0205687Y0105069D01*
X0206655Y0105069D01*
X0207138Y0105552D01*
X0207138Y0106036D01*
X0206655Y0106520D01*
X0205203Y0106520D01*
X0206171Y0107487D01*
X0207138Y0107971D01*
X0210339Y0107258D02*
X0210339Y0104839D01*
X0210823Y0104355D01*
X0211790Y0104355D01*
X0212274Y0104839D01*
X0212274Y0107258D01*
X0213285Y0107258D02*
X0213285Y0105807D01*
X0214253Y0106290D01*
X0214737Y0106290D01*
X0215220Y0105807D01*
X0215220Y0104839D01*
X0214737Y0104355D01*
X0213769Y0104355D01*
X0213285Y0104839D01*
X0213285Y0107258D02*
X0215220Y0107258D01*
X0218310Y0107487D02*
X0218310Y0105552D01*
X0218794Y0105069D01*
X0219762Y0105069D01*
X0220245Y0105552D01*
X0220245Y0106520D01*
X0219278Y0106520D01*
X0220245Y0107487D02*
X0219762Y0107971D01*
X0218794Y0107971D01*
X0218310Y0107487D01*
X0221257Y0107971D02*
X0223192Y0105069D01*
X0223192Y0107971D01*
X0224203Y0107971D02*
X0225655Y0107971D01*
X0226138Y0107487D01*
X0226138Y0105552D01*
X0225655Y0105069D01*
X0224203Y0105069D01*
X0224203Y0107971D01*
X0221257Y0107971D02*
X0221257Y0105069D01*
X0228837Y0105552D02*
X0229321Y0105069D01*
X0230288Y0105069D01*
X0230772Y0105552D01*
X0230772Y0106036D01*
X0230288Y0106520D01*
X0229805Y0106520D01*
X0230288Y0106520D02*
X0230772Y0107004D01*
X0230772Y0107487D01*
X0230288Y0107971D01*
X0229321Y0107971D01*
X0228837Y0107487D01*
X0233257Y0107487D02*
X0233741Y0107971D01*
X0234708Y0107971D01*
X0235192Y0107487D01*
X0235192Y0107004D01*
X0234708Y0106520D01*
X0235192Y0106036D01*
X0235192Y0105552D01*
X0234708Y0105069D01*
X0233741Y0105069D01*
X0233257Y0105552D01*
X0232267Y0105552D02*
X0232267Y0105069D01*
X0231784Y0105069D01*
X0231784Y0105552D01*
X0232267Y0105552D01*
X0234224Y0106520D02*
X0234708Y0106520D01*
X0236203Y0106036D02*
X0237171Y0105069D01*
X0238138Y0106036D01*
X0238138Y0107971D01*
X0236203Y0107971D02*
X0236203Y0106036D01*
X0241257Y0106520D02*
X0243192Y0106520D01*
X0243192Y0107004D02*
X0243192Y0105069D01*
X0244203Y0105069D02*
X0246138Y0107004D01*
X0246138Y0107487D01*
X0245655Y0107971D01*
X0244687Y0107971D01*
X0244203Y0107487D01*
X0243192Y0107004D02*
X0242224Y0107971D01*
X0241257Y0107004D01*
X0241257Y0105069D01*
X0244203Y0105069D02*
X0246138Y0105069D01*
X0250257Y0105069D02*
X0250257Y0107004D01*
X0251224Y0107971D01*
X0252192Y0107004D01*
X0252192Y0105069D01*
X0253203Y0105552D02*
X0253687Y0105069D01*
X0254655Y0105069D01*
X0255138Y0105552D01*
X0255138Y0106036D01*
X0254655Y0106520D01*
X0254171Y0106520D01*
X0254655Y0106520D02*
X0255138Y0107004D01*
X0255138Y0107487D01*
X0254655Y0107971D01*
X0253687Y0107971D01*
X0253203Y0107487D01*
X0252192Y0106520D02*
X0250257Y0106520D01*
X0187501Y0101770D02*
X0185566Y0101770D01*
X0187017Y0103221D01*
X0187017Y0100319D01*
X0184554Y0100319D02*
X0182619Y0100319D01*
X0183587Y0100319D02*
X0183587Y0103221D01*
X0182619Y0102254D01*
X0181608Y0102737D02*
X0181124Y0103221D01*
X0180156Y0103221D01*
X0179673Y0102737D01*
X0179673Y0100802D01*
X0180156Y0100319D01*
X0181124Y0100319D01*
X0181608Y0100802D01*
X0155904Y0093171D02*
X0155904Y0090269D01*
X0156871Y0090269D02*
X0154936Y0090269D01*
X0154936Y0092204D02*
X0155904Y0093171D01*
X0026603Y0047372D02*
X0024668Y0044469D01*
X0023657Y0044469D02*
X0022689Y0045437D01*
X0023173Y0045437D02*
X0021722Y0045437D01*
X0021722Y0044469D02*
X0021722Y0047372D01*
X0023173Y0047372D01*
X0023657Y0046888D01*
X0023657Y0045921D01*
X0023173Y0045437D01*
X0024668Y0047372D02*
X0026603Y0044469D01*
X0020710Y0047372D02*
X0018775Y0044469D01*
X0017764Y0044469D02*
X0015829Y0047372D01*
X0014817Y0047372D02*
X0012882Y0047372D01*
X0013850Y0047372D02*
X0013850Y0044469D01*
X0015829Y0044469D02*
X0017764Y0047372D01*
X0018882Y0039372D02*
X0020334Y0039372D01*
X0020817Y0038888D01*
X0020817Y0037921D01*
X0020334Y0037437D01*
X0018882Y0037437D01*
X0018882Y0036469D02*
X0018882Y0039372D01*
X0021829Y0039372D02*
X0021829Y0036469D01*
X0022796Y0037437D01*
X0023764Y0036469D01*
X0023764Y0039372D01*
X0024775Y0039372D02*
X0026227Y0039372D01*
X0026710Y0038888D01*
X0026710Y0037921D01*
X0026227Y0037437D01*
X0024775Y0037437D01*
X0024775Y0036469D02*
X0024775Y0039372D01*
X0025743Y0037437D02*
X0026710Y0036469D01*
X0011150Y0032671D02*
X0011150Y0030736D01*
X0012117Y0029769D01*
D12*
X0246000Y0091119D02*
X0246000Y0095119D01*
D13*
X0195500Y0092819D02*
X0189500Y0092819D01*
X0189500Y0105419D01*
X0195500Y0105419D01*
X0195500Y0092819D01*
X0186800Y0077119D02*
X0174200Y0077119D01*
X0174200Y0071119D01*
X0186800Y0071119D01*
X0186800Y0065119D01*
X0186800Y0059119D01*
X0186800Y0053119D01*
X0186800Y0047119D01*
X0174200Y0047119D01*
X0174200Y0053119D01*
X0186800Y0053119D01*
X0174200Y0053119D01*
X0174200Y0059119D01*
X0186800Y0059119D01*
X0174200Y0059119D01*
X0174200Y0065119D01*
X0186800Y0065119D01*
X0174200Y0065119D01*
X0174200Y0071119D01*
X0186800Y0071119D01*
X0186800Y0077119D01*
X0155000Y0074419D02*
X0155000Y0061819D01*
X0149000Y0061819D01*
X0149000Y0074419D01*
X0155000Y0074419D01*
X0129300Y0097119D02*
X0116700Y0097119D01*
X0116700Y0103119D01*
X0129300Y0103119D01*
X0129300Y0097119D01*
X0086000Y0094419D02*
X0086000Y0081819D01*
X0080000Y0081819D01*
X0080000Y0094419D01*
X0086000Y0094419D01*
X0065300Y0097119D02*
X0065300Y0091119D01*
X0052700Y0091119D01*
X0052700Y0097119D01*
X0065300Y0097119D01*
X0044300Y0087619D02*
X0044300Y0081619D01*
X0044300Y0075619D01*
X0044300Y0069619D01*
X0031700Y0069619D01*
X0031700Y0075619D01*
X0044300Y0075619D01*
X0031700Y0075619D01*
X0031700Y0081619D01*
X0044300Y0081619D01*
X0031700Y0081619D01*
X0031700Y0087619D01*
X0044300Y0087619D01*
X0026500Y0090319D02*
X0020500Y0090319D01*
X0020500Y0102919D01*
X0026500Y0102919D01*
X0026500Y0090319D01*
X0019500Y0090319D02*
X0013500Y0090319D01*
X0013500Y0102919D01*
X0019500Y0102919D01*
X0019500Y0090319D01*
X0031700Y0069619D02*
X0044300Y0069619D01*
X0044300Y0063619D01*
X0044300Y0057619D01*
X0044300Y0051619D01*
X0031700Y0051619D01*
X0031700Y0057619D01*
X0044300Y0057619D01*
X0031700Y0057619D01*
X0031700Y0063619D01*
X0044300Y0063619D01*
X0031700Y0063619D01*
X0031700Y0069619D01*
X0066000Y0057919D02*
X0072000Y0057919D01*
X0072000Y0045319D01*
X0066000Y0045319D01*
X0066000Y0057919D01*
X0087000Y0061819D02*
X0087000Y0074419D01*
X0093000Y0074419D01*
X0093000Y0061819D01*
X0087000Y0061819D01*
X0059300Y0049119D02*
X0059300Y0043119D01*
X0046700Y0043119D01*
X0046700Y0049119D01*
X0059300Y0049119D01*
X0066200Y0045119D02*
X0078800Y0045119D01*
X0078800Y0039119D01*
X0066200Y0039119D01*
X0066200Y0045119D01*
X0059300Y0041619D02*
X0059300Y0035619D01*
X0046700Y0035619D01*
X0046700Y0041619D01*
X0059300Y0041619D01*
X0118700Y0039619D02*
X0118700Y0045619D01*
X0131300Y0045619D01*
X0131300Y0039619D01*
X0118700Y0039619D01*
X0174200Y0041119D02*
X0174200Y0035119D01*
X0186800Y0035119D01*
X0186800Y0041119D01*
X0174200Y0041119D01*
X0174200Y0047119D01*
X0186800Y0047119D01*
X0186800Y0041119D01*
X0174200Y0041119D01*
D14*
X0045350Y0089269D02*
X0045350Y0102969D01*
X0027650Y0102969D01*
X0027650Y0089269D01*
X0045350Y0089269D01*
D15*
X0148525Y0039319D03*
X0149025Y0039569D03*
X0151325Y0039569D03*
X0151425Y0039519D03*
X0151725Y0039369D03*
X0151825Y0039319D03*
X0152125Y0039569D03*
X0150325Y0034369D03*
X0149975Y0034369D03*
D16*
X0150150Y0034419D03*
X0150150Y0034469D03*
X0149850Y0035119D03*
X0149800Y0035169D03*
X0149800Y0035219D03*
X0149750Y0035369D03*
X0149750Y0035419D03*
X0149650Y0035469D03*
X0149550Y0035619D03*
X0149550Y0035669D03*
X0149500Y0035719D03*
X0149500Y0035769D03*
X0149500Y0035819D03*
X0149500Y0035869D03*
X0149450Y0035919D03*
X0149450Y0035969D03*
X0149400Y0036019D03*
X0149400Y0036069D03*
X0149350Y0036119D03*
X0149350Y0036169D03*
X0149300Y0036219D03*
X0149300Y0036269D03*
X0149250Y0036319D03*
X0149250Y0036369D03*
X0149200Y0036419D03*
X0149200Y0036469D03*
X0149200Y0036519D03*
X0149150Y0036619D03*
X0149100Y0036569D03*
X0149050Y0036669D03*
X0149000Y0036769D03*
X0149000Y0036819D03*
X0148950Y0036869D03*
X0148950Y0036919D03*
X0148900Y0036969D03*
X0148900Y0037019D03*
X0148900Y0037069D03*
X0148850Y0037119D03*
X0148850Y0037169D03*
X0148800Y0037219D03*
X0148800Y0037269D03*
X0148750Y0037319D03*
X0148750Y0037369D03*
X0148700Y0037419D03*
X0148700Y0037469D03*
X0148650Y0037519D03*
X0148650Y0037569D03*
X0148650Y0037619D03*
X0148600Y0037669D03*
X0148600Y0037719D03*
X0148500Y0037769D03*
X0148450Y0037869D03*
X0148450Y0037919D03*
X0148400Y0037969D03*
X0148400Y0038019D03*
X0148350Y0038069D03*
X0148350Y0038119D03*
X0148350Y0038169D03*
X0148300Y0038219D03*
X0148300Y0038269D03*
X0148250Y0038319D03*
X0148250Y0038369D03*
X0148200Y0038419D03*
X0148200Y0038469D03*
X0148150Y0038519D03*
X0148150Y0038569D03*
X0148100Y0038619D03*
X0148100Y0038669D03*
X0148100Y0038719D03*
X0148050Y0038769D03*
X0148050Y0038819D03*
X0147950Y0038869D03*
X0147900Y0038969D03*
X0147900Y0039019D03*
X0147850Y0039069D03*
X0147850Y0039119D03*
X0147800Y0039169D03*
X0147800Y0039219D03*
X0147750Y0039319D03*
X0147750Y0039369D03*
X0147700Y0039419D03*
X0147700Y0039469D03*
X0147650Y0039519D03*
X0147650Y0039569D03*
X0147600Y0039619D03*
X0147600Y0039669D03*
X0147550Y0039719D03*
X0147550Y0039769D03*
X0147500Y0039819D03*
X0147500Y0039869D03*
X0147500Y0039919D03*
X0147450Y0040019D03*
X0147350Y0040069D03*
X0147300Y0040169D03*
X0147300Y0040219D03*
X0147250Y0040269D03*
X0147250Y0040319D03*
X0147200Y0040369D03*
X0147200Y0040419D03*
X0147200Y0040469D03*
X0147150Y0040519D03*
X0147150Y0040569D03*
X0147100Y0040619D03*
X0147100Y0040669D03*
X0147050Y0040719D03*
X0147050Y0040769D03*
X0147000Y0040819D03*
X0147000Y0040869D03*
X0146950Y0040919D03*
X0146950Y0040969D03*
X0146950Y0041019D03*
X0146900Y0041069D03*
X0146900Y0041119D03*
X0146800Y0041169D03*
X0146750Y0041269D03*
X0146750Y0041319D03*
X0146700Y0041369D03*
X0146700Y0041419D03*
X0146650Y0041469D03*
X0146650Y0041519D03*
X0146650Y0041569D03*
X0146600Y0041619D03*
X0146600Y0041669D03*
X0146550Y0041719D03*
X0146550Y0041769D03*
X0140950Y0042369D03*
X0140900Y0042469D03*
X0140850Y0042519D03*
X0140800Y0042619D03*
X0140750Y0042769D03*
X0140700Y0042819D03*
X0140700Y0042869D03*
X0140550Y0043019D03*
X0140450Y0043169D03*
X0140400Y0043319D03*
X0140350Y0043419D03*
X0140300Y0043519D03*
X0140250Y0043569D03*
X0140200Y0043669D03*
X0140150Y0043769D03*
X0139950Y0044069D03*
X0139900Y0044169D03*
X0139850Y0044219D03*
X0139850Y0044269D03*
X0139800Y0044319D03*
X0139750Y0044369D03*
X0139750Y0044419D03*
X0139750Y0044469D03*
X0139700Y0044519D03*
X0139650Y0044619D03*
X0139600Y0044719D03*
X0139550Y0044819D03*
X0139400Y0045019D03*
X0139350Y0045119D03*
X0139300Y0045169D03*
X0139250Y0045269D03*
X0139200Y0045369D03*
X0139150Y0045469D03*
X0139150Y0045519D03*
X0139100Y0045569D03*
X0152350Y0038919D03*
X0152350Y0038869D03*
X0152300Y0038819D03*
X0152300Y0038769D03*
X0152250Y0038719D03*
X0152250Y0038669D03*
X0152250Y0038619D03*
X0152200Y0038569D03*
X0152200Y0038519D03*
X0152150Y0038469D03*
X0152150Y0038419D03*
X0152100Y0038369D03*
X0152100Y0038319D03*
X0152050Y0038269D03*
X0152050Y0038219D03*
X0152000Y0038119D03*
X0152000Y0038069D03*
X0151900Y0038019D03*
X0151850Y0037919D03*
X0151850Y0037869D03*
X0151800Y0037819D03*
X0151800Y0037769D03*
X0151750Y0037719D03*
X0151750Y0037669D03*
X0151700Y0037619D03*
X0151700Y0037569D03*
X0151700Y0037519D03*
X0151650Y0037469D03*
X0151650Y0037419D03*
X0151600Y0037369D03*
X0151600Y0037319D03*
X0151550Y0037269D03*
X0151550Y0037219D03*
X0151500Y0037169D03*
X0151500Y0037119D03*
X0151450Y0037019D03*
X0151450Y0036969D03*
X0151350Y0036919D03*
X0151300Y0036819D03*
X0151300Y0036769D03*
X0151250Y0036719D03*
X0151250Y0036669D03*
X0151200Y0036619D03*
X0151200Y0036569D03*
X0151150Y0036519D03*
X0151150Y0036469D03*
X0151150Y0036419D03*
X0151100Y0036369D03*
X0151100Y0036319D03*
X0151050Y0036269D03*
X0151050Y0036219D03*
X0151000Y0036169D03*
X0151000Y0036119D03*
X0150950Y0036069D03*
X0150950Y0036019D03*
X0150900Y0035969D03*
X0150900Y0035919D03*
X0150750Y0035719D03*
X0150700Y0035619D03*
X0150700Y0035569D03*
X0150650Y0035519D03*
X0150650Y0035469D03*
X0150600Y0035419D03*
X0150600Y0035369D03*
X0150550Y0035319D03*
X0150550Y0035269D03*
X0150550Y0035219D03*
X0150500Y0035169D03*
X0150500Y0035119D03*
X0152400Y0038969D03*
X0152400Y0039019D03*
X0152450Y0039119D03*
X0152600Y0039319D03*
X0152650Y0039419D03*
X0152650Y0039469D03*
X0152700Y0039519D03*
X0152700Y0039569D03*
X0152750Y0039619D03*
X0152750Y0039669D03*
X0152800Y0039719D03*
X0152800Y0039769D03*
X0152850Y0039819D03*
X0152850Y0039869D03*
X0152850Y0039919D03*
X0152900Y0039969D03*
X0152900Y0040019D03*
X0152950Y0040069D03*
X0152950Y0040119D03*
X0153050Y0040319D03*
X0153150Y0040369D03*
X0153150Y0040419D03*
X0153200Y0040519D03*
X0153200Y0040569D03*
X0153250Y0040669D03*
X0153300Y0040769D03*
X0153350Y0040819D03*
X0153350Y0040869D03*
X0153400Y0040969D03*
X0153400Y0041019D03*
X0153450Y0041119D03*
X0153500Y0041169D03*
X0153500Y0041219D03*
X0153550Y0041319D03*
X0153600Y0041419D03*
X0153700Y0041519D03*
X0153750Y0041619D03*
X0153750Y0041669D03*
X0153800Y0041769D03*
X0159300Y0042319D03*
X0159400Y0042369D03*
X0159500Y0042519D03*
X0159550Y0042619D03*
X0159600Y0042769D03*
X0159650Y0042869D03*
X0159700Y0042919D03*
X0159700Y0042969D03*
X0159750Y0043019D03*
X0159800Y0043119D03*
X0159850Y0043219D03*
X0159850Y0043269D03*
X0159950Y0043319D03*
X0160000Y0043419D03*
X0160050Y0043519D03*
X0160100Y0043569D03*
X0160100Y0043619D03*
X0160150Y0043669D03*
X0160200Y0043769D03*
X0160200Y0043819D03*
X0160250Y0043919D03*
X0160300Y0043969D03*
X0160350Y0044069D03*
X0160400Y0044169D03*
X0160450Y0044269D03*
X0160550Y0044319D03*
X0160600Y0044469D03*
X0160650Y0044569D03*
X0160700Y0044619D03*
X0160700Y0044669D03*
X0160750Y0044719D03*
X0160800Y0044819D03*
X0160850Y0044869D03*
X0160900Y0045019D03*
X0160950Y0045119D03*
X0161000Y0045219D03*
X0161100Y0045269D03*
X0161150Y0045369D03*
X0161200Y0045469D03*
X0161200Y0045519D03*
X0161250Y0045569D03*
D17*
X0161175Y0045419D03*
X0161075Y0045319D03*
X0160925Y0045069D03*
X0160875Y0044969D03*
X0160875Y0044919D03*
X0160775Y0044769D03*
X0160625Y0044519D03*
X0160575Y0044419D03*
X0160575Y0044369D03*
X0160475Y0044219D03*
X0160375Y0044119D03*
X0160325Y0044019D03*
X0160225Y0043869D03*
X0160175Y0043719D03*
X0160025Y0043469D03*
X0159825Y0043169D03*
X0159775Y0043069D03*
X0159625Y0042819D03*
X0159575Y0042719D03*
X0159575Y0042669D03*
X0159525Y0042569D03*
X0159425Y0042469D03*
X0153675Y0041569D03*
X0153525Y0041269D03*
X0153125Y0040469D03*
X0153075Y0040269D03*
X0153025Y0040219D03*
X0152575Y0039369D03*
X0152575Y0039269D03*
X0152525Y0039169D03*
X0152475Y0039069D03*
X0151975Y0039769D03*
X0148325Y0039769D03*
X0147775Y0039269D03*
X0147975Y0038919D03*
X0147425Y0039969D03*
X0147375Y0040119D03*
X0146825Y0041219D03*
X0140975Y0042319D03*
X0140925Y0042419D03*
X0140825Y0042569D03*
X0140775Y0042669D03*
X0140775Y0042719D03*
X0140625Y0042919D03*
X0140525Y0043119D03*
X0140425Y0043219D03*
X0140425Y0043269D03*
X0140375Y0043369D03*
X0140325Y0043469D03*
X0140225Y0043619D03*
X0140175Y0043719D03*
X0140125Y0043819D03*
X0140075Y0043869D03*
X0139925Y0044119D03*
X0139675Y0044569D03*
X0139625Y0044669D03*
X0139575Y0044769D03*
X0139475Y0044869D03*
X0139275Y0045219D03*
X0139225Y0045319D03*
X0139175Y0045419D03*
X0148525Y0037819D03*
X0149075Y0036719D03*
X0149625Y0035569D03*
X0149775Y0035319D03*
X0149775Y0035269D03*
X0150125Y0034519D03*
X0150775Y0035669D03*
X0150825Y0035769D03*
X0150825Y0035869D03*
X0151375Y0036869D03*
X0151425Y0037069D03*
X0151925Y0037969D03*
X0151975Y0038169D03*
D18*
X0151925Y0039819D03*
X0151925Y0039869D03*
X0148325Y0039869D03*
X0148325Y0039819D03*
X0150125Y0034619D03*
X0150175Y0034569D03*
D19*
X0150175Y0034669D03*
D20*
X0150150Y0034719D03*
X0150150Y0034769D03*
X0151900Y0039919D03*
D21*
X0148425Y0039919D03*
X0150175Y0034819D03*
D22*
X0150150Y0034869D03*
D23*
X0150175Y0034919D03*
X0151825Y0039969D03*
D24*
X0148500Y0039969D03*
X0150150Y0034969D03*
D25*
X0150175Y0035019D03*
X0150175Y0035069D03*
D26*
X0149650Y0035519D03*
X0153600Y0041369D03*
X0159400Y0042419D03*
X0159950Y0043369D03*
X0161000Y0045169D03*
X0140600Y0042969D03*
X0140550Y0043069D03*
X0140050Y0043919D03*
X0140000Y0044019D03*
X0139450Y0044919D03*
X0139450Y0044969D03*
X0139400Y0045069D03*
D27*
X0140025Y0043969D03*
X0152525Y0039219D03*
X0152975Y0040169D03*
X0153225Y0040619D03*
X0153275Y0040719D03*
X0153375Y0040919D03*
X0153425Y0041069D03*
X0153775Y0041719D03*
X0150825Y0035819D03*
D28*
X0151900Y0039219D03*
X0148600Y0039369D03*
X0148450Y0039219D03*
X0148400Y0039169D03*
X0153250Y0041869D03*
X0161100Y0045769D03*
D29*
X0161100Y0045719D03*
X0150150Y0039869D03*
X0150150Y0039819D03*
X0149150Y0039619D03*
X0148900Y0039519D03*
X0148800Y0039469D03*
X0148700Y0039419D03*
X0148500Y0039269D03*
X0148200Y0039569D03*
X0151550Y0039469D03*
X0151650Y0039419D03*
X0151850Y0039269D03*
X0139200Y0045719D03*
D30*
X0148250Y0039619D03*
X0150800Y0039719D03*
X0152050Y0039669D03*
X0152100Y0039619D03*
D31*
X0151175Y0039619D03*
D32*
X0152000Y0039719D03*
X0148250Y0039669D03*
D33*
X0149325Y0039669D03*
X0149525Y0039719D03*
X0151025Y0039669D03*
X0161175Y0045669D03*
X0139175Y0045669D03*
D34*
X0139150Y0045619D03*
X0148300Y0039719D03*
X0153650Y0041469D03*
X0161200Y0045619D03*
D35*
X0150200Y0039769D03*
D36*
X0151750Y0040019D03*
X0148550Y0040019D03*
D37*
X0148650Y0040069D03*
X0151700Y0040069D03*
D38*
X0151550Y0040119D03*
X0148750Y0040119D03*
D39*
X0148750Y0040169D03*
X0151500Y0040169D03*
D40*
X0151525Y0040269D03*
X0148775Y0040269D03*
X0148775Y0040219D03*
D41*
X0151500Y0040219D03*
X0151550Y0040319D03*
D42*
X0148775Y0040319D03*
X0148775Y0040369D03*
D43*
X0148725Y0040469D03*
X0151525Y0040469D03*
X0151525Y0040419D03*
X0151525Y0040369D03*
D44*
X0148750Y0040419D03*
D45*
X0148700Y0040519D03*
X0151550Y0040519D03*
D46*
X0151525Y0040569D03*
X0148725Y0040569D03*
D47*
X0148700Y0040619D03*
X0148700Y0040669D03*
X0151550Y0040669D03*
X0151550Y0040619D03*
D48*
X0148675Y0040719D03*
D49*
X0148700Y0040769D03*
X0151550Y0040769D03*
X0151550Y0040719D03*
D50*
X0151575Y0040869D03*
X0148675Y0040819D03*
D51*
X0151600Y0040819D03*
D52*
X0148725Y0040869D03*
X0148675Y0040919D03*
X0148675Y0040969D03*
X0148675Y0041019D03*
D53*
X0148650Y0041069D03*
X0151600Y0041019D03*
X0151600Y0040969D03*
X0151600Y0040919D03*
D54*
X0151625Y0041069D03*
X0151625Y0041119D03*
D55*
X0148700Y0041119D03*
X0148700Y0041169D03*
D56*
X0148675Y0041219D03*
X0148675Y0041269D03*
X0151625Y0041219D03*
X0151625Y0041169D03*
D57*
X0151650Y0041269D03*
D58*
X0151625Y0041319D03*
X0148675Y0041319D03*
D59*
X0148675Y0041369D03*
D60*
X0151650Y0041369D03*
D61*
X0150150Y0041419D03*
X0156600Y0042169D03*
X0156600Y0042219D03*
X0143800Y0041919D03*
X0143750Y0042019D03*
X0143750Y0042069D03*
X0143750Y0042119D03*
D62*
X0150125Y0041569D03*
X0150125Y0041469D03*
D63*
X0150150Y0041519D03*
X0143700Y0042269D03*
D64*
X0150125Y0041669D03*
X0150125Y0041619D03*
D65*
X0150125Y0041719D03*
X0150125Y0041769D03*
D66*
X0156475Y0041819D03*
X0156475Y0041869D03*
X0156525Y0041969D03*
X0156575Y0042019D03*
X0156575Y0042069D03*
X0156575Y0042119D03*
X0143875Y0041869D03*
X0143875Y0041819D03*
X0143825Y0041969D03*
D67*
X0150125Y0041819D03*
D68*
X0156500Y0041919D03*
D69*
X0156625Y0042269D03*
X0143725Y0042219D03*
X0143725Y0042169D03*
D70*
X0150175Y0042219D03*
D71*
X0006750Y0019119D02*
X0006752Y0019189D01*
X0006758Y0019259D01*
X0006768Y0019328D01*
X0006781Y0019397D01*
X0006799Y0019465D01*
X0006820Y0019532D01*
X0006845Y0019597D01*
X0006874Y0019661D01*
X0006906Y0019724D01*
X0006942Y0019784D01*
X0006981Y0019842D01*
X0007023Y0019898D01*
X0007068Y0019952D01*
X0007116Y0020003D01*
X0007167Y0020051D01*
X0007221Y0020096D01*
X0007277Y0020138D01*
X0007335Y0020177D01*
X0007395Y0020213D01*
X0007458Y0020245D01*
X0007522Y0020274D01*
X0007587Y0020299D01*
X0007654Y0020320D01*
X0007722Y0020338D01*
X0007791Y0020351D01*
X0007860Y0020361D01*
X0007930Y0020367D01*
X0008000Y0020369D01*
X0008070Y0020367D01*
X0008140Y0020361D01*
X0008209Y0020351D01*
X0008278Y0020338D01*
X0008346Y0020320D01*
X0008413Y0020299D01*
X0008478Y0020274D01*
X0008542Y0020245D01*
X0008605Y0020213D01*
X0008665Y0020177D01*
X0008723Y0020138D01*
X0008779Y0020096D01*
X0008833Y0020051D01*
X0008884Y0020003D01*
X0008932Y0019952D01*
X0008977Y0019898D01*
X0009019Y0019842D01*
X0009058Y0019784D01*
X0009094Y0019724D01*
X0009126Y0019661D01*
X0009155Y0019597D01*
X0009180Y0019532D01*
X0009201Y0019465D01*
X0009219Y0019397D01*
X0009232Y0019328D01*
X0009242Y0019259D01*
X0009248Y0019189D01*
X0009250Y0019119D01*
X0009248Y0019049D01*
X0009242Y0018979D01*
X0009232Y0018910D01*
X0009219Y0018841D01*
X0009201Y0018773D01*
X0009180Y0018706D01*
X0009155Y0018641D01*
X0009126Y0018577D01*
X0009094Y0018514D01*
X0009058Y0018454D01*
X0009019Y0018396D01*
X0008977Y0018340D01*
X0008932Y0018286D01*
X0008884Y0018235D01*
X0008833Y0018187D01*
X0008779Y0018142D01*
X0008723Y0018100D01*
X0008665Y0018061D01*
X0008605Y0018025D01*
X0008542Y0017993D01*
X0008478Y0017964D01*
X0008413Y0017939D01*
X0008346Y0017918D01*
X0008278Y0017900D01*
X0008209Y0017887D01*
X0008140Y0017877D01*
X0008070Y0017871D01*
X0008000Y0017869D01*
X0007930Y0017871D01*
X0007860Y0017877D01*
X0007791Y0017887D01*
X0007722Y0017900D01*
X0007654Y0017918D01*
X0007587Y0017939D01*
X0007522Y0017964D01*
X0007458Y0017993D01*
X0007395Y0018025D01*
X0007335Y0018061D01*
X0007277Y0018100D01*
X0007221Y0018142D01*
X0007167Y0018187D01*
X0007116Y0018235D01*
X0007068Y0018286D01*
X0007023Y0018340D01*
X0006981Y0018396D01*
X0006942Y0018454D01*
X0006906Y0018514D01*
X0006874Y0018577D01*
X0006845Y0018641D01*
X0006820Y0018706D01*
X0006799Y0018773D01*
X0006781Y0018841D01*
X0006768Y0018910D01*
X0006758Y0018979D01*
X0006752Y0019049D01*
X0006750Y0019119D01*
X0008000Y0019119D02*
X0208000Y0019119D01*
X0208000Y0029119D01*
X0008000Y0029119D01*
X0008000Y0019119D01*
X0027665Y0033985D02*
X0029732Y0033985D01*
X0029732Y0042253D01*
X0027665Y0042253D01*
X0027665Y0033985D01*
X0027665Y0034077D02*
X0029732Y0034077D01*
X0029732Y0033985D02*
X0046268Y0033985D01*
X0046268Y0042253D01*
X0029732Y0042253D01*
X0029732Y0033985D01*
X0029732Y0034576D02*
X0027665Y0034576D01*
X0027665Y0035074D02*
X0029732Y0035074D01*
X0029732Y0035573D02*
X0027665Y0035573D01*
X0027665Y0036071D02*
X0029732Y0036071D01*
X0029732Y0036570D02*
X0027665Y0036570D01*
X0027665Y0037068D02*
X0029732Y0037068D01*
X0029732Y0037567D02*
X0027665Y0037567D01*
X0027665Y0038065D02*
X0029732Y0038065D01*
X0029732Y0038564D02*
X0027665Y0038564D01*
X0027665Y0039062D02*
X0029732Y0039062D01*
X0029732Y0039561D02*
X0027665Y0039561D01*
X0027665Y0040059D02*
X0029732Y0040059D01*
X0029732Y0040558D02*
X0027665Y0040558D01*
X0027665Y0041056D02*
X0029732Y0041056D01*
X0029732Y0041555D02*
X0027665Y0041555D01*
X0027665Y0041985D02*
X0029732Y0041985D01*
X0029732Y0050253D01*
X0027665Y0050253D01*
X0027665Y0041985D01*
X0027665Y0042053D02*
X0029732Y0042053D01*
X0027665Y0042053D01*
X0027665Y0042552D02*
X0029732Y0042552D01*
X0029732Y0043050D02*
X0027665Y0043050D01*
X0027665Y0043549D02*
X0029732Y0043549D01*
X0029732Y0044047D02*
X0027665Y0044047D01*
X0027665Y0044546D02*
X0029732Y0044546D01*
X0029732Y0045044D02*
X0027665Y0045044D01*
X0027665Y0045543D02*
X0029732Y0045543D01*
X0029732Y0046041D02*
X0027665Y0046041D01*
X0027665Y0046540D02*
X0029732Y0046540D01*
X0029732Y0047038D02*
X0027665Y0047038D01*
X0027665Y0047537D02*
X0029732Y0047537D01*
X0029732Y0048035D02*
X0027665Y0048035D01*
X0027665Y0048534D02*
X0029732Y0048534D01*
X0029732Y0049032D02*
X0027665Y0049032D01*
X0027665Y0049531D02*
X0029732Y0049531D01*
X0029732Y0050029D02*
X0027665Y0050029D01*
X0029732Y0050253D02*
X0046268Y0050253D01*
X0046268Y0041985D01*
X0029732Y0041985D01*
X0029732Y0050253D01*
X0029055Y0053056D02*
X0025118Y0049119D01*
X0008760Y0049119D01*
X0008760Y0089119D01*
X0025118Y0089119D01*
X0029055Y0085182D01*
X0029055Y0053056D01*
X0072701Y0052095D02*
X0072701Y0074142D01*
X0085299Y0074142D01*
X0085299Y0052095D01*
X0072701Y0052095D01*
X0074276Y0058394D02*
X0074276Y0063119D01*
X0076638Y0063119D01*
X0080575Y0064693D01*
X0081362Y0063119D02*
X0083724Y0063119D01*
X0083724Y0058394D01*
X0083724Y0063119D02*
X0083724Y0067843D01*
X0074276Y0067843D02*
X0074276Y0063119D01*
X0101724Y0052371D02*
X0101724Y0047843D01*
X0106252Y0047843D01*
X0106252Y0052371D01*
X0101724Y0052371D01*
X0101724Y0052023D02*
X0106252Y0052023D01*
X0106252Y0051525D02*
X0101724Y0051525D01*
X0101724Y0051026D02*
X0106252Y0051026D01*
X0106252Y0050528D02*
X0101724Y0050528D01*
X0101724Y0050029D02*
X0106252Y0050029D01*
X0106252Y0049531D02*
X0101724Y0049531D01*
X0101724Y0049032D02*
X0106252Y0049032D01*
X0106252Y0048534D02*
X0101724Y0048534D01*
X0101724Y0048035D02*
X0106252Y0048035D01*
X0101724Y0047843D02*
X0142276Y0047843D01*
X0142276Y0088394D01*
X0101724Y0088394D01*
X0101724Y0047843D01*
X0069707Y0076412D02*
X0069500Y0076253D01*
X0069259Y0076153D01*
X0069000Y0076119D01*
X0068741Y0076153D01*
X0068500Y0076253D01*
X0068293Y0076412D01*
X0068134Y0076619D01*
X0068034Y0076860D01*
X0068000Y0077119D01*
X0068034Y0077377D01*
X0068134Y0077619D01*
X0068293Y0077826D01*
X0068500Y0077985D01*
X0068741Y0078085D01*
X0069000Y0078119D01*
X0069259Y0078085D01*
X0069500Y0077985D01*
X0069707Y0077826D01*
X0069866Y0077619D01*
X0069966Y0077377D01*
X0070000Y0077119D01*
X0069966Y0076860D01*
X0069866Y0076619D01*
X0069707Y0076412D01*
X0069737Y0076450D02*
X0068263Y0076450D01*
X0068022Y0076949D02*
X0069978Y0076949D01*
X0069937Y0077447D02*
X0068063Y0077447D01*
X0068450Y0077946D02*
X0069550Y0077946D01*
X0066602Y0079162D02*
X0079398Y0079162D01*
X0079398Y0097075D01*
X0066602Y0097075D01*
X0066602Y0090678D01*
X0066602Y0085560D01*
X0066602Y0079162D01*
X0066602Y0085119D02*
X0066602Y0091119D01*
X0066988Y0091119D01*
X0066988Y0085119D01*
X0066602Y0085119D01*
X0066602Y0085424D02*
X0066988Y0085424D01*
X0066988Y0085922D02*
X0066602Y0085922D01*
X0066602Y0086421D02*
X0066988Y0086421D01*
X0066988Y0086919D02*
X0066602Y0086919D01*
X0066602Y0087418D02*
X0066988Y0087418D01*
X0066988Y0087916D02*
X0066602Y0087916D01*
X0066602Y0088415D02*
X0066988Y0088415D01*
X0066988Y0088913D02*
X0066602Y0088913D01*
X0066602Y0089412D02*
X0066988Y0089412D01*
X0066988Y0089910D02*
X0066602Y0089910D01*
X0066602Y0090409D02*
X0066988Y0090409D01*
X0066988Y0090907D02*
X0066602Y0090907D01*
X0006750Y0109119D02*
X0006752Y0109189D01*
X0006758Y0109259D01*
X0006768Y0109328D01*
X0006781Y0109397D01*
X0006799Y0109465D01*
X0006820Y0109532D01*
X0006845Y0109597D01*
X0006874Y0109661D01*
X0006906Y0109724D01*
X0006942Y0109784D01*
X0006981Y0109842D01*
X0007023Y0109898D01*
X0007068Y0109952D01*
X0007116Y0110003D01*
X0007167Y0110051D01*
X0007221Y0110096D01*
X0007277Y0110138D01*
X0007335Y0110177D01*
X0007395Y0110213D01*
X0007458Y0110245D01*
X0007522Y0110274D01*
X0007587Y0110299D01*
X0007654Y0110320D01*
X0007722Y0110338D01*
X0007791Y0110351D01*
X0007860Y0110361D01*
X0007930Y0110367D01*
X0008000Y0110369D01*
X0008070Y0110367D01*
X0008140Y0110361D01*
X0008209Y0110351D01*
X0008278Y0110338D01*
X0008346Y0110320D01*
X0008413Y0110299D01*
X0008478Y0110274D01*
X0008542Y0110245D01*
X0008605Y0110213D01*
X0008665Y0110177D01*
X0008723Y0110138D01*
X0008779Y0110096D01*
X0008833Y0110051D01*
X0008884Y0110003D01*
X0008932Y0109952D01*
X0008977Y0109898D01*
X0009019Y0109842D01*
X0009058Y0109784D01*
X0009094Y0109724D01*
X0009126Y0109661D01*
X0009155Y0109597D01*
X0009180Y0109532D01*
X0009201Y0109465D01*
X0009219Y0109397D01*
X0009232Y0109328D01*
X0009242Y0109259D01*
X0009248Y0109189D01*
X0009250Y0109119D01*
X0009248Y0109049D01*
X0009242Y0108979D01*
X0009232Y0108910D01*
X0009219Y0108841D01*
X0009201Y0108773D01*
X0009180Y0108706D01*
X0009155Y0108641D01*
X0009126Y0108577D01*
X0009094Y0108514D01*
X0009058Y0108454D01*
X0009019Y0108396D01*
X0008977Y0108340D01*
X0008932Y0108286D01*
X0008884Y0108235D01*
X0008833Y0108187D01*
X0008779Y0108142D01*
X0008723Y0108100D01*
X0008665Y0108061D01*
X0008605Y0108025D01*
X0008542Y0107993D01*
X0008478Y0107964D01*
X0008413Y0107939D01*
X0008346Y0107918D01*
X0008278Y0107900D01*
X0008209Y0107887D01*
X0008140Y0107877D01*
X0008070Y0107871D01*
X0008000Y0107869D01*
X0007930Y0107871D01*
X0007860Y0107877D01*
X0007791Y0107887D01*
X0007722Y0107900D01*
X0007654Y0107918D01*
X0007587Y0107939D01*
X0007522Y0107964D01*
X0007458Y0107993D01*
X0007395Y0108025D01*
X0007335Y0108061D01*
X0007277Y0108100D01*
X0007221Y0108142D01*
X0007167Y0108187D01*
X0007116Y0108235D01*
X0007068Y0108286D01*
X0007023Y0108340D01*
X0006981Y0108396D01*
X0006942Y0108454D01*
X0006906Y0108514D01*
X0006874Y0108577D01*
X0006845Y0108641D01*
X0006820Y0108706D01*
X0006799Y0108773D01*
X0006781Y0108841D01*
X0006768Y0108910D01*
X0006758Y0108979D01*
X0006752Y0109049D01*
X0006750Y0109119D01*
X0008000Y0109119D02*
X0208000Y0109119D01*
X0208000Y0119119D01*
X0008000Y0119119D01*
X0008000Y0109119D01*
X0171339Y0096780D02*
X0171339Y0092843D01*
X0171339Y0096780D02*
X0186156Y0096780D01*
X0188661Y0094275D01*
X0188661Y0092843D01*
X0185906Y0094024D02*
X0181969Y0094024D01*
X0183937Y0095993D02*
X0183937Y0092056D01*
X0194980Y0091776D02*
X0194980Y0071653D01*
X0186156Y0079457D02*
X0188661Y0081963D01*
X0188661Y0083788D01*
X0186156Y0079457D02*
X0171339Y0079457D01*
X0171339Y0083394D01*
X0194980Y0091776D02*
X0247741Y0091776D01*
X0255020Y0086363D02*
X0255020Y0036461D01*
X0253696Y0036461D01*
X0243410Y0036461D02*
X0194980Y0036461D01*
X0194980Y0039714D01*
X0218000Y0029119D02*
X0258000Y0029119D01*
X0258000Y0019119D01*
X0218000Y0019119D01*
X0216750Y0019119D02*
X0216752Y0019189D01*
X0216758Y0019259D01*
X0216768Y0019328D01*
X0216781Y0019397D01*
X0216799Y0019465D01*
X0216820Y0019532D01*
X0216845Y0019597D01*
X0216874Y0019661D01*
X0216906Y0019724D01*
X0216942Y0019784D01*
X0216981Y0019842D01*
X0217023Y0019898D01*
X0217068Y0019952D01*
X0217116Y0020003D01*
X0217167Y0020051D01*
X0217221Y0020096D01*
X0217277Y0020138D01*
X0217335Y0020177D01*
X0217395Y0020213D01*
X0217458Y0020245D01*
X0217522Y0020274D01*
X0217587Y0020299D01*
X0217654Y0020320D01*
X0217722Y0020338D01*
X0217791Y0020351D01*
X0217860Y0020361D01*
X0217930Y0020367D01*
X0218000Y0020369D01*
X0218070Y0020367D01*
X0218140Y0020361D01*
X0218209Y0020351D01*
X0218278Y0020338D01*
X0218346Y0020320D01*
X0218413Y0020299D01*
X0218478Y0020274D01*
X0218542Y0020245D01*
X0218605Y0020213D01*
X0218665Y0020177D01*
X0218723Y0020138D01*
X0218779Y0020096D01*
X0218833Y0020051D01*
X0218884Y0020003D01*
X0218932Y0019952D01*
X0218977Y0019898D01*
X0219019Y0019842D01*
X0219058Y0019784D01*
X0219094Y0019724D01*
X0219126Y0019661D01*
X0219155Y0019597D01*
X0219180Y0019532D01*
X0219201Y0019465D01*
X0219219Y0019397D01*
X0219232Y0019328D01*
X0219242Y0019259D01*
X0219248Y0019189D01*
X0219250Y0019119D01*
X0219248Y0019049D01*
X0219242Y0018979D01*
X0219232Y0018910D01*
X0219219Y0018841D01*
X0219201Y0018773D01*
X0219180Y0018706D01*
X0219155Y0018641D01*
X0219126Y0018577D01*
X0219094Y0018514D01*
X0219058Y0018454D01*
X0219019Y0018396D01*
X0218977Y0018340D01*
X0218932Y0018286D01*
X0218884Y0018235D01*
X0218833Y0018187D01*
X0218779Y0018142D01*
X0218723Y0018100D01*
X0218665Y0018061D01*
X0218605Y0018025D01*
X0218542Y0017993D01*
X0218478Y0017964D01*
X0218413Y0017939D01*
X0218346Y0017918D01*
X0218278Y0017900D01*
X0218209Y0017887D01*
X0218140Y0017877D01*
X0218070Y0017871D01*
X0218000Y0017869D01*
X0217930Y0017871D01*
X0217860Y0017877D01*
X0217791Y0017887D01*
X0217722Y0017900D01*
X0217654Y0017918D01*
X0217587Y0017939D01*
X0217522Y0017964D01*
X0217458Y0017993D01*
X0217395Y0018025D01*
X0217335Y0018061D01*
X0217277Y0018100D01*
X0217221Y0018142D01*
X0217167Y0018187D01*
X0217116Y0018235D01*
X0217068Y0018286D01*
X0217023Y0018340D01*
X0216981Y0018396D01*
X0216942Y0018454D01*
X0216906Y0018514D01*
X0216874Y0018577D01*
X0216845Y0018641D01*
X0216820Y0018706D01*
X0216799Y0018773D01*
X0216781Y0018841D01*
X0216768Y0018910D01*
X0216758Y0018979D01*
X0216752Y0019049D01*
X0216750Y0019119D01*
X0218000Y0019119D02*
X0218000Y0029119D01*
X0194980Y0049458D02*
X0194980Y0062544D01*
X0250448Y0056496D02*
X0252072Y0058120D01*
X0252072Y0057037D01*
X0254237Y0057037D01*
X0254237Y0055954D01*
X0252072Y0055954D01*
X0252072Y0054872D01*
X0250448Y0056496D01*
X0250462Y0056510D02*
X0254237Y0056510D01*
X0254237Y0056011D02*
X0250932Y0056011D01*
X0251430Y0055513D02*
X0252072Y0055513D01*
X0252072Y0055014D02*
X0251929Y0055014D01*
X0250961Y0057009D02*
X0254237Y0057009D01*
X0252072Y0057507D02*
X0251459Y0057507D01*
X0251958Y0058006D02*
X0252072Y0058006D01*
X0222780Y0092712D02*
X0222590Y0092634D01*
X0222386Y0092607D01*
X0222182Y0092634D01*
X0221992Y0092712D01*
X0221829Y0092837D01*
X0221704Y0093001D01*
X0221625Y0093190D01*
X0221598Y0093394D01*
X0221625Y0093598D01*
X0221704Y0093788D01*
X0221829Y0093951D01*
X0221992Y0094076D01*
X0222182Y0094155D01*
X0222386Y0094182D01*
X0222590Y0094155D01*
X0222780Y0094076D01*
X0222943Y0093951D01*
X0223068Y0093788D01*
X0223146Y0093598D01*
X0223173Y0093394D01*
X0223146Y0093190D01*
X0223068Y0093001D01*
X0222943Y0092837D01*
X0222780Y0092712D01*
X0222992Y0092901D02*
X0221780Y0092901D01*
X0221599Y0093400D02*
X0223172Y0093400D01*
X0222983Y0093898D02*
X0221789Y0093898D01*
X0220811Y0092607D02*
X0220811Y0103630D01*
X0213724Y0103630D01*
X0213724Y0092607D01*
X0204276Y0092607D01*
X0204276Y0103630D01*
X0213724Y0103630D01*
X0204276Y0103630D02*
X0197189Y0103630D01*
X0197189Y0092607D01*
X0204276Y0092607D01*
X0206638Y0092607D02*
X0211362Y0092607D01*
X0211362Y0094969D01*
X0206638Y0094969D01*
X0206638Y0092607D01*
X0206638Y0092901D02*
X0211362Y0092901D01*
X0211362Y0093400D02*
X0206638Y0093400D01*
X0206638Y0093898D02*
X0211362Y0093898D01*
X0211362Y0094397D02*
X0206638Y0094397D01*
X0206638Y0094895D02*
X0211362Y0094895D01*
X0213724Y0092607D02*
X0220811Y0092607D01*
X0216750Y0109119D02*
X0216752Y0109189D01*
X0216758Y0109259D01*
X0216768Y0109328D01*
X0216781Y0109397D01*
X0216799Y0109465D01*
X0216820Y0109532D01*
X0216845Y0109597D01*
X0216874Y0109661D01*
X0216906Y0109724D01*
X0216942Y0109784D01*
X0216981Y0109842D01*
X0217023Y0109898D01*
X0217068Y0109952D01*
X0217116Y0110003D01*
X0217167Y0110051D01*
X0217221Y0110096D01*
X0217277Y0110138D01*
X0217335Y0110177D01*
X0217395Y0110213D01*
X0217458Y0110245D01*
X0217522Y0110274D01*
X0217587Y0110299D01*
X0217654Y0110320D01*
X0217722Y0110338D01*
X0217791Y0110351D01*
X0217860Y0110361D01*
X0217930Y0110367D01*
X0218000Y0110369D01*
X0218070Y0110367D01*
X0218140Y0110361D01*
X0218209Y0110351D01*
X0218278Y0110338D01*
X0218346Y0110320D01*
X0218413Y0110299D01*
X0218478Y0110274D01*
X0218542Y0110245D01*
X0218605Y0110213D01*
X0218665Y0110177D01*
X0218723Y0110138D01*
X0218779Y0110096D01*
X0218833Y0110051D01*
X0218884Y0110003D01*
X0218932Y0109952D01*
X0218977Y0109898D01*
X0219019Y0109842D01*
X0219058Y0109784D01*
X0219094Y0109724D01*
X0219126Y0109661D01*
X0219155Y0109597D01*
X0219180Y0109532D01*
X0219201Y0109465D01*
X0219219Y0109397D01*
X0219232Y0109328D01*
X0219242Y0109259D01*
X0219248Y0109189D01*
X0219250Y0109119D01*
X0219248Y0109049D01*
X0219242Y0108979D01*
X0219232Y0108910D01*
X0219219Y0108841D01*
X0219201Y0108773D01*
X0219180Y0108706D01*
X0219155Y0108641D01*
X0219126Y0108577D01*
X0219094Y0108514D01*
X0219058Y0108454D01*
X0219019Y0108396D01*
X0218977Y0108340D01*
X0218932Y0108286D01*
X0218884Y0108235D01*
X0218833Y0108187D01*
X0218779Y0108142D01*
X0218723Y0108100D01*
X0218665Y0108061D01*
X0218605Y0108025D01*
X0218542Y0107993D01*
X0218478Y0107964D01*
X0218413Y0107939D01*
X0218346Y0107918D01*
X0218278Y0107900D01*
X0218209Y0107887D01*
X0218140Y0107877D01*
X0218070Y0107871D01*
X0218000Y0107869D01*
X0217930Y0107871D01*
X0217860Y0107877D01*
X0217791Y0107887D01*
X0217722Y0107900D01*
X0217654Y0107918D01*
X0217587Y0107939D01*
X0217522Y0107964D01*
X0217458Y0107993D01*
X0217395Y0108025D01*
X0217335Y0108061D01*
X0217277Y0108100D01*
X0217221Y0108142D01*
X0217167Y0108187D01*
X0217116Y0108235D01*
X0217068Y0108286D01*
X0217023Y0108340D01*
X0216981Y0108396D01*
X0216942Y0108454D01*
X0216906Y0108514D01*
X0216874Y0108577D01*
X0216845Y0108641D01*
X0216820Y0108706D01*
X0216799Y0108773D01*
X0216781Y0108841D01*
X0216768Y0108910D01*
X0216758Y0108979D01*
X0216752Y0109049D01*
X0216750Y0109119D01*
X0218000Y0109119D02*
X0258000Y0109119D01*
X0258000Y0119119D01*
X0218000Y0119119D01*
X0218000Y0109119D01*
D72*
X0015866Y0083095D02*
X0013110Y0083095D01*
X0012126Y0082111D02*
X0012128Y0082049D01*
X0012134Y0081988D01*
X0012143Y0081927D01*
X0012157Y0081866D01*
X0012174Y0081807D01*
X0012195Y0081749D01*
X0012220Y0081692D01*
X0012248Y0081637D01*
X0012279Y0081584D01*
X0012314Y0081533D01*
X0012352Y0081484D01*
X0012393Y0081437D01*
X0012436Y0081394D01*
X0012483Y0081353D01*
X0012532Y0081315D01*
X0012583Y0081280D01*
X0012636Y0081249D01*
X0012691Y0081221D01*
X0012748Y0081196D01*
X0012806Y0081175D01*
X0012865Y0081158D01*
X0012926Y0081144D01*
X0012987Y0081135D01*
X0013048Y0081129D01*
X0013110Y0081127D01*
X0015866Y0081127D01*
X0016850Y0082111D02*
X0016848Y0082173D01*
X0016842Y0082234D01*
X0016833Y0082295D01*
X0016819Y0082356D01*
X0016802Y0082415D01*
X0016781Y0082473D01*
X0016756Y0082530D01*
X0016728Y0082585D01*
X0016697Y0082638D01*
X0016662Y0082689D01*
X0016624Y0082738D01*
X0016583Y0082785D01*
X0016540Y0082828D01*
X0016493Y0082869D01*
X0016444Y0082907D01*
X0016393Y0082942D01*
X0016340Y0082973D01*
X0016285Y0083001D01*
X0016228Y0083026D01*
X0016170Y0083047D01*
X0016111Y0083064D01*
X0016050Y0083078D01*
X0015989Y0083087D01*
X0015928Y0083093D01*
X0015866Y0083095D01*
X0016850Y0082111D02*
X0016848Y0082049D01*
X0016842Y0081988D01*
X0016833Y0081927D01*
X0016819Y0081866D01*
X0016802Y0081807D01*
X0016781Y0081749D01*
X0016756Y0081692D01*
X0016728Y0081637D01*
X0016697Y0081584D01*
X0016662Y0081533D01*
X0016624Y0081484D01*
X0016583Y0081437D01*
X0016540Y0081394D01*
X0016493Y0081353D01*
X0016444Y0081315D01*
X0016393Y0081280D01*
X0016340Y0081249D01*
X0016285Y0081221D01*
X0016228Y0081196D01*
X0016170Y0081175D01*
X0016111Y0081158D01*
X0016050Y0081144D01*
X0015989Y0081135D01*
X0015928Y0081129D01*
X0015866Y0081127D01*
X0013110Y0083095D02*
X0013048Y0083093D01*
X0012987Y0083087D01*
X0012926Y0083078D01*
X0012865Y0083064D01*
X0012806Y0083047D01*
X0012748Y0083026D01*
X0012691Y0083001D01*
X0012636Y0082973D01*
X0012583Y0082942D01*
X0012532Y0082907D01*
X0012483Y0082869D01*
X0012436Y0082828D01*
X0012393Y0082785D01*
X0012352Y0082738D01*
X0012314Y0082689D01*
X0012279Y0082638D01*
X0012248Y0082585D01*
X0012220Y0082530D01*
X0012195Y0082473D01*
X0012174Y0082415D01*
X0012157Y0082356D01*
X0012143Y0082295D01*
X0012134Y0082234D01*
X0012128Y0082173D01*
X0012126Y0082111D01*
X0013110Y0057111D02*
X0015866Y0057111D01*
X0015928Y0057109D01*
X0015989Y0057103D01*
X0016050Y0057094D01*
X0016111Y0057080D01*
X0016170Y0057063D01*
X0016228Y0057042D01*
X0016285Y0057017D01*
X0016340Y0056989D01*
X0016393Y0056958D01*
X0016444Y0056923D01*
X0016493Y0056885D01*
X0016540Y0056844D01*
X0016583Y0056801D01*
X0016624Y0056754D01*
X0016662Y0056705D01*
X0016697Y0056654D01*
X0016728Y0056601D01*
X0016756Y0056546D01*
X0016781Y0056489D01*
X0016802Y0056431D01*
X0016819Y0056372D01*
X0016833Y0056311D01*
X0016842Y0056250D01*
X0016848Y0056189D01*
X0016850Y0056127D01*
X0016848Y0056065D01*
X0016842Y0056004D01*
X0016833Y0055943D01*
X0016819Y0055882D01*
X0016802Y0055823D01*
X0016781Y0055765D01*
X0016756Y0055708D01*
X0016728Y0055653D01*
X0016697Y0055600D01*
X0016662Y0055549D01*
X0016624Y0055500D01*
X0016583Y0055453D01*
X0016540Y0055410D01*
X0016493Y0055369D01*
X0016444Y0055331D01*
X0016393Y0055296D01*
X0016340Y0055265D01*
X0016285Y0055237D01*
X0016228Y0055212D01*
X0016170Y0055191D01*
X0016111Y0055174D01*
X0016050Y0055160D01*
X0015989Y0055151D01*
X0015928Y0055145D01*
X0015866Y0055143D01*
X0015866Y0055142D02*
X0013110Y0055142D01*
X0013110Y0055143D02*
X0013048Y0055145D01*
X0012987Y0055151D01*
X0012926Y0055160D01*
X0012865Y0055174D01*
X0012806Y0055191D01*
X0012748Y0055212D01*
X0012691Y0055237D01*
X0012636Y0055265D01*
X0012583Y0055296D01*
X0012532Y0055331D01*
X0012483Y0055369D01*
X0012436Y0055410D01*
X0012393Y0055453D01*
X0012352Y0055500D01*
X0012314Y0055549D01*
X0012279Y0055600D01*
X0012248Y0055653D01*
X0012220Y0055708D01*
X0012195Y0055765D01*
X0012174Y0055823D01*
X0012157Y0055882D01*
X0012143Y0055943D01*
X0012134Y0056004D01*
X0012128Y0056065D01*
X0012126Y0056127D01*
X0012128Y0056189D01*
X0012134Y0056250D01*
X0012143Y0056311D01*
X0012157Y0056372D01*
X0012174Y0056431D01*
X0012195Y0056489D01*
X0012220Y0056546D01*
X0012248Y0056601D01*
X0012279Y0056654D01*
X0012314Y0056705D01*
X0012352Y0056754D01*
X0012393Y0056801D01*
X0012436Y0056844D01*
X0012483Y0056885D01*
X0012532Y0056923D01*
X0012583Y0056958D01*
X0012636Y0056989D01*
X0012691Y0057017D01*
X0012748Y0057042D01*
X0012806Y0057063D01*
X0012865Y0057080D01*
X0012926Y0057094D01*
X0012987Y0057103D01*
X0013048Y0057109D01*
X0013110Y0057111D01*
M02*
